<svg width="24" height="24" viewBox="0 0 24 24" fill="none" xmlns="http://www.w3.org/2000/svg">
<path d="M12.3008 16.396C12.0525 15.8467 12.5108 15.2527 12.852 14.7723C13.114 14.4031 13.426 14.072 13.779 13.7887C14.0243 13.6058 14.2597 13.4099 14.484 13.2018C12.4808 13.2254 8.09664 13.3405 6.03526 13.4407C4.73626 13.5344 4.51126 13.0552 4.48651 12.7132C4.53901 11.9857 4.83039 11.2758 5.69214 11.1753C7.04889 11.0167 8.24851 10.957 9.65176 10.9259C11.1585 10.8922 13.2338 10.8524 14.6291 10.7699C14.1161 10.4107 13.347 9.99966 12.8089 9.68129C12.5321 9.51741 11.6678 9.15929 11.4866 8.61516C11.3224 8.12166 11.5961 6.97791 12.2393 7.03266C13.164 7.11216 14.625 8.09241 15.531 8.52254C16.77 9.15778 18.141 9.69516 19.1445 10.6825C19.4201 11.0114 19.6406 11.4985 19.4288 11.8979C19.1288 12.4642 17.6524 13.7587 17.196 14.137C16.2975 14.8822 15.2321 15.883 14.2496 16.666C13.5071 17.2582 12.5198 16.8805 12.3008 16.396Z" fill="white"/>
</svg>
