<svg width="60" height="60" viewBox="0 0 60 60" fill="none" xmlns="http://www.w3.org/2000/svg">
<path d="M14.0996 29.2374H32.6498C33.3106 29.2374 33.8465 28.7015 33.8465 28.0407C33.8465 27.3798 33.3106 26.8439 32.6498 26.8439H14.0996C13.4384 26.8439 12.9028 27.3798 12.9028 28.0407C12.9028 28.7015 13.4384 29.2374 14.0996 29.2374Z" fill="#FE5A86"/>
<path d="M25.2054 34.6229H14.0996C13.4384 34.6229 12.9028 35.1589 12.9028 35.8197C12.9028 36.4806 13.4384 37.0165 14.0996 37.0165H25.2054C25.8662 37.0165 26.4022 36.4806 26.4022 35.8197C26.4022 35.1589 25.8662 34.6229 25.2054 34.6229Z" fill="#FE5A86"/>
<path d="M45.9816 31.9657V11.2856C45.9808 7.98103 43.3019 5.30285 39.9976 5.30173H35.0908V3.01587C35.0908 2.35465 34.5553 1.81909 33.894 1.81909C33.2332 1.81909 32.6973 2.35465 32.6973 3.01587V5.30173H16.421V3.01587C16.421 2.35465 15.8855 1.81909 15.2242 1.81909C14.5634 1.81909 14.0274 2.35465 14.0274 3.01587V5.30173H9.12063C5.81639 5.30285 3.13821 7.98103 3.13672 11.2856V43.7065C3.13821 47.0107 5.81639 49.6889 9.12063 49.6904H31.2735C33.5761 55.5883 39.7515 59.0119 45.9737 57.8405C52.1958 56.6695 56.704 51.235 56.7051 44.9033C56.7167 38.4766 52.0851 33.115 45.9816 31.9657ZM9.13298 7.6953H14.0398V9.98115C14.0398 10.642 14.5753 11.1779 15.2366 11.1779C15.8974 11.1779 16.4334 10.642 16.4334 9.98115V7.6953H32.7096V9.98115C32.7096 10.642 33.2452 11.1779 33.9064 11.1779C34.5672 11.1779 35.1032 10.642 35.1032 9.98115V7.6953H40.01C41.9903 7.70091 43.5943 9.30497 43.6003 11.2856V14.1819H5.54263V11.2856C5.54412 9.3031 7.1508 7.69679 9.13298 7.6953ZM9.13298 47.2968C7.1523 47.2912 5.54824 45.6868 5.54263 43.7065V16.5635H43.588V31.7387H43.5521C39.6435 31.7446 35.939 33.4841 33.4385 36.4888C30.9376 39.4931 29.8994 43.4522 30.6029 47.2968H9.13298ZM43.5521 55.6743C37.6037 55.6743 32.781 50.852 32.781 44.9033C32.781 38.9545 37.6037 34.1322 43.5521 34.1322C49.5008 34.1322 54.3231 38.9545 54.3231 44.9033C54.3142 50.8483 49.4971 55.6653 43.5521 55.6743Z" fill="#FE5A86"/>
<path d="M49.0933 40.6068L41.9848 47.3926L38.3103 43.7065C37.8447 43.2405 37.0892 43.2405 36.6232 43.7065C36.1568 44.1725 36.1568 44.928 36.6232 45.3939L41.1347 49.9058C41.3591 50.1317 41.6658 50.257 41.9848 50.2529C42.2937 50.2555 42.5907 50.1351 42.8102 49.9174L50.7568 42.3178C50.9857 42.0991 51.1181 41.7987 51.1252 41.482C51.1316 41.1652 51.0123 40.8589 50.7928 40.6308C50.3268 40.1633 49.5724 40.1524 49.0933 40.6068Z" fill="#FE5A86"/>
</svg>
