<svg width="34" height="34" viewBox="0 0 34 34" fill="none" xmlns="http://www.w3.org/2000/svg">
<path d="M33.2629 25.9371C32.2016 25.0471 25.9772 21.1055 24.9426 21.2864C24.4569 21.3726 24.0854 21.7867 23.0909 22.9731C22.6309 23.557 22.1259 24.1039 21.5803 24.6087C20.5807 24.3672 19.6131 24.0086 18.6976 23.5401C15.1073 21.7922 12.2068 18.8908 10.4599 15.3C9.99143 14.3845 9.63276 13.4169 9.39129 12.4173C9.8961 11.8717 10.443 11.3666 11.0269 10.9067C12.2121 9.91222 12.6274 9.54307 12.7136 9.05493C12.8945 8.01793 8.94929 1.79593 8.06286 0.734643C7.69129 0.295071 7.35371 0 6.92143 0C5.66829 0 0 7.00886 0 7.91714C0 7.99121 0.121428 15.2879 9.33664 24.6634C18.7121 33.8786 26.0088 34 26.0829 34C26.9911 34 34 28.3317 34 27.0786C34 26.6463 33.7049 26.3087 33.2629 25.9371Z" fill="#00BBAE"/>
<path d="M25.4849 15.7858H27.9135C27.9106 13.2103 26.8862 10.7411 25.0651 8.91992C23.2439 7.09876 20.7747 6.07436 18.1992 6.07147V8.50004C20.1309 8.50197 21.9829 9.27019 23.3489 10.6361C24.7148 12.002 25.483 13.8541 25.4849 15.7858Z" fill="#00BBAE"/>
<path d="M31.5564 15.7857H33.9849C33.9801 11.6006 32.3154 7.58821 29.3561 4.62885C26.3967 1.6695 22.3844 0.00482068 18.1992 0V2.42857C21.7405 2.43275 25.1355 3.84136 27.6395 6.3454C30.1436 8.84945 31.5522 12.2445 31.5564 15.7857Z" fill="#00BBAE"/>
</svg>
