<svg width="40" height="40" viewBox="0 0 40 40" fill="none" xmlns="http://www.w3.org/2000/svg">
<path d="M4.75367 6.79688H4.73883C2.12586 6.79688 0 8.92266 0 11.5355V37.2688C0 38.7748 1.22523 40 2.73117 40H6.76125C8.26727 40 9.49242 38.7748 9.49242 37.2688V11.5355C9.49242 8.92266 7.36664 6.79688 4.75367 6.79688Z" fill="#00BBAE"/>
<path d="M38.8278 11.4845H37.6557V20.9869H14.1797V11.4845H11.8359V20.9869V22.3461V38.8281C11.8359 39.4753 12.3606 40 13.0078 40H38.8278C39.475 40 39.9997 39.4753 39.9997 38.8281V21.7879V20.9869V12.6564C39.9997 12.0092 39.475 11.4845 38.8278 11.4845ZM18.536 34.7304C18.318 34.9484 18.0157 35.0734 17.7079 35.0734C17.3993 35.0734 17.097 34.9484 16.879 34.7304C16.661 34.5117 16.536 34.2101 16.536 33.9015C16.536 33.593 16.661 33.2907 16.879 33.0727C17.097 32.8547 17.3993 32.7297 17.7079 32.7297C18.0165 32.7297 18.318 32.8547 18.536 33.0727C18.7548 33.2907 18.8798 33.593 18.8798 33.9015C18.8798 34.2101 18.7548 34.5117 18.536 34.7304ZM18.536 30.0422C18.318 30.2609 18.0164 30.3859 17.7079 30.3859C17.3993 30.3859 17.097 30.2609 16.879 30.0422C16.661 29.8242 16.536 29.5226 16.536 29.214C16.536 28.9055 16.661 28.6032 16.879 28.3852C17.097 28.1672 17.3993 28.0422 17.7079 28.0422C18.0165 28.0422 18.318 28.1672 18.536 28.3852C18.754 28.6032 18.8798 28.9055 18.8798 29.214C18.8798 29.5226 18.754 29.8242 18.536 30.0422ZM18.536 25.3547C18.318 25.5726 18.0164 25.6984 17.7079 25.6984C17.3993 25.6984 17.097 25.5727 16.879 25.3547C16.661 25.1367 16.536 24.8343 16.536 24.5265C16.536 24.218 16.661 23.9157 16.879 23.6977C17.097 23.4797 17.3993 23.3547 17.7079 23.3547C18.0157 23.3547 18.318 23.4797 18.536 23.6977C18.754 23.9157 18.8798 24.218 18.8798 24.5265C18.8798 24.8343 18.754 25.1367 18.536 25.3547ZM23.2237 34.7304C23.0057 34.9484 22.7034 35.0734 22.3955 35.0734C22.087 35.0734 21.7846 34.9484 21.5666 34.7304C21.3487 34.5117 21.2237 34.2101 21.2237 33.9015C21.2237 33.593 21.3487 33.2907 21.5666 33.0727C21.7846 32.8547 22.087 32.7297 22.3955 32.7297C22.7041 32.7297 23.0057 32.8547 23.2237 33.0727C23.4424 33.2907 23.5674 33.593 23.5674 33.9015C23.5674 34.2101 23.4424 34.5117 23.2237 34.7304ZM23.2237 30.0422C23.0057 30.2609 22.7034 30.3859 22.3955 30.3859C22.087 30.3859 21.7846 30.2609 21.5666 30.0422C21.3487 29.8242 21.2237 29.5226 21.2237 29.214C21.2237 28.9055 21.3487 28.6032 21.5666 28.3852C21.7846 28.1672 22.087 28.0422 22.3955 28.0422C22.7034 28.0422 23.0057 28.1672 23.2237 28.3852C23.4416 28.6032 23.5674 28.9055 23.5674 29.214C23.5674 29.5226 23.4416 29.8242 23.2237 30.0422ZM23.2237 25.3547C23.0057 25.5726 22.7041 25.6984 22.3955 25.6984C22.087 25.6984 21.7846 25.5727 21.5666 25.3547C21.3487 25.1367 21.2237 24.8343 21.2237 24.5265C21.2237 24.218 21.3487 23.9157 21.5666 23.6977C21.7846 23.4797 22.087 23.3547 22.3955 23.3547C22.7041 23.3547 23.0057 23.4797 23.2237 23.6977C23.4424 23.9157 23.5674 24.218 23.5674 24.5265C23.5674 24.8343 23.4424 25.1367 23.2237 25.3547ZM27.9113 34.7304C27.6933 34.9484 27.3909 35.0734 27.0831 35.0734C26.7745 35.0734 26.4722 34.9484 26.2542 34.7304C26.0363 34.5117 25.9113 34.2101 25.9113 33.9015C25.9113 33.593 26.0363 33.2907 26.2542 33.0727C26.4722 32.8547 26.7745 32.7297 27.0831 32.7297C27.3909 32.7297 27.6933 32.8547 27.9113 33.0727C28.1292 33.2907 28.255 33.593 28.255 33.9015C28.255 34.2101 28.1292 34.5117 27.9113 34.7304ZM27.9113 30.0422C27.6933 30.2609 27.3909 30.3859 27.0831 30.3859C26.7745 30.3859 26.4722 30.2609 26.2542 30.0422C26.0363 29.8242 25.9113 29.5226 25.9113 29.214C25.9113 28.9055 26.0363 28.6032 26.2542 28.3852C26.4722 28.1672 26.7745 28.0422 27.0831 28.0422C27.3909 28.0422 27.6933 28.1672 27.9113 28.3852C28.1292 28.6032 28.255 28.9055 28.255 29.214C28.255 29.5226 28.1292 29.8242 27.9113 30.0422ZM27.9113 25.3547C27.6933 25.5726 27.3916 25.6984 27.0831 25.6984C26.7745 25.6984 26.4722 25.5727 26.2542 25.3547C26.0363 25.1367 25.9113 24.8343 25.9113 24.5265C25.9113 24.218 26.0363 23.9157 26.2542 23.6977C26.4722 23.4797 26.7745 23.3547 27.0831 23.3547C27.3909 23.3547 27.6933 23.4797 27.9113 23.6977C28.1292 23.9157 28.255 24.218 28.255 24.5265C28.255 24.8343 28.1292 25.1367 27.9113 25.3547ZM34.1399 30.3857H31.7704C31.1231 30.3857 30.5985 29.8611 30.5985 29.2139C30.5985 28.5667 31.1232 28.042 31.7704 28.042H34.1399C34.7871 28.042 35.3118 28.5667 35.3118 29.2139C35.3119 29.8611 34.7872 30.3857 34.1399 30.3857ZM34.1399 25.6982H31.7704C31.1231 25.6982 30.5985 25.1735 30.5985 24.5263C30.5985 23.8791 31.1232 23.3544 31.7704 23.3544H34.1399C34.7871 23.3544 35.3118 23.8791 35.3118 24.5263C35.3119 25.1735 34.7872 25.6982 34.1399 25.6982Z" fill="#00BBAE"/>
<path d="M35.3117 1.17188C35.3117 0.524688 34.787 0 34.1398 0H17.6953C17.048 0 16.5234 0.524688 16.5234 1.17188V18.6432H35.3118V1.17188H35.3117ZM29.4522 16.4067H22.0804C21.4332 16.4067 20.9085 15.882 20.9085 15.2348C20.9085 14.5877 21.4332 14.063 22.0804 14.063H29.4522C30.0994 14.063 30.6241 14.5877 30.6241 15.2348C30.6241 15.882 30.0995 16.4067 29.4522 16.4067ZM29.4522 11.7191H22.0804C21.4332 11.7191 20.9085 11.1944 20.9085 10.5472C20.9085 9.9 21.4332 9.37531 22.0804 9.37531H29.4522C30.0994 9.37531 30.6241 9.9 30.6241 10.5472C30.6241 11.1944 30.0995 11.7191 29.4522 11.7191ZM29.4522 7.03141H22.0804C21.4332 7.03141 20.9085 6.50672 20.9085 5.85953C20.9085 5.21234 21.4332 4.68766 22.0804 4.68766H29.4522C30.0994 4.68766 30.6241 5.21234 30.6241 5.85953C30.6241 6.50672 30.0995 7.03141 29.4522 7.03141Z" fill="#00BBAE"/>
</svg>
