<svg width="76" height="64" viewBox="0 0 76 64" fill="none" xmlns="http://www.w3.org/2000/svg">
<path d="M74.2999 46.3041C74.9099 46.3041 75.4045 45.8096 75.4045 45.1995V41.8373C75.4045 37.3669 71.7675 33.73 67.2972 33.73H59.1557V24.6134C59.8389 24.9489 60.5146 25.3006 61.1822 25.6685C62.0555 26.15 63.1697 25.835 63.6654 24.9658L65.4168 21.8954C65.6624 21.4647 65.724 20.9644 65.5898 20.4868C65.4552 20.0075 65.1406 19.6106 64.704 19.3695C56.7797 14.9934 47.8487 12.601 38.8069 12.4204V10.8338L46.8135 7.72823C47.7023 7.38346 48.2765 6.54473 48.2765 5.59143C48.2765 4.63812 47.7023 3.79939 46.8135 3.45462L38.1019 0.0755603C37.3791 -0.204555 36.598 0.328725 36.598 1.1053V12.4201C32.0279 12.511 27.4751 13.1644 23.0483 14.3681C22.4596 14.5282 22.1122 15.1351 22.2722 15.7238C22.4322 16.3124 23.0395 16.6603 23.6278 16.4999C28.2197 15.2513 32.9522 14.6179 37.694 14.6171C37.6969 14.6171 37.6996 14.6176 37.7025 14.6176C37.7055 14.6176 37.7083 14.6171 37.7112 14.6171C46.6303 14.6186 55.4743 16.8682 63.3127 21.1261L61.9259 23.5571C54.6426 19.6119 46.2869 17.4153 37.7022 17.4153C29.1173 17.4153 20.7616 19.6119 13.4788 23.5573L12.0921 21.1262C14.2581 19.9498 16.5249 18.9147 18.8358 18.0472C19.4069 17.8327 19.6962 17.1961 19.4817 16.6249C19.2673 16.0538 18.6305 15.7646 18.0595 15.979C15.5333 16.9273 13.0573 18.0681 10.7005 19.3695C10.264 19.6106 9.94941 20.0075 9.81481 20.4868C9.68064 20.9644 9.74205 21.4647 9.98785 21.8954L11.7392 24.9658C12.0775 25.5589 12.7036 25.8939 13.3448 25.8939C13.6432 25.8939 13.945 25.8213 14.2223 25.6685C14.8899 25.3004 15.5656 24.9487 16.2488 24.6132V33.7298H8.10731C3.63694 33.73 0 37.3669 0 41.8373V62.1591C0 63.1742 0.825767 64 1.84093 64H73.5635C74.5787 64 75.4045 63.1742 75.4045 62.1591V50.3541C75.4045 49.7441 74.9099 49.2496 74.2999 49.2496C73.6899 49.2496 73.1954 49.7441 73.1954 50.3541V61.7909H59.1557V35.9391H67.2972C70.5494 35.9391 73.1954 38.585 73.1954 41.8373V45.1995C73.1954 45.8096 73.6899 46.3041 74.2999 46.3041ZM38.8068 3.93297V2.71869L46.0144 5.51426C46.0416 5.52486 46.0673 5.53473 46.0673 5.59143C46.0673 5.64813 46.0416 5.65814 46.0144 5.6686L38.8068 8.46431V3.93297ZM16.2488 61.7909H2.20912V41.8373C2.20912 38.585 4.85505 35.9391 8.10731 35.9391H16.2488V61.7909ZM36.5977 61.791H29.4446V47.3137C29.4446 47.1107 29.6098 46.9455 29.8127 46.9455H36.5977V61.791ZM45.9599 61.791H38.8068V46.9456H45.5917C45.7947 46.9456 45.9599 47.1109 45.9599 47.3138V61.791ZM56.9466 61.791H48.169V47.3137C48.169 45.8926 47.0128 44.7364 45.5917 44.7364H29.8127C28.3917 44.7364 27.2354 45.8926 27.2354 47.3137V61.791H18.4579C18.4579 60.2494 18.4579 25.3929 18.4579 23.5972C24.5197 20.9888 31.0886 19.6245 37.7022 19.6245C44.3159 19.6245 50.8848 20.9888 56.9466 23.5972V61.791Z" fill="#FC800A"/>
<path d="M64.2025 44.7366C63.1873 44.7366 62.3616 45.5623 62.3616 46.5775V54.8579C62.3616 55.873 63.1873 56.6988 64.2025 56.6988H68.1483C69.1634 56.6988 69.9892 55.873 69.9892 54.8579V46.5775C69.9892 45.5623 69.1634 44.7366 68.1483 44.7366H64.2025ZM67.7801 54.4897H64.5707V46.9457H67.7801V54.4897Z" fill="#FC800A"/>
<path d="M5.41528 46.5775V54.8579C5.41528 55.873 6.24105 56.6988 7.25621 56.6988H11.202C12.2171 56.6988 13.0429 55.873 13.0429 54.8579V46.5775C13.0429 45.5623 12.2171 44.7366 11.202 44.7366H7.25621C6.24105 44.7366 5.41528 45.5623 5.41528 46.5775ZM7.6244 46.9457H10.8338V54.4897H7.6244V46.9457Z" fill="#FC800A"/>
<path d="M24.3533 37.2642C24.3533 37.8742 24.8478 38.3688 25.4578 38.3688H34.2943C34.9043 38.3688 35.3988 37.8742 35.3988 37.2642C35.3988 35.9941 36.4321 34.9609 37.7022 34.9609C38.9723 34.9609 40.0056 35.9941 40.0056 37.2642C40.0056 37.8742 40.5001 38.3688 41.1101 38.3688H49.9466C50.5566 38.3688 51.0512 37.8742 51.0512 37.2642C51.0512 29.9036 45.0628 23.9153 37.7022 23.9153C30.3416 23.9153 24.3533 29.9036 24.3533 37.2642ZM42.078 36.1597C41.5841 34.2036 39.8096 32.7517 37.7022 32.7517C35.5949 32.7517 33.8204 34.2036 33.3264 36.1597H31.073C31.6015 32.9772 34.3722 30.5426 37.7022 30.5426C41.0322 30.5426 43.8029 32.9772 44.3315 36.1597H42.078ZM48.7877 36.1597H46.5622C46.0162 31.7548 42.2524 28.3335 37.7022 28.3335C33.152 28.3335 29.3884 31.7548 28.8422 36.1597H26.6166C27.1728 30.5336 31.9323 26.1244 37.7021 26.1244C43.4718 26.1244 48.2315 30.5338 48.7877 36.1597Z" fill="#FC800A"/>
</svg>
