<svg width="64" height="64" viewBox="0 0 64 64" fill="none" xmlns="http://www.w3.org/2000/svg">
<path d="M15.3 56.2999H5C2.2 56.2999 0 54.0999 0 51.2999V16.7C0 13.9 2.2 11.7 5 11.7H7.3C7.9 11.7 8.3 12.1 8.3 12.7C8.3 13.3 7.9 13.7 7.3 13.7H5C3.4 13.7 2 15 2 16.7V51.4C2 53 3.3 54.4 5 54.4H15.4C16 54.4 16.4 54.8 16.4 55.4C16.4 56 15.9 56.2999 15.3 56.2999Z" fill="#F0344F"/>
<path d="M59 56.2999H20.8C20.2 56.2999 19.8 55.8999 19.8 55.2999C19.8 54.7 20.2 54.2999 20.8 54.2999H59C60.7001 54.2999 62 53 62 51.2999V16.7C62 15 60.7001 13.7 59 13.7H56.8C56.2001 13.7 55.8 13.3 55.8 12.7C55.8 12.1 56.2001 11.7 56.8 11.7H59C61.8 11.7 64 13.9 64 16.7V51.4C64 54.1 61.8 56.2999 59 56.2999Z" fill="#F0344F"/>
<path d="M32 56.1C31.4 56.1 31 55.7 31 55.1V27.5C31 26.9 31.4 26.5 32 26.5C32.6 26.5 33 26.9 33 27.5V55.1C33 55.7 32.6 56.1 32 56.1Z" fill="#F0344F"/>
<path d="M15.3 50H11.3C8.50005 50 6.30005 47.8 6.30005 45V10.6C6.30005 7.79998 8.50005 5.59998 11.3 5.59998H23.3C23.9 5.59998 24.3 5.99998 24.3 6.59998C24.3 7.19998 23.9 7.59998 23.3 7.59998H11.3C9.60005 7.59998 8.30005 8.89998 8.30005 10.6V45C8.30005 46.7 9.60005 48 11.3 48H15.3C15.9 48 16.3 48.4 16.3 49C16.3 49.6 15.8 50 15.3 50Z" fill="#F0344F"/>
<path d="M32.1 56.1C31.5 56.1 31.1 55.7 31.1 55.1C31.1 52.3 28.8 50 26 50H20.8C20.2 50 19.8 49.6 19.8 49C19.8 48.4 20.2 48 20.8 48H26C29.9 48 33.1 51.2 33.1 55.1C33.1 55.7 32.6 56.1 32.1 56.1Z" fill="#F0344F"/>
<path d="M32.1 56.1C31.5 56.1 31.1 55.7 31.1 55.1C31.1 51.2 34.3 48 38.2 48H52.8C54.5 48 55.8 46.7 55.8 45V10.6C55.8 8.89998 54.5 7.59998 52.8 7.59998H41.6C41 7.59998 40.6 7.19998 40.6 6.59998C40.6 5.99998 41 5.59998 41.6 5.59998H52.8C55.6 5.59998 57.8 7.79998 57.8 10.6V45C57.8 47.8 55.6 50 52.8 50H38.2C35.4 50 33.1 52.3 33.1 55.1C33.1 55.7 32.6 56.1 32.1 56.1Z" fill="#F0344F"/>
<path d="M36.6 31.2999C36.4 31.2999 36.2 31.1999 36 31.0999L32 28.2L28 31.0999C27.7 31.2999 27.3 31.4 27 31.2C26.7 31 26.5 30.6999 26.5 30.2999V19.2C26.5 18.6 26.9 18.2 27.5 18.2C28.1 18.2 28.5 18.6 28.5 19.2V28.4L31.5 26.2C31.9 25.9 32.3 25.9 32.7 26.2L35.7 28.4V19.2C35.7 18.6 36.1 18.2 36.7 18.2C37.3 18.2 37.7 18.6 37.7 19.2V30.2999C37.7 30.6999 37.5 31 37.2 31.2C36.9 31.2 36.7 31.2999 36.6 31.2999Z" fill="#F0344F"/>
<path d="M32 21.1C26.2 21.1 21.4 16.4 21.4 10.5C21.4 4.6 26.2 0 32 0C37.8 0 42.6 4.7 42.6 10.6C42.6 16.5 37.8 21.1 32 21.1ZM32 2C27.3 2 23.4 5.8 23.4 10.6C23.4 15.4 27.2 19.2 32 19.2C36.8 19.2 40.6 15.4 40.6 10.6C40.6 5.8 36.7 2 32 2Z" fill="#F0344F"/>
<path d="M18.1 64.0001C17.7 64.0001 17.4 63.8001 17.2 63.4001L14.5 57.5001C14.3 57.0001 14.5 56.4001 15 56.2001C15.5 56.0001 16.1 56.2001 16.3 56.7001L18.1 60.7001L19.9 56.7001C20.1 56.2001 20.7 56.0001 21.2 56.2001C21.7 56.4001 21.9 57.0001 21.7 57.5001L19 63.4001C18.8 63.8001 18.5 64.0001 18.1 64.0001Z" fill="#F0344F"/>
<path d="M20.8 58.0999H15.3C14.7 58.0999 14.3 57.6999 14.3 57.0999V27.3C14.3 25.9 15.2 24.7 16.5 24.3C17.5 24 18.5 24 19.5 24.3C20.8 24.6 21.7 25.9 21.7 27.3V57.0999C21.8 57.5999 21.4 58.0999 20.8 58.0999ZM16.3 56.0999H19.8V27.3C19.8 26.8 19.5 26.4 19.1 26.3C18.4 26.1 17.8 26.1 17.1 26.3C16.7 26.4 16.4 26.8 16.4 27.3V56.0999H16.3Z" fill="#F0344F"/>
<path d="M20.8 30.4H15.3C14.7 30.4 14.3 30 14.3 29.4C14.3 28.8 14.7 28.4 15.3 28.4H20.8C21.4 28.4 21.8 28.8 21.8 29.4C21.8 30 21.4 30.4 20.8 30.4Z" fill="#F0344F"/>
<path d="M50.8 20.2H44.4C43.8 20.2 43.4 19.8 43.4 19.2C43.4 18.6 43.8 18.2 44.4 18.2H50.8C51.4 18.2 51.8 18.6 51.8 19.2C51.8 19.8 51.3 20.2 50.8 20.2Z" fill="#F0344F"/>
<path d="M50.7999 26.2H42.2C41.6 26.2 41.2 25.8 41.2 25.2C41.2 24.6 41.6 24.2 42.2 24.2H50.7999C51.4 24.2 51.7999 24.6 51.7999 25.2C51.7999 25.8 51.2999 26.2 50.7999 26.2Z" fill="#F0344F"/>
<path d="M50.7999 32.2H42.2C41.6 32.2 41.2 31.8 41.2 31.2C41.2 30.6 41.6 30.2 42.2 30.2H50.7999C51.4 30.2 51.7999 30.6 51.7999 31.2C51.7999 31.8 51.2999 32.2 50.7999 32.2Z" fill="#F0344F"/>
<path d="M50.8 38.2H38C37.4 38.2 37 37.8 37 37.2C37 36.6 37.4 36.2 38 36.2H50.8C51.4 36.2 51.8 36.6 51.8 37.2C51.8 37.8 51.3 38.2 50.8 38.2Z" fill="#F0344F"/>
<path d="M50.8 44.2H38C37.4 44.2 37 43.8 37 43.2C37 42.6 37.4 42.2 38 42.2H50.8C51.4 42.2 51.8 42.6 51.8 43.2C51.8 43.8 51.3 44.2 50.8 44.2Z" fill="#F0344F"/>
<path d="M35.4 16.2C35.2 16.2 35.1 16.2 34.9 16.1L32 14.5L29.1 16C28.8 16.2 28.4 16.1 28 15.9C27.7 15.7 27.5 15.3 27.6 14.9L28.2 11.6L25.8 9.30005C25.5 9.00005 25.4 8.60005 25.5 8.30005C25.7 8.00005 26 7.80005 26.4 7.70005L29.7 7.20005L31.2 4.20005C31.5 3.50005 32.7 3.50005 33 4.20005L34.5 7.20005L37.8 7.70005C38 7.80005 38.3 8.00005 38.4 8.40005C38.5 8.80005 38.4 9.20005 38.1 9.40005L35.7 11.7L36.3 15C36.4 15.4 36.2 15.8 35.9 16C35.8 16.1 35.6 16.2 35.4 16.2ZM32 12.4C32.2 12.4 32.3 12.4 32.5 12.5L34.1 13.3L33.8 11.5C33.7 11.2 33.9 10.8 34.1 10.6L35.4 9.30005L33.6 9.00005C33.3 9.00005 33 8.70005 32.8 8.50005L32 7.00005L31.2 8.60005C31.1 8.90005 30.8 9.10005 30.4 9.10005L28.6 9.40005L29.9 10.7C30.1 10.9 30.2 11.3 30.2 11.6L29.9 13.4L31.5 12.6C31.7 12.4 31.8 12.4 32 12.4Z" fill="#F0344F"/>
</svg>
