<svg width="55" height="64" viewBox="0 0 55 64" fill="none" xmlns="http://www.w3.org/2000/svg">
<path d="M40.3681 31.4868C43.4101 27.1318 45.0181 22.0195 45.0181 16.7025V4.84803C45.0181 4.26258 44.6124 3.75526 44.0427 3.62781L27.9459 0.0296631C27.7671 -0.00988771 27.5821 -0.00988771 27.4034 0.0296631L11.307 3.62781C10.7368 3.75526 10.3317 4.26258 10.3317 4.84803V16.7025C10.3317 22.0195 11.9396 27.1318 14.9816 31.4863C18.0236 35.8413 22.2655 39.1035 27.249 40.9209C27.3863 40.9707 27.531 40.996 27.6746 40.996C27.8188 40.996 27.9634 40.9707 28.1007 40.9209C33.0842 39.104 37.3261 35.8413 40.3681 31.4868ZM27.6746 38.4111C23.3592 36.7426 19.6832 33.8598 17.0239 30.0522C14.277 26.12 12.8249 21.5038 12.8249 16.7025V5.84999L27.6746 2.53064L42.5248 5.84999V16.7025C42.5248 21.5033 41.0727 26.1196 38.3258 30.0522C35.6661 33.8598 31.99 36.7426 27.6746 38.4111Z" fill="#00BBAE"/>
<path d="M40.4041 8.55653C40.4041 7.97059 39.999 7.46375 39.4288 7.33631L27.9463 4.76941C27.7676 4.72986 27.5821 4.72986 27.4034 4.76941L15.9205 7.33631C15.2485 7.4867 14.8253 8.15467 14.9753 8.8285C15.1248 9.50233 15.7914 9.92665 16.4629 9.77626L27.6746 7.27039L37.9109 9.55848V16.7025C37.9109 20.5492 36.7476 24.2475 34.547 27.3984C32.7789 29.9296 30.4113 31.9804 27.6746 33.3588C24.9379 31.9809 22.5708 29.9296 20.8027 27.3984C18.8992 24.6733 17.7558 21.4877 17.4967 18.1869C17.4748 17.9115 17.4592 17.6332 17.45 17.3588C17.4261 16.6684 16.8452 16.1288 16.161 16.1522C15.4729 16.1762 14.9344 16.7548 14.9582 17.4447C14.9689 17.7558 14.9865 18.0717 15.0108 18.3832C15.3049 22.1288 16.6017 25.7421 18.7604 28.8324C20.8928 31.8847 23.7941 34.3222 27.1511 35.8808C27.3172 35.9579 27.4964 35.9965 27.6751 35.9965C27.8538 35.9965 28.0325 35.9579 28.1986 35.8808C31.5561 34.3217 34.4574 31.8847 36.5893 28.8324C39.085 25.2597 40.4046 21.0649 40.4046 16.7025V8.55653H40.4041Z" fill="#00BBAE"/>
<path d="M24.1233 23.1913C24.3415 23.4501 24.6546 23.6088 24.992 23.6312C25.0198 23.6332 25.0475 23.6342 25.0753 23.6342C25.3831 23.6342 25.6816 23.5199 25.9114 23.3114L34.9493 15.1122C35.4596 14.6493 35.4991 13.8588 35.0375 13.3465C34.5753 12.8348 33.7869 12.7953 33.2766 13.2582L25.1946 20.5897L22.8879 17.8539C22.4438 17.327 21.6569 17.2606 21.1314 17.7064C20.6055 18.1522 20.5398 18.9408 20.9839 19.4681L24.1233 23.1913Z" fill="#00BBAE"/>
<path d="M17.1773 41.3691C16.5204 40.5028 15.5655 39.9521 14.4888 39.8173C13.4122 39.683 12.3516 39.9814 11.5023 40.6586C11.105 40.9755 10.7841 41.3554 10.5421 41.7738L10.1759 41.2953C9.85058 40.871 9.67187 40.3427 9.67187 39.8075V28.5306C9.67187 26.2269 7.80244 24.3524 5.50498 24.3524C3.34386 24.3524 1.56063 25.9794 1.3566 28.1361L0.0223346 42.246C-0.0950221 43.4818 0.252665 44.7079 1.00501 45.704L11.6012 59.539V62.75C11.6012 63.4404 12.1592 64 12.8478 64C13.5359 64 14.0944 63.4404 14.0944 62.75V59.1142C14.0944 58.8388 14.0033 58.5712 13.8363 58.353L2.98741 44.1879C2.61781 43.6986 2.4464 43.0927 2.50435 42.4818L3.8391 28.3724C3.92091 27.5057 4.63722 26.8524 5.50498 26.8524C6.42825 26.8524 7.17865 27.6054 7.17865 28.5306V39.8075C7.17865 40.8905 7.54094 41.9594 8.19882 42.8178L10.8084 46.2255C10.8123 46.2309 10.8162 46.2362 10.8201 46.2416L12.9257 48.9911C13.3455 49.5385 14.128 49.6415 14.6739 49.2211C15.2198 48.8007 15.3225 48.016 14.9032 47.4682L12.7908 44.7099C12.3014 44.0605 12.4183 43.123 13.0552 42.6151C13.3752 42.3598 13.775 42.2475 14.1806 42.2978C14.5862 42.3485 14.9461 42.5566 15.1935 42.8827L20.2262 49.5146C21.2166 50.8198 21.762 52.4418 21.762 54.082V62.75C21.762 63.4404 22.3201 64 23.0086 64C23.6972 64 24.2552 63.4404 24.2552 62.75V54.082C24.2552 51.8984 23.5292 49.7387 22.2105 48.0009L17.1773 41.3691Z" fill="#00BBAE"/>
<path d="M54.9778 42.246L53.6431 28.1361C53.4391 25.9794 51.6553 24.3524 49.4947 24.3524C47.1972 24.3524 45.3278 26.2269 45.3278 28.5306V39.8075C45.3278 40.3427 45.1486 40.871 44.8238 41.2953L44.4571 41.7738C44.2156 41.3559 43.8947 40.976 43.4974 40.6586C42.6481 39.9814 41.5875 39.683 40.5108 39.8173C39.4342 39.9521 38.4793 40.5028 37.8224 41.3691L32.7897 48.0009C31.471 49.7387 30.7444 51.8984 30.7444 54.0825V62.75C30.7444 63.4404 31.303 64 31.9911 64C32.6796 64 33.2377 63.4404 33.2377 62.75V54.082C33.2377 52.4418 33.7831 50.8198 34.7735 49.5146L39.8062 42.8827C40.0541 42.5566 40.4139 42.349 40.8196 42.2978C41.2252 42.2475 41.625 42.3598 41.9449 42.6151C42.5814 43.123 42.6987 44.0605 42.2089 44.7099L40.0969 47.4682C39.6777 48.016 39.7804 48.8007 40.3263 49.2211C40.8722 49.6415 41.6547 49.5385 42.0745 48.9911L44.1796 46.2416C44.1835 46.2367 44.1869 46.2319 44.1908 46.227L46.8013 42.8183C47.4587 41.9594 47.821 40.8905 47.821 39.8075V28.5306C47.821 27.6054 48.5719 26.8524 49.4947 26.8524C50.3625 26.8524 51.0788 27.5057 51.1611 28.3724L52.4958 42.4818C52.5533 43.0932 52.3819 43.6986 52.0171 44.1816L41.1634 58.353C40.9963 58.5712 40.9058 58.8393 40.9058 59.1147V62.75C40.9058 63.4404 41.4638 64 42.1524 64C42.8409 64 43.399 63.4404 43.399 62.75V59.539L53.9995 45.6977C54.747 44.7079 55.0947 43.4818 54.9778 42.246Z" fill="#00BBAE"/>
<path d="M15.4997 14.0122C15.9385 14.3056 16.5326 14.2871 16.9504 13.9643C17.3433 13.6606 17.5279 13.1303 17.3954 12.6489C17.2537 12.1328 16.7931 11.7539 16.2579 11.7246C15.7281 11.6957 15.228 12.02 15.0337 12.5136C14.8204 13.0561 15.0176 13.687 15.4997 14.0122Z" fill="#00BBAE"/>
</svg>
