<svg width="69" height="64" viewBox="0 0 69 64" fill="none" xmlns="http://www.w3.org/2000/svg">
<path d="M46.9249 26.0702H59.9098C62.7496 26.0702 65.0599 23.7489 65.0599 20.8955C65.0599 18.0423 62.7496 15.721 59.9098 15.721C59.4831 15.721 59.0644 15.7727 58.6573 15.8755C57.4581 14.1004 55.4747 13.0294 53.2952 13.0294C51.1455 13.0294 49.1714 14.0833 47.9671 15.8277C47.6256 15.7567 47.2773 15.721 46.9247 15.721C44.0849 15.721 41.7747 18.0423 41.7747 20.8955C41.7748 23.7489 44.0851 26.0702 46.9249 26.0702ZM46.9249 17.7521C47.3157 17.7521 47.6983 17.8244 48.0617 17.967C48.5431 18.1558 49.0889 17.9494 49.3268 17.4883C50.0993 15.9908 51.62 15.0606 53.2954 15.0606C55.0042 15.0606 56.5384 16.0174 57.2993 17.5575C57.5413 18.0475 58.1259 18.2568 58.6216 18.0311C59.0286 17.8458 59.4618 17.752 59.9098 17.752C61.6349 17.752 63.0384 19.1621 63.0384 20.8954C63.0384 22.6288 61.6349 24.0389 59.9098 24.0389H46.9249C45.1997 24.0389 43.7963 22.6288 43.7963 20.8954C43.7963 19.1623 45.1997 17.7521 46.9249 17.7521Z" fill="#16C4E3"/>
<path d="M29.0881 9.21737H37.5634C39.6104 9.21737 41.2758 7.54397 41.2758 5.48709C41.2758 3.43021 39.6104 1.75681 37.5634 1.75681C37.3379 1.75681 37.1153 1.77685 36.897 1.8168C36.0399 0.679082 34.7052 0 33.2462 0C31.8036 0 30.4731 0.671228 29.6138 1.79418C29.4405 1.76927 29.2651 1.75681 29.0883 1.75681C27.0412 1.75681 25.3757 3.43021 25.3757 5.48709C25.3756 7.54397 27.041 9.21737 29.0881 9.21737ZM29.0881 3.78796C29.2993 3.78796 29.506 3.8271 29.7024 3.90415C30.1842 4.09291 30.7297 3.88654 30.9674 3.42547C31.4111 2.56548 32.2841 2.03129 33.246 2.03129C34.2271 2.03129 35.108 2.58078 35.545 3.46528C35.7869 3.95506 36.3714 4.1644 36.8672 3.93895C37.0871 3.83888 37.3215 3.7881 37.5634 3.7881C38.4957 3.7881 39.2543 4.55032 39.2543 5.48723C39.2543 6.42413 38.4957 7.18635 37.5634 7.18635H29.0881C28.1557 7.18635 27.3971 6.42413 27.3971 5.48723C27.3971 4.55019 28.1557 3.78796 29.0881 3.78796Z" fill="#16C4E3"/>
<path d="M20.9413 29.1306C20.9413 25.9379 18.3561 23.3403 15.1786 23.3403C12.001 23.3403 9.41589 25.9379 9.41589 29.1306C9.41589 32.3234 12.0011 34.9209 15.1786 34.9209C18.3561 34.921 20.9413 32.3234 20.9413 29.1306ZM11.4374 29.1306C11.4374 27.0579 13.1157 25.3715 15.1786 25.3715C17.2415 25.3715 18.9198 27.0579 18.9198 29.1306C18.9198 31.2035 17.2415 32.8897 15.1786 32.8897C13.1156 32.8899 11.4374 31.2035 11.4374 29.1306Z" fill="#16C4E3"/>
<path d="M63.1948 53.2027H61.6117C60.6289 53.2027 59.6975 52.8257 58.9891 52.1412L36.5059 30.4157C35.4191 29.3655 33.9899 28.787 32.4819 28.787H26.0991V20.6709C26.7185 20.5798 27.2462 20.187 27.5147 19.6004C27.8226 18.9272 27.7158 18.1599 27.2359 17.5977L16.5942 5.13192C16.2394 4.71635 15.7235 4.47803 15.1787 4.47803C14.6337 4.47803 14.1178 4.71635 13.7631 5.13192L3.12144 17.5977C2.64154 18.1599 2.53467 18.9274 2.84261 19.6004C3.11106 20.1871 3.63894 20.5799 4.25832 20.6711V27.5278C4.25832 28.0887 4.71087 28.5434 5.26907 28.5434C5.82727 28.5434 6.27981 28.0887 6.27981 27.5278V20.6916H24.0778V37.5874H6.27967V32.2673C6.27967 31.7064 5.82713 31.2517 5.26893 31.2517C4.71073 31.2517 4.25819 31.7064 4.25819 32.2673V37.5874H1.94817C0.873955 37.5873 0 38.4654 0 39.5448V62.0425C0 63.1219 0.873955 64 1.94817 64H38.0687C38.6269 64 39.0795 63.5453 39.0795 62.9844C39.0795 62.4236 38.6269 61.9689 38.0687 61.9689H30.3573V39.7338C30.6615 39.8466 30.9427 40.0202 31.1826 40.2519L53.6571 61.9689H42.7855C42.2273 61.9689 41.7748 62.4236 41.7748 62.9844C41.7748 63.5453 42.2273 64 42.7855 64H66.7431C67.9875 64 69 62.9827 69 61.7323V59.0357C69 55.8193 66.3958 53.2027 63.1948 53.2027ZM15.1787 6.59341L25.4799 18.6603H4.8773L15.1787 6.59341ZM2.02148 39.6185H28.3358V61.9689H21.9219V49.6128C21.9219 46.144 19.1133 43.3218 15.661 43.3218H14.6963C11.244 43.3218 8.43538 46.1439 8.43538 49.6128V61.9689H2.02148V39.6185ZM10.4567 61.9689V49.6128C10.4567 47.264 12.3585 45.3529 14.6962 45.3529H15.6608C17.9985 45.3529 19.9003 47.2639 19.9003 49.6128V61.9689H10.4567ZM66.9785 61.7323C66.9785 61.8627 66.8729 61.9689 66.7431 61.9689H58.6186H57.5319C56.9138 61.9689 56.328 61.7318 55.8825 61.3012L32.5839 38.7879C31.7598 37.9916 30.6764 37.553 29.5332 37.553H26.1495V30.8182H32.4819C33.4649 30.8182 34.3962 31.1951 35.1046 31.8796L57.5878 53.6051C58.6747 54.6554 60.1037 55.2338 61.6117 55.2338H63.1948C65.2811 55.2338 66.9785 56.9393 66.9785 59.0356V61.7323Z" fill="#16C4E3"/>
<path d="M5.48047 43.853C6.00147 43.853 6.42383 43.4286 6.42383 42.9051C6.42383 42.3817 6.00147 41.9573 5.48047 41.9573C4.95947 41.9573 4.53711 42.3817 4.53711 42.9051C4.53711 43.4286 4.95947 43.853 5.48047 43.853Z" fill="#16C4E3"/>
<path d="M24.752 43.853C25.273 43.853 25.6953 43.4286 25.6953 42.9051C25.6953 42.3817 25.273 41.9573 24.752 41.9573C24.231 41.9573 23.8086 42.3817 23.8086 42.9051C23.8086 43.4286 24.231 43.853 24.752 43.853Z" fill="#16C4E3"/>
</svg>
