<svg width="12" height="14" viewBox="0 0 12 14" fill="none" xmlns="http://www.w3.org/2000/svg">
<path d="M9.04688 14H1.17188C0.515625 14 0 13.5188 0 12.9062V1.09375C0 0.48125 0.515625 0 1.17188 0H10.8281C11.4844 0 12 0.48125 12 1.09375V11.3094C12 11.4406 11.9062 11.5281 11.7656 11.5281C11.625 11.5281 11.5312 11.4406 11.5312 11.3094V1.09375C11.5312 0.721875 11.2266 0.4375 10.8281 0.4375H1.17188C0.773437 0.4375 0.46875 0.721875 0.46875 1.09375V12.9062C0.46875 13.2781 0.773437 13.5625 1.17188 13.5625H9.04688C9.1875 13.5625 9.28125 13.65 9.28125 13.7812C9.28125 13.9125 9.1875 14 9.04688 14Z" fill="#FE5A86"/>
<path d="M9.21248 14.0001H9.18982C9.0539 14.0001 8.96328 13.9125 8.96328 13.7812V12.1175C8.96328 11.5483 9.43902 11.0886 10.028 11.0886H11.7724C11.863 11.0886 11.9536 11.1324 11.9763 11.22C12.0216 11.3075 11.9989 11.3951 11.931 11.4608L9.37106 13.9344C9.32575 13.9782 9.28044 14.0001 9.21248 14.0001ZM10.028 11.5264C9.68821 11.5264 9.41636 11.7891 9.41636 12.1175V13.2777L11.2287 11.5264H10.028ZM6.24479 3.60191C6.22214 3.60191 6.19948 3.60191 6.17683 3.58002L3.00526 2.55115C2.91464 2.52926 2.84668 2.44169 2.84668 2.35413C2.84668 2.26656 2.91464 2.179 3.00526 2.15711L6.17683 1.12823C6.22214 1.10634 6.26745 1.10634 6.31275 1.12823L9.39371 2.15711C9.48433 2.179 9.55229 2.26656 9.55229 2.35413C9.55229 2.44169 9.48433 2.52926 9.39371 2.55115L6.31275 3.58002C6.2901 3.60191 6.26745 3.60191 6.24479 3.60191ZM3.7755 2.35413L6.24479 3.1422L8.62347 2.35413L6.24479 1.56605L3.7755 2.35413Z" fill="#FE5A86"/>
<path d="M6 4.83438C5.25 4.83438 4.47656 4.79063 3.67969 4.70312C3.5625 4.68125 3.46875 4.59375 3.46875 4.48438V2.69063C3.46875 2.55938 3.5625 2.47188 3.70312 2.47188C3.84375 2.47188 3.9375 2.55938 3.9375 2.69063V4.2875C5.32031 4.41875 6.67969 4.44063 7.96875 4.2875V2.69063C7.96875 2.55938 8.0625 2.47188 8.20312 2.47188C8.34375 2.47188 8.4375 2.55938 8.4375 2.69063V4.48438C8.4375 4.59375 8.34375 4.68125 8.22656 4.70312C7.52344 4.79063 6.77344 4.83438 6 4.83438ZM9.09375 4.375C8.95312 4.375 8.85938 4.2875 8.85938 4.15625V2.51562C8.85938 2.38437 8.95312 2.29688 9.09375 2.29688C9.23438 2.29688 9.32812 2.38437 9.32812 2.51562V4.15625C9.32812 4.2875 9.23438 4.375 9.09375 4.375Z" fill="#FE5A86"/>
<path d="M9.25781 4.46265H8.95313C8.8125 4.46265 8.71875 4.37515 8.71875 4.2439C8.71875 4.11265 8.8125 4.02515 8.95313 4.02515H9.25781C9.39844 4.02515 9.49219 4.11265 9.49219 4.2439C9.49219 4.37515 9.39844 4.46265 9.25781 4.46265ZM9.70313 6.58452H4.89844C4.75781 6.58452 4.66406 6.49702 4.66406 6.36577C4.66406 6.23452 4.75781 6.14702 4.89844 6.14702H9.70313C9.84375 6.14702 9.9375 6.23452 9.9375 6.36577C9.9375 6.49702 9.84375 6.58452 9.70313 6.58452ZM9.70313 8.40015H4.89844C4.75781 8.40015 4.66406 8.31265 4.66406 8.1814C4.66406 8.05015 4.75781 7.96265 4.89844 7.96265H9.70313C9.84375 7.96265 9.9375 8.05015 9.9375 8.1814C9.9375 8.31265 9.84375 8.40015 9.70313 8.40015ZM9.70313 10.2158H4.89844C4.75781 10.2158 4.66406 10.1283 4.66406 9.99702C4.66406 9.86577 4.75781 9.77827 4.89844 9.77827H9.70313C9.84375 9.77827 9.9375 9.86577 9.9375 9.99702C9.9375 10.1283 9.84375 10.2158 9.70313 10.2158ZM7.3125 12.0314H4.89844C4.75781 12.0314 4.66406 11.9439 4.66406 11.8126C4.66406 11.6814 4.75781 11.5939 4.89844 11.5939H7.3125C7.45313 11.5939 7.54688 11.6814 7.54688 11.8126C7.54688 11.9439 7.45313 12.0314 7.3125 12.0314ZM3.16406 6.97827H2.29688C2.15625 6.97827 2.0625 6.89077 2.0625 6.75952V5.95015C2.0625 5.8189 2.15625 5.7314 2.29688 5.7314H3.16406C3.30469 5.7314 3.39844 5.8189 3.39844 5.95015V6.75952C3.39844 6.89077 3.30469 6.97827 3.16406 6.97827ZM2.53125 6.54077H2.92969V6.1689H2.53125V6.54077ZM3.16406 8.7939H2.29688C2.15625 8.7939 2.0625 8.7064 2.0625 8.57515V7.76577C2.0625 7.63452 2.15625 7.54702 2.29688 7.54702H3.16406C3.30469 7.54702 3.39844 7.63452 3.39844 7.76577V8.57515C3.39844 8.7064 3.30469 8.7939 3.16406 8.7939ZM2.53125 8.3564H2.92969V7.98452H2.53125V8.3564ZM3.16406 10.6095H2.29688C2.15625 10.6095 2.0625 10.522 2.0625 10.3908V9.5814C2.0625 9.45015 2.15625 9.36265 2.29688 9.36265H3.16406C3.30469 9.36265 3.39844 9.45015 3.39844 9.5814V10.3908C3.39844 10.522 3.30469 10.6095 3.16406 10.6095ZM2.53125 10.172H2.92969V9.80015H2.53125V10.172ZM3.16406 12.4251H2.29688C2.15625 12.4251 2.0625 12.3376 2.0625 12.2064V11.397C2.0625 11.2658 2.15625 11.1783 2.29688 11.1783H3.16406C3.30469 11.1783 3.39844 11.2658 3.39844 11.397V12.2064C3.39844 12.3376 3.30469 12.4251 3.16406 12.4251ZM2.53125 11.9876H2.92969V11.6158H2.53125V11.9876Z" fill="#FE5A86"/>
</svg>
