<svg width="34" height="32" viewBox="0 0 34 32" fill="none" xmlns="http://www.w3.org/2000/svg">
<path fill-rule="evenodd" clip-rule="evenodd" d="M32.463 18.2651L32.4066 18.335C32.311 18.4471 32.1547 18.4684 32.0331 18.3858L30.0227 17.0206C29.6343 16.7584 29.1186 17.1096 29.2324 17.569L30.3961 22.3471L29.1413 22.1565C28.853 22.1121 28.5806 22.3188 28.5507 22.6077L28.0687 26.8601C27.6648 26.7398 27.2523 26.6243 26.8355 26.5166L27.2394 22.3029C27.2567 22.1318 27.1829 21.9633 27.0526 21.8547L25.8932 20.9081L27.4955 15.558C27.5476 15.383 27.5042 15.1929 27.3782 15.0586L24.9596 12.472C24.6437 12.1421 25.1347 11.6537 25.472 11.9387L28.073 14.1533C28.1034 14.1836 28.1381 14.2132 28.1772 14.2419L32.4326 17.8663C32.5499 17.9672 32.5673 18.1462 32.463 18.2651ZM25.8237 26.2727L26.1885 22.4785L24.977 21.4888C24.8945 21.4228 24.8381 21.3356 24.8077 21.24V22.8579C24.8077 23.9887 24.4864 25.023 23.8785 25.8892C24.5384 26.0013 25.1898 26.1289 25.8237 26.2727ZM23.7785 22.8579C23.7785 24.3061 23.1228 25.5575 21.9288 26.3821L16.7832 29.9424L11.6376 26.3821C10.4478 25.5576 9.79214 24.3061 9.79214 22.8579V15.3902C12.2933 14.9842 14.8943 13.6884 16.7832 11.9107C18.5071 13.5043 21.2774 15.0897 23.7785 15.4106V22.8579ZM7.75561 26.2705C8.38521 26.1276 9.03225 26.0009 9.68788 25.8893C9.0843 25.0231 8.75865 23.9887 8.75865 22.858V14.9421C8.75865 14.682 8.95401 14.4618 9.21459 14.4311C9.88331 14.3516 10.5651 14.1983 11.2424 13.9834V11.2642L10.1873 12.4727C10.0179 12.6663 9.80516 12.8044 9.56634 12.8808C9.50987 12.9864 9.44047 13.0862 9.35789 13.1761L7.0999 15.5878L7.7295 20.8571C7.75987 21.098 7.75119 21.6778 7.73818 22.7676C7.72517 23.8562 7.70782 25.2731 7.75561 26.2705ZM5.51063 26.8567C5.18924 23.3126 4.47955 21.0112 4.34259 17.4262C4.32902 17.0175 3.86946 16.7985 3.53924 17.0206L1.52873 18.3859C1.4072 18.4684 1.2508 18.4471 1.15529 18.3351L1.09448 18.2643C0.994637 18.1463 1.00765 17.9673 1.12918 17.8666L5.38459 14.2421L8.08985 11.939C8.43261 11.6495 8.912 12.1489 8.60226 12.4722L6.18361 15.0589C6.07942 15.1696 6.03163 15.3216 6.04898 15.4719L6.70469 20.9792C6.72638 21.1642 6.7177 21.9731 6.70903 22.7556C6.69601 23.9905 6.67866 25.4865 6.73505 26.516C6.31832 26.6231 5.91017 26.7368 5.51063 26.8567ZM2.77067 12.4969C2.77067 13.5191 3.96176 14.0654 4.72904 13.4461C5.64943 12.7032 5.09992 11.2854 3.98216 11.2854C3.31352 11.2854 2.77067 11.829 2.77067 12.4969ZM10.6823 8.28619L8.98012 10.9949C9.23893 11.1378 9.442 11.3373 9.57936 11.6015L11.3683 9.55239C11.6813 9.19638 12.2715 9.41446 12.2715 9.89112V13.6042C13.7392 12.9919 15.1243 12.0961 16.223 11.0184C15.9625 7.7725 15.0896 6.95011 14.5729 6.75379C13.4787 6.33521 12.3974 6.57362 11.351 7.46075C11.0253 7.73908 10.9255 7.89885 10.6823 8.28619ZM13.5829 3.09891C14.2517 3.09891 14.7944 3.64256 14.7944 4.31C14.7944 4.97784 14.2517 5.52109 13.5829 5.52109C12.9142 5.52109 12.3758 4.97784 12.3758 4.31C12.3758 3.64256 12.9142 3.09891 13.5829 3.09891ZM24.3256 14.4283C24.5949 14.4449 24.8077 14.6702 24.8077 14.942V20.9391L26.423 15.5464L24.2041 13.1759C24.1216 13.0861 24.0521 12.9862 23.9957 12.8807C23.7569 12.8043 23.5441 12.6662 23.3747 12.4725L22.3196 11.2641V14.0141C23.0013 14.2399 23.6786 14.3884 24.3256 14.4283ZM18.9847 6.75379C18.4723 6.95011 17.5995 7.77161 17.3346 11.0157C18.3203 11.9623 19.7663 12.9463 21.2861 13.6158V9.89105C21.2861 9.42041 21.8784 9.19364 22.1936 9.55231L23.9827 11.6014C24.1201 11.3373 24.3223 11.1382 24.5819 10.9948L22.8798 8.28611C22.6366 7.89877 22.5367 7.739 22.2067 7.46067C21.1645 6.57362 20.0833 6.33609 18.9847 6.75379ZM19.9747 3.09891C20.6435 3.09891 21.1862 3.64256 21.1862 4.31C21.1862 4.97784 20.6435 5.52109 19.9747 5.52109C19.3103 5.52109 18.7676 4.97784 18.7676 4.31C18.7676 3.64256 19.3103 3.09891 19.9747 3.09891ZM22.4628 1.95039C23.1321 2.02421 23.4275 2.7984 23.544 3.42455C23.0865 2.75976 22.427 2.4832 21.6464 2.81752C21.5683 2.72812 21.4814 2.64514 21.3859 2.56955C21.8072 2.12149 22.1589 1.91737 22.4628 1.95039ZM29.5798 11.2854C28.4771 11.2854 27.9445 12.6523 28.7721 13.3957C29.5523 14.0965 30.7913 13.5377 30.7913 12.4969C30.7913 11.829 30.2485 11.2854 29.5798 11.2854ZM32.5021 11.7218C32.3805 11.6819 32.1591 11.7039 31.7596 11.9792C32.1975 11.8816 32.6166 11.9739 32.9276 12.3023C32.8473 11.9865 32.7435 11.8009 32.5021 11.7218ZM33.1014 17.0818L30.2311 14.6397C30.9693 14.4152 31.5468 13.8195 31.7466 13.0714C31.9767 12.9611 32.107 12.9624 32.1461 12.9862C32.2199 13.027 32.3241 13.2081 32.3892 13.5867C32.4533 13.9767 32.4543 14.491 32.4543 14.8638C32.4543 15.3877 33.1548 15.5727 33.414 15.1191C34.0489 14.0178 34.5375 11.3054 32.8235 10.7426C32.2677 10.5602 31.7292 10.7704 31.2907 11.0522C30.8782 10.5654 30.2659 10.2549 29.5798 10.2549C28.4465 10.2549 27.5086 11.1008 27.361 12.1937L26.1365 11.1542C26.0148 11.0482 25.8759 10.9688 25.737 10.9132C25.7153 10.8685 25.6892 10.8238 25.6632 10.7807L23.7526 7.73812C23.4921 7.32781 23.3227 7.05638 22.8755 6.67603C22.4629 6.323 22.0331 6.05028 21.5945 5.85838C22.1398 5.29047 22.3434 4.51258 22.1416 3.73108C22.2415 3.7016 22.3283 3.70024 22.3978 3.72843C22.9527 3.95029 23.264 5.51627 23.4225 6.24259C23.5355 6.75973 24.2497 6.79194 24.4126 6.29601C24.7643 5.2287 24.8338 3.10011 24.0521 1.88299C23.6917 1.32456 23.1793 0.993693 22.5757 0.925977C21.6769 0.826532 20.9387 1.48963 20.4133 2.11185C19.0419 1.83335 17.7342 2.89415 17.7342 4.30992C17.7342 4.92779 17.986 5.48751 18.3942 5.89357C17.6821 6.26436 17.1437 7.04554 16.7789 8.22972C16.4185 7.04562 15.8801 6.26444 15.168 5.89357C15.5762 5.48759 15.8237 4.92787 15.8237 4.30992C15.8237 3.07409 14.8206 2.06847 13.5831 2.06847C12.3499 2.06847 11.3425 3.07417 11.3425 4.30992C11.3425 4.91044 11.5813 5.45586 11.9678 5.85838C11.5292 6.05028 11.0993 6.323 10.6868 6.67603C10.2396 7.05638 10.0659 7.32781 9.80965 7.73812L7.89891 10.7808C7.87289 10.8238 7.84678 10.8685 7.82509 10.9133C7.68179 10.9689 7.54716 11.0483 7.42129 11.1543L6.20112 12.1938C6.05348 11.1009 5.11558 10.255 3.98224 10.255C2.74472 10.255 1.74168 11.2607 1.74168 12.4969C1.74168 13.5052 2.4104 14.3598 3.32661 14.6407L0.460622 17.0818C-0.0908237 17.5513 -0.155969 18.3811 0.312981 18.9321L0.369451 19.0029C0.808037 19.5144 1.55492 19.6156 2.1107 19.2382L3.36557 18.3859C3.59049 21.6892 4.20836 23.7811 4.50325 27.1768C3.726 27.4391 2.98346 27.7257 2.28437 28.0348C1.77726 28.2594 1.93679 29.0218 2.49282 29.0218C2.5623 29.0218 2.63178 29.0075 2.69693 28.9771C4.93316 27.9892 7.62974 27.2393 10.5043 26.8012C10.678 26.9528 10.856 27.0956 11.0514 27.2298L16.4923 30.9928C16.6684 31.1158 16.9022 31.1131 17.0785 30.9928L22.5151 27.2298C22.7105 27.0957 22.8929 26.9528 23.0622 26.8012C25.9368 27.2393 28.6333 27.9892 30.8696 28.9771C31.1213 29.0914 31.4299 28.9811 31.547 28.7148C31.6643 28.4547 31.547 28.1504 31.2865 28.0348C30.5874 27.7266 29.8448 27.4403 29.0676 27.179L29.5149 23.2557L30.9999 23.4815C31.3642 23.5368 31.6658 23.2012 31.5775 22.8505L30.5483 18.6247L31.4515 19.2382C32.0073 19.6156 32.7542 19.5144 33.1885 19.0029L33.2493 18.9321C33.718 18.3811 33.6528 17.5513 33.1014 17.0818ZM16.883 15.7336L16.5399 16.1608L18.8934 18.0328L19.2322 17.6055L16.883 15.7336ZM16.0146 20.5696L17.7255 18.4202L16.4272 17.3859L14.7119 19.5353L16.0146 20.5696ZM15.5587 22.2218L15.8973 21.7946L13.5482 19.9226L13.2051 20.3499L15.5587 22.2218ZM16.1101 15.0501L15.7019 15.5604C15.4391 15.8916 15.4226 16.3567 15.6498 16.7058L13.8781 18.9321C13.4917 18.7897 13.0444 18.9009 12.7753 19.2391L12.3671 19.7493C12.0327 20.1714 12.1022 20.7867 12.5234 21.1228L14.9594 23.0612C15.3812 23.3977 15.9951 23.3262 16.3316 22.9052L16.7354 22.3946C17.0037 22.0597 17.0189 21.6041 16.7875 21.2495L17.2565 20.6651L21.7333 24.2297C21.9539 24.4089 22.2786 24.37 22.4541 24.1481C22.6321 23.9253 22.5974 23.6014 22.3716 23.4238L17.8947 19.8592L18.5635 19.0233C18.9507 19.1717 19.4067 19.0453 19.6664 18.7163L20.0702 18.206C20.4127 17.7784 20.3341 17.1635 19.9182 16.8326L17.4822 14.8942C17.0617 14.5597 16.4445 14.6253 16.1101 15.0501ZM13.9042 25.3061H19.2496C19.1164 25.0611 19.0107 24.7867 18.7329 24.7867H14.421C14.1443 24.7867 14.0355 25.0648 13.9042 25.3061ZM20.0355 24.5875C19.7489 24.0595 19.2756 23.7564 18.7329 23.7564H14.421C13.8782 23.7564 13.4049 24.0595 13.1227 24.5875L12.5886 25.5775C12.4098 25.9166 12.6515 26.3365 13.0445 26.3365H20.1137C20.4932 26.3365 20.7521 25.9245 20.5653 25.5775L20.0355 24.5875Z" fill="#103741"/>
</svg>
