<svg width="31" height="30" viewBox="0 0 31 30" fill="none" xmlns="http://www.w3.org/2000/svg">
<path fill-rule="evenodd" clip-rule="evenodd" d="M5.1109 16.1065C5.10225 16.1174 5.09207 16.1284 5.08153 16.1389C5.0808 16.1397 5.0808 16.1405 5.08037 16.1408L3.74525 17.4752C3.65336 17.5675 3.53312 17.6131 3.41296 17.6131C3.29279 17.6131 3.17263 17.5675 3.08067 17.4759C2.89719 17.2925 2.89719 16.9948 3.08067 16.8114L3.61411 16.2779H0.469828C0.210234 16.2779 0 16.0681 0 15.808C0 15.5489 0.210234 15.3386 0.469828 15.3386H3.61411L3.08067 14.8056C2.89719 14.6221 2.89719 14.3245 3.08067 14.141C3.26415 13.9575 3.56177 13.9575 3.74488 14.141L5.07964 15.4765C5.09098 15.4871 5.10152 15.4988 5.1117 15.5108C5.11548 15.5157 5.11846 15.5203 5.12187 15.5252C5.12791 15.5327 5.13358 15.5402 5.13881 15.5478C5.14296 15.5538 5.14594 15.5602 5.14972 15.5666C5.15422 15.5734 5.1588 15.5802 5.16215 15.5873C5.16556 15.5934 5.16854 15.6001 5.17153 15.6065C5.17567 15.6141 5.17865 15.6216 5.1817 15.6291C5.18512 15.6355 5.18657 15.6416 5.18926 15.6487C5.19188 15.6559 5.19493 15.6642 5.19755 15.6725C5.19908 15.6786 5.20053 15.6857 5.20242 15.6917C5.20431 15.7 5.20693 15.7079 5.20845 15.7169C5.20998 15.7245 5.21071 15.7313 5.21187 15.7388C5.21303 15.7467 5.21449 15.7542 5.21565 15.7625C5.21681 15.7749 5.21681 15.7881 5.21754 15.8013V15.8081V15.8153C5.21681 15.8285 5.21681 15.8417 5.21565 15.8545C5.21449 15.862 5.21303 15.8703 5.21187 15.8778C5.21107 15.8854 5.20998 15.8929 5.20845 15.9004C5.20693 15.9083 5.20504 15.9166 5.20242 15.9249C5.20133 15.9317 5.199 15.9381 5.19755 15.9449C5.19493 15.9525 5.19224 15.9603 5.18926 15.9679C5.18665 15.975 5.18512 15.9818 5.1817 15.9878C5.17909 15.9957 5.17567 16.0025 5.17232 16.0093C5.16854 16.0161 5.16629 16.0233 5.16215 16.03C5.15873 16.0361 5.15459 16.0432 5.15044 16.0497C5.14666 16.0564 5.14288 16.0625 5.13874 16.0697C5.13423 16.0764 5.12856 16.0832 5.12369 16.09C5.11918 16.0952 5.1154 16.1008 5.1109 16.1065ZM7.89723 8.67497H6.00904C5.74981 8.67497 5.53922 8.46553 5.53922 8.20558C5.53922 7.94634 5.74981 7.73575 6.00904 7.73575H6.76326L4.53973 5.51259C4.35625 5.3291 4.35625 5.03149 4.53973 4.84801C4.72321 4.66525 5.02083 4.66525 5.20431 4.84801L7.42747 7.0719V6.31732C7.42747 6.05816 7.63807 5.84749 7.8973 5.84749C8.15653 5.84749 8.36713 6.05809 8.36713 6.31732V8.20558C8.36713 8.22106 8.3664 8.23683 8.36451 8.25188C8.36378 8.25864 8.36262 8.26504 8.36189 8.27187C8.36073 8.28052 8.35964 8.28881 8.35775 8.29746C8.35666 8.30502 8.35433 8.31251 8.35208 8.32007C8.35055 8.32763 8.3491 8.33512 8.34721 8.34195C8.34459 8.34951 8.34117 8.35627 8.33892 8.36383C8.3363 8.37139 8.33361 8.37852 8.33136 8.38528C8.32831 8.39204 8.32496 8.39923 8.32191 8.4052C8.31813 8.41276 8.31515 8.42024 8.31137 8.42708C8.30795 8.43347 8.30388 8.43951 8.3001 8.4459C8.29632 8.4531 8.29254 8.45986 8.28803 8.46662C8.28316 8.47338 8.27822 8.47978 8.27299 8.48654C8.26884 8.49221 8.26506 8.49788 8.26056 8.50348C8.25118 8.51482 8.24136 8.52536 8.23119 8.53626C8.23046 8.53663 8.23002 8.53736 8.2293 8.53815C8.2285 8.53852 8.22813 8.53924 8.22741 8.53968C8.21687 8.54986 8.20596 8.56004 8.19498 8.56869C8.18968 8.57319 8.18364 8.57734 8.17805 8.58112C8.17165 8.58599 8.16482 8.59166 8.15806 8.59617C8.15166 8.60067 8.14446 8.60445 8.1377 8.6086C8.13167 8.61238 8.12527 8.61616 8.11851 8.61994C8.11175 8.62372 8.10455 8.62706 8.09779 8.63011C8.09067 8.63317 8.08383 8.63651 8.07707 8.63956C8.07031 8.64255 8.06312 8.64443 8.05636 8.64712C8.04879 8.65018 8.04131 8.65279 8.03375 8.65505C8.02699 8.65694 8.01943 8.65883 8.01267 8.66108C8.00511 8.66261 7.99682 8.6645 7.98889 8.66639C7.98061 8.66755 7.97232 8.66901 7.9644 8.67017C7.95764 8.6709 7.95044 8.67206 7.94368 8.67359C7.92776 8.67453 7.91307 8.67497 7.89723 8.67497ZM13.8328 4.05345C13.6497 3.86997 13.6497 3.57236 13.8328 3.38887C14.0163 3.20612 14.3139 3.20612 14.4966 3.38887L15.0304 3.92231V0.778105C15.0304 0.518511 15.2406 0.30835 15.5002 0.30835C15.7594 0.30835 15.9696 0.518584 15.9696 0.778105V3.92238L16.5034 3.38895C16.6861 3.20619 16.9837 3.20619 17.1672 3.38895C17.3506 3.57243 17.3506 3.87004 17.1672 4.05353L15.8316 5.38872C15.8312 5.38951 15.8305 5.38988 15.8297 5.3906C15.8192 5.40042 15.8086 5.4106 15.7973 5.41997C15.7924 5.42412 15.7867 5.4279 15.7811 5.4324C15.7743 5.43728 15.7679 5.44258 15.7604 5.44673C15.754 5.45123 15.7472 5.45581 15.7404 5.45916C15.734 5.4633 15.728 5.46672 15.7208 5.47079C15.7141 5.4742 15.7072 5.47755 15.7001 5.4806C15.6933 5.48365 15.6865 5.48736 15.6797 5.49078C15.6726 5.49303 15.6658 5.49565 15.659 5.49834C15.6515 5.50059 15.644 5.50365 15.6364 5.5059C15.6297 5.50815 15.6217 5.50968 15.615 5.51121C15.6078 5.5131 15.5995 5.51571 15.592 5.51724C15.5837 5.51877 15.5751 5.51949 15.5668 5.52066C15.56 5.52218 15.5532 5.52327 15.5464 5.52407C15.5306 5.52516 15.5155 5.52669 15.5001 5.52669C15.4843 5.52669 15.4692 5.52516 15.4538 5.52407C15.4467 5.52327 15.4398 5.52218 15.4331 5.52066C15.4248 5.51949 15.4169 5.51877 15.4086 5.51724C15.4003 5.51571 15.3924 5.5131 15.3848 5.51121C15.3777 5.50968 15.3701 5.50815 15.3634 5.5059C15.3558 5.50365 15.3483 5.50059 15.3408 5.49834C15.334 5.49572 15.3272 5.49303 15.32 5.49078C15.3133 5.48736 15.3064 5.48365 15.2997 5.4806C15.2926 5.47755 15.2857 5.4742 15.279 5.47079C15.2722 5.46664 15.2658 5.4633 15.2593 5.45916C15.2526 5.45501 15.2457 5.45123 15.2394 5.44673C15.2318 5.44258 15.2258 5.43735 15.2186 5.4324C15.213 5.4279 15.2074 5.42412 15.2024 5.41997C15.1911 5.4106 15.1805 5.40042 15.1696 5.3906C15.1693 5.38988 15.1685 5.38951 15.1677 5.38872L13.8328 4.05345ZM25.4609 8.2055C25.4609 8.46546 25.2503 8.67489 24.991 8.67489H23.1028C23.0874 8.67489 23.0723 8.67453 23.0565 8.67337C23.0497 8.67184 23.0425 8.67075 23.0365 8.66995C23.0275 8.66879 23.0196 8.66733 23.0117 8.66617C23.0034 8.66428 22.9958 8.66239 22.9884 8.66086C22.9808 8.65861 22.974 8.65672 22.9665 8.65483C22.9589 8.65258 22.9518 8.64996 22.945 8.64727C22.9375 8.64502 22.93 8.6424 22.9231 8.63935C22.9164 8.63673 22.91 8.63295 22.904 8.6299C22.8964 8.62684 22.8889 8.6235 22.8813 8.61972C22.8757 8.61594 22.8693 8.61223 22.8637 8.60918C22.8561 8.60467 22.8494 8.60053 22.8418 8.59602C22.8354 8.59151 22.8297 8.58737 22.8237 8.58243C22.8173 8.57792 22.8109 8.57341 22.8049 8.56847C22.7962 8.56091 22.7868 8.55299 22.7785 8.54397C22.7762 8.54208 22.7736 8.53946 22.7709 8.53794C22.7687 8.53532 22.7661 8.5319 22.7634 8.52965C22.7551 8.521 22.7472 8.51271 22.7396 8.50326C22.7347 8.49723 22.7301 8.4901 22.7253 8.48371C22.7208 8.4784 22.7163 8.4728 22.7128 8.4664C22.7075 8.45885 22.7034 8.45136 22.6989 8.4438C22.6951 8.43813 22.6917 8.43253 22.6887 8.42686C22.6846 8.4193 22.6811 8.41145 22.6774 8.40389C22.6743 8.39749 22.6717 8.39182 22.6687 8.38542C22.6657 8.3775 22.663 8.37001 22.6608 8.36209C22.6582 8.35569 22.6555 8.34849 22.6537 8.34253C22.6514 8.33425 22.6495 8.32632 22.6476 8.31803C22.6454 8.31127 22.6439 8.30408 22.6424 8.29732C22.6405 8.28787 22.6394 8.27769 22.6383 8.26795C22.6367 8.26308 22.6364 8.25741 22.6356 8.25254C22.6337 8.23669 22.633 8.22048 22.633 8.2047V6.31732C22.633 6.05816 22.8436 5.84749 23.1028 5.84749C23.362 5.84749 23.5726 6.05809 23.5726 6.31732V7.07197L25.7958 4.84808C25.9792 4.66533 26.2769 4.66533 26.4603 4.84808C26.6438 5.03156 26.6438 5.32918 26.4603 5.51266L24.2372 7.73582H24.991C25.2502 7.73575 25.4609 7.94634 25.4609 8.2055ZM31 15.8081C31 16.0681 30.7898 16.2779 30.5302 16.2779H27.3859L27.9194 16.8114C28.1029 16.9949 28.1029 17.2925 27.9194 17.476C27.8275 17.5675 27.7073 17.6132 27.5875 17.6132C27.4673 17.6132 27.3471 17.5676 27.2548 17.476L25.9204 16.1416C25.9092 16.1304 25.8989 16.1183 25.8892 16.1066C25.8884 16.1051 25.8876 16.1047 25.8866 16.1032C25.8779 16.0926 25.8696 16.0813 25.8617 16.0697C25.861 16.0681 25.8602 16.067 25.8591 16.0659C25.8515 16.0538 25.8448 16.0417 25.8376 16.0301C25.8376 16.029 25.8372 16.0282 25.8364 16.0275C25.8304 16.0151 25.824 16.0019 25.8183 15.9879L25.8175 15.9876C25.8123 15.9736 25.807 15.9593 25.8028 15.9454C25.8028 15.9451 25.8028 15.9435 25.8021 15.9432C25.7983 15.9292 25.7945 15.9157 25.7912 15.901C25.7908 15.8979 25.7908 15.8957 25.79 15.8923C25.7881 15.8806 25.7859 15.8679 25.7843 15.8554C25.7832 15.8411 25.7825 15.8268 25.7825 15.8117C25.7825 15.811 25.7825 15.8098 25.7825 15.8083C25.7825 15.7929 25.7832 15.7771 25.7843 15.7616C25.7859 15.7511 25.7878 15.7409 25.7892 15.7304C25.7899 15.7259 25.7907 15.721 25.7911 15.7164C25.7937 15.704 25.7975 15.6912 25.8005 15.6795C25.8013 15.6769 25.802 15.6746 25.8027 15.6712C25.8062 15.6595 25.8107 15.6474 25.8155 15.6358C25.8163 15.6332 25.8174 15.6309 25.8182 15.6282C25.8227 15.6173 25.828 15.6068 25.8332 15.5963C25.8351 15.5933 25.8362 15.5899 25.8381 15.5869C25.8429 15.5774 25.849 15.5688 25.8543 15.5601C25.8569 15.5556 25.8588 15.5511 25.8618 15.5473C25.8671 15.5398 25.8724 15.533 25.8777 15.5255C25.8815 15.5206 25.8852 15.5156 25.8894 15.5104C25.8935 15.5055 25.8984 15.5002 25.903 15.4954C25.9083 15.4893 25.9139 15.4829 25.9196 15.4769L27.2548 14.1413C27.4382 13.9579 27.7358 13.9579 27.9193 14.1413C28.1028 14.3248 28.1028 14.6224 27.9193 14.8059L27.3858 15.339H30.5301C30.7898 15.3387 31 15.5489 31 15.8081ZM23.9878 12.7256C23.9588 12.8341 23.888 12.9257 23.7885 12.9826L19.7951 15.2747C18.8091 15.8402 18.2745 16.8543 18.3639 17.9864C18.5085 19.8238 18.9734 21.1239 20.162 22.933C17.0645 24.6385 14.0668 25.204 11.0283 24.6544C12.3511 21.9663 12.6111 20.3256 12.6687 17.8455C12.6939 16.7789 12.1559 15.8247 11.2296 15.2935L7.20335 12.9826C7.09823 12.9227 7.03681 12.8428 7.00635 12.7252C6.97247 12.5975 6.97996 12.524 7.08958 12.3387C7.19957 12.1523 7.4234 12.0807 7.62193 12.1692L13.1366 14.6146C13.8837 14.9457 14.6854 15.1119 15.4867 15.113C15.4912 15.113 15.4957 15.1137 15.5003 15.1137C15.5071 15.1137 15.5146 15.113 15.5214 15.113C16.3179 15.1099 17.1139 14.9438 17.8557 14.6146L23.3708 12.1684C23.569 12.0806 23.7924 12.1522 23.9035 12.3387L23.9416 12.4039C24.0002 12.503 24.0164 12.6168 23.9878 12.7256ZM21.2741 24.9957L20.1963 23.9784C19.6116 24.2817 19.0265 24.5465 18.4411 24.773L19.262 25.2209C19.3773 25.2838 19.4613 25.3927 19.493 25.5204C19.5246 25.6489 19.5005 25.7842 19.4277 25.8934L18.1239 27.8494C18.0452 27.9685 18.0195 28.1154 18.0527 28.2646C18.0896 28.4312 18.1935 28.5769 18.3382 28.6647C18.4761 28.748 18.6389 28.7733 18.7967 28.7344C18.9545 28.6956 19.0879 28.5984 19.1711 28.4613L21.2741 24.9957ZM10.14 28.4993C9.89888 28.7099 9.51912 28.8203 9.25502 28.5642C9.25313 28.5623 9.25124 28.5604 9.24935 28.5589C9.00561 28.3298 8.99318 27.9459 9.22224 27.7018L11.1689 25.6283C11.85 25.7345 12.5334 25.7883 13.2191 25.7883H13.2406L10.14 28.4993ZM11.5113 6.74186C12.3488 6.94155 13.01 7.58992 13.2217 8.43267C13.0846 8.53852 12.955 8.65381 12.834 8.77776C12.0493 8.40222 11.5369 7.60613 11.5113 6.74186ZM18.2915 11.3829C18.2915 9.84434 17.0388 8.59246 15.5002 8.59246C13.9612 8.59246 12.7089 9.84434 12.7089 11.3829C12.7089 12.8737 13.8836 14.0955 15.3559 14.1708C15.3853 14.1711 15.4147 14.1727 15.4444 14.173C15.4617 14.173 15.4795 14.1742 15.496 14.1742C15.5469 14.1742 15.5977 14.1719 15.6483 14.1708C17.1183 14.0929 18.2915 12.8722 18.2915 11.3829ZM19.4887 6.74186C19.4632 7.60613 18.9507 8.40214 18.166 8.77776C18.045 8.65381 17.9155 8.53852 17.7783 8.43267C17.9901 7.58992 18.6513 6.94155 19.4887 6.74186ZM24.7119 11.8602C24.3604 11.2673 23.6201 11.0307 22.9902 11.3099L18.7658 13.1838C19.0615 12.6496 19.2307 12.0359 19.2307 11.383C19.2307 10.7132 19.0517 10.0837 18.7409 9.5396C19.9296 8.87989 20.6178 7.51083 20.3831 6.13202C20.3436 5.89918 20.1367 5.73118 19.9013 5.74172C18.5292 5.79712 17.3707 6.68887 16.9427 7.9438C16.4989 7.75654 16.0114 7.65331 15.5002 7.65331C14.9882 7.65331 14.5011 7.75654 14.0573 7.9438C13.6293 6.68923 12.4708 5.79712 11.0987 5.74172C10.8633 5.73234 10.6564 5.89954 10.6169 6.13202C10.3822 7.5109 11.0705 8.87997 12.2591 9.5396C11.9483 10.0836 11.7693 10.7131 11.7693 11.383C11.7693 12.0374 11.9396 12.6526 12.2365 13.1879L8.00227 11.3099C7.37237 11.0307 6.63211 11.2673 6.28092 11.8602C6.11852 12.1345 5.96935 12.4803 6.09708 12.9645C6.19238 13.3246 6.41279 13.6125 6.73527 13.7974L10.7622 16.1083C11.3936 16.4708 11.7463 17.0957 11.7293 17.8244C11.6716 20.3191 11.3959 21.915 9.91488 24.7752C9.84858 24.9048 9.8448 25.0569 9.90623 25.1888C9.9473 25.2774 10.0143 25.3493 10.0973 25.3968L8.53716 27.059C7.95473 27.6791 7.9849 28.6571 8.60346 29.2406C8.889 29.5164 9.25146 29.6535 9.62555 29.6535C10.0151 29.6535 10.4178 29.504 10.758 29.2064L14.7706 25.6974C15.5919 25.6024 16.4143 25.4318 17.2364 25.1866L18.3613 25.7995L17.3423 27.3283C17.1192 27.6621 17.0461 28.0671 17.1355 28.4687C17.2278 28.8838 17.4888 29.2482 17.8508 29.4681C18.095 29.6158 18.3685 29.6915 18.648 29.6915C18.7716 29.6915 18.8966 29.6765 19.0199 29.6467C19.4215 29.5484 19.7601 29.3004 19.9738 28.9482L22.2741 25.1583C22.3887 24.9684 22.3555 24.725 22.1947 24.5724L21.0611 23.5029C21.0648 23.501 21.0678 23.4991 21.0716 23.4968C21.1842 23.4309 21.2645 23.3213 21.2935 23.1935C21.3214 23.0665 21.2958 22.9324 21.2219 22.8247C19.9097 20.9191 19.4434 19.7253 19.2998 17.9124C19.2399 17.1506 19.5993 16.4695 20.262 16.0894L24.2562 13.7973C24.5756 13.6142 24.8028 13.3188 24.8955 12.9651C24.9889 12.611 24.9369 12.2421 24.7497 11.9253L24.7119 11.8602Z" fill="#103741"/>
</svg>
