<svg width="30" height="30" viewBox="0 0 30 30" fill="none" xmlns="http://www.w3.org/2000/svg">
<path d="M6.5093 15.9837C5.87442 15.9837 5.27442 15.7465 4.81395 15.314C4.31163 14.8465 4.02558 14.1837 4.02558 13.5C4.02558 13.3395 4.03954 13.1791 4.06744 13.0256H0.983721C0.439535 13.0256 0 12.586 0 12.0419V1.0186C0 0.460465 0.460465 0 1.02558 0H12.0558C12.6 0 13.0395 0.439535 13.0395 0.983721V4.53488C13.0395 4.64651 12.9837 4.75116 12.886 4.82093C12.7953 4.88372 12.6698 4.89767 12.5651 4.85581C12.3349 4.76512 12.1047 4.71628 11.8744 4.71628C11.3721 4.71628 10.9116 4.9186 10.5628 5.2814C10.2209 5.64419 10.0465 6.1186 10.0744 6.62093C10.1233 7.52093 10.8698 8.26744 11.7628 8.31628C12.0279 8.33023 12.3 8.28837 12.5651 8.18372C12.6698 8.14186 12.7884 8.15581 12.8791 8.21861C12.9698 8.2814 13.0256 8.38605 13.0256 8.49767V12.0488C13.0256 12.593 12.586 13.0326 12.0419 13.0326H8.94419C8.98605 13.2349 8.99302 13.4372 8.97907 13.6395C8.91628 14.8884 7.92558 15.9 6.66977 15.9907C6.62791 15.9837 6.57209 15.9837 6.5093 15.9837ZM1.02558 0.683721C0.837209 0.683721 0.683721 0.837209 0.683721 1.02558V12.0488C0.683721 12.2163 0.816279 12.3488 0.983721 12.3488H4.53488C4.64651 12.3488 4.75814 12.4047 4.82093 12.5023C4.88372 12.6 4.89767 12.7186 4.84884 12.8233C4.75814 13.0256 4.71628 13.2628 4.71628 13.507C4.71628 14.0093 4.91861 14.4767 5.28837 14.8256C5.65814 15.1674 6.13953 15.3419 6.64186 15.307C7.54884 15.2442 8.26744 14.5116 8.31628 13.5977C8.31628 13.5907 8.31628 13.5907 8.31628 13.5837C8.33721 13.3326 8.29535 13.0744 8.1907 12.8163C8.14884 12.7116 8.16279 12.593 8.22558 12.4953C8.28837 12.4047 8.39302 12.3419 8.50465 12.3419H12.0558C12.2233 12.3419 12.3558 12.2093 12.3558 12.0419V8.94419C12.1465 8.98605 11.9372 9 11.7279 8.98605C10.4721 8.91628 9.46744 7.91163 9.39767 6.64884C9.36279 5.95814 9.6 5.30233 10.0744 4.8C10.5419 4.30465 11.1977 4.02558 11.8814 4.02558C12.0419 4.02558 12.2023 4.03954 12.3558 4.07442V0.983721C12.3558 0.816279 12.2233 0.683721 12.0558 0.683721H1.02558Z" fill="#103741"/>
<path d="M29.0093 30H5.61629C5.0721 30 4.63257 29.5604 4.63257 29.0162V17.6232C4.63257 17.2674 4.91861 16.9814 5.27443 16.9814H9.16745C9.27908 16.9814 9.38373 17.0372 9.4535 17.1349C9.51629 17.2256 9.53024 17.3511 9.48838 17.4558C9.39768 17.686 9.34885 17.9163 9.34885 18.1465C9.34885 18.6488 9.55117 19.1093 9.91396 19.4581C10.2768 19.8 10.7512 19.9744 11.2535 19.9465C12.1535 19.8976 12.9 19.1511 12.9488 18.2581C12.9628 17.993 12.9209 17.7209 12.8163 17.4558C12.7744 17.3511 12.7884 17.2325 12.8512 17.1418C12.914 17.0511 13.0186 16.9953 13.1302 16.9953H16.9675V13.6046C16.7651 13.6465 16.5698 13.6604 16.3675 13.6465C15.1186 13.5837 14.107 12.593 14.0163 11.3372C13.9675 10.6395 14.2047 9.97672 14.6861 9.46741C15.1535 8.96509 15.8163 8.67904 16.5 8.67904C16.6605 8.67904 16.8209 8.693 16.9744 8.7209V5.63021C16.9744 5.08602 17.414 4.64648 17.9582 4.64648H29.0163C29.5605 4.64648 30 5.08602 30 5.63021V9.18137C30 9.293 29.9442 9.39765 29.8465 9.46741C29.7558 9.5302 29.6302 9.54416 29.5256 9.5023C29.2954 9.4116 29.0651 9.36276 28.8349 9.36276C28.3326 9.36276 27.8721 9.56509 27.5233 9.92788C27.1814 10.2907 27.007 10.7651 27.0349 11.2674C27.0837 12.1674 27.8302 12.9139 28.7233 12.9628C28.9884 12.9767 29.2605 12.9349 29.5256 12.8302C29.6302 12.7883 29.7488 12.8023 29.8395 12.8651C29.9302 12.9279 29.9861 13.0325 29.9861 13.1442V21.5232C29.9861 21.6349 29.9302 21.7395 29.8326 21.8093C29.7419 21.8721 29.6163 21.886 29.5116 21.8442C29.2814 21.7535 29.0512 21.7046 28.8209 21.7046C28.3186 21.7046 27.8582 21.9069 27.5093 22.2697C27.1675 22.6325 26.993 23.1069 27.0209 23.6093C27.0698 24.5093 27.8163 25.2558 28.7093 25.3046C28.9744 25.3186 29.2465 25.2767 29.5116 25.1721C29.6163 25.1302 29.7349 25.1442 29.8256 25.2069C29.9163 25.2697 29.9721 25.3744 29.9721 25.486V29.0372C29.993 29.5604 29.5535 30 29.0093 30ZM17.6442 29.3163H29.0093C29.1768 29.3163 29.3093 29.1837 29.3093 29.0162V25.9186C29.1 25.9604 28.8907 25.9744 28.6814 25.9604C27.4256 25.8907 26.4209 24.886 26.3512 23.6232C26.3163 22.9325 26.5535 22.2767 27.0279 21.7814C27.4954 21.286 28.1512 21.0069 28.8349 21.0069C28.9954 21.0069 29.1558 21.0209 29.3093 21.0558V17.6721H25.4442C25.3326 17.6721 25.2209 17.6163 25.1582 17.5186C25.0954 17.4209 25.0814 17.3023 25.1302 17.1976C25.2209 16.9883 25.2628 16.7581 25.2628 16.5139C25.2628 16.0186 25.0605 15.5511 24.7047 15.2093C24.3419 14.8674 23.8675 14.686 23.3651 14.7139C22.4442 14.7628 21.6837 15.5581 21.6628 16.479C21.6628 16.7302 21.7116 16.9814 21.8023 17.2046C21.8442 17.3093 21.8302 17.4279 21.7675 17.5256C21.7047 17.6232 21.6 17.679 21.4814 17.679H17.6302V21.0697C17.8395 21.0279 18.0488 21.0139 18.2582 21.0279C19.514 21.0976 20.5186 22.1023 20.5884 23.3651C20.6233 24.0558 20.3861 24.7116 19.9116 25.2069C19.4442 25.7023 18.7884 25.9814 18.1047 25.9814C17.9442 25.9814 17.7837 25.9674 17.6302 25.9325V29.3163H17.6442ZM5.31629 17.6651V29.0162C5.31629 29.1837 5.44885 29.3163 5.61629 29.3163H16.9605V25.4651C16.9605 25.3535 17.0163 25.2488 17.114 25.179C17.2047 25.1162 17.3302 25.1023 17.4349 25.1442C17.6651 25.2349 17.8954 25.2837 18.1256 25.2837C18.6279 25.2837 19.0884 25.0814 19.4372 24.7186C19.7791 24.3558 19.9535 23.8814 19.9256 23.379C19.8768 22.479 19.1302 21.7325 18.2372 21.6837C17.9721 21.6697 17.7 21.7116 17.4349 21.8163C17.3302 21.8581 17.2116 21.8442 17.1209 21.7814C17.0302 21.7186 16.9744 21.6139 16.9744 21.5023V17.6581H13.5907C13.6326 17.8674 13.6465 18.0767 13.6326 18.286C13.5628 19.5418 12.5581 20.5465 11.2954 20.6163C10.6047 20.6511 9.94885 20.4139 9.44652 19.9395C8.95117 19.4721 8.6721 18.8162 8.6721 18.1325C8.6721 17.9721 8.68606 17.8116 8.72094 17.6581H5.31629V17.6651ZM25.9047 16.9814H29.3093V13.5837C29.1 13.6256 28.8907 13.6395 28.6814 13.6256C27.4256 13.5558 26.4209 12.5511 26.3512 11.2883C26.3163 10.5976 26.5535 9.94183 27.0279 9.44648C27.4954 8.95114 28.1512 8.67207 28.8349 8.67207C28.9954 8.67207 29.1558 8.68602 29.3093 8.7209V5.63021C29.3093 5.46276 29.1768 5.33021 29.0093 5.33021H17.9512C17.7837 5.33021 17.6512 5.46276 17.6512 5.63021V9.18137C17.6512 9.293 17.5954 9.40462 17.4977 9.46741C17.4 9.5302 17.2814 9.54416 17.1768 9.49532C16.9744 9.40462 16.7372 9.36276 16.493 9.36276C15.9907 9.36276 15.5233 9.56509 15.1744 9.93486C14.8326 10.3046 14.6582 10.786 14.693 11.2883C14.7558 12.1953 15.4884 12.9139 16.4023 12.9628C16.6675 12.9767 16.9256 12.9349 17.1768 12.8302C17.2814 12.7883 17.4 12.7953 17.4977 12.8651C17.5954 12.9279 17.6512 13.0325 17.6512 13.1511V17.0023H21.0488C21.014 16.8349 21 16.6604 21 16.486C21.0209 15.1883 22.0535 14.1209 23.3442 14.0442C24.0349 14.0093 24.6907 14.2535 25.1861 14.7279C25.6814 15.2023 25.9605 15.8372 25.9605 16.5279C25.9535 16.6674 25.9395 16.8279 25.9047 16.9814Z" fill="#103741"/>
</svg>
