<svg width="60" height="60" viewBox="0 0 60 60" fill="none" xmlns="http://www.w3.org/2000/svg">
<path d="M26.3012 18.8428L19.3502 33.5694C19.154 33.985 19.2153 34.4619 19.51 34.8139C19.8049 35.1661 20.2635 35.3101 20.7069 35.1902L23.6989 34.3811L25.2501 37.0697C25.4614 37.4359 25.8394 37.6527 26.2547 37.6527C26.2907 37.6527 26.3268 37.6511 26.3633 37.6478C26.8203 37.6064 27.2004 37.3122 27.3549 36.8796L30.0073 29.4538C30.204 29.6495 30.4405 29.8042 30.7026 29.9081V30.9684C30.7026 32.097 31.6163 33.0154 32.7427 33.0244V33.6772C32.7427 34.8114 33.6653 35.734 34.7995 35.734H36.7776C37.9117 35.734 38.8344 34.8113 38.8344 33.6772V33.0244C39.9608 33.0154 40.8745 32.097 40.8745 30.9684V29.9081C41.1366 29.8043 41.373 29.6495 41.5696 29.4538L44.2221 36.8797C44.3765 37.3123 44.7567 37.6065 45.2137 37.6479C45.2501 37.6512 45.2862 37.6528 45.3222 37.6528C45.7375 37.6528 46.1157 37.436 46.3267 37.0699L47.8782 34.3812L50.87 35.1902C51.3137 35.3104 51.7721 35.166 52.0669 34.8141C52.3618 34.462 52.423 33.9851 52.2268 33.5695L45.2758 18.8429C46.552 16.9645 47.7441 14.7198 47.7441 11.2647C47.7441 7.92422 46.4339 5.11524 43.955 3.14133C41.7908 1.41797 38.8905 0.468872 35.7884 0.468872C32.6863 0.468872 29.7861 1.41797 27.6219 3.14133C25.143 5.11524 23.8327 7.92422 23.8327 11.2647C23.8327 14.7198 25.0249 16.9644 26.301 18.8429L26.3012 18.8428ZM26.1565 35.3577L24.8046 33.0144C24.6186 32.6922 24.2389 32.5354 23.8798 32.6325L21.2738 33.3373L27.3887 20.3822C28.4975 21.9438 29.4004 23.3757 29.4004 25.4213V26.2758L26.1565 35.3577ZM36.7764 25.3901H34.8005V17.5212C35.446 17.6037 36.1311 17.6037 36.7764 17.5212V25.3901ZM40.5359 27.0307V27.9967C40.5359 28.2261 40.3492 28.4128 40.1197 28.4128H31.4572C31.2277 28.4128 31.041 28.2261 31.041 27.9967V27.0307H40.5359ZM36.7776 34.0934H34.7995C34.57 34.0934 34.3833 33.9067 34.3833 33.6772V33.0253H37.1936V33.6772C37.1936 33.9067 37.0069 34.0934 36.7775 34.0934H36.7776ZM38.8177 31.3846H32.7594C32.5299 31.3846 32.3432 31.1979 32.3432 30.9684V30.0534H39.2338V30.9684C39.2338 31.1979 39.0472 31.3846 38.8177 31.3846ZM47.6972 32.6325C47.3383 32.5357 46.9585 32.6922 46.7726 33.0144L45.4205 35.3578L42.1764 26.2758V25.4213C42.1764 23.3757 43.0794 21.9439 44.1883 20.3822L50.3031 33.3373L47.6972 32.6325ZM35.7884 2.10938C40.7566 2.10938 46.1035 4.97426 46.1035 11.2645C46.1035 14.8923 44.6101 16.9758 43.1658 18.9908C41.8778 20.7878 40.5461 22.646 40.536 25.3902H38.4171V17.4477C38.4171 17.3356 38.4179 17.2253 38.4194 17.1164C40.0261 16.5134 41.3279 15.355 42.0499 13.8068C42.886 12.0141 42.8875 10.4163 42.0541 9.53286C41.5184 8.96473 40.7334 8.8104 39.9541 9.12C38.5838 9.66434 37.1296 11.7188 36.8316 15.8536C36.1576 15.9715 35.4193 15.9715 34.7452 15.8536C34.4472 11.7188 32.9931 9.66434 31.6226 9.12C30.8436 8.81028 30.0585 8.96473 29.5226 9.53286C28.6892 10.4165 28.6907 12.0141 29.5269 13.8068C30.249 15.355 31.5508 16.5134 33.1574 17.1164C33.159 17.2252 33.1598 17.3356 33.1598 17.4477V25.3902H31.0408C31.0307 22.646 29.699 20.7878 28.411 18.9907C26.9668 16.9758 25.4733 14.8923 25.4733 11.2645C25.4733 4.97426 30.8205 2.10938 35.7884 2.10938ZM38.5318 15.2615C38.8814 12.1625 39.9466 10.8881 40.5598 10.6446C40.6339 10.6152 40.6897 10.6047 40.7323 10.6047C40.8099 10.6047 40.8429 10.6397 40.8608 10.6584C41.0887 10.9001 41.1974 11.7531 40.5631 13.1132C40.1336 14.0339 39.4216 14.7708 38.5318 15.2615ZM33.0452 15.2615C32.1554 14.7708 31.4433 14.034 31.0138 13.1132C30.3795 11.7532 30.4884 10.9001 30.7162 10.6584C30.7339 10.6397 30.767 10.6047 30.8447 10.6047C30.8872 10.6047 30.9432 10.6152 31.0172 10.6446C31.6304 10.8882 32.6956 12.1625 33.0453 15.2615H33.0452ZM55.0419 39.6817C54.2953 38.8341 52.7867 38.4147 51.1 39.3886C49.0659 40.563 44.0462 43.0129 40.2313 44.4736C40.3443 43.7828 40.2134 43.0673 39.8355 42.4314C39.2573 41.4585 38.2423 40.9014 37.1144 40.9378C32.3865 40.9354 29.3249 39.6653 26.6233 38.5445C24.1487 37.5181 22.0116 36.6315 19.4721 37.2461C16.9245 37.8627 14.2185 39.9628 10.7355 44.0357C9.8158 43.6202 8.69502 43.7871 7.94033 44.5417L4.61877 47.8631C4.4649 48.0169 4.37842 48.2256 4.37842 48.4432C4.37842 48.6608 4.46479 48.8694 4.61877 49.0233L14.8864 59.2909C15.0465 59.4511 15.2565 59.5311 15.4663 59.5311C15.6762 59.5311 15.8862 59.451 16.0463 59.2909L19.368 55.9693C20.0671 55.2702 20.2613 54.257 19.9563 53.3803C22.047 52.5234 24.3827 52.4496 27.3613 52.628C28.0392 52.6685 28.7512 52.7258 29.5051 52.7866C31.2973 52.931 33.1512 53.0802 34.9435 53.0406C38.7097 52.9574 41.0805 51.8491 44.0186 50.2928C47.1032 48.6588 53.6839 44.7539 54.9179 43.132C55.8081 41.9616 55.8568 40.6072 55.0417 39.6818L55.0419 39.6817ZM18.2081 54.8093L15.4665 57.5508L6.35889 48.4432L9.10037 45.7017C9.43424 45.368 9.9774 45.3677 10.3115 45.7017L18.2081 53.5982C18.5419 53.932 18.5419 54.4753 18.2081 54.8092V54.8093ZM53.6123 42.1386C52.7542 43.2666 47.2424 46.7285 43.2509 48.8429C40.427 50.3388 38.3208 51.325 34.9074 51.4003C33.1994 51.438 31.388 51.2923 29.6369 51.1513C28.8744 51.0899 28.1542 51.0319 27.4594 50.9903C24.7853 50.8302 21.7285 50.7727 18.9549 52.025L12.0052 45.0754C15.1972 41.3483 17.6998 39.3628 19.8579 38.8405C21.8778 38.352 23.6046 39.0682 25.9947 40.0597C28.6997 41.1818 32.0662 42.5783 37.1288 42.5783C37.1391 42.5783 37.1495 42.5781 37.1599 42.5777C37.6847 42.5582 38.1562 42.8166 38.4253 43.2694C38.6944 43.7223 38.6955 44.2614 38.4278 44.7115C37.9363 45.5387 36.0585 45.9836 33.5249 45.8733C31.0986 45.7673 28.6596 45.1895 27.7035 44.6918C27.3018 44.4829 26.8063 44.6388 26.5973 45.0408C26.3881 45.4426 26.5443 45.938 26.9463 46.1472C28.2101 46.8049 31.359 47.5397 34.2735 47.5397C35.6893 47.5397 37.0492 47.3658 38.1114 46.9259C41.984 45.8415 49.2483 42.3519 51.9205 40.8091C52.7987 40.302 53.5158 40.4312 53.8108 40.7658C54.0949 41.0884 54.0207 41.6016 53.6124 42.1384L53.6123 42.1386ZM50.2968 18.7568C50.6892 18.9833 50.8236 19.485 50.597 19.8773C50.4451 20.1406 50.1693 20.2876 49.8858 20.2876C49.7466 20.2876 49.6056 20.2522 49.4765 20.1776L47.7235 19.1656C47.3312 18.939 47.1967 18.4373 47.4233 18.045C47.6499 17.6527 48.1516 17.5182 48.5438 17.7448L50.2968 18.7568ZM47.4233 4.64532C47.1967 4.25297 47.3313 3.75129 47.7235 3.52477L49.4765 2.51274C49.8691 2.28622 50.3705 2.42063 50.597 2.81297C50.8236 3.20532 50.689 3.707 50.2968 3.93352L48.5438 4.94555C48.4146 5.02008 48.2736 5.05559 48.1345 5.05559C47.8509 5.05559 47.5753 4.90852 47.4233 4.64532ZM50.0388 10.5248H52.0628C52.5159 10.5248 52.8831 10.8921 52.8831 11.3452C52.8831 11.7982 52.5159 12.1655 52.0628 12.1655H50.0388C49.5857 12.1655 49.2185 11.7982 49.2185 11.3452C49.2185 10.8921 49.5857 10.5248 50.0388 10.5248ZM20.9799 19.8775C20.7534 19.4851 20.8879 18.9834 21.2801 18.7569L23.0331 17.7449C23.4257 17.5182 23.9272 17.6528 24.1537 18.0451C24.3802 18.4375 24.2457 18.9391 23.8535 19.1657L22.1004 20.1777C21.9712 20.2522 21.8302 20.2877 21.6911 20.2877C21.4075 20.2877 21.1319 20.1407 20.9799 19.8775ZM20.9799 2.81297C21.2065 2.42063 21.7083 2.28622 22.1004 2.51274L23.8535 3.52477C24.2458 3.75129 24.3802 4.25297 24.1537 4.64532C24.0017 4.90852 23.726 5.05559 23.4425 5.05559C23.3033 5.05559 23.1623 5.0202 23.0331 4.94555L21.2801 3.93352C20.8878 3.707 20.7534 3.20532 20.9799 2.81297ZM18.6937 11.3452C18.6937 10.8921 19.061 10.5248 19.514 10.5248H21.5382C21.9912 10.5248 22.3585 10.8921 22.3585 11.3452C22.3585 11.7982 21.9912 12.1655 21.5382 12.1655H19.514C19.061 12.1655 18.6937 11.7982 18.6937 11.3452Z" fill="#FC800A"/>
</svg>
