<svg width="30" height="30" viewBox="0 0 30 30" fill="none" xmlns="http://www.w3.org/2000/svg">
<g clip-path="url(#clip0_9197_209)">
<path d="M19.0987 27.2344L16.8456 28.1014L14.7758 22.7381V17.8736L16.3946 16.258C16.849 16.2419 17.3012 16.0839 17.6808 15.7798L19.512 14.3124C20.2768 13.6995 20.9963 13.0308 21.6642 12.3142L24.3105 11.2959L24.7943 12.5495C24.8616 12.7239 25.028 12.8309 25.2044 12.8309C25.257 12.8309 25.3105 12.8213 25.3625 12.8013C25.5889 12.7139 25.7016 12.4595 25.6143 12.2331L24.9725 10.57C24.8852 10.3437 24.6311 10.2309 24.4047 10.3181L22.8554 10.9143C22.8783 10.8848 28.8445 3.10171 28.8445 3.10171C29.3333 2.46404 29.2782 1.6214 28.7106 1.05269C28.1419 0.482808 27.2976 0.425972 26.6577 0.914585L23.1615 3.58365C22.9685 3.73095 22.9315 4.00669 23.0788 4.19958C23.226 4.39248 23.5018 4.42945 23.6948 4.28226L27.191 1.6132C27.5418 1.34537 27.8937 1.47837 28.0886 1.67355C28.2918 1.87716 28.4139 2.21882 28.1469 2.56705L22.2266 10.2913C21.2779 11.5291 20.1796 12.6512 18.9623 13.6267L17.1312 15.094C16.6124 15.5096 15.867 15.4687 15.397 14.9991L14.7341 14.3365C14.2645 13.8672 14.2242 13.1232 14.6403 12.606L16.1108 10.7783C17.0883 9.56332 18.2126 8.46726 19.4527 7.52056L22.0638 5.52714C22.2568 5.3799 22.2938 5.1041 22.1465 4.91121C21.9991 4.71826 21.7233 4.68128 21.5305 4.82853L18.9193 6.82195C18.6309 7.04214 18.3487 7.27054 18.0726 7.50591L10.6867 0.128784C10.5152 -0.0426025 10.2372 -0.0426025 10.0656 0.128784L3.55219 6.63445C3.38045 6.80595 3.38027 7.08421 3.55178 7.25595C3.72334 7.42763 4.0016 7.42781 4.17322 7.2563L10.3762 1.06078L17.4151 8.09126C16.702 8.75449 16.0363 9.46845 15.4259 10.2272L13.9554 12.055C13.6505 12.4339 13.4917 12.8856 13.4752 13.3396L11.6905 15.1208L11.3568 15.242H6.16992L1.17398 10.2519L2.72232 8.70539C2.89406 8.53388 2.89424 8.25562 2.72273 8.08388C2.55117 7.91214 2.27291 7.91203 2.10129 8.08353L0.241641 9.94095C0.159082 10.0234 0.112734 10.1352 0.112734 10.2519C0.112734 10.3686 0.159082 10.4804 0.241641 10.5629L4.92633 15.242H0.439453C0.196699 15.242 0 15.4387 0 15.6814V29.5608C0 29.8035 0.196699 30.0002 0.439453 30.0002H14.3364C14.5791 30.0002 14.7758 29.8035 14.7758 29.5608V25.1793L16.1837 28.8274C16.2509 29.0019 16.4173 29.1088 16.5938 29.1088C16.6462 29.1088 16.6996 29.0993 16.7514 29.0794L19.4143 28.0547C19.6409 27.9676 19.7538 27.7133 19.6667 27.4867C19.5795 27.2602 19.3254 27.147 19.0987 27.2344ZM11.4215 22.4049C11.5323 22.5197 11.7176 22.712 11.7279 22.7854C11.7203 22.8628 11.4908 23.0661 11.3805 23.1637C11.1607 23.3585 10.9116 23.5791 10.8028 23.8748C10.6927 24.1736 10.7395 24.5056 10.7808 24.7985C10.8025 24.9524 10.8429 25.2389 10.8027 25.3034C10.7464 25.3581 10.4634 25.3864 10.3114 25.4016C10.0157 25.4312 9.68057 25.4648 9.41373 25.6435C9.15551 25.8166 9.00832 26.0952 8.866 26.3647C8.79533 26.4985 8.64832 26.7768 8.57232 26.7984C8.49639 26.8201 8.22516 26.6602 8.09479 26.5835C7.83217 26.4288 7.56064 26.2688 7.24998 26.2571C6.92824 26.2442 6.62619 26.3924 6.35889 26.5224C6.22143 26.5893 5.96461 26.7136 5.8916 26.6975C5.82111 26.6628 5.7051 26.3978 5.64281 26.2554C5.52422 25.9844 5.3898 25.6772 5.1392 25.4807C4.89135 25.2861 4.56346 25.2291 4.27418 25.1787C4.12904 25.1535 3.82711 25.1009 3.78187 25.0421C3.75023 24.9712 3.80707 24.7102 3.84105 24.5543C3.90504 24.2606 3.97758 23.9279 3.88846 23.6135C3.79934 23.299 3.56285 23.0538 3.35426 22.8374C3.24346 22.7225 3.05812 22.5303 3.04787 22.4569C3.05549 22.3795 3.285 22.1763 3.39527 22.0786C3.61506 21.8839 3.8642 21.6633 3.97307 21.3676C4.08311 21.0687 4.03629 20.7367 3.99498 20.4438C3.9733 20.2899 3.93287 20.0034 3.97307 19.9389C4.02926 19.8843 4.31227 19.8559 4.46438 19.8407C4.76004 19.8111 5.0952 19.7775 5.36203 19.5987C5.62031 19.4257 5.7675 19.147 5.90982 18.8775C5.98043 18.7437 6.12744 18.4654 6.2035 18.4438C6.27984 18.4225 6.55072 18.582 6.68104 18.6588C6.84738 18.7568 7.01742 18.8568 7.19865 18.9199C7.15535 19.0644 7.11809 19.2112 7.08803 19.3602L6.92402 20.1725C6.64494 20.2251 6.3784 20.325 6.12873 20.4712C4.94338 21.1656 4.54383 22.6949 5.23816 23.8803C5.57449 24.4546 6.11437 24.8634 6.7582 25.0317C6.96814 25.0865 7.18078 25.1136 7.39213 25.1136C7.82912 25.1136 8.26014 24.9976 8.64721 24.7709C9.37887 24.3423 9.83795 23.5653 9.87633 22.7306L10.2992 22.6508C10.6639 22.5819 11.0154 22.4729 11.3493 22.3294C11.3733 22.3549 11.3975 22.38 11.4215 22.4049ZM9.90498 21.8309L8.09496 22.1728C7.93406 22.2033 7.77592 22.1539 7.66102 22.0375C7.54658 21.9216 7.49941 21.7637 7.53158 21.6042L7.88402 19.8584L9.06762 19.8588C9.52951 19.859 9.90516 20.2342 9.90498 20.6953V21.8309ZM7.0357 22.6552C7.29434 22.917 7.6435 23.0603 8.0042 23.0603C8.08852 23.0603 8.17354 23.0525 8.25814 23.0365L8.97475 22.9011C8.8926 23.3596 8.61463 23.7714 8.20283 24.0126C7.83123 24.2303 7.39687 24.2903 6.98027 24.1813C6.56355 24.0725 6.2141 23.8078 5.99643 23.4362C5.51098 22.6192 5.85809 21.535 6.7265 21.1505L6.67002 21.4304C6.58043 21.8747 6.71707 22.3325 7.0357 22.6552ZM10.7839 21.6091V20.6955C10.7842 19.7499 10.0144 18.9803 9.06797 18.98L8.10334 18.9796C8.5142 17.8189 9.43412 16.8759 10.6063 16.4499L11.4231 16.1531C11.5816 17.2462 12.4569 18.1303 13.5656 18.2836L13.2949 19.064C12.8821 20.254 11.949 21.185 10.7839 21.6091ZM14.7756 15.6206C14.9527 15.7976 15.1533 15.9377 15.3674 16.0414L13.9677 17.4385C13.0496 17.4471 12.2603 16.7082 12.2763 15.778L13.6911 14.366C13.795 14.5802 13.9354 14.7809 14.1127 14.9582L14.7756 15.6206ZM0.878906 29.1213V16.121H9.30615C8.54783 16.6104 7.93107 17.2977 7.52525 18.1014C7.42647 18.0777 7.25584 17.9775 7.12699 17.9016C6.80373 17.7112 6.4016 17.4742 5.96367 17.5984C5.5258 17.7226 5.30777 18.1354 5.13258 18.4672C5.05412 18.6157 4.94666 18.8191 4.87277 18.8686C4.78863 18.925 4.56023 18.9479 4.37666 18.9663C4.01039 19.0029 3.55459 19.0486 3.28266 19.3951C3.00867 19.7443 3.07295 20.2002 3.12463 20.5666C3.15018 20.7475 3.18187 20.9725 3.14818 21.0639C3.11572 21.152 2.94041 21.3074 2.81244 21.4208C2.53354 21.6678 2.18643 21.9752 2.16949 22.4238C2.1532 22.8582 2.45508 23.1712 2.72145 23.4476C2.8517 23.5826 3.01371 23.7507 3.04277 23.8533C3.07189 23.9559 3.02215 24.184 2.98225 24.3673C2.90051 24.7423 2.80793 25.1674 3.04986 25.5285C3.29971 25.9014 3.7565 25.9809 4.12348 26.0447C4.29193 26.074 4.52262 26.1142 4.59656 26.1722C4.6732 26.2323 4.76432 26.4405 4.8375 26.6079C4.98586 26.9468 5.17049 27.3687 5.58697 27.5221C6.00047 27.6743 6.41227 27.4739 6.7432 27.3128C6.90914 27.2321 7.11293 27.1315 7.2167 27.1355C7.30564 27.1389 7.50381 27.2556 7.64854 27.3408C7.90945 27.4945 8.22182 27.6785 8.56283 27.6785C8.64434 27.6785 8.72748 27.668 8.81191 27.6441C9.24979 27.5199 9.46775 27.107 9.64301 26.7753C9.72147 26.6268 9.82887 26.4234 9.90275 26.3739C9.98689 26.3176 10.2154 26.2946 10.3989 26.2762C10.7651 26.2396 11.2209 26.1939 11.4928 25.8475C11.7669 25.4982 11.7026 25.0423 11.651 24.6759C11.6254 24.4951 11.5937 24.2699 11.6274 24.1785C11.6599 24.0904 11.8352 23.9351 11.9631 23.8218C12.2421 23.5747 12.5891 23.2673 12.606 22.8188C12.6204 22.4364 12.3881 22.148 12.1506 21.8959C12.8935 21.4021 13.5005 20.7152 13.8967 19.9008V29.1213H0.878906Z" fill="#131126"/>
<path d="M29.9705 23.521L26.3527 14.1461C26.2654 13.9196 26.011 13.807 25.7845 13.8943C25.5581 13.9817 25.4453 14.2361 25.5327 14.4625L28.9922 23.4271L21.0139 26.4971C20.7874 26.5843 20.6744 26.8386 20.7615 27.0651C20.8287 27.2397 20.9952 27.3469 21.1718 27.3469C21.2242 27.3469 21.2776 27.3374 21.3295 27.3175L29.7183 24.0894C29.8272 24.0475 29.9149 23.9641 29.9622 23.8575C30.0096 23.7509 30.0125 23.6298 29.9705 23.521Z" fill="#131126"/>
<path d="M20.8499 20.2443C21.5646 19.9683 22.3649 20.2169 22.7959 20.8487C23.0741 21.2564 23.5933 21.4156 24.0588 21.2361L25.9006 20.5254C26.1888 20.4141 26.4149 20.1839 26.521 19.8936C26.6264 19.6053 26.6024 19.286 26.4552 19.0177C25.0846 16.5189 22.0431 15.4096 19.3808 16.4371C16.7182 17.4646 15.2105 20.3295 15.8739 23.101C15.9451 23.3987 16.1418 23.6514 16.4136 23.7942C16.569 23.8759 16.7402 23.9172 16.912 23.9172C17.0424 23.9172 17.1732 23.8934 17.2976 23.8454L19.1393 23.1346C19.6046 22.955 19.8824 22.4881 19.8145 21.9992C19.7093 21.2418 20.1352 20.5201 20.8499 20.2443ZM16.9811 23.0254C16.9101 23.0527 16.8513 23.0313 16.8224 23.0162C16.7945 23.0015 16.7454 22.9665 16.7286 22.8965C16.1672 20.5512 17.4435 18.1267 19.6972 17.257C20.2642 17.0382 20.8511 16.9339 21.4311 16.9339C23.1562 16.9339 24.8166 17.8579 25.6846 19.4403C25.7192 19.5035 25.7062 19.5624 25.6955 19.5919C25.6843 19.6226 25.655 19.6781 25.5842 19.7054L25.1535 19.8716C24.1937 17.9965 21.9466 17.1079 19.9387 17.8827C18.8989 18.284 18.0776 19.0661 17.6262 20.085C17.2345 20.9688 17.1623 21.9389 17.4117 22.8591L16.9811 23.0254ZM18.9439 22.12C18.9551 22.2014 18.9042 22.2832 18.8228 22.3147L18.2377 22.5405C18.0692 21.8412 18.1333 21.1099 18.4297 20.4412C18.7861 19.6369 19.4344 19.0195 20.2551 18.7028C21.8102 18.1026 23.5467 18.7672 24.3271 20.1905L23.7424 20.4162C23.6608 20.4476 23.5682 20.4211 23.5219 20.3533C22.8598 19.3828 21.631 19.0009 20.5335 19.4243C19.4361 19.8478 18.7824 20.9563 18.9439 22.12Z" fill="#131126"/>
<path d="M6.52906 11.2779C6.05779 12.0483 6.15517 13.0712 6.82132 13.7374C7.21144 14.1275 7.7239 14.3226 8.23636 14.3226C8.74882 14.3226 9.26128 14.1275 9.6514 13.7374L13.9927 9.39615C14.7729 8.61592 14.7729 7.34631 13.9927 6.56607C13.6147 6.18814 13.1121 5.97996 12.5776 5.97996C12.0616 5.97996 11.5754 6.17391 11.2024 6.52734C10.7453 6.11549 10.1602 5.89014 9.54042 5.89014C9.54031 5.89014 9.54025 5.89014 9.54013 5.89014C8.87621 5.8902 8.25195 6.14883 7.78244 6.61834C7.22187 7.17885 6.96916 7.95217 7.0765 8.71623C6.89328 8.79639 6.725 8.91041 6.58209 9.05326C5.97189 9.66357 5.95419 10.6457 6.52906 11.2779ZM7.20359 9.67471C7.32388 9.55447 7.47658 9.48158 7.64521 9.46395C7.77781 9.45006 7.89693 9.37676 7.96906 9.26467C8.04113 9.15252 8.05847 9.01377 8.01617 8.88732C7.82123 8.30514 7.96976 7.67391 8.40388 7.23984C8.70746 6.93627 9.11099 6.76904 9.54025 6.76904H9.54042C9.96962 6.76904 10.3733 6.93627 10.6769 7.23984C10.744 7.30693 10.8062 7.38105 10.8617 7.46021C10.9483 7.58355 11.0918 7.65381 11.2426 7.64666C11.3932 7.63934 11.5295 7.55543 11.6037 7.4243C11.6526 7.33811 11.7132 7.25848 11.7841 7.18758C11.996 6.97559 12.2779 6.85887 12.5776 6.85887C12.8774 6.85887 13.1592 6.97559 13.3712 7.18758C13.5832 7.39951 13.6998 7.68135 13.6998 7.98117C13.6998 8.28094 13.5832 8.56277 13.3712 8.77471L9.0299 13.116C8.59238 13.5536 7.88029 13.5536 7.44277 13.116C7.00519 12.6784 7.00519 11.9664 7.44212 11.5294L7.44921 11.5223C7.54654 11.4254 7.59294 11.2884 7.5746 11.1522C7.55626 11.016 7.47517 10.8963 7.35558 10.8286C7.30121 10.7978 7.25023 10.7588 7.20412 10.7126C6.91783 10.4263 6.91765 9.9607 7.20359 9.67471Z" fill="#131126"/>
</g>
<defs>
<clipPath id="clip0_9197_209">
<rect width="30" height="30" fill="white"/>
</clipPath>
</defs>
</svg>
