<svg width="30" height="30" viewBox="0 0 30 30" fill="none" xmlns="http://www.w3.org/2000/svg">
<g clip-path="url(#clip0_9324_298)">
<path d="M29.625 29.25H24.7594V19.107C24.9083 18.7312 25.3305 18.2974 25.5938 18.0611C26.1251 18.1721 27.5835 18.3712 28.6958 17.5327C29.5613 16.8806 30 15.7729 30 14.2402C30 14.0695 29.8845 13.9203 29.7195 13.8772C29.6366 13.8551 27.663 13.3571 26.3062 14.4374C25.5101 15.0712 25.1107 16.0949 25.1167 17.4813C25.0237 17.5634 24.8955 17.6838 24.7594 17.8263V10.726C25.3219 10.5873 25.7989 10.1598 26.0865 9.577C26.3603 9.67566 26.6355 9.72773 26.8995 9.72773C27.3953 9.72773 27.8528 9.55525 28.1922 9.21775C28.521 8.88962 28.7021 8.43135 28.7021 7.92737C28.7021 7.66897 28.6549 7.40801 28.5679 7.15415C29.3246 6.799 29.7964 6.14802 29.7964 5.41604C29.7964 4.68669 29.3138 4.04883 28.5957 3.69595C28.8806 2.91035 28.7524 2.11604 28.2323 1.59785C27.7148 1.08223 26.9209 0.971631 26.1623 1.22849C25.8071 0.471753 25.1528 0 24.417 0C23.6854 0 23.0452 0.480762 22.6912 1.19626C21.903 0.911646 21.105 1.03989 20.5845 1.55779C20.2556 1.88555 20.0745 2.34419 20.0745 2.84817C20.0745 3.10657 20.1218 3.36753 20.2088 3.62139C19.452 3.97654 18.9803 4.62751 18.9803 5.3595C18.9803 6.08884 19.4629 6.72671 20.181 7.07922C19.8964 7.86526 20.0246 8.6595 20.5447 9.17732C20.8852 9.51672 21.3457 9.6821 21.8366 9.6821C22.092 9.6821 22.3552 9.6356 22.6143 9.54785C22.9124 10.1809 23.4202 10.6117 24.0089 10.7358V29.25H17.883V26.8233C18.033 26.4427 18.4608 26.004 18.7263 25.7659C19.2604 25.8769 20.7322 26.079 21.8539 25.2338C22.7257 24.5764 23.1678 23.4604 23.1678 21.9154C23.1678 21.7447 23.0523 21.5955 22.8873 21.5524C22.8033 21.5306 20.8139 21.0289 19.4481 22.1168C18.6456 22.7558 18.2429 23.7878 18.2496 25.1858C18.1543 25.2698 18.0227 25.3931 17.8829 25.5398V21.2989C18.4634 21.1744 18.9636 20.7544 19.2569 20.1375C19.5168 20.2271 19.7812 20.2751 20.038 20.2751C20.5304 20.2751 20.995 20.1078 21.3389 19.7648C21.6711 19.4336 21.8541 18.972 21.8541 18.4646C21.8541 18.1969 21.8024 17.9273 21.7083 17.6659C22.4444 17.313 22.9033 16.6677 22.9033 15.9424C22.9033 15.2145 22.4413 14.5669 21.7 14.2148C21.7893 13.9597 21.838 13.6972 21.838 13.4366C21.838 12.9293 21.6549 12.4673 21.3227 12.1358C20.7943 11.6085 19.9832 11.4987 19.2197 11.7698C18.8657 11.0341 18.2188 10.5758 17.4921 10.5758C16.7615 10.5758 16.1117 11.0378 15.7592 11.7788C15.0018 11.517 14.2003 11.6295 13.6772 12.1519C13.345 12.4834 13.162 12.9454 13.162 13.4528C13.162 13.7202 13.2141 13.9898 13.3079 14.2512C12.5717 14.6044 12.1128 15.2498 12.1128 15.9746C12.1128 16.7029 12.5748 17.3505 13.3162 17.7026C13.2269 17.9577 13.1782 18.2205 13.1782 18.4811C13.1782 18.9885 13.3612 19.4501 13.6934 19.7812C14.0373 20.1244 14.5012 20.2916 14.9943 20.2916C15.2583 20.2916 15.5298 20.241 15.7964 20.1461C16.0848 20.7464 16.5701 21.1575 17.1333 21.2902V25.5371C16.9942 25.3912 16.8629 25.2682 16.7681 25.1849C16.7748 23.7888 16.372 22.7583 15.5714 22.1204C14.2068 21.0344 12.2208 21.5347 12.1372 21.5568C11.9722 21.5999 11.8567 21.7492 11.8567 21.9198C11.8567 23.4617 12.298 24.577 13.1688 25.2333C14.2882 26.0774 15.7574 25.8757 16.2914 25.765C16.5565 26.0024 16.9833 26.44 17.1333 26.8203V29.2499H6.23328V22.6829C6.39038 22.2817 6.84302 21.8188 7.12017 21.5714C7.66692 21.6872 9.19915 21.9018 10.3654 21.0223C11.2673 20.3424 11.7248 19.1863 11.7248 17.5866C11.7248 17.416 11.6093 17.2668 11.4442 17.2236C11.3576 17.2011 9.297 16.681 7.8832 17.8075C7.05183 18.4694 6.6356 19.54 6.64343 20.9913C6.5384 21.0836 6.38994 21.2219 6.23284 21.3884V13.1369C6.84895 13.0117 7.38069 12.5658 7.68787 11.9088C7.96311 12.0056 8.24326 12.0573 8.5155 12.0573C9.02776 12.0573 9.50998 11.8833 9.86697 11.5271C10.2119 11.1828 10.4021 10.7032 10.4021 10.1755C10.4021 9.89202 10.3458 9.6063 10.2446 9.32988C11.0197 8.96426 11.5028 8.28889 11.5028 7.53062C11.5028 6.76897 11.0164 6.09097 10.236 5.72651C10.3321 5.45654 10.3853 5.17786 10.3853 4.90188C10.3853 4.37461 10.1952 3.89465 9.8502 3.55078C9.2978 2.99993 8.44731 2.88706 7.64854 3.17578C7.28218 2.40176 6.60491 1.91953 5.84443 1.91953C5.08096 1.91953 4.40105 2.40557 4.03542 3.18552C3.24265 2.90654 2.40271 3.02205 1.85596 3.56763C1.51099 3.91187 1.32085 4.39153 1.32085 4.91873C1.32085 5.20225 1.3771 5.48833 1.47795 5.76475C0.702759 6.13052 0.219727 6.80588 0.219727 7.56489C0.219727 8.32654 0.706128 9.00454 1.48645 9.36899C1.39043 9.63896 1.33718 9.91721 1.33718 10.1933C1.33718 10.7205 1.52732 11.2005 1.87229 11.5448C2.22927 11.901 2.71157 12.0751 3.22375 12.0751C3.5031 12.0751 3.79116 12.0203 4.07314 11.9183C4.37424 12.5551 4.88687 12.9897 5.48167 13.1258V25.2638C5.32566 25.098 5.17756 24.9601 5.0729 24.8686C5.08074 23.4196 4.66487 22.3501 3.83467 21.689C2.42241 20.5647 0.365186 21.083 0.278906 21.1058C0.115503 21.1489 0 21.2981 0 21.4688C0 23.0666 0.456738 24.2209 1.35747 24.9C2.52261 25.7782 4.053 25.563 4.59858 25.4482C4.87456 25.6942 5.3261 26.1558 5.4832 26.5575V29.25H0.375C0.167651 29.25 0 29.4177 0 29.625C0 29.8323 0.167651 30 0.375 30H29.625C29.8323 30 30 29.8323 30 29.625C30 29.4177 29.8323 29.25 29.625 29.25ZM28.2476 16.9312C27.6697 17.3685 26.9358 17.436 26.3831 17.4071L29.1915 15.0975C29.0696 15.9338 28.7531 16.5488 28.2476 16.9312ZM26.7709 15.0262C27.3019 14.6017 27.9896 14.4956 28.5458 14.4956C28.6118 14.4956 28.6763 14.4971 28.7382 14.4997L25.9009 16.8333C25.9946 16.02 26.286 15.414 26.7709 15.0262ZM21.4054 24.6326C20.8192 25.0762 20.073 25.1426 19.515 25.1123L22.3601 22.773C22.2371 23.6209 21.9177 24.2445 21.4054 24.6326ZM19.9125 22.7062C20.4488 22.2773 21.1429 22.17 21.7047 22.17C21.7744 22.17 21.8416 22.1714 21.9068 22.1744L19.0324 24.5384C19.1265 23.7131 19.4213 23.0989 19.9125 22.7062ZM13.6196 24.6338C13.107 24.2471 12.7867 23.6246 12.6634 22.7768L15.5036 25.1123C14.9501 25.1441 14.2076 25.077 13.6196 24.6338ZM13.1149 22.1768C13.7014 22.1517 14.4994 22.2256 15.1039 22.7067C15.5958 23.0985 15.8906 23.7125 15.9851 24.5371L13.1149 22.1768ZM9.91729 20.421C9.29143 20.895 8.49265 20.9577 7.90613 20.9205L10.9204 18.4418C10.7963 19.3463 10.4606 20.01 9.91729 20.421ZM8.34785 18.3964C8.90808 17.9487 9.63296 17.8365 10.2188 17.8365C10.305 17.8365 10.3886 17.8392 10.4678 17.8433L7.42427 20.3464C7.51765 19.4662 7.82703 18.8123 8.34785 18.3964ZM1.80564 24.2989C1.26416 23.8887 0.928491 23.2264 0.804419 22.3241L3.81189 24.7972C3.23174 24.8333 2.4304 24.7714 1.80564 24.2989ZM1.25735 21.7252C1.87383 21.6948 2.73113 21.7654 3.37236 22.278C3.89209 22.6931 4.20073 23.346 4.29448 24.2231L1.25735 21.7252ZM9.33823 10.9961C8.81323 11.5197 7.81912 11.3794 7.12163 10.6838C6.8584 10.4213 6.62439 9.91728 6.46128 9.27605C6.6019 9.22727 6.73616 9.16692 6.85876 9.08745L7.15085 9.37918C7.22395 9.45191 7.3196 9.48867 7.41563 9.48867C7.51165 9.48867 7.60803 9.4519 7.68113 9.37844C7.82739 9.23181 7.82739 8.9948 7.6804 8.84817L7.39424 8.56282C7.48352 8.4293 7.54871 8.28047 7.60085 8.1252C8.25037 8.28831 8.76035 8.52385 9.02476 8.78782C9.42378 9.18604 9.65288 9.69155 9.65288 10.1757C9.65288 10.407 9.59854 10.737 9.33823 10.9961ZM5.86238 8.63437C5.26091 8.63437 4.77187 8.14724 4.77187 7.54761C4.77187 6.94797 5.26128 6.46084 5.86238 6.46084C6.46384 6.46084 6.95325 6.94834 6.95325 7.54761C6.95325 8.14688 6.46384 8.63437 5.86238 8.63437ZM9.89436 6.39522C10.4171 6.63406 10.7539 7.06868 10.7539 7.53069C10.7539 7.99153 10.4183 8.42542 9.897 8.6647C9.79614 8.52144 9.6821 8.38455 9.55459 8.2571C9.21819 7.92151 8.71794 7.6916 8.253 7.53596C8.71465 7.38032 9.20552 7.15269 9.53774 6.82119C9.67126 6.68811 9.79014 6.54522 9.89436 6.39522ZM9.32139 4.08186C9.58125 4.34099 9.63603 4.67058 9.63603 4.90195C9.63603 5.38608 9.4073 5.89233 9.00791 6.29019C8.74431 6.55305 8.23843 6.78669 7.59456 6.9498C7.54578 6.80991 7.48542 6.67647 7.40632 6.55415L7.69731 6.26389C7.84431 6.11763 7.84431 5.88025 7.69805 5.73362C7.55178 5.58662 7.31477 5.58662 7.16777 5.73289L6.88052 6.01904C6.74626 5.92976 6.59663 5.86458 6.44062 5.81243C6.60373 5.16592 6.84001 4.65784 7.10435 4.39417C7.80264 3.69866 8.79639 3.5584 9.32139 4.08186ZM5.84553 2.6696C6.31575 2.6696 6.74363 2.997 6.98364 3.52236C6.84111 3.62175 6.7043 3.73535 6.57524 3.8636C6.23738 4.2 6.00637 4.70061 5.8511 5.16482C5.69583 4.70654 5.46636 4.21304 5.13296 3.88044C4.99871 3.74656 4.85508 3.62959 4.70618 3.5272C4.9459 3.00564 5.38198 2.6696 5.84553 2.6696ZM2.38652 4.09878C2.91189 3.57524 3.90564 3.71587 4.60313 4.41152C4.86526 4.67292 5.10073 5.17727 5.26384 5.81887C5.12322 5.86765 4.9886 5.928 4.86599 6.00747L4.5739 5.71611C4.42727 5.57021 4.19026 5.56948 4.04363 5.71685C3.89736 5.86348 3.89736 6.10049 4.04436 6.24712L4.33052 6.53247C4.24124 6.66599 4.17605 6.81482 4.12427 6.96973C3.47476 6.80662 2.96477 6.5707 2.7 6.3071C2.30134 5.90889 2.07224 5.40337 2.07224 4.91924C2.07187 4.68787 2.12666 4.35791 2.38652 4.09878ZM1.83076 8.7C1.30803 8.46152 0.971265 8.02646 0.971265 7.56453C0.971265 7.10369 1.30686 6.6698 1.82776 6.43015C1.92861 6.57341 2.04229 6.7103 2.17017 6.83774C2.50657 7.17334 3.00681 7.40325 3.47219 7.55852C3.01055 7.71416 2.51968 7.9418 2.18745 8.27366C2.05386 8.40674 1.93499 8.54963 1.83076 8.7ZM2.40337 11.013C2.14351 10.7539 2.08872 10.4238 2.08872 10.1925C2.08872 9.70832 2.31746 9.20244 2.71685 8.80459C2.98008 8.54172 3.48633 8.30808 4.1302 8.14497C4.17898 8.28486 4.23933 8.41831 4.31843 8.54063L4.02744 8.83125C3.88044 8.97788 3.88044 9.21489 4.02671 9.36152C4.0998 9.43499 4.19619 9.47175 4.29221 9.47175C4.38823 9.47175 4.48381 9.43499 4.55698 9.36226L4.84387 9.0761C4.97813 9.16538 5.12776 9.23057 5.28376 9.28271C5.11992 9.92922 4.88401 10.4373 4.62004 10.701C3.92212 11.397 2.92837 11.5365 2.40337 11.013ZM5.85828 12.3941C5.82415 12.3941 5.79302 12.405 5.76152 12.4136C5.33855 12.3637 4.96055 12.0532 4.74111 11.5718C4.88364 11.4724 5.0209 11.3599 5.14988 11.2316C5.48738 10.8952 5.71838 10.3946 5.87402 9.92959C6.03003 10.3909 6.25876 10.8825 6.59216 11.2147C6.72642 11.3486 6.86968 11.4659 7.01851 11.5683C6.79424 12.0558 6.39785 12.3765 5.96777 12.4162C5.93247 12.4054 5.89724 12.3941 5.85828 12.3941ZM20.8091 19.2334C20.316 19.7254 19.3789 19.5919 18.7208 18.9357C18.159 18.3754 17.9104 16.8934 17.9089 16.3433C18.4605 16.344 19.9477 16.5915 20.5107 17.1529C20.8879 17.529 21.1043 18.0067 21.1043 18.4643C21.1039 18.681 21.0529 18.9907 20.8091 19.2334ZM21.3563 14.8819C21.8407 15.1083 22.1531 15.5123 22.1531 15.942C22.1531 16.3785 21.8482 16.7756 21.3596 17.0013C21.2648 16.8682 21.159 16.7407 21.0401 16.6219C20.7713 16.3537 20.319 16.1227 19.8195 15.948C20.3126 15.7736 20.7577 15.5434 21.024 15.2779C21.1481 15.1541 21.2588 15.0214 21.3563 14.8819ZM20.019 12.3694C20.3183 12.3694 20.5923 12.4661 20.793 12.6664C21.0364 12.9094 21.0877 13.2191 21.0877 13.4358C21.0877 13.8929 20.8714 14.3707 20.4941 14.7469C19.9312 15.3083 18.444 15.5558 17.8923 15.5565C17.8939 15.0064 18.1425 13.5248 18.7042 12.9645C19.0946 12.5749 19.5833 12.3694 20.019 12.3694ZM17.4918 11.3254C17.9287 11.3254 18.327 11.6284 18.5535 12.1148C18.4215 12.2082 18.2947 12.3143 18.1751 12.4335C17.8774 12.7305 17.6565 13.167 17.4971 13.6286C17.3381 13.173 17.1187 12.7429 16.8248 12.4496C16.6999 12.3251 16.5672 12.2156 16.4287 12.1192C16.6553 11.6366 17.0602 11.3254 17.4918 11.3254ZM14.2065 12.6825C14.4071 12.4822 14.6816 12.3858 14.9802 12.3858C15.4159 12.3858 15.9045 12.5914 16.2949 12.9806C16.8563 13.5404 17.1049 15.0224 17.1064 15.5725C16.5549 15.5718 15.068 15.3243 14.5051 14.7629C14.1278 14.3868 13.9115 13.9091 13.9115 13.4519C13.9118 13.2352 13.9627 12.9259 14.2065 12.6825ZM13.6597 17.0344C13.1745 16.8079 12.8625 16.4036 12.8625 15.9743C12.8625 15.5381 13.1674 15.141 13.6564 14.9149C13.7512 15.048 13.857 15.1755 13.9759 15.2944C14.2447 15.5629 14.697 15.7946 15.1965 15.9697C14.7037 16.1441 14.2579 16.3729 13.992 16.6384C13.8679 16.7621 13.7572 16.8952 13.6597 17.0344ZM14.2226 19.2495C13.9792 19.0069 13.9279 18.6971 13.9279 18.4804C13.9279 18.0229 14.1442 17.5452 14.5215 17.169C15.0844 16.6076 16.5713 16.3601 17.1229 16.3594C17.1218 16.9095 16.8731 18.3915 16.3113 18.9513C15.6529 19.6084 14.7157 19.7418 14.2226 19.2495ZM16.461 19.7996C16.593 19.7062 16.7209 19.602 16.8405 19.4823C17.1382 19.1857 17.3588 18.7488 17.5181 18.2868C17.6771 18.7428 17.8965 19.173 18.1909 19.4666C18.3157 19.5911 18.4489 19.7002 18.5869 19.7962C18.3604 20.2792 17.955 20.5904 17.5234 20.5904C17.0865 20.5905 16.6882 20.2868 16.461 19.7996ZM27.6634 8.68616C27.3559 8.99253 26.8391 9.05478 26.3238 8.86655C26.3583 8.68542 26.3785 8.49756 26.3785 8.30369C26.3785 7.75847 26.1288 7.16221 25.8742 6.69382C26.0474 6.49849 26.1802 6.27004 26.266 6.01809C26.7491 6.17219 27.1236 6.36606 27.3363 6.57832C27.7221 6.96233 27.9527 7.46704 27.9527 7.92795C27.9525 8.14197 27.9023 8.44761 27.6634 8.68616ZM29.0468 5.41575C29.0468 5.84736 28.7265 6.25349 28.2292 6.4834C28.1238 6.3293 28.0023 6.1823 27.8655 6.04578C27.4789 5.66104 26.8789 5.41538 26.3659 5.26355C26.349 4.99468 26.2796 4.74192 26.1653 4.51245C26.6142 4.28298 27.0161 4.15356 27.3165 4.15356C28.2709 4.15386 29.0468 4.72009 29.0468 5.41575ZM27.7035 2.12922C28.0099 2.43413 28.0721 2.94675 27.8835 3.45901C27.7013 3.42415 27.5119 3.40386 27.3169 3.40386C26.7698 3.40386 26.1705 3.65325 25.7 3.9071C25.5038 3.73425 25.2743 3.60146 25.0212 3.51599C25.1753 3.03713 25.3692 2.6655 25.5814 2.45361C26.2575 1.78162 27.2085 1.63572 27.7035 2.12922ZM24.417 0.75C24.8512 0.75 25.2596 1.06838 25.4906 1.56335C25.3376 1.66685 25.1899 1.78572 25.0523 1.92261C24.6656 2.30808 24.4189 2.90544 24.2662 3.41624C23.9951 3.43308 23.7401 3.50251 23.5091 3.61721C23.2785 3.16985 23.1488 2.76973 23.1488 2.47156C23.1483 1.52249 23.7176 0.75 24.417 0.75ZM24.3885 4.15386C25.0725 4.15386 25.6286 4.70735 25.6286 5.38726C25.6286 6.06716 25.0721 6.62065 24.3885 6.62065C23.7048 6.62065 23.1483 6.06716 23.1483 5.38726C23.1483 4.70735 23.7045 4.15386 24.3885 4.15386ZM21.114 2.08872C21.4211 1.78235 21.9374 1.72009 22.4535 1.90869C22.419 2.08982 22.3987 2.27769 22.3987 2.47156C22.3987 3.01567 22.6481 3.6123 22.9031 4.08105C22.7298 4.27646 22.5967 4.50483 22.5112 4.75715C22.0282 4.60305 21.6536 4.40918 21.441 4.19692C21.0552 3.81291 20.8245 3.30857 20.8245 2.84766C20.8245 2.63328 20.8748 2.32727 21.114 2.08872ZM19.7303 5.35913C19.7303 4.92751 20.0505 4.52139 20.5478 4.29148C20.6532 4.44558 20.7743 4.59221 20.9112 4.72874C21.2978 5.11348 21.8978 5.35913 22.4108 5.51096C22.4276 5.77983 22.4971 6.03259 22.6114 6.26206C22.1625 6.49116 21.7605 6.62058 21.4602 6.62058C20.5069 6.62065 19.7303 6.05471 19.7303 5.35913ZM21.0739 8.64602C20.7675 8.34111 20.7053 7.82812 20.8939 7.31587C21.0761 7.35073 21.2651 7.37102 21.4605 7.37102C22.0076 7.37102 22.6069 7.12163 23.0774 6.86777C23.274 7.04062 23.5031 7.17341 23.7565 7.25889C23.6021 7.73811 23.4078 8.10974 23.1955 8.3209C22.521 8.99326 21.57 9.13989 21.0739 8.64602ZM23.2875 9.21335C23.4405 9.10986 23.5875 8.98945 23.7251 8.85264C24.1118 8.46753 24.3585 7.86936 24.5112 7.35864C24.7823 7.3418 25.0369 7.27236 25.2683 7.15767C25.4989 7.6043 25.6286 8.00478 25.6286 8.30405C25.6286 9.2532 25.0597 10.0257 24.3604 10.0257C23.9269 10.0249 23.5185 9.70723 23.2875 9.21335Z" fill="#103741"/>
</g>
<defs>
<clipPath id="clip0_9324_298">
<rect width="30" height="30" fill="white"/>
</clipPath>
</defs>
</svg>
