<svg width="60" height="60" viewBox="0 0 60 60" fill="none" xmlns="http://www.w3.org/2000/svg">
<path d="M30.9259 33.5883C30.9212 27.341 25.8376 22.261 19.5903 22.261C13.3431 22.261 8.25947 27.341 8.25479 33.5883C8.14932 38.1914 10.261 40.6547 12.1231 42.8285C13.3712 44.2852 14.4493 45.5426 14.6896 47.2383C14.7001 47.3145 14.7247 47.386 14.7575 47.4516V51.5426V54.5262C14.7575 55.6969 15.7103 56.6496 16.881 56.6496H22.3747C23.5454 56.6496 24.4981 55.6969 24.4981 54.5262V51.5426V47.1973C24.7501 45.5215 25.8188 44.2711 27.0575 42.8274C28.9208 40.6547 31.0313 38.1914 30.9259 33.5883ZM17.2759 34.5399H15.9317C15.1899 34.5399 14.5876 33.9364 14.5876 33.1957C14.5876 32.4539 15.1911 31.8516 15.9317 31.8516C16.6735 31.8516 17.2759 32.4551 17.2759 33.1957V34.5399ZM23.0919 47.843V50.8407H16.1649V47.843H23.0919ZM23.0919 54.5274C23.0919 54.9223 22.7708 55.2446 22.3747 55.2446H16.881C16.486 55.2446 16.1638 54.9235 16.1638 54.5274V52.2469H23.0907V54.5274H23.0919ZM25.9899 41.9133C24.7876 43.316 23.6462 44.6485 23.2149 46.4367H21.9821V35.9461H23.3263C24.8427 35.9461 26.0767 34.7121 26.0767 33.1957C26.0767 31.6793 24.8427 30.4453 23.3263 30.4453C21.8099 30.4453 20.5759 31.6793 20.5759 33.1957V35.243V46.4367H18.6833V35.243V33.1957C18.6833 31.6793 17.4493 30.4453 15.9329 30.4453C14.4165 30.4453 13.1825 31.6793 13.1825 33.1957C13.1825 34.7121 14.4165 35.9461 15.9329 35.9461H17.2771V46.4367H15.9681C15.5368 44.6473 14.3942 43.3149 13.1931 41.9133C11.4106 39.8332 9.56728 37.6828 9.66221 33.6129C9.66221 33.6071 9.66221 33.6024 9.66221 33.5965C9.66221 28.1215 14.1165 23.6672 19.5915 23.6672C25.0665 23.6672 29.5208 28.1215 29.5208 33.5965V33.6129C29.6157 37.6828 27.7724 39.8332 25.9899 41.9133ZM21.981 34.5399V33.1957C21.981 32.4539 22.5845 31.8516 23.3251 31.8516C24.0657 31.8516 24.6692 32.4551 24.6692 33.1957C24.6692 33.9375 24.0657 34.5399 23.3251 34.5399H21.981ZM18.8872 19.9606V16.9196C18.8872 16.5317 19.2024 16.2164 19.5903 16.2164C19.9782 16.2164 20.2935 16.5317 20.2935 16.9196V19.9606C20.2935 20.3485 19.9782 20.6637 19.5903 20.6637C19.2024 20.6637 18.8872 20.3496 18.8872 19.9606ZM5.67432 34.5797H2.6333C2.24541 34.5797 1.93018 34.2645 1.93018 33.8766C1.93018 33.4887 2.24541 33.1735 2.6333 33.1735H5.67549C6.06338 33.1735 6.37861 33.4887 6.37861 33.8766C6.37861 34.2645 6.06338 34.5797 5.67432 34.5797ZM8.14814 40.4836C8.34268 40.8199 8.22666 41.25 7.89033 41.4446L5.25596 42.9657C5.1458 43.0301 5.02393 43.0594 4.90557 43.0594C4.66299 43.0594 4.42627 42.9328 4.29619 42.7078C4.10166 42.3715 4.21768 41.9414 4.554 41.7469L7.18838 40.2258C7.52354 40.0313 7.95361 40.1473 8.14814 40.4836ZM10.5024 19.5422C10.3079 19.2059 10.4239 18.7758 10.7603 18.5813C11.0966 18.3867 11.5267 18.5028 11.7212 18.8391L13.2423 21.4735C13.4368 21.8098 13.3208 22.2399 12.9845 22.4344C12.8731 22.4989 12.7524 22.5282 12.6341 22.5282C12.3915 22.5282 12.1548 22.4016 12.0247 22.1766L10.5024 19.5422ZM8.14814 27.2707C8.01807 27.4957 7.78135 27.6223 7.53877 27.6223C7.41924 27.6223 7.29854 27.5918 7.18838 27.5285L4.554 26.0074C4.21768 25.8129 4.10283 25.3828 4.29619 25.0465C4.49072 24.7102 4.91963 24.5953 5.25713 24.7887L7.8915 26.3098C8.22666 26.5043 8.34268 26.9344 8.14814 27.2707ZM31.0337 27.2707C30.8392 26.9344 30.9552 26.5043 31.2915 26.3098L33.9259 24.7887C34.2622 24.5942 34.6923 24.7102 34.8868 25.0465C35.0813 25.3828 34.9653 25.8129 34.629 26.0074L31.9946 27.5285C31.8845 27.593 31.7626 27.6223 31.6442 27.6223C31.4005 27.6223 31.1638 27.4957 31.0337 27.2707ZM37.2517 33.8766C37.2517 34.2645 36.9364 34.5797 36.5485 34.5797H33.5063C33.1185 34.5797 32.8032 34.2645 32.8032 33.8766C32.8032 33.4887 33.1185 33.1735 33.5063 33.1735H36.5485C36.9364 33.1735 37.2517 33.4887 37.2517 33.8766ZM34.8856 42.7067C34.7556 42.9317 34.5188 43.0582 34.2763 43.0582C34.1567 43.0582 34.036 43.0278 33.9259 42.9645L31.2915 41.4434C30.9552 41.2489 30.8403 40.8188 31.0337 40.4824C31.2282 40.1461 31.6583 40.0313 31.9946 40.2246L34.629 41.7457C34.9642 41.9414 35.079 42.3703 34.8856 42.7067ZM25.9396 21.4735L27.4606 18.8391C27.6552 18.5028 28.0841 18.3879 28.4216 18.5813C28.7579 18.7758 28.8728 19.2059 28.6794 19.5422L27.1583 22.1766C27.0282 22.4016 26.7915 22.5282 26.5489 22.5282C26.4294 22.5282 26.3087 22.4977 26.1985 22.4344C25.861 22.2399 25.7462 21.8098 25.9396 21.4735ZM54.1021 36.2168H50.304C50.3052 36.1852 50.3052 36.1547 50.3052 36.1231C50.3052 34.1848 48.7278 32.6074 46.7896 32.6074C44.8513 32.6074 43.2739 34.1848 43.2739 36.1231C43.2739 36.1547 43.2739 36.1864 43.2751 36.2168H39.4771C39.0892 36.2168 38.7739 36.5321 38.7739 36.9199V51.5438C38.7739 51.9317 39.0892 52.2469 39.4771 52.2469H44.3274C44.5759 52.2469 44.8067 52.1157 44.9333 51.9012C45.0599 51.6867 45.0634 51.4219 44.9427 51.2039C44.7716 50.8946 44.6802 50.5418 44.6802 50.1844C44.6802 49.0219 45.6259 48.075 46.7896 48.075C47.9532 48.075 48.8989 49.0207 48.8989 50.1844C48.8989 50.5406 48.8087 50.8934 48.6364 51.2039C48.5157 51.4219 48.5192 51.6867 48.6458 51.9012C48.7724 52.1157 49.0021 52.2469 49.2517 52.2469H54.1021C54.4899 52.2469 54.8052 51.9317 54.8052 51.5438V46.2656C54.8052 46.0196 54.6763 45.791 54.4653 45.6633C54.2544 45.5356 53.9919 45.5285 53.7739 45.6434C53.4692 45.8051 53.1376 45.886 52.7896 45.886C51.6271 45.886 50.6802 44.9403 50.6802 43.7766C50.6802 42.6129 51.6259 41.6672 52.7896 41.6672C53.1376 41.6672 53.4681 41.7492 53.7739 41.9098C53.9919 42.0246 54.2544 42.0176 54.4653 41.8899C54.6763 41.7621 54.8052 41.5336 54.8052 41.2875V36.9164C54.8052 36.5321 54.4899 36.2168 54.1021 36.2168ZM53.3989 40.3172C53.1985 40.2821 52.9935 40.2633 52.7896 40.2633C50.8513 40.2633 49.2739 41.8406 49.2739 43.7789C49.2739 45.7172 50.8513 47.2946 52.7896 47.2946C52.9946 47.2946 53.1985 47.277 53.3989 47.2407V50.8407H50.2431C50.2841 50.625 50.3052 50.4047 50.3052 50.1844C50.3052 48.2461 48.7278 46.6688 46.7896 46.6688C44.8513 46.6688 43.2739 48.2461 43.2739 50.1844C43.2739 50.4047 43.295 50.625 43.336 50.8407H40.1802V37.6231H44.0919C44.3134 37.6231 44.522 37.5188 44.6556 37.3407C44.788 37.1625 44.829 36.9328 44.7669 36.7207C44.7095 36.5274 44.6813 36.3258 44.6813 36.1231C44.6813 34.9606 45.6271 34.0137 46.7907 34.0137C47.9544 34.0137 48.9001 34.9594 48.9001 36.1231C48.9001 36.3258 48.8708 36.5274 48.8145 36.7219C48.7513 36.934 48.7935 37.1637 48.9259 37.3418C49.0583 37.5199 49.2669 37.6242 49.4896 37.6242H53.4013V40.3172H53.3989ZM40.8353 8.64612C41.1095 8.92034 41.1095 9.36565 40.8353 9.64104L36.9528 13.5235C36.8216 13.6547 36.6423 13.7297 36.456 13.7297C36.2696 13.7297 36.0903 13.6559 35.9591 13.5235L33.6388 11.2031C33.3645 10.9289 33.3645 10.4836 33.6388 10.2082C33.913 9.93401 34.3583 9.93401 34.6337 10.2082L36.456 12.0317L39.8415 8.64612C40.1157 8.37073 40.561 8.37073 40.8353 8.64612ZM54.8052 18.0375V14.9227C54.8052 14.5348 54.4899 14.2196 54.1021 14.2196H44.304C44.7317 13.2598 44.9708 12.1992 44.9708 11.0836C44.9708 6.81917 41.5009 3.34924 37.2364 3.34924C32.972 3.34924 29.5021 6.81917 29.5021 11.0836C29.5021 15.3481 32.972 18.818 37.2364 18.818C37.7626 18.818 38.2771 18.7653 38.7739 18.6645V29.5477C38.7739 29.9356 39.0892 30.2508 39.4771 30.2508H44.3274C44.5759 30.2508 44.8067 30.1196 44.9333 29.9051C45.0599 29.6906 45.0634 29.4258 44.9427 29.2078C44.7716 28.8985 44.6802 28.5457 44.6802 28.1883C44.6802 27.0258 45.6259 26.0789 46.7896 26.0789C47.9532 26.0789 48.8989 27.0246 48.8989 28.1883C48.8989 28.5446 48.8087 28.8973 48.6364 29.2078C48.5157 29.4258 48.5192 29.6906 48.6458 29.9051C48.7724 30.1196 49.0021 30.2508 49.2517 30.2508H54.1021C54.4899 30.2508 54.8052 29.9356 54.8052 29.5477V24.7828C56.6157 24.7242 58.07 23.2348 58.07 21.4102C58.07 19.5856 56.6157 18.0961 54.8052 18.0375ZM30.9095 11.0848C30.9095 7.59612 33.7478 4.75667 37.2376 4.75667C40.7274 4.75667 43.5657 7.59495 43.5657 11.0848C43.5657 14.5746 40.7274 17.4129 37.2376 17.4129C33.7478 17.4117 30.9095 14.5735 30.9095 11.0848ZM54.6962 23.3789C54.5485 23.3789 54.4009 23.3625 54.2579 23.3297C54.0493 23.2828 53.8302 23.3321 53.6638 23.4657C53.4974 23.5992 53.3989 23.8008 53.3989 24.0153V28.8446H50.2431C50.2841 28.6289 50.3052 28.4086 50.3052 28.1883C50.3052 26.25 48.7278 24.6727 46.7896 24.6727C44.8513 24.6727 43.2739 26.25 43.2739 28.1883C43.2739 28.4086 43.295 28.6289 43.336 28.8446H40.1802V18.2344C41.5103 17.6848 42.654 16.7742 43.4907 15.6258H53.3989V18.8051C53.3989 19.0184 53.4962 19.2211 53.6638 19.3547C53.8313 19.4883 54.0493 19.5387 54.2579 19.4907C54.4009 19.4578 54.5485 19.4414 54.6962 19.4414C55.7813 19.4414 56.6638 20.3239 56.6638 21.409C56.6638 22.4953 55.7813 23.3789 54.6962 23.3789Z" fill="#16C4E3"/>
</svg>
