<svg width="30" height="30" viewBox="0 0 30 30" fill="none" xmlns="http://www.w3.org/2000/svg">
<g clip-path="url(#clip0_9321_99)">
<path d="M17.5946 10.5563C17.8374 10.5563 18.0341 10.3595 18.0341 10.1168C18.0341 9.94679 18.1724 9.8084 18.3425 9.8084C18.5126 9.8084 18.651 9.94674 18.651 10.1168C18.651 10.3595 18.8477 10.5563 19.0904 10.5563C19.3331 10.5563 19.5299 10.3595 19.5299 10.1168C19.5299 9.46216 18.9972 8.92949 18.3425 8.92949C17.6878 8.92949 17.1552 9.46211 17.1552 10.1168C17.1552 10.3595 17.3519 10.5563 17.5946 10.5563ZM29.367 11.1698C28.6432 10.4461 27.6832 10.3429 26.6255 10.8616C26.5409 10.7147 26.4322 10.59 26.3025 10.4938C26.0499 10.3061 25.7413 10.2368 25.4099 10.2927C25.4099 10.2927 25.4099 10.2927 25.4099 10.2927C24.5129 10.4445 23.8812 11.5261 23.9717 12.7551C23.989 12.9903 24.0514 13.2201 24.1531 13.4337C23.3395 14.0174 22.1939 14.5333 20.7972 14.3627C21.8489 13.2892 22.4807 11.9196 22.4807 10.4293C22.4807 9.52533 22.2481 8.66582 21.8307 7.8898L22.5505 7.44789C23.5131 6.85703 24.3293 6.03285 24.911 5.06453C25.036 4.85646 24.9686 4.58652 24.7606 4.46154C24.5525 4.33662 24.2826 4.40388 24.1575 4.61195C23.6483 5.4598 22.9335 6.18144 22.0906 6.69888L21.3574 7.149C20.9364 6.58498 20.4104 6.08084 19.8021 5.65562C20.9199 4.02472 22.797 2.34707 24.7907 1.89683C24.9052 2.17967 24.9404 2.49279 24.8839 2.80146C24.8402 3.04017 24.9982 3.26916 25.237 3.31287C25.4761 3.35652 25.7047 3.19843 25.7484 2.95972C25.8627 2.33494 25.734 1.69797 25.4025 1.17168C25.4013 1.16963 25.3999 1.16763 25.3986 1.16564C25.3008 1.01136 25.1864 0.866228 25.0546 0.734333C24.4389 0.118571 23.5308 -0.13555 22.6849 0.0712277C20.8642 0.516247 19.3215 1.64095 18.3409 3.23834L17.5269 4.56449C16.7372 4.32771 15.8864 4.19828 15 4.19828C14.1135 4.19828 13.2628 4.32765 12.4731 4.56449L11.659 3.23834C10.6785 1.64101 9.13569 0.516247 7.315 0.0712277C6.46938 -0.135491 5.56112 0.118571 4.94536 0.734275C4.8195 0.860134 4.70963 0.998708 4.61489 1.14595C4.60375 1.16142 4.59368 1.17765 4.58453 1.19465C4.23918 1.7592 4.12241 2.44984 4.28231 3.10398C4.72733 4.92466 5.85209 6.46738 7.44942 7.44789L8.16924 7.8898C7.75176 8.66582 7.5192 9.52533 7.5192 10.4293C7.5192 11.9196 8.15096 13.2893 9.20278 14.3627C7.80608 14.5335 6.66045 14.0175 5.84682 13.4337C5.94854 13.2201 6.01082 12.9903 6.02817 12.7551C6.11869 11.5261 5.487 10.4445 4.59004 10.2927C4.25852 10.2367 3.94979 10.3061 3.69737 10.4938C3.56776 10.5901 3.45907 10.7147 3.37452 10.8616C2.31661 10.3429 1.35661 10.446 0.632914 11.1698C0.200844 11.6018 -0.011969 12.1164 0.000452898 12.6992C0.0281677 14.0013 1.20696 15.2217 1.71245 15.6859C2.00371 15.9534 2.37028 16.0863 2.73596 16.0863C2.90266 16.0863 3.06918 16.0585 3.22815 16.0034C4.00985 16.6452 5.20721 17.4146 6.77664 17.795C7.40002 17.9461 8.03817 18.0227 8.67338 18.0227C8.8552 18.0227 9.03924 18.0156 9.22416 18.0027L8.31139 22.3052C8.1451 23.0893 8.33905 23.8961 8.8436 24.5189C9.25381 25.0252 9.82563 25.356 10.4559 25.462V28.0988C10.4559 28.7311 10.7691 29.3202 11.2937 29.6747C11.3691 29.7256 11.4547 29.7501 11.5393 29.7501C11.6803 29.7501 11.8189 29.6823 11.9038 29.5566C12.0397 29.3555 11.9868 29.0823 11.7856 28.9465C11.5034 28.7557 11.3348 28.4389 11.3348 28.0988V25.499H18.6651V28.0988C18.6651 28.6623 18.2067 29.1207 17.6433 29.1207H13.5661C13.3233 29.1207 13.1266 29.3175 13.1266 29.5602C13.1266 29.8029 13.3233 29.9996 13.5661 29.9996H17.6433C18.6914 29.9996 19.544 29.147 19.544 28.0988V25.4621C20.1743 25.3561 20.7462 25.0253 21.1564 24.519C21.6609 23.8962 21.8549 23.0894 21.6886 22.3053L20.7757 18.0028C20.9607 18.0157 21.1448 18.0228 21.3266 18.0228C21.9618 18.0228 22.5999 17.9461 23.2233 17.7951C24.7927 17.4147 25.9901 16.6452 26.7718 16.0035C26.9308 16.0586 27.0972 16.0864 27.264 16.0864C27.6296 16.0864 27.9963 15.9534 28.2875 15.6861C28.793 15.2218 29.9718 14.0015 29.9995 12.6993C30.0119 12.1163 29.7991 11.6018 29.367 11.1698ZM19.09 3.69818C19.9486 2.29955 21.2994 1.3147 22.8936 0.925056C23.3383 0.816423 23.8092 0.903845 24.1847 1.15299C22.6189 1.63592 20.5964 2.89328 19.0523 5.19408C18.8331 5.07595 18.606 4.96715 18.3718 4.86824L19.09 3.69818ZM7.10641 0.924997C8.70057 1.31465 10.0514 2.29949 10.91 3.69812L11.6281 4.86812C11.394 4.96703 11.1668 5.07584 10.9476 5.19396C9.40346 2.89316 7.38104 1.6358 5.81524 1.15287C6.19088 0.903845 6.6618 0.816364 7.10641 0.924997ZM7.90926 6.69883C6.51063 5.84025 5.52573 4.48943 5.13608 2.89521C5.05416 2.56 5.08422 2.21002 5.21043 1.89701C7.20368 2.34765 9.08026 4.02496 10.1979 5.65551C9.58961 6.08072 9.06362 6.58486 8.64256 7.14888L7.90926 6.69883ZM8.39817 10.4292C8.39817 7.47806 11.3597 5.07718 15 5.07718C18.6402 5.07718 21.6018 7.47806 21.6018 10.4292C21.6018 13.3803 18.6402 15.7812 15 15.7812C11.3597 15.7812 8.39817 13.3803 8.39817 10.4292ZM20.5321 21.0894C19.5587 21.0183 18.6995 21.2613 17.7995 21.5166C16.9472 21.7584 16.0657 22.0084 15 22.0084C13.9342 22.0084 13.0528 21.7584 12.2004 21.5166C11.3005 21.2613 10.4413 21.0184 9.46786 21.0894L10.6541 15.4979C11.8799 16.2292 13.3806 16.6601 15 16.6601C16.6193 16.6601 18.12 16.2292 19.3458 15.4979L20.5321 21.0894ZM3.17659 15.0241C3.14582 15.0548 3.11254 15.0816 3.0775 15.1046C3.07141 15.1081 3.06532 15.1116 3.05934 15.1154C2.82596 15.2576 2.51905 15.2333 2.307 15.0385C1.42715 14.2305 0.893422 13.349 0.879242 12.6804C0.872035 12.3418 0.994789 12.0509 1.25448 11.7911C1.37161 11.674 1.63258 11.4129 2.11311 11.4129C2.43145 11.4129 2.84641 11.5277 3.37944 11.8749C3.50623 11.9575 3.66678 11.969 3.80412 11.9054C3.94147 11.8417 4.03639 11.7118 4.05532 11.5616C4.07641 11.3941 4.137 11.2619 4.22149 11.1992C4.27862 11.1568 4.3511 11.1435 4.44332 11.1592C4.82612 11.224 5.21037 11.8926 5.15166 12.6905C5.13327 12.9399 5.01924 13.1812 4.83051 13.37L3.17659 15.0241ZM8.67338 17.1437C8.10789 17.1437 7.5393 17.0754 6.98366 16.9407C5.69049 16.6273 4.67571 16.0179 3.97147 15.4721L5.31256 14.131C6.05993 14.6679 7.22442 15.2731 8.67713 15.2731C9.04375 15.2731 9.42895 15.2342 9.8302 15.1462L9.41489 17.1038C9.16545 17.1299 8.91702 17.1437 8.67338 17.1437ZM20.8287 22.4875C20.9397 23.011 20.8103 23.5497 20.4734 23.9656C20.1365 24.3814 19.6364 24.6199 19.1013 24.6199H10.8987C10.3636 24.6199 9.86342 24.3814 9.52657 23.9656C9.18971 23.5497 9.06016 23.011 9.17125 22.4875L9.2759 21.9942C10.2011 21.8643 11.0228 22.096 11.9606 22.362C12.8284 22.6082 13.812 22.8872 15 22.8872C16.188 22.8872 17.1716 22.6081 18.0394 22.362C18.9773 22.096 19.799 21.8642 20.7241 21.9941L20.8287 22.4875ZM23.0163 16.9407C22.4606 17.0754 21.8921 17.1437 21.3265 17.1437C21.0829 17.1437 20.8345 17.1299 20.585 17.1037L20.1697 15.1462C20.5709 15.2342 20.956 15.2731 21.3228 15.2731C22.7753 15.2731 23.94 14.6678 24.6873 14.131L26.0284 15.4721C25.3243 16.0179 24.3094 16.6273 23.0163 16.9407ZM27.693 15.0385C27.481 15.2332 27.1741 15.2576 26.9407 15.1156C26.9347 15.1117 26.9284 15.108 26.9222 15.1044C26.8872 15.0815 26.8541 15.0548 26.8234 15.0241L25.1693 13.3701C24.9806 13.1813 24.8666 12.9401 24.8482 12.6906C24.7895 11.8928 25.1738 11.2241 25.5566 11.1594C25.6486 11.1437 25.7213 11.1569 25.7784 11.1994C25.8629 11.2621 25.9235 11.3942 25.9446 11.5618C25.9635 11.712 26.0584 11.8419 26.1958 11.9056C26.3333 11.9693 26.4937 11.9577 26.6205 11.8751C26.9513 11.6595 27.958 11.0038 28.7455 11.7913C29.0052 12.051 29.1279 12.3418 29.1207 12.6805C29.1065 13.349 28.5728 14.2305 27.693 15.0385ZM10.9096 10.5563C11.1523 10.5563 11.349 10.3595 11.349 10.1168C11.349 9.94679 11.4873 9.8084 11.6574 9.8084C11.8275 9.8084 11.9659 9.94674 11.9659 10.1168C11.9659 10.3595 12.1626 10.5563 12.4053 10.5563C12.6481 10.5563 12.8448 10.3595 12.8448 10.1168C12.8448 9.46216 12.3122 8.92949 11.6574 8.92949C11.0027 8.92949 10.4701 9.46211 10.4701 10.1168C10.4701 10.3595 10.6669 10.5563 10.9096 10.5563ZM15 11.7918C15.431 11.7918 15.841 11.6051 16.1246 11.2797C16.2841 11.0967 16.265 10.8191 16.082 10.6596C15.899 10.5002 15.6215 10.5193 15.4619 10.7022C15.3453 10.8361 15.1769 10.9129 14.9999 10.9129C14.823 10.9129 14.6546 10.8361 14.5379 10.7022C14.3784 10.5193 14.1008 10.5003 13.9179 10.6596C13.7349 10.8191 13.7158 11.0967 13.8753 11.2797C14.159 11.6051 14.569 11.7918 15 11.7918Z" fill="#103741"/>
</g>
<defs>
<clipPath id="clip0_9321_99">
<rect width="30" height="30" fill="white"/>
</clipPath>
</defs>
</svg>
