<svg width="30" height="30" viewBox="0 0 30 30" fill="none" xmlns="http://www.w3.org/2000/svg">
<path d="M14.0241 20.2649C13.8793 19.9754 13.5274 19.8582 13.238 20.003C12.9486 20.1477 12.8314 20.4998 12.976 20.7893C13.0787 20.9946 13.2857 21.1133 13.5006 21.1133C13.5886 21.1133 13.6781 21.0934 13.7621 21.0513C14.0516 20.9066 14.1689 20.5546 14.0242 20.2652L14.0241 20.2649Z" fill="black"/>
<path d="M3.22281 14.2608C3.47782 14.2608 3.71237 14.093 3.7859 13.8356C3.87479 13.5244 3.69461 13.2002 3.38348 13.1113L3.38307 13.1111C3.07182 13.022 2.74779 13.2025 2.65891 13.5136C2.57002 13.8248 2.75037 14.1491 3.06156 14.238C3.11535 14.2534 3.16955 14.2608 3.22281 14.2608Z" fill="black"/>
<path d="M3.38744 17.4209C3.438 17.4344 3.4888 17.4409 3.53878 17.4409C3.79771 17.4409 4.03467 17.2679 4.10457 17.0057C4.18795 16.6931 4.00203 16.372 3.68937 16.2887L3.68896 16.2885C3.37613 16.205 3.05544 16.3911 2.97206 16.7038C2.88868 17.0165 3.07478 17.3376 3.38744 17.4209Z" fill="black"/>
<path d="M10.6124 20.5446C10.4677 20.2551 10.1157 20.138 9.8264 20.2828C9.53694 20.4275 9.41975 20.7796 9.56442 21.069C9.66708 21.2744 9.87403 21.3931 10.089 21.3931C10.177 21.3931 10.2664 21.3731 10.3505 21.3311C10.64 21.1863 10.7573 20.8344 10.6126 20.545L10.6124 20.5446Z" fill="black"/>
<path d="M11.7824 18.0211C11.6194 17.7416 11.2608 17.6474 10.9811 17.8104C10.7016 17.9734 10.6073 18.3324 10.7704 18.612C10.8793 18.7987 11.0755 18.9028 11.277 18.9028C11.3773 18.9028 11.4789 18.877 11.5717 18.8229C11.8513 18.6598 11.9457 18.301 11.7826 18.0215L11.7824 18.0211Z" fill="black"/>
<path d="M5.87404 14.7649C5.92783 14.7803 5.98197 14.7876 6.03529 14.7876C6.29029 14.7876 6.52484 14.6199 6.59838 14.3625C6.68727 14.0513 6.50709 13.727 6.19596 13.6381L6.19554 13.638C5.88429 13.5488 5.56027 13.7293 5.47138 14.0405C5.38255 14.3516 5.5629 14.676 5.87404 14.7649Z" fill="black"/>
<path d="M21.4096 12.7264L21.4092 12.7261C21.1284 12.5658 20.7706 12.6633 20.61 12.9443C20.4494 13.2253 20.5472 13.5833 20.8282 13.7439C20.9199 13.7963 21.0198 13.8212 21.1183 13.8212C21.3218 13.8212 21.5195 13.7151 21.6276 13.5258C21.7882 13.2449 21.6906 12.887 21.4096 12.7264Z" fill="black"/>
<path d="M24.4008 12.969L24.4004 12.9688C24.1196 12.8085 23.7618 12.9059 23.6012 13.187C23.4406 13.4679 23.5384 13.8259 23.8194 13.9866C23.9111 14.039 24.011 14.0638 24.1095 14.0638C24.313 14.0638 24.5107 13.9577 24.6188 13.7685C24.7794 13.4875 24.6818 13.1296 24.4008 12.969Z" fill="black"/>
<path d="M22.622 10.617L22.6216 10.6167C22.3408 10.4564 21.983 10.5539 21.8224 10.8349C21.6618 11.1159 21.7596 11.4739 22.0406 11.6345C22.1323 11.687 22.2322 11.7118 22.3307 11.7118C22.5342 11.7118 22.7319 11.6057 22.84 11.4164C23.0006 11.1355 22.903 10.7775 22.622 10.617Z" fill="black"/>
<path d="M28.9004 11.3709C27.6729 10.1367 26.4443 8.90332 25.2158 7.66999C23.9828 6.43215 22.7498 5.19425 21.5186 3.95635C20.6951 3.12502 19.527 2.80977 18.3935 3.11314C17.2602 3.41651 16.4062 4.27295 16.1094 5.40315C15.6862 7.00167 15.2619 8.59983 14.8375 10.198C14.1931 10.2661 13.5902 10.5255 13.0935 10.9524C11.939 10.2821 10.7843 9.6122 9.62958 8.94242C9.34973 8.78011 8.99113 8.8751 8.82865 9.15465C8.66617 9.43415 8.76127 9.79242 9.04111 9.95473C10.1043 10.5715 11.1676 11.1883 12.2306 11.8054C11.2185 12.8225 10.206 13.839 9.19352 14.8555C7.96744 16.0864 6.74124 17.3175 5.51604 18.5493C4.71048 19.2613 4.31515 20.3174 4.43867 21.3783L4.31925 21.4472C3.65022 21.833 2.85674 21.8179 2.1965 21.4067C1.51898 20.9848 1.14621 20.2646 1.19947 19.4802C1.20041 19.4664 1.20082 19.4525 1.20082 19.4387C1.19513 17.6925 1.1908 15.9463 1.1864 14.2001C1.18201 12.4536 1.17767 10.7071 1.17199 8.95945C1.16806 8.21574 1.55197 7.54888 2.19891 7.1758C2.8459 6.80266 3.61595 6.80394 4.25984 7.17972L4.48085 7.30814C4.76052 7.4708 5.11924 7.37586 5.28195 7.09655C5.44467 6.81711 5.3498 6.45878 5.07008 6.29629L4.85006 6.1684C3.83913 5.57834 2.62905 5.57588 1.61291 6.1619C0.596828 6.74799 -0.00610575 7.79601 4.66342e-05 8.96437C0.00573026 10.7106 0.0100662 12.4567 0.0144608 14.203C0.0187967 15.9429 0.0231327 17.6828 0.0288163 19.4227C-0.0444849 20.6198 0.54714 21.7591 1.57652 22.4001C2.11084 22.7329 2.70118 22.8997 3.29204 22.8997C3.80222 22.8997 4.31281 22.7752 4.78759 22.5257C5.1974 23.319 5.91489 23.9015 6.81331 24.142L17.0659 26.8863C17.3513 26.9627 17.638 27.0001 17.9207 27C18.7984 26.9999 19.6361 26.6395 20.2653 25.9669C21.0935 25.0817 21.3698 23.8283 20.989 22.6909C20.6628 21.4592 20.3361 20.2278 20.0091 18.9963L27.6029 16.9637C28.7744 16.6502 29.6382 15.7552 29.9136 14.5695C30.1878 13.3892 29.7997 12.1657 28.9004 11.3709ZM19.8612 23.0093C19.8647 23.0227 19.8687 23.0359 19.8732 23.049C20.1279 23.793 19.9544 24.585 19.4093 25.1677C18.8781 25.7355 18.1154 25.9553 17.3693 25.7556L7.11683 23.0114C6.37075 22.8117 5.82031 22.2404 5.64447 21.4833C5.46406 20.7064 5.71033 19.9339 6.30319 19.4168C6.31362 19.4077 6.32376 19.3983 6.33348 19.3884C7.56314 18.1521 8.79367 16.9167 10.0243 15.6813C11.2598 14.4408 12.4954 13.2003 13.7309 11.9582C13.9532 11.7337 14.2153 11.5671 14.5009 11.4656C14.1427 12.8145 13.7848 14.1634 13.4275 15.5126C13.0467 16.65 13.3229 17.9034 14.151 18.7887C14.7803 19.4614 15.6179 19.8219 16.4958 19.8218C16.7783 19.8218 17.0652 19.7844 17.3505 19.7081L18.8772 19.2994C19.2056 20.5359 19.5337 21.7725 19.8612 23.0093ZM28.7721 14.305C28.5962 15.0621 28.0458 15.6333 27.2997 15.833L17.0472 18.5773C16.3013 18.777 15.5385 18.5571 15.0073 17.9893C14.4621 17.4066 14.2887 16.6146 14.5434 15.8706C14.5479 15.8575 14.5519 15.8443 14.5555 15.8309C15.0043 14.1358 15.4543 12.441 15.9044 10.7463C16.3508 9.06504 16.7972 7.38394 17.2428 5.70131C17.4317 4.9819 17.9753 4.43702 18.6968 4.24392C18.8777 4.19552 19.0598 4.17187 19.2396 4.17187C19.7773 4.17187 20.2934 4.38387 20.6865 4.78066C21.9188 6.01967 23.152 7.25769 24.3852 8.49576C25.6181 9.73354 26.8511 10.9714 28.0831 12.2101C28.0928 12.2199 28.1029 12.2294 28.1134 12.2385C28.7063 12.7555 28.9525 13.528 28.7721 14.305Z" fill="black"/>
<path d="M6.74828 8.62585C6.84408 8.68479 6.95008 8.7128 7.05484 8.7128C7.25154 8.7128 7.44373 8.61378 7.55441 8.43389C7.72404 8.15827 7.63809 7.79739 7.36246 7.62776L7.36211 7.62752C7.08654 7.45783 6.72578 7.54403 6.55621 7.81954C6.38658 8.09522 6.47271 8.45628 6.74828 8.62585Z" fill="black"/>
</svg>
