<svg width="36" height="36" viewBox="0 0 36 36" fill="none" xmlns="http://www.w3.org/2000/svg">
<path d="M27.7601 33.2335C26.8619 33.2335 26.0069 32.7964 25.1977 32.3351L18.6553 28.6052C17.6855 28.0526 16.7111 27.4218 16.3827 26.3353C16.0285 25.1642 16.6049 24.003 17.1734 23.0064L19.6244 18.7071C20.3521 17.4311 22.287 14.0435 25.2282 14.7036C26.0102 14.8793 26.712 15.3334 27.3906 15.7722C27.6865 15.9632 27.9757 16.1513 28.2609 16.3045C29.1365 16.7751 30.02 17.2321 30.9036 17.6892L32.2342 18.3797C33.0163 18.788 34.199 19.4055 34.6361 20.5541C35.0872 21.7394 34.587 22.9835 34.0829 24.0568C33.078 26.1933 32.0319 28.3564 30.9726 30.4857C30.5693 31.2956 29.8197 32.8031 28.4002 33.1559C28.1846 33.2093 27.971 33.2335 27.7601 33.2335ZM24.4793 15.6385C22.7812 15.6385 21.4764 17.5157 20.5093 19.2118L18.0583 23.5109C17.5741 24.3609 17.1204 25.2561 17.3578 26.0404C17.578 26.7688 18.3356 27.2504 19.1594 27.7203L25.7025 31.4502C26.5562 31.9367 27.3847 32.3593 28.1548 32.1669C29.043 31.9464 29.6041 30.9494 30.0598 30.032C31.1159 27.9094 32.1593 25.7532 33.1609 23.6233C33.5954 22.6993 33.9934 21.7288 33.6836 20.9166C33.407 20.1896 32.617 19.7289 31.7626 19.2828L30.4359 18.5943C29.5471 18.1349 28.6589 17.6752 27.778 17.202C27.4702 17.0365 27.1565 16.8345 26.8374 16.6279C26.2338 16.2372 25.6096 15.8335 25.0053 15.6979C24.8255 15.6574 24.6504 15.6385 24.4793 15.6385Z" fill="#131126"/>
<path d="M13.5848 34.7108C13.5709 34.7108 13.557 34.7108 13.5424 34.7108C10.9912 34.7065 8.41522 34.5235 5.88629 34.1669C4.79943 34.0134 3.66647 33.7994 2.80746 33.0316C1.58131 31.9358 1.4314 30.1647 1.38728 28.5903L1.19691 21.8234C1.17104 20.9147 1.12361 19.2232 2.2705 18.3005C3.03565 17.6846 4.00079 17.6461 5.00705 17.6604L7.3529 17.6892C8.90508 17.7068 10.4573 17.7247 12.0094 17.7586C12.2887 17.7645 12.5786 17.7546 12.8651 17.7453C14.2263 17.6982 15.7625 17.6478 16.668 19.2899C17.3134 20.4606 17.2862 21.8529 17.265 22.9716L17.1084 30.9611C17.0865 32.0638 16.987 33.3039 16.0717 34.0644C15.3606 34.6545 14.4186 34.7108 13.5848 34.7108ZM4.73608 18.6773C4.02035 18.6773 3.35703 18.734 2.90928 19.0945C2.21445 19.6534 2.18659 20.7813 2.21511 21.7949L2.40549 28.5618C2.44562 29.986 2.56203 31.446 3.48671 32.2721C4.13279 32.8499 5.0966 33.0267 6.02857 33.158C8.51107 33.5082 11.0403 33.6877 13.5444 33.692C14.2395 33.694 14.9593 33.6628 15.4209 33.2804C16.0053 32.7948 16.0723 31.8184 16.0896 30.9412L16.2461 22.9517C16.2667 21.9027 16.2892 20.7133 15.7758 19.7817C15.2014 18.74 14.3118 18.7174 12.8996 18.7635C12.5952 18.7738 12.29 18.7831 11.9869 18.7774C10.4387 18.7433 8.88983 18.7257 7.34129 18.7081L4.99279 18.6793C4.90689 18.6779 4.82099 18.6773 4.73608 18.6773Z" fill="#131126"/>
<path d="M11.9935 18.4245C11.3441 18.4245 10.7146 18.2729 10.2374 17.7867C9.34056 16.873 8.82051 15.2137 8.40262 13.8804C8.30809 13.5782 8.21888 13.2937 8.13231 13.041C7.57446 11.4125 7.13633 9.73262 6.83054 8.04877C6.64016 7.00171 6.53038 5.90026 7.00831 4.93976C7.81723 3.31295 9.90273 2.89539 11.0231 2.67086L17.1821 1.43574C17.8116 1.31004 18.7594 1.11967 19.5481 1.5893C20.3441 2.06259 20.6274 2.99788 20.8144 3.61676L23.1334 11.2931C23.4916 12.4775 23.82 13.8369 23.1832 14.9822C22.5656 16.0932 21.3172 16.5423 20.0596 16.8624C18.2215 17.33 16.3396 17.7237 14.4664 18.0321C14.2634 18.0653 14.0392 18.1147 13.8024 18.1661C13.2592 18.2845 12.6171 18.4245 11.9935 18.4245ZM7.83282 7.86635C8.12966 9.50046 8.55485 11.1302 9.09612 12.7106C9.18534 12.971 9.27754 13.2645 9.37505 13.5756C9.76011 14.8047 10.2394 16.3344 10.9647 17.073C11.5053 17.6239 12.6588 17.3725 13.5855 17.1705C13.8402 17.1151 14.0823 17.0627 14.3006 17.0265C16.1453 16.7231 17.9986 16.3354 19.8088 15.8747C20.8449 15.611 21.8631 15.2604 22.293 14.4873C22.7361 13.6897 22.4694 12.6174 22.1583 11.5876L19.8393 3.91161C19.6516 3.29239 19.4486 2.71563 19.0274 2.46489C18.6089 2.21681 18.0112 2.30868 17.3824 2.43471L11.2234 3.66982C9.90903 3.93316 8.46165 4.30529 7.92038 5.39348C7.55754 6.12247 7.6849 7.05179 7.83282 7.86635Z" fill="#131126"/>
<path d="M15.9039 12.2217C15.4833 12.2217 15.0495 12.1431 14.6309 11.9796C14.0392 11.7481 13.5676 11.3939 13.2671 10.9547C12.8632 10.3631 12.7444 9.56508 12.9501 8.81983C13.1497 8.09614 13.634 7.46167 14.2787 7.07893C14.9235 6.69586 15.7108 6.57348 16.4425 6.74462C16.7164 6.80863 16.8862 7.08291 16.8226 7.35687C16.7582 7.63082 16.4836 7.79864 16.2103 7.73695C15.7334 7.62485 15.22 7.70511 14.7988 7.95485C14.3782 8.20493 14.0625 8.61884 13.9318 9.0908C13.8051 9.55048 13.8714 10.0327 14.1082 10.38C14.3411 10.7199 14.7225 10.9212 15.0017 11.0304C15.734 11.3163 16.7509 11.2735 17.2783 10.64C17.4587 10.4228 17.7791 10.3946 17.996 10.5747C18.2122 10.7548 18.2414 11.0761 18.061 11.292C17.5582 11.8957 16.7582 12.2217 15.9039 12.2217Z" fill="#131126"/>
<path d="M6.92769 28.9217C6.87761 28.9217 6.82687 28.9144 6.77645 28.8988C6.50781 28.8152 6.35756 28.5296 6.44114 28.261L7.91704 23.5136C8.23842 22.4788 8.81784 22.3511 9.14154 22.3664C9.62776 22.3906 9.99624 22.7421 10.237 23.4108C10.8078 24.9968 11.3017 26.6335 11.7043 28.2753C11.7713 28.5486 11.6041 28.8245 11.3308 28.8915C11.0609 28.9582 10.7819 28.7917 10.7146 28.518C10.3206 26.9108 9.83737 25.3085 9.27852 23.7557C9.18366 23.493 9.10771 23.4091 9.08118 23.3862C9.07753 23.4124 8.984 23.5136 8.89014 23.8161L7.41424 28.5635C7.34625 28.7817 7.14493 28.9217 6.92769 28.9217Z" fill="#131126"/>
<path d="M7.48523 26.9479C7.21359 26.9479 6.98806 26.7336 6.97645 26.4597C6.96485 26.1784 7.18341 25.9413 7.46433 25.9294L10.4301 25.806C10.7126 25.7834 10.9481 26.0129 10.9601 26.2939C10.972 26.5751 10.7534 26.8122 10.4725 26.8242L7.50678 26.9476C7.49949 26.9479 7.49219 26.9479 7.48523 26.9479Z" fill="#131126"/>
<path d="M26.1024 26.6008C25.0597 26.6008 23.6402 26.1527 22.9802 25.294C22.8674 25.1471 22.8429 24.9504 22.9172 24.7806L25.0332 19.9128C25.1313 19.6876 25.3774 19.5649 25.6142 19.6193C25.7768 19.6567 25.9492 19.6813 26.1243 19.7068C26.5104 19.7632 26.9097 19.8216 27.2818 19.9934C27.9054 20.2819 28.3836 20.6968 28.6669 21.1943C29.0304 21.8324 29.0509 22.5913 28.7206 23.175C28.4838 23.5932 28.103 23.8655 27.6838 24.0171C27.7581 24.3703 27.7634 24.701 27.7442 25.1368C27.7342 25.3842 27.6977 25.7053 27.51 25.9872C27.254 26.3722 26.7976 26.5842 26.1893 26.5998C26.1608 26.6004 26.1316 26.6008 26.1024 26.6008ZM23.9851 24.8794C24.5138 25.3385 25.4809 25.6028 26.1641 25.5809C26.4102 25.5749 26.6013 25.5142 26.6616 25.4227C26.716 25.3414 26.7233 25.161 26.7266 25.0934C26.7439 24.6924 26.7379 24.4377 26.6722 24.162C26.6225 24.1591 26.5734 24.1551 26.5256 24.1491C25.8053 24.0645 25.1771 23.7292 24.6199 23.4191L23.9851 24.8794ZM25.0279 22.4802C25.0299 22.4815 25.0325 22.4828 25.0345 22.4838C25.5532 22.773 26.0898 23.0722 26.645 23.1375C27.0603 23.1863 27.6135 23.0626 27.8344 22.6725C27.9836 22.4085 27.9624 22.0168 27.7813 21.6985C27.5571 21.3044 27.1538 21.0567 26.8547 20.9184C26.6165 20.8086 26.3054 20.7632 25.9771 20.7151C25.9194 20.7068 25.863 20.6982 25.8059 20.6895L25.0279 22.4802Z" fill="#131126"/>
</svg>
