<svg width="36" height="36" viewBox="0 0 36 36" fill="none" xmlns="http://www.w3.org/2000/svg">
<path d="M17.9981 7.68018C17.9829 7.68018 17.9675 7.68025 17.9523 7.68032C17.2144 7.68524 16.4908 7.80814 15.8016 8.04559C15.5265 8.14037 15.3804 8.44018 15.4752 8.71518C15.57 8.99017 15.8698 9.13663 16.1448 9.04157C16.7256 8.84153 17.3361 8.73796 17.9593 8.73374C19.4719 8.72586 20.8975 9.30524 21.9709 10.3714C23.0443 11.4376 23.6355 12.8579 23.6355 14.3708C23.6355 16.1857 22.753 17.9007 21.2747 18.9584C20.2857 19.6661 19.6705 20.788 19.5978 21.9957H18.5246V18.2823L18.9448 18.7262C19.0443 18.8312 19.1826 18.8908 19.3274 18.8908C19.4721 18.8908 19.6105 18.8312 19.71 18.7262L21.0399 17.3215C21.2399 17.1103 21.2307 16.7769 21.0195 16.5769C20.8082 16.3769 20.4748 16.3861 20.2747 16.5973L19.3275 17.5979L18.5246 16.7499V16.082C18.5246 15.7911 18.2888 15.5553 17.9978 15.5553C17.7069 15.5553 17.471 15.7911 17.471 16.082V16.7494L16.6679 17.5978L15.7209 16.5973C15.5209 16.386 15.1875 16.3768 14.9761 16.5767C14.7648 16.7767 14.7556 17.1101 14.9556 17.3214L16.2852 18.7261C16.3847 18.8312 16.523 18.8907 16.6678 18.8907C16.8125 18.8907 16.9509 18.8312 17.0504 18.7261L17.4709 18.2819V21.9956H16.3981C16.3266 20.7935 15.706 19.6677 14.7073 18.9485C13.2462 17.8964 12.3688 16.1953 12.3603 14.3981C12.3526 12.7766 13.0372 11.2317 14.2385 10.1596C14.4556 9.96589 14.4745 9.63289 14.2808 9.41584C14.087 9.19879 13.754 9.17994 13.537 9.37358C12.1105 10.6467 11.2976 12.4798 11.3067 14.4031C11.3168 16.5362 12.3579 18.555 14.0916 19.8034C14.816 20.325 15.2712 21.1324 15.341 21.997C14.9642 22.0118 14.662 22.3222 14.662 22.7025V24.3405C14.662 24.7303 14.9791 25.0474 15.369 25.0474H15.6685V26.0387C15.6685 27.323 16.7135 28.3679 17.9979 28.3679C19.2824 28.3679 20.3273 27.323 20.3273 26.0387V25.0474H20.6269C21.0167 25.0474 21.3339 24.7303 21.3339 24.3405V22.7025C21.3339 22.3223 21.0319 22.012 20.6552 21.9971C20.7256 21.1285 21.1745 20.3257 21.888 19.8151C23.642 18.56 24.6892 16.5248 24.6892 14.3708C24.6892 12.5752 23.9875 10.8894 22.7135 9.62396C21.4503 8.36945 19.7774 7.68018 17.9981 7.68018ZM19.2737 26.0389C19.2737 26.7423 18.7013 27.3146 17.9979 27.3146C17.2944 27.3146 16.7221 26.7424 16.7221 26.0389V25.0476H19.2736V26.0389H19.2737ZM20.2802 23.9942H15.7156V23.0493H20.2802V23.9942Z" fill="#131126"/>
<path d="M34.0845 16.1223C33.2258 16.1223 32.4986 16.6943 32.263 17.4772H30.7038C30.5716 14.3702 29.3196 11.5485 27.3416 9.40598L31.0352 5.71275C31.5483 6.07648 32.1743 6.29121 32.8497 6.29121C34.5844 6.29121 35.9957 4.88011 35.9957 3.14557C35.9957 1.41103 34.5844 0 32.8497 0C31.1151 0 29.7038 1.4111 29.7038 3.14564C29.7038 3.82507 29.9211 4.45437 30.2888 4.96912L26.5958 8.6618C24.451 6.69087 21.6297 5.44577 18.5247 5.31858V3.74105C19.3397 3.52631 19.9424 2.78325 19.9424 1.90188C19.9424 0.853172 19.0892 0 18.0404 0C16.9916 0 16.1383 0.853172 16.1383 1.90188C16.1383 2.75231 16.6995 3.47407 17.471 3.71665V5.31858C14.366 5.44577 11.5447 6.69087 9.39985 8.6618L8.18564 7.44771C8.4544 7.02183 8.61058 6.51818 8.61058 5.97846C8.61058 4.45549 7.37142 3.21637 5.84823 3.21637C4.32505 3.21637 3.08589 4.45549 3.08589 5.97846C3.08589 7.50143 4.32505 8.74055 5.84823 8.74055C6.45136 8.74055 7.00956 8.54571 7.46431 8.21644L8.65411 9.40605C6.67603 11.5486 5.424 14.3703 5.29187 17.4772H3.73268C3.49711 16.6944 2.76987 16.1224 1.9112 16.1224C0.862394 16.1224 0.00914149 16.9755 0.00914149 18.0242C0.00914149 19.0728 0.862394 19.926 1.9112 19.926C2.78457 19.926 3.5218 19.3342 3.74421 18.5307H5.29032C5.41289 21.6435 6.65923 24.4721 8.63463 26.6214L4.9651 30.2906C4.45106 29.9249 3.82346 29.7089 3.14594 29.7089C1.41131 29.7089 0 31.12 0 32.8546C0 34.5891 1.41131 36 3.14594 36C3.44051 36 3.73247 35.9591 4.01368 35.8786C4.29334 35.7986 4.45521 35.507 4.37519 35.2273C4.29517 34.9476 4.00341 34.7856 3.72375 34.8659C3.53684 34.9194 3.34241 34.9464 3.14594 34.9464C1.99221 34.9464 1.05359 34.0079 1.05359 32.8544C1.05359 31.7008 1.99221 30.7622 3.14594 30.7622C4.29967 30.7622 5.23822 31.7007 5.23822 32.8544C5.23822 33.0961 5.1975 33.3328 5.11713 33.5578C5.01931 33.8318 5.16213 34.1331 5.43616 34.2309C5.71006 34.3288 6.01159 34.1858 6.1094 33.9119C6.23042 33.5729 6.29181 33.2171 6.29181 32.8543C6.29181 32.1768 6.07579 31.5493 5.71006 31.0353L9.37882 27.3669C11.5262 29.349 14.3557 30.602 17.471 30.7296V32.249C16.6777 32.478 16.0958 33.2101 16.0958 34.076C16.0958 35.1247 16.949 35.9779 17.9978 35.9779C19.0467 35.9779 19.8999 35.1247 19.8999 34.076C19.8999 33.2101 19.3179 32.478 18.5247 32.249V30.7296C21.6399 30.602 24.4692 29.3484 26.6164 27.3665L27.8259 28.5758C27.5475 29.0069 27.3851 29.5196 27.3851 30.0698C27.3851 31.5928 28.6243 32.8319 30.1474 32.8319C31.6706 32.8319 32.9098 31.5928 32.9098 30.0698C32.9098 28.5468 31.6706 27.3077 30.1474 27.3077C29.5547 27.3077 29.0054 27.496 28.5549 27.815L27.3606 26.6207C29.3358 24.4716 30.5827 21.6433 30.7054 18.5306H32.2515C32.4738 19.334 33.2111 19.9259 34.0845 19.9259C35.1333 19.9259 35.9865 19.0727 35.9865 18.024C35.9865 16.9754 35.1333 16.1223 34.0845 16.1223ZM32.8497 1.05349C34.0035 1.05349 34.942 1.99202 34.942 3.14557C34.942 4.29912 34.0034 5.23772 32.8497 5.23772C31.696 5.23772 30.7574 4.29919 30.7574 3.14557C30.7574 1.99195 31.696 1.05349 32.8497 1.05349ZM5.84823 7.68698C4.90603 7.68698 4.13948 6.92051 4.13948 5.97839C4.13948 5.03627 4.90603 4.2698 5.84823 4.2698C6.79044 4.2698 7.55699 5.03627 7.55699 5.97839C7.55699 6.92051 6.79044 7.68698 5.84823 7.68698ZM1.9112 18.8724C1.44337 18.8724 1.0628 18.4919 1.0628 18.0242C1.0628 17.5564 1.44337 17.1759 1.9112 17.1759C2.34078 17.1759 2.69597 17.4971 2.75131 17.9117C2.74596 17.9417 2.74273 17.9724 2.74273 18.004C2.74273 18.0421 2.74695 18.0792 2.75468 18.115C2.70919 18.5401 2.34838 18.8724 1.9112 18.8724ZM30.1474 28.3612C31.0897 28.3612 31.8562 29.1277 31.8562 30.0698C31.8562 31.012 31.0897 31.7785 30.1474 31.7785C29.2052 31.7785 28.4387 31.012 28.4387 30.0698C28.4387 29.1277 29.2052 28.3612 30.1474 28.3612ZM17.1919 1.90188C17.1919 1.43409 17.5725 1.05356 18.0403 1.05356C18.5081 1.05356 18.8887 1.43416 18.8887 1.90188C18.8887 2.3696 18.5081 2.7502 18.0403 2.7502C17.5725 2.7502 17.1919 2.3696 17.1919 1.90188ZM18.8462 34.0761C18.8462 34.5439 18.4657 34.9245 17.9978 34.9245C17.53 34.9245 17.1494 34.5439 17.1494 34.0761C17.1494 33.6083 17.53 33.2278 17.9978 33.2278C18.4657 33.2278 18.8462 33.6084 18.8462 34.0761ZM17.9978 29.6879C11.5658 29.6879 6.33294 24.4555 6.33294 18.0241C6.33294 11.5926 11.5658 6.36026 17.9978 6.36026C24.4299 6.36026 29.6627 11.5926 29.6627 18.0241C29.6627 24.4555 24.4299 29.6879 17.9978 29.6879ZM34.0845 18.8724C33.6473 18.8724 33.2865 18.5401 33.2411 18.1149C33.2487 18.0791 33.253 18.042 33.253 18.0039C33.253 17.9724 33.2497 17.9416 33.2444 17.9116C33.2998 17.497 33.6549 17.1758 34.0845 17.1758C34.5524 17.1758 34.9329 17.5564 34.9329 18.0241C34.9329 18.4919 34.5523 18.8724 34.0845 18.8724Z" fill="#131126"/>
</svg>
