<svg width="36" height="36" viewBox="0 0 36 36" fill="none" xmlns="http://www.w3.org/2000/svg">
<path fill-rule="evenodd" clip-rule="evenodd" d="M30.189 20.2789C30.189 20.4416 30.0584 20.5737 29.8942 20.5737H28.118C28.1069 20.5737 28.0957 20.5737 28.0882 20.5744C27.3999 20.6313 26.2491 21.0263 26.3046 23.3129L26.5173 27.6998C23.7636 27.7174 21.659 27.1957 19.9612 26.0692L22.0284 20.8472C22.0322 20.8334 22.0359 20.8192 22.0433 20.805C22.2112 20.2162 22.215 19.5501 22.0508 18.7692C22.0471 18.7625 22.0471 18.755 22.0433 18.7487L20.7299 13.6308C20.6889 13.4771 20.7822 13.317 20.9351 13.274L21.0172 13.2513C21.159 13.211 21.3008 13.2774 21.3642 13.4132L23.0209 17.0715C23.3008 17.6894 23.7113 18.2062 24.2113 18.5995C24.4612 18.8215 24.756 18.9968 25.0732 19.1117C25.4127 19.258 25.7784 19.3603 26.159 19.4133L29.9351 19.9334C30.0806 19.9539 30.1888 20.0767 30.1888 20.2252V20.2789H30.189ZM26.8979 32.0111C26.9729 32.2822 26.6852 32.521 26.4352 32.3816C26.3606 32.3402 26.3046 32.2727 26.2822 32.1913L25.2262 28.598C25.4464 28.6111 25.674 28.6201 25.9016 28.6249L26.8979 32.0111ZM21.6367 30.8063C21.6666 30.7249 21.6628 30.6376 21.6255 30.5611L20.7599 28.7301C20.7076 28.623 20.7002 28.5002 20.7375 28.3871L20.9725 27.6677C20.7748 27.5819 20.5771 27.4909 20.3868 27.3927L19.9912 28.6069L21.0435 30.8353C21.1657 31.0899 21.5367 31.0788 21.6367 30.8063ZM25.9613 14.9174C25.021 14.9174 24.2523 15.6842 24.2523 16.6264C24.2523 17.1387 24.4799 17.5987 24.8381 17.9122C25.0135 18.0417 25.2 18.151 25.4015 18.241C25.5769 18.3018 25.7672 18.335 25.9612 18.335C26.9053 18.335 27.6702 17.5686 27.6702 16.6264C27.6703 15.6841 26.9053 14.9174 25.9613 14.9174ZM30.0621 19.0118L27.6218 18.6756C28.2188 18.1913 28.6032 17.4532 28.6032 16.6264C28.6032 15.1711 27.4166 13.9871 25.9614 13.9871C24.8009 13.9871 23.8121 14.742 23.4614 15.7856L22.2114 13.0285C21.9577 12.4733 21.3494 12.1908 20.7636 12.3558L20.6815 12.3785C20.0472 12.558 19.6629 13.2233 19.827 13.8624L21.1405 18.9695C21.2673 19.5763 21.2711 20.1005 21.1517 20.527L18.9614 26.07C18.883 26.2677 18.9502 26.4927 19.1218 26.6177C19.2673 26.7226 19.4128 26.8222 19.5621 26.9188L19.0471 28.4931C19.0098 28.6069 19.0172 28.7297 19.0695 28.8368L20.2039 31.2334C20.6775 32.236 22.1348 32.1691 22.5136 31.1192C22.6255 30.8036 22.6069 30.4644 22.465 30.1629L21.6777 28.5002L21.8419 27.9965C22.5807 28.2356 23.3717 28.4066 24.2299 28.5099L25.3867 32.4532C25.7027 33.5132 27.149 33.6831 27.6852 32.7006C27.8456 32.4065 27.883 32.0685 27.7897 31.7484L26.8717 28.6241C27.0496 28.6213 27.1993 28.6291 27.3456 28.473C27.4315 28.3808 27.4762 28.2588 27.4687 28.1341L27.2374 23.2748C27.2039 21.5982 27.8867 21.5203 28.1329 21.5039H29.8941C30.5695 21.5039 31.118 20.9546 31.118 20.2789V20.2251C31.1181 19.6066 30.674 19.0961 30.0621 19.0118ZM17.9725 10.6568C17.4463 10.8114 16.9053 10.8389 16.3903 10.7456C18.0272 9.86311 19.2937 8.10869 19.7038 6.24152C19.9836 6.21351 20.2597 6.14489 20.5284 6.03632C21.0762 7.9729 19.9395 10.0828 17.9725 10.6568ZM16.174 6.62628C15.5098 7.77439 15.2449 9.06247 15.4314 10.1654C17.0293 9.56683 18.3222 7.9302 18.7598 6.18442C18.1671 6.05223 17.6228 5.73896 17.2113 5.29004C16.8157 5.67473 16.4612 6.1292 16.174 6.62628ZM14.4463 9.62292C14.3913 7.7641 15.2813 5.79483 16.6889 4.50236C16.5732 4.2456 16.4949 3.97136 16.4576 3.68739C15.5247 3.92096 14.6702 4.53332 14.1404 5.45312C13.3727 6.78598 13.4694 8.47315 14.4463 9.62292ZM17.465 3.58443C18.2646 3.63267 18.9081 3.89489 19.5173 4.41617C19.7614 4.62504 19.9862 4.90858 20.1553 5.18333C19.5807 5.41056 18.9315 5.36765 18.3829 5.05013C17.8344 4.73297 17.4725 4.19304 17.3829 3.58256C17.409 3.58328 17.4389 3.58328 17.465 3.58443ZM20.9613 9.39008C19.7159 11.5415 17.0055 12.3992 14.8568 11.1591C12.7107 9.9205 12.0931 7.14015 13.3344 4.98821C14.1054 3.65146 15.4607 2.81547 16.8493 2.67327C17.5189 2.60472 18.0025 2.67536 18.6143 2.85384C19.2228 3.0314 19.8701 3.4459 20.3195 3.89194V3.89453C20.6889 4.2636 20.9911 4.69978 21.2076 5.18967C21.215 5.20572 21.2225 5.22178 21.2262 5.23856C21.7784 6.51764 21.7262 8.06096 20.9613 9.39008ZM15.7112 14.7039L13.5321 19.7036C13.5172 19.7368 13.506 19.7723 13.5023 19.808L12.7635 24.0013C12.7262 24.214 12.8381 24.4245 13.0396 24.5099L15.215 25.4438C15.3979 25.5505 15.8493 25.8704 15.3941 27.2633L14.6329 29.7376C14.5553 29.9958 14.1651 29.9273 14.174 29.6599L14.2673 26.8805C14.2747 26.6902 14.1665 26.5151 13.9911 26.439L12.2821 25.6879C12.0583 25.5898 11.8008 25.6804 11.6851 25.895L8.27096 32.2995C8.1433 32.5401 7.72642 32.3872 7.79338 32.1208L9.34937 25.9428C9.35686 25.9103 9.36428 25.8771 9.36428 25.8436L9.42771 23.7208C9.42771 23.7111 9.42771 23.7007 9.42771 23.6906C9.39783 22.8104 8.9389 21.9685 8.02846 21.1189L5.88293 19.0201C5.69112 18.8334 5.92412 18.5188 6.15905 18.6492L8.55089 19.9802C9.2449 20.3652 10.0322 20.4331 10.8308 20.1768C11.1479 20.0765 11.4502 19.9305 11.7337 19.7545C12.077 19.5866 12.3829 19.3459 12.6218 19.0523C13.1441 18.5448 13.5583 17.9556 13.8121 17.4179L15.174 14.4631C15.3374 14.1071 15.8666 14.3576 15.7112 14.7039ZM10.5843 15.6692C9.64032 15.6692 8.87532 16.436 8.87532 17.3782C8.87532 18.3207 9.64025 19.0867 10.5843 19.0867C10.8343 19.0867 11.0731 19.0315 11.2896 18.933C11.5171 18.7868 11.7336 18.614 11.9314 18.4267C12.159 18.1371 12.2933 17.7733 12.2933 17.3781C12.2933 16.436 11.5246 15.6692 10.5843 15.6692ZM15.8344 13.4281L15.8232 13.4247C15.2336 13.227 14.5881 13.5061 14.3269 14.0736L13.1291 16.6796C12.8194 15.5624 11.797 14.7385 10.5843 14.7385C8.50157 14.7385 7.22768 17.0547 8.37161 18.815L6.61042 17.8355C6.081 17.5411 5.45352 17.6905 5.08431 18.1997C4.76715 18.6658 4.82684 19.2904 5.23357 19.6856L7.39032 21.7949C8.11047 22.4646 8.47241 23.0908 8.49855 23.7091L8.43512 25.7647L6.89036 31.8931C6.73736 32.5069 7.09188 33.1218 7.70381 33.2927C7.84083 33.3324 7.93191 33.3524 8.07692 33.3524C8.4948 33.3524 8.88663 33.1248 9.09557 32.7371L12.3045 26.7132L13.3269 27.1636L13.2411 29.6278C13.2217 30.1994 13.6115 30.6903 14.1814 30.8061C14.771 30.9285 15.3493 30.586 15.5247 30.0102L16.2785 27.5486C16.868 25.7534 16.2599 24.9661 15.6516 24.6213C15.6367 24.6135 15.6217 24.6061 15.6068 24.5989L13.7448 23.7997L14.409 20.0239L16.5658 15.0753C16.8544 14.4155 16.5138 13.6541 15.8344 13.4281Z" fill="#131126"/>
</svg>
