<svg width="36" height="36" viewBox="0 0 36 36" fill="none" xmlns="http://www.w3.org/2000/svg">
<path d="M34.5234 34.1016H29.3899V29.8202H33.312C33.4716 29.8202 33.6178 29.7302 33.6888 29.5875C33.7606 29.4448 33.7451 29.2739 33.6495 29.1459L32.3213 27.3691L34.4018 27.9963C34.5973 28.0554 34.8068 27.9654 34.8996 27.784C34.9924 27.6019 34.9411 27.3797 34.7787 27.2566C32.9449 25.8652 31.5851 24.2381 30.8152 22.5211H33.312C33.4716 22.5211 33.6178 22.4311 33.6888 22.2884C33.7606 22.1456 33.7451 21.9748 33.6495 21.8468C33.4195 21.5395 33.1798 21.2358 32.9259 20.9145C32.0027 19.7473 31.0521 18.5442 30.6766 17.2491H31.6737C31.8727 17.2491 32.0449 17.1098 32.0864 16.9151C32.1279 16.7203 32.0273 16.5234 31.8459 16.4419C30.3455 15.7718 28.6671 12.5501 28.4484 10.9582L28.0308 11.0159L27.6131 10.9582C27.4177 12.3799 26.0726 15.1066 24.6825 16.1571C23.8493 15.0518 23.2242 13.803 22.8438 12.4636C22.7925 12.2822 22.6266 12.157 22.4381 12.157C22.2497 12.157 22.0838 12.2822 22.0324 12.4636C21.4411 14.5427 20.2648 16.4053 18.6293 17.8488C18.5063 17.9571 18.4577 18.1266 18.5034 18.2841C18.5498 18.4409 18.682 18.5576 18.8445 18.5822C19.2537 18.6448 19.7262 18.6455 20.2092 18.5829C20.2458 18.578 20.2823 18.573 20.3189 18.5674C19.8731 20.1509 19.0652 21.6049 17.9599 22.8038C17.8509 22.9219 17.8186 23.092 17.8763 23.2418C17.9339 23.3916 18.0724 23.4956 18.2327 23.5097C18.6321 23.5448 19.0793 23.535 19.5265 23.4802C19.8042 23.4457 20.077 23.3951 20.3344 23.3304C19.781 24.6333 19.0371 25.5734 18.1357 26.7124C17.9733 26.9177 17.8066 27.1287 17.6358 27.348C17.5366 27.4753 17.5191 27.6476 17.5894 27.7924C17.6604 27.9373 17.8073 28.0294 17.9684 28.0294H21.0818V34.1016H16.662L15.0996 31.2602H16.5178C16.7505 31.2602 16.9397 31.0711 16.9397 30.8384C16.9397 30.6056 16.7505 30.4165 16.5178 30.4165H14.6355L13.1752 27.7615H14.4598C14.6925 27.7615 14.8816 27.5723 14.8816 27.3396C14.8816 27.1069 14.6925 26.9177 14.4598 26.9177H6.89274C6.66 26.9177 6.47086 27.1069 6.47086 27.3396C6.47086 27.5723 6.66 27.7615 6.89274 27.7615H8.17805L6.71766 30.4165H4.83539C4.60266 30.4165 4.41352 30.6056 4.41352 30.8384C4.41352 31.0711 4.60266 31.2602 4.83539 31.2602H6.25359L4.69125 34.1016H1.47656C1.24383 34.1016 1.05469 34.2907 1.05469 34.5234C1.05469 34.7562 1.24383 34.9453 1.47656 34.9453H34.5234C34.7562 34.9453 34.9453 34.7562 34.9453 34.5234C34.9453 34.2907 34.7562 34.1016 34.5234 34.1016ZM28.5462 34.1016H27.514V29.8202H28.5462V34.1016ZM23.5849 29.8202H26.6702V34.1016H23.5849V29.8202ZM28.0315 12.5873C28.5384 13.9163 29.4216 15.4399 30.394 16.4053H30.1479C30.0234 16.4053 29.906 16.4602 29.8259 16.5551C29.7457 16.65 29.7113 16.7752 29.7316 16.8975C30.0171 18.5948 31.211 20.1052 32.2643 21.4376C32.3283 21.5184 32.3916 21.5986 32.4534 21.6773H30.188C30.0502 21.6773 29.9208 21.7448 29.842 21.858C29.7633 21.9713 29.7443 22.1161 29.7921 22.2455C30.3623 23.793 31.3671 25.278 32.7368 26.614L31.3383 26.1921C31.1639 26.1401 30.9755 26.2048 30.8707 26.3538C30.7659 26.5029 30.7695 26.7026 30.8784 26.8481L32.4696 28.9765H23.5849V28.028H26.9065C27.0675 28.028 27.2145 27.9359 27.2855 27.791C27.3565 27.6462 27.3382 27.4739 27.2391 27.3466C27.0682 27.1273 26.9016 26.9163 26.7391 26.711C25.8377 25.572 25.0938 24.6319 24.5405 23.329C24.7978 23.3937 25.0706 23.445 25.3484 23.4788C25.7948 23.5336 26.242 23.5441 26.6421 23.5083C26.8024 23.4942 26.9402 23.3902 26.9986 23.2404C27.0563 23.0906 27.0239 22.9205 26.9149 22.8023C25.8096 21.6035 25.0017 20.1495 24.5559 18.566C24.5925 18.5716 24.6284 18.5766 24.6656 18.5815C25.1494 18.6441 25.6212 18.6441 26.0304 18.5808C26.1921 18.5562 26.325 18.4395 26.3714 18.2827C26.4178 18.1259 26.3686 17.9557 26.2455 17.8474C25.8771 17.5226 25.534 17.1752 25.2134 16.8096C26.389 15.9047 27.4563 14.1082 28.0315 12.5873ZM21.4425 22.7679C21.4945 22.6076 21.446 22.4318 21.3195 22.3207C21.1929 22.2096 21.0122 22.1843 20.8603 22.256C20.4771 22.4374 19.9659 22.5745 19.4224 22.6413C19.3409 22.6512 19.26 22.6596 19.1791 22.6659C20.2141 21.3356 20.9419 19.774 21.3019 18.1012C21.3328 17.9564 21.2857 17.8059 21.1781 17.7047C21.0698 17.6034 20.9166 17.5662 20.7745 17.607C20.5615 17.6674 20.3351 17.7138 20.1009 17.7441C20.0447 17.7511 19.9891 17.7574 19.9343 17.763C21.0136 16.6359 21.8623 15.3204 22.4381 13.8818C23.014 15.3204 23.8627 16.6359 24.942 17.763C24.8864 17.7574 24.8309 17.7518 24.7753 17.7441C24.5412 17.7138 24.3148 17.6674 24.1017 17.607C23.9597 17.5662 23.8057 17.6034 23.6981 17.7047C23.5898 17.8059 23.5427 17.9564 23.5744 18.1012C23.9344 19.774 24.6621 21.3349 25.6971 22.6659C25.6163 22.6596 25.5354 22.6512 25.4538 22.6413C24.9096 22.5745 24.3991 22.4374 24.0159 22.256C23.8641 22.1836 23.6834 22.2089 23.5568 22.3207C23.4302 22.4318 23.3817 22.6076 23.4338 22.7679C24.0441 24.6495 24.9687 25.8307 26.0395 27.1842H18.8367C19.9076 25.8307 20.8315 24.6488 21.4425 22.7679ZM21.9248 28.028H22.7412V34.1016H21.9248V28.028ZM9.14063 27.7615H12.2119L13.6723 30.4165H7.68094L9.14063 27.7615ZM7.21688 31.2602H14.1363L15.6987 34.1016H5.65453L7.21688 31.2602ZM24.6888 8.7075C27.2433 8.7075 29.2444 7.5382 29.2444 6.04547C29.2444 5.49633 28.9807 4.98164 28.4787 4.5457C28.4906 4.45148 28.497 4.35656 28.497 4.26094C28.497 2.93766 27.3115 1.86117 25.8546 1.86117C25.7133 1.86117 25.572 1.87102 25.4334 1.89141C24.9356 1.35703 24.2466 1.05469 23.5069 1.05469C22.05 1.05469 20.8645 2.24508 20.8645 3.70758C20.8645 3.97266 20.9025 4.2307 20.9784 4.47961C20.4307 4.9268 20.1333 5.47383 20.1333 6.04547C20.1333 7.5382 22.1344 8.7075 24.6888 8.7075ZM21.7181 4.98234C21.8904 4.86773 21.9544 4.64555 21.8693 4.45711C21.7624 4.22156 21.7083 3.96984 21.7083 3.70828C21.7083 2.71055 22.5155 1.89914 23.5069 1.89914C24.0708 1.89914 24.5918 2.15789 24.9356 2.6093C25.0369 2.74219 25.2077 2.80336 25.3702 2.76398C25.527 2.72602 25.6901 2.70703 25.8546 2.70703C26.8467 2.70703 27.6532 3.40523 27.6532 4.26305C27.6532 4.38047 27.6377 4.49719 27.6082 4.61039C27.5639 4.77773 27.6265 4.95563 27.7664 5.05828C28.0554 5.27063 28.4006 5.61445 28.4006 6.04758C28.4006 6.9075 26.8763 7.86586 24.6888 7.86586C22.5014 7.86586 20.977 6.9075 20.977 6.04758C20.977 5.54836 21.4411 5.16586 21.7181 4.98234ZM7.20563 16.3315C10.1876 16.3315 13.3566 15.3816 13.3566 13.6216C13.3566 13.1027 13.0627 12.6211 12.517 12.2112C13.3819 11.5601 13.912 10.5279 13.912 9.42047C13.912 7.49672 12.3469 5.93156 10.4231 5.93156C8.99086 5.93156 7.73859 6.78656 7.20422 8.06977C6.84141 7.88906 6.43711 7.79273 6.01664 7.79273C4.54078 7.79273 3.34055 8.99789 3.34055 10.4801C3.34055 10.6559 3.35742 10.8309 3.39117 11.0018C3.18938 11.193 3.02344 11.4124 2.89969 11.6515C1.70859 12.15 1.05469 12.8454 1.05469 13.6209C1.05469 15.3816 4.22367 16.3315 7.20563 16.3315ZM10.4231 6.77461C11.8821 6.77461 13.0683 7.96148 13.0683 9.41977C13.0683 10.3837 12.5381 11.2725 11.7028 11.7359C11.4891 11.6374 11.2563 11.546 11.0053 11.4623C11.032 11.3238 11.0454 11.1832 11.0454 11.0412C11.0454 9.70172 9.84516 8.61117 8.3693 8.61117C8.2343 8.61117 8.1 8.62031 7.96711 8.63859C7.94953 8.61961 7.93055 8.60133 7.91227 8.58305C8.26805 7.50727 9.26859 6.77461 10.4231 6.77461ZM3.36445 12.3743C3.47133 12.3328 3.55641 12.2498 3.6007 12.1444C3.70617 11.8934 3.88547 11.667 4.11961 11.4898C4.26094 11.3829 4.3207 11.198 4.26797 11.0285C4.21313 10.852 4.1857 10.6671 4.1857 10.4801C4.1857 9.46336 5.00766 8.63648 6.01805 8.63648C6.59039 8.63648 7.11914 8.89805 7.4693 9.35508C7.56984 9.48586 7.73789 9.54633 7.89891 9.50906C8.05219 9.47391 8.21039 9.45562 8.37 9.45562C9.38039 9.45562 10.2023 10.1672 10.2023 11.0419C10.2023 11.2268 10.1658 11.4082 10.0934 11.5812C10.0463 11.693 10.0498 11.8195 10.1025 11.9285C10.1552 12.0375 10.2523 12.1184 10.369 12.1514C11.6719 12.5149 12.5135 13.0922 12.5135 13.6223C12.5135 14.5034 10.2438 15.4884 7.20633 15.4884C4.16883 15.4884 1.89844 14.502 1.89844 13.6209C1.89844 13.197 2.44617 12.7308 3.36445 12.3743ZM10.0013 4.41211V3.23648C10.0013 3.00375 10.1904 2.81461 10.4231 2.81461C10.6559 2.81461 10.845 3.00375 10.845 3.23648V4.41211C10.845 4.64484 10.6559 4.83398 10.4231 4.83398C10.1904 4.83398 10.0013 4.64484 10.0013 4.41211ZM13.6666 6.17695C13.5021 6.01242 13.5021 5.74523 13.6666 5.58L14.4977 4.74891C14.6623 4.58438 14.9295 4.58438 15.0947 4.74891C15.2592 4.91344 15.2592 5.18062 15.0947 5.34586L14.2636 6.17695C14.1813 6.25922 14.073 6.3007 13.9655 6.3007C13.8579 6.3007 13.7489 6.25922 13.6666 6.17695ZM15.4315 8.99859H16.6071C16.8398 8.99859 17.029 9.18773 17.029 9.42047C17.029 9.6532 16.8398 9.84234 16.6071 9.84234H15.4315C15.1988 9.84234 15.0096 9.6532 15.0096 9.42047C15.0096 9.18773 15.1988 8.99859 15.4315 8.99859ZM15.094 13.4944C15.2585 13.6589 15.2585 13.9261 15.094 14.0913C15.0117 14.1736 14.9034 14.2151 14.7959 14.2151C14.6883 14.2151 14.58 14.1736 14.4977 14.0913L13.6666 13.2602C13.5021 13.0957 13.5021 12.8285 13.6666 12.6633C13.8312 12.4988 14.0984 12.4988 14.2636 12.6633L15.094 13.4944ZM5.75227 5.34586C5.58773 5.18133 5.58773 4.91414 5.75227 4.74891C5.9168 4.58438 6.18399 4.58438 6.34922 4.74891L7.18031 5.58C7.34484 5.74453 7.34484 6.01172 7.18031 6.17695C7.09805 6.25922 6.98977 6.3007 6.88219 6.3007C6.77461 6.3007 6.66633 6.25922 6.58406 6.17695L5.75227 5.34586Z" fill="#131126"/>
</svg>
