<svg width="36" height="36" viewBox="0 0 36 36" fill="none" xmlns="http://www.w3.org/2000/svg">
<path d="M18.3636 10.6144C19.7502 10.6128 21.0797 10.0518 22.0602 9.05428C23.0407 8.05679 23.5923 6.70433 23.5939 5.29361C23.3068 -1.76557 13.4194 -1.76352 13.1333 5.29365C13.1349 6.70435 13.6865 8.05681 14.667 9.05429C15.6476 10.0518 16.977 10.6128 18.3636 10.6144ZM18.3636 1.25927C19.415 1.26044 20.4229 1.68585 21.1664 2.44219C21.9098 3.19852 22.328 4.22399 22.3291 5.2936C22.1432 10.6327 14.5833 10.6314 14.3981 5.29353C14.3993 4.22393 14.8174 3.19848 15.5609 2.44216C16.3043 1.68585 17.3123 1.26044 18.3636 1.25927Z" fill="#131126"/>
<path d="M32.9961 25.1521C32.976 24.7895 32.8856 24.4346 32.7301 24.1077C32.5747 23.7808 32.3571 23.4884 32.0901 23.2474L29.1239 20.5388C28.9073 20.3409 28.7478 20.0868 28.6625 19.8037L27.6886 16.49C27.2563 15.0421 26.3798 13.7731 25.1874 12.8686C23.995 11.9641 22.5493 11.4716 21.062 11.4633H19.2913C19.1236 11.4633 18.9628 11.531 18.8442 11.6517C18.7256 11.7723 18.6589 11.936 18.6589 12.1066C18.6589 12.2773 18.7256 12.4409 18.8442 12.5616C18.9628 12.6822 19.1236 12.75 19.2913 12.75H21.062C22.2775 12.7571 23.4589 13.1598 24.4333 13.8991C25.4076 14.6385 26.1238 15.6758 26.4769 16.8591L27.4521 20.1759C27.6043 20.6845 27.8902 21.1411 28.279 21.4963L31.2471 24.2068C31.5185 24.4612 31.6856 24.8105 31.7149 25.1847C31.7441 25.559 31.6335 25.9307 31.4051 26.2255C31.1766 26.5204 30.8472 26.7167 30.4827 26.7752C30.1181 26.8336 29.7453 26.75 29.4388 26.5409L25.7247 23.9536C25.4113 23.7363 25.1825 23.4142 25.0781 23.0432L23.3316 16.9955C23.2865 16.8494 23.1918 16.7244 23.0645 16.6428C22.9371 16.5611 22.7853 16.5283 22.6363 16.5501C22.4873 16.5719 22.3508 16.6469 22.2512 16.7618C22.1516 16.8766 22.0954 17.0237 22.0927 17.1768V24.5175C22.0919 24.7764 22.1673 25.0296 22.3091 25.2446C22.451 25.4595 22.6529 25.6263 22.8887 25.7235L29.348 28.4394C30.5024 28.8483 30.6678 30.7894 29.3708 31.1219L25.456 32.2029C25.3105 32.2461 25.1851 32.3409 25.1024 32.4701C25.0197 32.5993 24.9852 32.7543 25.0051 32.9072C25.025 33.06 25.0981 33.2005 25.2111 33.3033C25.324 33.406 25.4694 33.4642 25.6209 33.4674C25.677 33.4671 25.7329 33.4594 25.787 33.4444L29.6988 32.3644C31.5702 31.9192 32.1251 29.3856 30.8839 28.0219C31.5107 27.8711 32.0655 27.5011 32.4515 26.9767C32.8376 26.4522 33.0303 25.8064 32.9961 25.1521ZM23.3575 24.5175V21.6506C23.6961 22.7471 23.9383 24.382 25.0114 25.0164L25.7383 25.5225L23.3575 24.5175Z" fill="#131126"/>
<path d="M24.1684 27.112L20.5403 28.2231L13.0229 27.1532C12.9406 27.1412 12.8567 27.146 12.7762 27.167C12.6956 27.1881 12.62 27.2252 12.5535 27.276C12.4871 27.3269 12.4311 27.3906 12.3889 27.4635C12.3467 27.5364 12.3191 27.6171 12.3075 27.7008C12.296 27.7846 12.3008 27.8699 12.3217 27.9518C12.3426 28.0337 12.3792 28.1106 12.4294 28.1781C12.4795 28.2456 12.5423 28.3023 12.614 28.3451C12.6858 28.3879 12.7651 28.4158 12.8475 28.4274L17.6443 29.1101L15.2209 29.8524C14.7388 29.9977 14.2993 30.2616 13.9412 30.6207C13.583 30.9798 13.3173 31.423 13.1674 31.9113L7.57333 31.3213C6.01121 31.0541 6.75608 28.8586 7.89452 28.4972L14.1518 25.8903C14.4009 25.7842 14.611 25.6011 14.7522 25.3669C14.8934 25.1327 14.9586 24.8593 14.9386 24.5853L14.3945 17.2056C14.381 17.0555 14.3162 16.915 14.2114 16.8084C14.1067 16.7019 13.9686 16.636 13.821 16.6222C13.6735 16.6084 13.5259 16.6475 13.4038 16.7329C13.2817 16.8182 13.1928 16.9443 13.1526 17.0894L11.7673 22.4255C11.6762 22.7798 11.4733 23.0938 11.1899 23.3196L7.35286 26.3295C7.0825 26.5368 6.7431 26.6282 6.40733 26.5841C6.07155 26.54 5.76608 26.364 5.5563 26.0936C5.34651 25.8233 5.24909 25.4801 5.28489 25.1376C5.32068 24.7951 5.48685 24.4805 5.74782 24.2611L8.60346 21.9408C9.14341 21.5073 9.50892 20.888 9.63112 20.1994L10.1172 17.4732C10.3561 16.1476 11.0441 14.9491 12.0617 14.0862C13.0792 13.2233 14.3618 12.7504 15.6865 12.7499H16.7617C16.9278 12.7473 17.0861 12.6784 17.2026 12.558C17.3191 12.4376 17.3844 12.2755 17.3844 12.1066C17.3844 11.9376 17.3191 11.7755 17.2026 11.6551C17.0861 11.5347 16.9277 11.4658 16.7617 11.4632C12.9923 11.1315 9.59415 13.3634 8.87274 17.2417L8.38607 19.9698C8.31881 20.3509 8.11642 20.6936 7.81728 20.933L4.95417 23.2593C4.65623 23.5038 4.41589 23.813 4.25078 24.1644C4.08567 24.5157 3.99998 24.9002 4 25.2896C4.00707 25.9666 4.26996 26.6148 4.73416 27.0998C5.19836 27.5849 5.82825 27.8696 6.49321 27.8949C4.8719 29.2738 5.03872 32.3211 7.44435 32.6015L13.044 33.1921C13.0928 33.6428 13.2365 34.0775 13.4654 34.4666C13.6943 34.8556 14.003 35.1898 14.3704 35.4465C14.7378 35.7031 15.1554 35.8761 15.5945 35.9536C16.0336 36.0311 16.484 36.0113 16.9149 35.8956L23.3396 34.1198C23.4993 34.0732 23.6345 33.9645 23.716 33.8173C23.7975 33.6701 23.8189 33.4962 23.7754 33.3331C23.7319 33.17 23.6271 33.0309 23.4836 32.9458C23.3401 32.8607 23.1695 32.8364 23.0085 32.8783L16.5863 34.6532C16.1238 34.7801 15.6307 34.7169 15.2136 34.477C14.7965 34.2371 14.4889 33.84 14.3573 33.3713C14.2257 32.9026 14.2806 32.4001 14.5101 31.9723C14.7396 31.5444 15.1254 31.2257 15.5841 31.0848C17.7514 30.4205 22.3951 28.9992 24.5328 28.3441C24.6914 28.2933 24.824 28.1809 24.9018 28.0314C24.9795 27.8818 24.9963 27.7071 24.9484 27.5451C24.9004 27.3831 24.7917 27.2468 24.6457 27.1657C24.4998 27.0847 24.3283 27.0654 24.1684 27.112ZM11.968 24.334C12.9294 23.6745 13.1249 22.1711 13.4113 21.1321L13.6701 24.7006L9.04317 26.6279L11.968 24.334Z" fill="#131126"/>
</svg>
