<svg width="36" height="36" viewBox="0 0 36 36" fill="none" xmlns="http://www.w3.org/2000/svg">
<g clip-path="url(#clip0_9443_1843)">
<path d="M35.6023 29.0107C35.5423 28.336 35.0144 27.8227 34.4041 27.8441C33.2652 27.882 32.307 28.4478 31.7516 28.9977C31.0999 28.5497 29.9098 27.8253 28.4043 27.3164C28.2979 24.1963 27.3123 21.2982 25.7864 19.1409C26.2731 18.4725 26.623 17.7008 26.8321 16.8287C27.0187 16.8712 27.21 16.893 27.4019 16.893C28.8181 16.893 29.9703 15.7407 29.9703 14.3245C29.9703 12.9083 28.8181 11.7561 27.4019 11.7561C27.1524 11.7561 26.9062 11.7922 26.6701 11.8624C26.2637 10.4152 25.5489 9.06808 24.5994 7.95271C25.1968 7.76814 25.6736 7.42938 25.945 6.94626C26.4076 6.12227 26.1801 5.07806 25.3354 4.15218C25.2806 4.09242 25.2806 4.02386 25.3361 3.96318C26.1801 3.03815 26.4076 1.99394 25.9449 1.16981C25.2274 -0.107278 23.0764 -0.378193 21.0484 0.552815C20.6698 0.726206 20.0889 1.0521 19.5229 1.46878C19.1375 1.06947 18.5975 0.820354 17.9999 0.820354C17.4024 0.820354 16.8624 1.06947 16.477 1.46878C15.911 1.0521 15.3302 0.726276 14.9519 0.553026C12.9235 -0.378193 10.7725 -0.107349 10.0548 1.16995C9.59219 1.99394 9.81972 3.03808 10.6645 3.9641C10.7193 4.02386 10.7193 4.09242 10.6637 4.15303C9.81972 5.07799 9.59219 6.1222 10.0549 6.94633C10.3263 7.42938 10.803 7.76814 11.4004 7.95264C10.4509 9.06801 9.73612 10.4151 9.32978 11.8623C9.09367 11.7921 8.84751 11.7559 8.59804 11.7559C7.18181 11.7559 6.0296 12.9081 6.0296 14.3244C6.0296 15.7406 7.18181 16.8928 8.59804 16.8928C8.78992 16.8928 8.98132 16.871 9.16778 16.8285C9.37696 17.7009 9.72691 18.4727 10.2138 19.1413C9.85389 19.6498 9.52399 20.1977 9.23135 20.7764C9.09993 21.0363 9.20407 21.3535 9.46394 21.4849C9.54023 21.5235 9.62151 21.5418 9.70153 21.5418C9.89411 21.5418 10.0797 21.4359 10.1726 21.2523C10.4024 20.7978 10.6569 20.3646 10.9316 19.9575C11.2012 20.2139 11.4972 20.4498 11.8204 20.6642C11.7973 20.7762 11.7804 20.8893 11.7725 21.0033C11.7201 21.7469 11.976 22.4621 12.4932 23.017C13.1783 23.7521 14.245 24.102 15.3025 23.8735C15.8225 24.8222 16.8699 25.4299 18 25.4299C19.1302 25.4299 20.1775 24.8223 20.6976 23.8736C21.7411 24.0994 22.8129 23.7616 23.5069 23.017C24.024 22.4621 24.28 21.747 24.2276 21.0039C24.2197 20.8897 24.2027 20.7764 24.1796 20.6642C24.5031 20.4497 24.7993 20.2136 25.069 19.957C27.0298 22.8658 27.8952 27.0689 27.0151 31.0717C26.2054 30.296 25.1249 29.9151 23.8937 29.9779C24.1778 28.429 24.1448 26.7955 23.7819 25.2017C23.7173 24.9178 23.4346 24.74 23.1506 24.8046C22.8666 24.8693 22.6889 25.1519 22.7535 25.4359C23.2702 27.7053 23.0565 30.0579 22.1515 32.0604C22.0014 32.3928 21.9249 32.7399 21.9145 33.0837C19.3144 32.9042 16.6874 32.9042 14.0873 33.0835C14.0762 32.7346 13.9964 32.3879 13.8483 32.0602C13.6193 31.5535 13.4348 31.0244 13.2949 30.4798C13.2946 30.4786 13.2943 30.4774 13.294 30.4762C12.8822 28.8699 12.8607 27.1297 13.2463 25.4357C13.3109 25.1518 13.1331 24.8691 12.8491 24.8045C12.5652 24.7399 12.2826 24.9176 12.2179 25.2016C11.8551 26.7955 11.8221 28.4291 12.1062 29.9779C10.8749 29.9151 9.79448 30.2961 8.98483 31.0717C8.51325 28.926 8.52639 26.6542 9.02259 24.4742C9.10099 24.1297 9.19232 23.7854 9.29407 23.4511C9.37886 23.1724 9.22164 22.8778 8.943 22.7931C8.66428 22.7081 8.36974 22.8655 8.28501 23.1441C8.17603 23.5024 8.07815 23.8711 7.9942 24.24C7.76266 25.2572 7.63096 26.2883 7.59588 27.3161C6.09063 27.8249 4.90052 28.5491 4.24837 28.9975C3.69227 28.4472 2.73433 27.8817 1.59597 27.8438C0.983129 27.8225 0.457683 28.3357 0.397777 29.0107C0.26566 30.5048 0.428574 32.6112 0.812691 34.377C0.932996 34.9307 1.2655 35.3987 1.74883 35.6947C2.07825 35.8965 2.44696 35.9997 2.82215 35.9997C2.99927 35.9997 3.17786 35.9767 3.35435 35.9301C5.28886 35.4206 7.24748 35.009 9.18234 34.7025C9.67987 35.419 10.5039 35.8629 11.3954 35.8629C11.7788 35.8629 12.1515 35.7823 12.5031 35.6234C13.1475 35.3323 13.6418 34.8112 13.8999 34.1545C16.623 33.9536 19.3784 33.9537 22.1016 34.1547C22.3494 34.785 22.8325 35.3234 23.4967 35.6236C23.8479 35.7826 24.2208 35.8633 24.605 35.8633C25.4966 35.8633 26.3206 35.4192 26.8177 34.7025C27.4531 34.8027 28.0911 34.9139 28.7194 35.0353C28.7532 35.0418 28.7868 35.045 28.82 35.045C29.0676 35.045 29.2885 34.8697 29.3371 34.6175C29.3924 34.3316 29.2054 34.055 28.9194 33.9998C28.3847 33.8965 27.8429 33.8004 27.3016 33.7118C27.9705 32.0501 28.3413 30.2585 28.4047 28.4357C29.7128 28.9234 30.7286 29.5659 31.2565 29.9379C31.626 30.1988 32.1186 30.1472 32.4284 29.8144C32.8213 29.3906 33.5557 28.9274 34.4394 28.898C34.4631 28.8959 34.5398 28.9689 34.5517 29.1036C34.6752 30.5005 34.5202 32.4825 34.1567 34.1531C34.0981 34.4231 33.936 34.6511 33.7004 34.7954C33.4632 34.9407 33.1841 34.9816 32.9139 34.9103C32.389 34.7724 31.8522 34.6386 31.3183 34.5126C31.0347 34.4456 30.7508 34.6213 30.684 34.9047C30.617 35.1881 30.7926 35.4722 31.076 35.5391C31.6013 35.663 32.1295 35.7947 32.6454 35.9302C32.822 35.9768 33.0006 35.9998 33.1778 35.9998C33.553 35.9998 33.9218 35.8965 34.2511 35.6949C34.7345 35.3989 35.067 34.9309 35.1873 34.3772C35.5715 32.6115 35.7344 30.505 35.6023 29.0107ZM21.488 1.51146C22.7812 0.917808 24.552 0.843558 25.0254 1.68625C25.2546 2.09428 25.0795 2.6797 24.5579 3.25141C24.1364 3.71125 24.1364 4.40482 24.5571 4.86382C25.0794 5.43637 25.2546 6.02186 25.0255 6.42975C24.5941 7.19756 22.4815 7.57725 20.0465 5.72205C20.161 5.29167 20.101 5.05211 20.1177 4.04236C20.313 4.01641 20.4892 4.01057 20.6552 4.02421C21.0692 4.05895 21.5542 4.27326 21.7046 4.67397C21.784 4.88561 21.9849 5.01618 22.1983 5.01618C22.2598 5.01618 22.3225 5.00535 22.3835 4.98243C22.6562 4.88013 22.7943 4.5761 22.6919 4.3035C22.4173 3.57161 21.6523 3.04954 20.7428 2.97332C20.5419 2.95666 20.3361 2.95919 20.1177 2.98078V2.9381C20.1177 2.75008 20.0927 2.56783 20.0465 2.39416C20.6147 1.96117 21.1995 1.64357 21.488 1.51146ZM20.0213 8.60353C19.7848 8.51001 19.5693 8.38619 19.3885 8.23804C19.1889 8.07464 18.9148 8.02992 18.6734 8.12132C18.4333 8.21238 18.2586 8.42613 18.2178 8.67813C18.1288 9.22115 18.1784 9.80306 18.3528 10.3414C17.0801 10.0855 15.9764 9.447 15.331 8.57512C15.1163 8.2848 14.9353 7.96973 14.7884 7.63525C15.361 7.39113 15.9883 7.00701 16.4769 6.64729C16.8623 7.0466 17.4024 7.29571 17.9999 7.29571C18.5974 7.29571 19.1375 7.0466 19.5228 6.64729C19.6497 6.74067 19.7771 6.82954 19.903 6.913C19.8261 7.47656 19.867 8.0541 20.0213 8.60353ZM17.9999 1.87497C18.5861 1.87497 19.063 2.35183 19.063 2.93803V5.17818C19.063 5.76438 18.5861 6.24124 17.9999 6.24124C17.4138 6.24124 16.9369 5.76438 16.9369 5.17818V2.93803C16.9369 2.35183 17.4138 1.87497 17.9999 1.87497ZM10.9745 6.42982C10.7453 6.02179 10.9204 5.43637 11.442 4.86466C11.8635 4.40482 11.8635 3.71118 11.4428 3.25232C10.9205 2.6797 10.7453 2.09428 10.9744 1.68639C11.4479 0.843558 13.2187 0.917737 14.5124 1.51174C14.8004 1.64364 15.3852 1.96125 15.9534 2.39409C15.9072 2.56776 15.8822 2.75001 15.8822 2.93803V2.98071C15.6637 2.95905 15.4578 2.95652 15.2566 2.97332C14.3476 3.04947 13.5826 3.57161 13.308 4.3035C13.2056 4.57617 13.3437 4.88013 13.6164 4.98243C13.6774 5.00535 13.74 5.01618 13.8016 5.01618C14.0151 5.01618 14.2159 4.88561 14.2953 4.67397C14.4457 4.27326 14.9307 4.05888 15.3443 4.02421C15.5105 4.01043 15.6867 4.01627 15.8822 4.04221V5.17811C15.8822 5.36613 15.9072 5.54838 15.9534 5.72198C13.519 7.57682 11.4059 7.19784 10.9745 6.42982ZM20.8738 22.8322C20.4456 22.7256 19.9947 22.927 19.8018 23.3111C19.4772 23.9577 18.7699 24.3753 17.9999 24.3753C17.23 24.3753 16.5227 23.9576 16.1981 23.3111C16.0051 22.9269 15.5544 22.7254 15.1289 22.8315C14.4491 22.997 13.7273 22.7945 13.2646 22.2979C12.9829 21.9957 12.8286 21.6177 12.8212 21.2205C14.2156 21.8655 15.9526 22.1928 17.9999 22.1928C20.0473 22.1928 21.7843 21.8655 23.1787 21.2205C23.1714 21.6175 23.017 21.9956 22.7352 22.2979C22.2678 22.7997 21.5422 22.995 20.8738 22.8322ZM17.9999 21.1383C14.7538 21.1383 10.7458 20.2538 10.0865 16.0401C10.0601 15.871 9.95325 15.7253 9.79989 15.6493C9.64661 15.5733 9.46598 15.5762 9.3153 15.6574C9.09269 15.7774 8.85131 15.8383 8.59804 15.8383C7.76336 15.8383 7.08428 15.1592 7.08428 14.3244C7.08428 13.4898 7.76336 12.8106 8.59804 12.8106C8.88527 12.8106 9.16518 12.8919 9.40741 13.0456C9.55303 13.1381 9.73464 13.1535 9.89376 13.0867C10.0529 13.02 10.1693 12.8798 10.2055 12.7112C10.5829 10.9556 11.4623 9.33204 12.6885 8.11415C13.0405 8.10445 13.4085 8.05558 13.7825 7.96713C13.9673 8.40792 14.2017 8.82199 14.4831 9.20245C15.3966 10.4364 17.0162 11.2871 18.8144 11.478C18.8405 11.4808 18.8664 11.4822 18.8921 11.4822C19.1285 11.4822 19.3509 11.3659 19.4856 11.1674C19.6368 10.9446 19.6524 10.6579 19.5256 10.4177C19.3589 10.1046 19.2595 9.75159 19.2347 9.39947C19.5974 9.59711 20.0052 9.73521 20.4387 9.80559C20.7029 9.84932 20.9679 9.74379 21.1304 9.53039C21.2928 9.31699 21.3238 9.03342 21.2109 8.78943C21.0223 8.38394 20.9245 7.94315 20.9201 7.50236C21.6534 7.86103 22.4917 8.09158 23.3112 8.11422C24.5375 9.33218 25.4169 10.9558 25.7942 12.7113C25.8305 12.8799 25.9469 13.0202 26.106 13.0869C26.265 13.1535 26.4467 13.1381 26.5923 13.0457C26.8346 12.892 27.1145 12.8107 27.4017 12.8107C28.2364 12.8107 28.9155 13.4898 28.9155 14.3246C28.9155 15.1593 28.2364 15.8384 27.4017 15.8384C27.1484 15.8384 26.9071 15.7776 26.6845 15.6576C26.5338 15.5763 26.3531 15.5733 26.1999 15.6494C26.0465 15.7255 25.9397 15.8712 25.9133 16.0402C25.2541 20.2537 21.2461 21.1383 17.9999 21.1383ZM3.08547 34.9105C2.81582 34.9816 2.53668 34.9408 2.29952 34.7955C2.0639 34.6512 1.90183 34.4231 1.84312 34.1531C1.47968 32.4826 1.32464 30.5006 1.44818 29.104C1.46006 28.9698 1.53635 28.8981 1.56025 28.8981H1.56061C2.44415 28.9276 3.17864 29.3908 3.5721 29.8153C3.8812 30.1474 4.37381 30.1991 4.74281 29.9384C5.27121 29.5661 6.28708 28.9234 7.59532 28.4357C7.6586 30.2585 8.02928 32.0501 8.69796 33.7119C6.8325 34.0181 4.94784 34.42 3.08547 34.9105ZM11.3953 34.8085C10.7522 34.8085 10.1656 34.43 9.90086 33.8443C9.67488 33.3442 9.47955 32.8295 9.31389 32.3039C10.181 31.0601 11.4823 30.9538 12.36 31.0584C12.5021 31.5509 12.6777 32.0312 12.8872 32.4947C13.3745 33.5731 12.5883 34.8085 11.3953 34.8085ZM24.6049 34.8087C23.4228 34.8087 22.6224 33.5801 23.1125 32.4947C23.322 32.0312 23.4975 31.5509 23.6396 31.0584C24.5173 30.9537 25.8187 31.06 26.6859 32.3037C26.5201 32.8294 26.3247 33.3442 26.0985 33.8445C25.8342 34.4302 25.2479 34.8087 24.6049 34.8087Z" fill="#131126"/>
<path d="M14.6021 12.4801C14.3108 12.4801 14.0747 12.7162 14.0747 13.0074V13.3163C14.0747 13.6076 14.3108 13.8437 14.6021 13.8437C14.8933 13.8437 15.1294 13.6076 15.1294 13.3163V13.0074C15.1294 12.7162 14.8933 12.4801 14.6021 12.4801Z" fill="#131126"/>
<path d="M21.3975 12.4801C21.1062 12.4801 20.8701 12.7162 20.8701 13.0074V13.3163C20.8701 13.6076 21.1062 13.8437 21.3975 13.8437C21.6887 13.8437 21.9248 13.6076 21.9248 13.3163V13.0074C21.9248 12.7162 21.6887 12.4801 21.3975 12.4801Z" fill="#131126"/>
<path d="M19.4291 15.9509C19.0431 16.344 18.5356 16.5604 18.0001 16.5604C17.4646 16.5604 16.957 16.344 16.571 15.9509C16.3671 15.7432 16.0331 15.7401 15.8253 15.9442C15.6175 16.1483 15.6145 16.4822 15.8186 16.69C16.4045 17.2865 17.1792 17.6151 18 17.6151C18.8208 17.6151 19.5955 17.2865 20.1814 16.69C20.3855 16.4822 20.3825 16.1483 20.1747 15.9442C19.9671 15.7401 19.6331 15.7431 19.4291 15.9509Z" fill="#131126"/>
</g>
<defs>
<clipPath id="clip0_9443_1843">
<rect width="36" height="36" fill="white"/>
</clipPath>
</defs>
</svg>
