<svg width="36" height="36" viewBox="0 0 36 36" fill="none" xmlns="http://www.w3.org/2000/svg">
<g clip-path="url(#clip0_9197_216)">
<path d="M27.6919 31.1861C27.5963 31.1861 27.5063 31.1692 27.4107 31.1242L20.6438 28.1036C20.2951 27.9461 20.1432 27.5411 20.2951 27.1923L21.8476 23.7161C22.0051 23.3673 22.4101 23.2098 22.7588 23.3673L29.5257 26.3879C29.8744 26.5454 30.0263 26.9504 29.8744 27.2992L28.3219 30.7754C28.2094 31.0342 27.9563 31.1861 27.6919 31.1861ZM22.4832 23.8679C22.4607 23.8679 22.4438 23.8736 22.4326 23.8792C22.4157 23.8848 22.3763 23.9073 22.3594 23.9523L20.8069 27.4286C20.7844 27.4736 20.7957 27.5129 20.8013 27.5298C20.8069 27.5467 20.8294 27.5861 20.8744 27.6029L27.6413 30.6236C27.7088 30.6517 27.7876 30.6236 27.8213 30.5561L29.3738 27.0854C29.4019 27.0179 29.3738 26.9392 29.3063 26.9054L22.5394 23.8848C22.5169 23.8679 22.5001 23.8679 22.4832 23.8679Z" fill="#131126"/>
<path d="M23.1526 24.1267C23.1132 24.1267 23.0738 24.1211 23.0401 24.1042C22.8994 24.0423 22.8376 23.8792 22.8994 23.7386L24.4351 20.3017C24.6038 19.9192 24.8063 19.5592 25.0426 19.233C25.6051 18.4398 26.7413 17.0898 28.1363 16.7467L29.5594 13.563C29.7282 13.1917 30.0263 12.9048 30.4088 12.7586C30.7913 12.6123 31.2019 12.6236 31.5788 12.7923C32.3494 13.1355 32.6926 14.0411 32.3494 14.8117L29.7451 20.6448C29.6832 20.7855 29.5201 20.8473 29.3794 20.7855C29.2388 20.7236 29.1769 20.5605 29.2388 20.4198L31.8432 14.5867C32.0626 14.0973 31.8432 13.518 31.3482 13.3042C31.1119 13.1973 30.8476 13.1917 30.6057 13.2817C30.3638 13.3773 30.1726 13.5573 30.0657 13.7936L28.5863 17.1067C28.5469 17.1911 28.4738 17.2473 28.3838 17.2642C27.1126 17.5117 26.0269 18.8055 25.4982 19.5592C25.2901 19.8573 25.1044 20.1836 24.9469 20.5323L23.4113 23.9692C23.3607 24.0648 23.2594 24.1267 23.1526 24.1267Z" fill="#131126"/>
<path d="M28.9744 26.7255C28.9126 26.7255 28.8507 26.703 28.7944 26.658C28.6763 26.5624 28.6594 26.3824 28.7607 26.2699L34.0988 19.9136C34.4251 19.5086 34.6951 19.0586 34.9144 18.5805C35.3026 17.7143 35.4826 16.758 35.4432 15.8074L35.0213 6.07051C32.8051 6.78488 32.8051 7.95488 32.8107 7.96613L32.3438 13.5799C32.3326 13.7318 32.1976 13.8443 32.0457 13.833C31.8938 13.8218 31.7813 13.6868 31.7926 13.5349L32.2594 7.94926C32.2594 7.91551 32.2538 6.38551 34.8301 5.53051C34.9988 5.47426 35.1844 5.50238 35.3307 5.60363C35.4769 5.70488 35.5669 5.86801 35.5782 6.04801L36.0001 15.7849C36.0451 16.8199 35.8482 17.8661 35.4263 18.8055C35.1901 19.3286 34.8919 19.818 34.5376 20.2624L29.1994 26.6243C29.1319 26.6918 29.0532 26.7255 28.9744 26.7255Z" fill="#131126"/>
<path d="M8.30823 31.1861C8.04385 31.1861 7.79073 31.0342 7.67823 30.7755L6.12573 27.2992C5.96823 26.9505 6.12573 26.5455 6.47448 26.388L13.2414 23.3673C13.5901 23.2155 13.9951 23.3673 14.1526 23.7161L15.7051 27.1923C15.857 27.5411 15.7051 27.9461 15.3564 28.1036L8.58385 31.1242C8.49385 31.1692 8.39823 31.1861 8.30823 31.1861ZM13.517 23.868C13.5001 23.868 13.4832 23.8736 13.4607 23.8792L6.69385 26.8998C6.62635 26.928 6.5926 27.0123 6.62635 27.0798L8.17885 30.5505C8.20698 30.618 8.29135 30.6517 8.35885 30.618L15.1257 27.5973C15.1707 27.5748 15.1876 27.5411 15.1989 27.5242C15.2045 27.5073 15.2157 27.468 15.1989 27.423L13.6464 23.9467C13.6295 23.9017 13.5901 23.8848 13.5732 23.8736C13.5564 23.8736 13.5395 23.868 13.517 23.868Z" fill="#131126"/>
<path d="M12.8476 24.1267C12.7407 24.1267 12.6395 24.0648 12.5945 23.9636L11.0588 20.5267C10.9013 20.178 10.7157 19.8517 10.5076 19.5536C9.97321 18.7998 8.88759 17.5061 7.62196 17.2586C7.53196 17.2417 7.45884 17.1798 7.41946 17.1011L5.94009 13.788C5.83321 13.5517 5.64196 13.3661 5.40009 13.2761C5.15821 13.1805 4.89384 13.1917 4.65759 13.2986C4.16821 13.518 3.94884 14.0917 4.16821 14.5811L6.77259 20.4142C6.83446 20.5548 6.77259 20.718 6.63196 20.7798C6.49134 20.8417 6.32821 20.7798 6.26634 20.6392L3.66196 14.8061C3.31884 14.0355 3.66196 13.1355 4.43259 12.7923C4.80384 12.6236 5.22009 12.6123 5.60259 12.7586C5.98509 12.9048 6.28321 13.1917 6.45196 13.563L7.87509 16.7467C9.27009 17.0898 10.4063 18.4398 10.9688 19.233C11.1995 19.5592 11.402 19.9192 11.5763 20.3017L13.112 23.7386C13.1738 23.8792 13.112 24.0423 12.9713 24.1042C12.9263 24.1211 12.887 24.1267 12.8476 24.1267Z" fill="#131126"/>
<path d="M7.02568 26.7255C6.94693 26.7255 6.86818 26.6918 6.81193 26.6243L1.47381 20.268C1.11381 19.818 0.815682 19.3286 0.579432 18.8055C0.157557 17.8605 -0.0393176 16.8199 0.00568237 15.7849L0.427557 6.04801C0.433182 5.86801 0.523182 5.71051 0.675057 5.60363C0.826932 5.50238 1.00693 5.47426 1.17568 5.53051C3.75193 6.38551 3.74631 7.91551 3.74631 7.98301L4.21318 13.5349C4.22443 13.6868 4.11193 13.8218 3.96006 13.833C3.80818 13.8386 3.67318 13.7318 3.66193 13.5799L3.19506 8.00551C3.19506 7.93238 3.16131 6.77926 1.00131 6.06488L0.562557 15.813C0.523182 16.7636 0.703182 17.7199 1.09131 18.5861C1.30506 19.0643 1.58068 19.5143 1.90693 19.9249L7.23943 26.2755C7.33506 26.3936 7.32381 26.568 7.20568 26.6636C7.14943 26.7086 7.08756 26.7255 7.02568 26.7255Z" fill="#131126"/>
<path d="M17.9157 8.02696C16.9313 8.02696 16.127 7.22821 16.127 6.23821C16.127 5.25384 16.9257 4.44946 17.9157 4.44946C18.9001 4.44946 19.7045 5.25384 19.7045 6.23821C19.7045 7.22259 18.9057 8.02696 17.9157 8.02696ZM17.9157 5.00634C17.2351 5.00634 16.6838 5.55759 16.6838 6.23821C16.6838 6.91884 17.2351 7.47009 17.9157 7.47009C18.5963 7.47009 19.1476 6.91884 19.1476 6.23821C19.1532 5.55759 18.5963 5.00634 17.9157 5.00634Z" fill="#131126"/>
<path d="M14.5801 8.66814C14.4226 8.66814 14.2707 8.65126 14.1132 8.61751C13.7757 8.54439 13.4945 8.29689 13.3482 7.95376C12.7632 6.54189 12.8307 5.35501 13.5451 4.32564C13.7701 3.96001 14.0963 3.74064 14.4845 3.70689C15.5645 3.62251 16.7907 4.98376 16.9313 5.14126C17.0326 5.25376 17.0213 5.43376 16.9032 5.52939C16.7851 5.63064 16.6107 5.61939 16.5151 5.50126C16.1945 5.13564 15.2213 4.19064 14.5351 4.25814C14.3213 4.27501 14.1526 4.39314 14.012 4.62376C13.4045 5.50126 13.3595 6.51376 13.8657 7.74001C13.9388 7.91439 14.0795 8.03814 14.237 8.07189C14.9851 8.23501 15.7107 7.88626 16.5207 6.96376C16.622 6.85126 16.7963 6.84001 16.9145 6.94126C17.027 7.04251 17.0382 7.21689 16.937 7.33501C16.1382 8.22939 15.3676 8.66814 14.5801 8.66814Z" fill="#131126"/>
<path d="M21.257 8.66814C20.4695 8.66814 19.6988 8.22939 18.9113 7.33501C18.8101 7.22251 18.8213 7.04814 18.9338 6.94689C19.0463 6.84564 19.2207 6.85689 19.322 6.96939C20.132 7.88626 20.852 8.23501 21.6057 8.07751C21.7632 8.04376 21.9038 7.92001 21.977 7.74001C22.4832 6.51939 22.4382 5.50689 21.8363 4.64064C21.6901 4.39876 21.5157 4.28064 21.302 4.25814C20.6157 4.20751 19.6426 5.13564 19.322 5.50126C19.2207 5.61376 19.0463 5.63064 18.9338 5.52939C18.8213 5.42814 18.8045 5.25376 18.9057 5.14126C19.0407 4.98376 20.267 3.62251 21.347 3.70689C21.7351 3.74064 22.067 3.95439 22.2976 4.33689C23.0063 5.35501 23.0682 6.54189 22.4832 7.95376C22.3426 8.29689 22.0557 8.54439 21.7182 8.61751C21.572 8.65126 21.4145 8.66814 21.257 8.66814Z" fill="#131126"/>
<path d="M16.4082 6.51927H14.6307C14.4789 6.51927 14.3551 6.39552 14.3551 6.24364C14.3551 6.09177 14.4789 5.96802 14.6307 5.96802H16.4082C16.5601 5.96802 16.6839 6.09177 16.6839 6.24364C16.6839 6.39552 16.5601 6.51927 16.4082 6.51927Z" fill="#131126"/>
<path d="M20.9869 6.51927H19.4288C19.2769 6.51927 19.1532 6.39552 19.1532 6.24364C19.1532 6.09177 19.2769 5.96802 19.4288 5.96802H20.9869C21.1388 5.96802 21.2626 6.09177 21.2626 6.24364C21.2626 6.39552 21.1388 6.51927 20.9869 6.51927Z" fill="#131126"/>
<path d="M10.7888 11.3062C10.7719 11.3062 10.7551 11.3062 10.7382 11.3006C10.5863 11.2724 10.4907 11.1262 10.5188 10.9799C10.8338 9.29807 11.7619 7.7737 13.1401 6.68245C13.2582 6.58682 13.4326 6.60932 13.5282 6.72745C13.6238 6.84557 13.6013 7.01995 13.4832 7.11557C12.2119 8.12245 11.3513 9.53432 11.0644 11.0812C11.0363 11.2106 10.9182 11.3062 10.7888 11.3062Z" fill="#131126"/>
<path d="M17.9213 19.5019C14.2201 19.5019 11.0194 16.8526 10.4794 13.3313C10.4569 13.1794 10.5582 13.0388 10.7101 13.0163C10.8619 12.9938 11.0026 13.0951 11.0251 13.2469C11.5257 16.4982 14.4901 18.9451 17.9213 18.9451C21.3469 18.9451 24.2382 16.5994 24.7951 13.3594C24.8232 13.2076 24.9638 13.1063 25.1157 13.1344C25.2676 13.1626 25.3688 13.3032 25.3407 13.4551C24.7332 16.9594 21.6169 19.5019 17.9213 19.5019Z" fill="#131126"/>
<path d="M25.0539 11.3175C24.9245 11.3175 24.8064 11.2218 24.7839 11.0925C24.5026 9.53996 23.642 8.12808 22.3651 7.10996C22.247 7.01433 22.2245 6.83996 22.3201 6.72183C22.4158 6.60371 22.5901 6.58121 22.7083 6.67683C24.0864 7.77371 25.0201 9.30933 25.3295 10.9912C25.3576 11.1431 25.2564 11.2837 25.1045 11.3118C25.0876 11.3175 25.0708 11.3175 25.0539 11.3175Z" fill="#131126"/>
<path d="M10.1195 13.7813C9.32071 13.7813 8.66821 13.0444 8.66821 12.1444C8.66821 11.2444 9.32071 10.5132 10.1195 10.5132C10.4232 10.5132 10.7157 10.6144 10.9632 10.8113C11.0813 10.9069 11.1038 11.0813 11.0082 11.1994C10.9126 11.3232 10.7382 11.3401 10.6201 11.2444C10.4738 11.1263 10.2995 11.0644 10.1251 11.0644C9.63009 11.0644 9.22509 11.5482 9.22509 12.1444C9.22509 12.7407 9.63009 13.2301 10.1251 13.2301C10.2882 13.2301 10.4513 13.1738 10.592 13.0726C10.7157 12.9826 10.8845 13.0051 10.9801 13.1288C11.0701 13.2526 11.0476 13.4269 10.9238 13.5169C10.682 13.6857 10.4007 13.7813 10.1195 13.7813Z" fill="#131126"/>
<path d="M25.7682 13.9219C25.4589 13.9219 25.1607 13.8207 24.902 13.635C24.7782 13.545 24.7501 13.3707 24.8401 13.2469C24.9301 13.1232 25.1045 13.095 25.2282 13.185C25.3857 13.3032 25.5714 13.365 25.7682 13.365C26.3251 13.365 26.7807 12.8532 26.7807 12.2232C26.7807 11.5932 26.3251 11.0813 25.7682 11.0813C25.5714 11.0813 25.3801 11.1432 25.217 11.2669C25.0932 11.3569 24.9189 11.3288 24.8289 11.2107C24.7389 11.0869 24.767 10.9125 24.8851 10.8225C25.1439 10.6313 25.4476 10.53 25.7682 10.53C26.6289 10.53 27.332 11.2894 27.332 12.2288C27.332 13.1682 26.6345 13.9219 25.7682 13.9219Z" fill="#131126"/>
<path d="M16.4083 11.5256C16.2564 11.5256 16.1326 11.4018 16.1326 11.25C16.1326 10.7943 15.7614 10.4175 15.3001 10.4175C14.8445 10.4175 14.4676 10.7887 14.4676 11.25C14.4676 11.4018 14.3439 11.5256 14.192 11.5256C14.0401 11.5256 13.9164 11.4018 13.9164 11.25C13.9164 10.485 14.5351 9.86621 15.3001 9.86621C16.0651 9.86621 16.6839 10.485 16.6839 11.25C16.6839 11.4018 16.5601 11.5256 16.4083 11.5256Z" fill="#131126"/>
<path d="M21.7238 11.5256C21.5719 11.5256 21.4482 11.4018 21.4482 11.25C21.4482 10.7943 21.0769 10.4175 20.6157 10.4175C20.16 10.4175 19.7832 10.7887 19.7832 11.25C19.7832 11.4018 19.6594 11.5256 19.5075 11.5256C19.3557 11.5256 19.2375 11.4018 19.2375 11.25C19.2375 10.485 19.8563 9.86621 20.6213 9.86621C21.3863 9.86621 22.005 10.485 22.005 11.25C22.005 11.4018 21.8813 11.5256 21.7238 11.5256Z" fill="#131126"/>
<path d="M17.9776 15.8512C16.7288 15.8512 15.7107 14.8612 15.7107 13.6462C15.7107 13.4944 15.8344 13.3706 15.9863 13.3706C16.1382 13.3706 16.2619 13.4944 16.2619 13.6462C16.2619 14.5575 17.0269 15.3 17.9719 15.3C18.9169 15.3 19.6819 14.5575 19.6819 13.6462C19.6819 13.4944 19.8057 13.3706 19.9576 13.3706C20.1094 13.3706 20.2332 13.4944 20.2332 13.6462C20.2444 14.8612 19.2263 15.8512 17.9776 15.8512Z" fill="#131126"/>
</g>
<defs>
<clipPath id="clip0_9197_216">
<rect width="36" height="36" fill="white"/>
</clipPath>
</defs>
</svg>
