<svg width="36" height="36" viewBox="0 0 36 36" fill="none" xmlns="http://www.w3.org/2000/svg">
<path d="M20.1937 30.2624C19.8 30.2624 19.35 30.2061 18.8437 30.1499C17.2125 29.8124 16.0875 28.7999 15.525 27.2249C15.4687 26.9999 15.525 26.7749 15.75 26.6624C15.975 26.5499 16.2 26.6624 16.3125 26.8874C16.8187 28.2374 17.7187 29.0249 19.0125 29.3061C21.5437 29.7561 22.1625 28.8561 22.3875 28.1249C22.3875 28.1249 22.3875 28.0686 22.4437 28.0686C22.6687 27.6749 22.725 27.3374 22.6687 27.1124C22.6687 27.0561 22.6125 26.9436 22.3312 26.8311C22.1062 26.7186 21.9937 26.4936 22.1062 26.2686C22.2187 26.0436 22.4437 25.9311 22.6687 26.0436C23.0625 26.2124 23.3437 26.4936 23.5125 26.8311C23.6812 27.2811 23.5687 27.7874 23.2312 28.4061C22.725 29.6436 21.7687 30.2624 20.1937 30.2624Z" fill="#131126"/>
<path d="M13.3313 32.0062L9.50625 31.7812C8.2125 31.7812 6.91875 31.3874 5.45625 30.4874C5.4 30.4874 5.34375 30.4312 5.34375 30.3749C5.11875 30.0374 4.78125 29.8124 3.9375 30.3187C3.6 30.5437 3.15 30.6562 2.75625 30.7124C1.96875 30.7687 1.40625 30.7124 1.0125 30.5437C0.5625 30.3749 0.225 29.9812 0.16875 29.5312C0.1125 29.0249 0.28125 28.5749 0.675 28.2374C1.51875 27.5624 2.3625 26.7749 3.15 25.7624C3.15 25.7062 3.20625 25.7062 3.2625 25.7062C3.76875 25.3687 4.21875 25.1999 4.725 25.3124C5.175 25.3687 5.56875 25.6499 5.90625 26.0999C6.1875 26.0999 6.525 26.0999 6.80625 26.1562C6.3 25.4249 6.01875 24.5812 6.01875 23.9624C6.075 22.9499 6.8625 22.1624 7.81875 22.0499C9.95625 21.8812 11.6437 22.4999 13.1062 24.0187C14.4562 24.9187 15.1875 26.4374 15.1875 28.5749C15.3 29.4187 15.6375 31.4999 13.3875 31.9499C13.3875 32.0062 13.3313 32.0062 13.3313 32.0062ZM9.50625 30.9937L13.275 31.2187C14.2875 30.9937 14.625 30.3187 14.3438 28.7999V28.7437C14.3438 26.8312 13.7812 25.5937 12.6 24.8062L12.5437 24.7499C11.25 23.3999 9.7875 22.8937 7.875 23.0062C7.3125 23.0624 6.8625 23.5124 6.8625 24.0749C6.8625 24.6937 7.425 25.8187 8.1 26.4374C9.3375 26.8312 10.4062 27.6187 10.8562 29.5312C10.9125 29.7562 10.7438 29.9812 10.5188 30.0374C10.2938 30.0937 10.0687 29.9249 10.0125 29.6999C9.50625 27.4499 8.1 26.9999 5.625 26.9437C5.5125 26.9437 5.34375 26.8874 5.2875 26.7749C5.0625 26.4374 4.78125 26.2124 4.5 26.1562C4.275 26.0999 4.05 26.2124 3.7125 26.3812C2.86875 27.4499 2.025 28.2937 1.125 28.9687C0.95625 29.0812 0.9 29.2499 0.95625 29.4187C0.95625 29.4749 1.0125 29.6999 1.2375 29.7562C1.575 29.8687 2.025 29.9249 2.64375 29.8687C2.925 29.8687 3.20625 29.7562 3.43125 29.5874C4.66875 28.7999 5.45625 29.2499 5.85 29.7562C7.25625 30.5999 8.38125 30.9937 9.50625 30.9937Z" fill="#131126"/>
<path d="M6.46875 24.2437C6.3 24.2437 6.13125 24.1312 6.075 23.9624C5.68125 22.8374 6.075 21.4874 7.0875 20.1937C8.4375 18.4499 10.7437 17.2124 12.15 17.3249C15.3562 17.8312 17.8875 17.5499 19.9125 16.4812C20.7562 16.0312 21.4312 15.3562 21.8812 14.5687C22.05 14.2874 21.9937 13.8937 21.825 13.6687C21.7125 13.4999 21.5437 13.3874 21.3187 13.2187C20.8125 12.8249 20.3625 12.3187 20.0812 11.6999C18.7875 8.8312 19.1812 6.18745 21.2625 4.3312C21.9375 3.71245 22.725 3.26245 23.7375 2.9812C26.8312 1.9687 29.3062 2.47495 31.1625 4.38745C31.2187 4.4437 31.2187 4.4437 31.2187 4.49995C31.95 5.9062 32.2312 7.0312 32.1187 7.98745C32.4562 8.21245 32.6812 8.4937 32.7375 8.77495C32.7937 9.11245 32.6812 9.44995 32.3437 9.78745C32.175 9.9562 31.8937 9.9562 31.725 9.78745C31.5562 9.6187 31.5562 9.33745 31.725 9.1687C31.8937 8.99995 31.8937 8.9437 31.8937 8.88745C31.8937 8.8312 31.7812 8.7187 31.4437 8.54995C31.275 8.43745 31.1625 8.2687 31.2187 8.0437C31.3875 7.31245 31.1625 6.2437 30.4875 4.8937C28.8562 3.26245 26.775 2.8687 24.0187 3.7687C23.0625 3.93745 22.3312 4.3312 21.7687 4.83745C19.9687 6.4687 19.6312 8.66245 20.8125 11.2499C21.0375 11.7562 21.375 12.1499 21.7687 12.4874C21.9937 12.6562 22.2187 12.8812 22.3875 13.0499C22.8375 13.5562 22.8937 14.3437 22.5562 14.9062C21.9937 15.8624 21.2625 16.5937 20.25 17.1562C18.0562 18.2812 15.3562 18.6187 11.9812 18.1124C11.025 17.9999 9 19.0687 7.70625 20.6999C7.2 21.3187 6.4125 22.4999 6.80625 23.6812C6.8625 23.9062 6.75 24.1312 6.525 24.1874C6.58125 24.2437 6.525 24.2437 6.46875 24.2437Z" fill="#131126"/>
<path d="M28.0687 18.1125C27.7875 18.1125 27.6187 17.8875 27.675 17.6625C27.9 15.075 29.5312 14.175 31.2187 13.4438C31.6687 13.275 32.0062 12.8813 32.1187 12.4313C32.5687 10.8563 32.4562 9.78753 31.8937 9.33753C31.725 9.22503 31.6687 8.94378 31.7812 8.77503C31.8937 8.60628 32.175 8.55003 32.3437 8.66253C33.2437 9.33753 33.4687 10.6875 32.9062 12.6563C32.7375 13.3313 32.175 13.8938 31.5 14.2313C29.925 14.85 28.6312 15.5813 28.4625 17.7188C28.5187 18 28.2937 18.1125 28.0687 18.1125Z" fill="#131126"/>
<path d="M26.6063 17.0437C26.4938 17.0437 26.3813 16.9874 26.2688 16.8749C24.8625 15.0749 23.6813 14.3437 22.5 14.5687C22.275 14.6249 22.05 14.4562 21.9938 14.2312C21.9375 14.0062 22.1063 13.7812 22.3313 13.7249C24.3563 13.3312 25.9313 15.0187 26.9438 16.3124C27.1125 16.4812 27.0563 16.7624 26.8875 16.9312C26.775 16.9874 26.6625 17.0437 26.6063 17.0437Z" fill="#131126"/>
<path d="M34.3688 29.7H31.725C31.2188 29.7 30.7688 29.475 30.4875 29.0813L26.325 24.3C26.1563 24.1313 26.2125 23.85 26.3813 23.6812C26.55 23.5125 26.8313 23.5688 27 23.7375L31.1625 28.575C31.3313 28.8 31.5563 28.8562 31.7813 28.8562H34.425C34.7625 28.8562 35.1 28.575 35.1 28.1812C35.1 27.8437 34.8188 27.5625 34.4813 27.5063L33.075 27.3938C32.4 27.3375 31.8375 26.9437 31.5563 26.325L30.0375 23.1187C29.25 21.8812 28.8 20.7562 28.6313 19.8562C28.6313 19.8 28.6313 19.6875 28.6313 19.6313C29.0813 18.2813 28.9688 17.2125 28.2375 16.425C28.0688 16.2563 28.0688 15.975 28.2375 15.8063C28.4063 15.6375 28.6875 15.6375 28.8563 15.8063C29.8125 16.8188 30.0375 18.1688 29.475 19.8C29.6438 20.5875 30.0938 21.5438 30.7688 22.725L32.2875 25.9875C32.4563 26.325 32.7375 26.55 33.1313 26.55L34.5375 26.6625C35.325 26.7188 35.8875 27.3938 35.8875 28.125C35.8875 29.025 35.2125 29.7 34.3688 29.7Z" fill="#131126"/>
<path d="M26.6063 24.4124C26.4375 24.4124 26.2688 24.2999 26.2125 24.1312C26.1563 23.9062 26.2688 23.6812 26.4938 23.5687C27.5063 23.2312 28.0125 21.6562 28.4625 20.0812L28.575 19.6874C28.6313 19.4624 28.8563 19.3499 29.0813 19.4062C29.3063 19.4624 29.4188 19.6874 29.3625 19.9124L29.25 20.3062C28.7438 22.0499 28.1813 23.8499 26.7188 24.3562C26.7188 24.4124 26.6625 24.4124 26.6063 24.4124Z" fill="#131126"/>
<path d="M31.1063 33.6374H27C26.55 33.6374 26.1563 33.4686 25.875 33.1874C24.6375 32.0061 23.7375 29.4749 22.8375 26.7186L22.6125 26.0999C22.6125 26.0436 22.6125 26.0436 22.6125 25.9874L22.3875 19.1811C22.3875 18.9561 22.5563 18.7311 22.7813 18.7311C23.0063 18.7311 23.2313 18.8999 23.2313 19.1249L23.4563 25.8749L23.6813 26.4374C24.525 28.9686 25.425 31.5561 26.55 32.5686C26.6625 32.6811 26.8875 32.7936 27.1125 32.7936H31.2188C31.6125 32.7936 31.95 32.4561 31.95 32.0624C31.95 31.6686 31.6125 31.3311 31.2188 31.3311L29.1938 31.2749C28.4063 31.2749 27.7313 30.7124 27.6188 29.9249C27.3375 28.4061 27 26.7186 26.6063 25.6499C26.3813 24.9749 26.2125 24.2436 26.2125 23.5686C26.2125 23.0624 26.2125 22.5561 26.2125 22.1061C26.2125 21.5999 26.2688 21.1499 26.3813 20.6999C26.6625 19.6874 26.7188 18.8436 26.55 18.1124C26.4938 17.8874 26.6063 17.6624 26.8313 17.6061C27.0563 17.5499 27.2813 17.6624 27.3375 17.8874C27.5625 18.7874 27.5625 19.7999 27.1688 20.9811C27.0563 21.3186 27 21.7124 27 22.1624V23.6249C27 24.1874 27.1125 24.8061 27.3375 25.4249C27.7313 26.5499 28.0688 28.2936 28.35 29.8124C28.4063 30.2061 28.7438 30.4311 29.1375 30.4874L31.1625 30.5436C32.0063 30.5436 32.6813 31.2749 32.6813 32.1186C32.6813 32.9061 31.95 33.6374 31.1063 33.6374Z" fill="#131126"/>
<path d="M18.0563 27.7875C16.425 27.7875 14.9625 27.3938 14.0063 26.3813C13.8375 26.2126 13.8375 25.9313 14.0063 25.7625C14.175 25.5938 14.4563 25.5938 14.625 25.7625C16.0313 27.2813 19.6875 27.2813 22.8938 25.7625C23.1188 25.65 23.3438 25.7625 23.4563 25.9875C23.5688 26.2125 23.4563 26.4375 23.2313 26.55C21.6563 27.3375 19.7438 27.7875 18.0563 27.7875Z" fill="#131126"/>
<path d="M24.5812 12.5999C24.3 12.5999 24.0187 12.5436 23.7937 12.3749C23.4 12.1499 23.0625 11.7561 22.8937 11.3061C22.725 10.8561 22.725 10.3499 22.8937 9.89986C23.0625 9.44986 23.4 9.11236 23.85 8.94361C24.4125 8.77486 24.975 8.88736 25.4812 9.28111C25.65 9.44986 25.7062 9.67486 25.5375 9.89986C25.3687 10.1249 25.1437 10.1249 24.9187 9.95611C24.6937 9.73111 24.4125 9.67486 24.1312 9.78736C23.9062 9.84361 23.7937 10.0124 23.6812 10.2374C23.5687 10.4624 23.5687 10.7436 23.6812 11.0249C23.7937 11.3061 23.9625 11.5311 24.1875 11.6436C24.4125 11.7561 24.6375 11.8124 24.8062 11.6999C25.0875 11.5874 25.2562 11.3061 25.3125 10.9686C25.3125 10.7436 25.5375 10.5749 25.7625 10.5749C25.9875 10.5749 26.1562 10.7999 26.1562 11.0249C26.1 11.6999 25.7062 12.2624 25.0875 12.4874C24.975 12.5436 24.75 12.5999 24.5812 12.5999Z" fill="#131126"/>
<path d="M29.3625 8.32505L28.9125 8.2688C28.6875 8.2688 28.5187 8.0438 28.5187 7.8188C28.5187 7.5938 28.7437 7.42505 28.9687 7.42505L29.3625 7.4813C29.5875 7.4813 29.7562 7.7063 29.7562 7.9313C29.7562 8.1563 29.5875 8.32505 29.3625 8.32505Z" fill="#131126"/>
<path d="M32.175 11.8686C31.8375 11.8686 31.3875 11.7561 30.8813 11.4748C30.6563 11.3623 30.6 11.0811 30.7125 10.9123C30.825 10.6873 31.1062 10.6311 31.275 10.7436C32.175 11.2498 32.4 10.9686 32.4563 10.8561C32.5688 10.6873 32.85 10.6311 33.0188 10.7436C33.1875 10.8561 33.2438 11.1373 33.1313 11.3061C32.9625 11.5873 32.6813 11.8686 32.175 11.8686Z" fill="#131126"/>
<path d="M14.0625 26.0437C13.8937 26.0437 13.725 25.9312 13.6687 25.7625C12.825 23.1187 12.7125 20.5312 13.3875 17.8312C13.4437 17.6062 13.6687 17.4937 13.8937 17.55C14.1187 17.6062 14.2312 17.8312 14.175 18.0562C13.5562 20.6437 13.6125 23.0625 14.4562 25.5375C14.5125 25.7625 14.4 25.9875 14.175 26.0437C14.1187 26.0437 14.1187 26.0437 14.0625 26.0437Z" fill="#131126"/>
</svg>
