<svg width="60" height="60" viewBox="0 0 60 60" fill="none" xmlns="http://www.w3.org/2000/svg">
<path fill-rule="evenodd" clip-rule="evenodd" d="M26.4309 56.4292C25.3681 56.4292 24.4494 55.636 24.293 54.5841L23.4704 49.0349C23.4518 48.9078 23.3681 48.801 23.2519 48.7591C22.6307 48.5267 22.0157 48.2603 21.4208 47.9659C21.3061 47.9102 21.1698 47.9226 21.0645 47.9985L16.5285 51.2704C15.664 51.8947 14.4897 51.8002 13.7353 51.0457L8.85998 46.1704C8.10863 45.4191 8.01877 44.2092 8.65239 43.354L12.0993 38.7096C12.1752 38.6073 12.1892 38.4694 12.1365 38.3501C11.8902 37.8048 11.6671 37.2425 11.4719 36.6786C11.4285 36.5531 11.3216 36.4601 11.1931 36.44L5.50754 35.5198C4.45409 35.3494 3.69189 34.4524 3.69189 33.3866V26.4911C3.69189 25.4268 4.48353 24.5097 5.53698 24.3532L11.3356 23.4934C11.4626 23.4749 11.5695 23.385 11.6175 23.2611C11.8158 22.7235 12.042 22.189 12.2868 21.6716C12.3441 21.5523 12.3317 21.4144 12.2558 21.3091L8.85069 16.5918C8.22636 15.7274 8.32086 14.5531 9.07532 13.7986L13.9506 8.92334C14.702 8.17199 15.9119 8.08214 16.767 8.71575L21.4254 12.172C21.5292 12.2494 21.6687 12.2618 21.791 12.2045C22.3302 11.952 22.8879 11.7196 23.4518 11.5151C23.5757 11.4702 23.664 11.3649 23.6857 11.2378L24.6028 5.56781C24.7732 4.51436 25.6702 3.75061 26.736 3.75061H33.6299C34.6927 3.75061 35.6113 4.54224 35.7678 5.59569L36.5951 11.1712C36.6137 11.2998 36.7004 11.4082 36.8213 11.4501C37.4456 11.6685 38.0652 11.9241 38.6632 12.2045C38.7763 12.2572 38.9111 12.2433 39.018 12.1673L43.5323 8.90785C44.3968 8.28353 45.5711 8.37803 46.3255 9.13248L51.2008 14.0078C51.9522 14.7591 52.042 15.969 51.4084 16.8242L48.1536 21.213C48.0761 21.3184 48.0621 21.4594 48.121 21.5833C48.4278 22.2231 48.7035 22.8862 48.9405 23.5585C48.9855 23.684 49.0924 23.7769 49.2194 23.7955L54.5548 24.6584C55.6082 24.8288 56.372 25.7258 56.372 26.7917V33.6871C56.372 34.7498 55.5788 35.6685 54.5269 35.825L49.2008 36.6151C49.0707 36.6336 48.9622 36.725 48.9188 36.8536C48.6725 37.5461 48.3828 38.2309 48.0606 38.8924C48.0017 39.0132 48.0126 39.1542 48.0885 39.2595L51.2132 43.591C51.8375 44.4555 51.743 45.6298 50.9886 46.3842L46.1133 51.2595C45.3619 52.0109 44.152 52.1007 43.2969 51.4671L38.9235 48.2231C38.8197 48.1472 38.6803 48.1333 38.5579 48.189C37.9134 48.4865 37.2442 48.7545 36.5687 48.9807C36.4417 49.024 36.3503 49.1294 36.3286 49.2564L35.4626 54.6135C35.2922 55.667 34.3952 56.4307 33.3294 56.4307L26.4309 56.4292ZM22.2217 46.3439C22.7624 46.6104 23.3216 46.8536 23.8855 47.0643C24.6168 47.3385 25.1435 47.9907 25.2581 48.77L26.0807 54.3207C26.1071 54.4927 26.2558 54.6228 26.4293 54.6228H33.3247C33.4998 54.6228 33.6454 54.4989 33.6733 54.3254L34.5393 48.9683C34.6679 48.1766 35.2225 47.5244 35.9878 47.2673C36.6013 47.0612 37.2101 46.818 37.7957 46.5484C38.5192 46.2138 39.3619 46.3006 39.9971 46.7715L44.3689 50.014C44.5083 50.1178 44.7066 50.1023 44.829 49.9799L49.7043 45.1046C49.8267 44.9822 49.8437 44.7901 49.7415 44.6491L46.6152 40.3161C46.1474 39.6685 46.0776 38.8165 46.4293 38.0961C46.7221 37.495 46.9855 36.8738 47.2085 36.2448C47.4781 35.4857 48.1396 34.9419 48.9297 34.8257L54.2558 34.0357C54.4278 34.0093 54.5579 33.8606 54.5579 33.6871V26.7917C54.5579 26.6166 54.4324 26.471 54.2604 26.4431L48.925 25.5802C48.1427 25.4532 47.4936 24.9079 47.2302 24.158C47.0164 23.5492 46.7655 22.9466 46.4866 22.3656C46.1365 21.636 46.2155 20.7808 46.6958 20.1348L49.9506 15.746C50.0544 15.6065 50.0389 15.4082 49.9165 15.2859L45.0412 10.4106C44.9188 10.2866 44.7267 10.2711 44.5858 10.3734L40.0699 13.6313C39.4316 14.0914 38.5966 14.1704 37.8886 13.8389C37.3449 13.5833 36.7825 13.3525 36.2155 13.1542C35.4611 12.8877 34.9173 12.2293 34.7996 11.4346L33.9738 5.8606C33.9475 5.68864 33.7988 5.55851 33.6253 5.55851H26.7298C26.5548 5.55851 26.4092 5.68245 26.3813 5.85595L25.4642 11.526C25.3402 12.299 24.8011 12.9466 24.0621 13.2146C23.5509 13.3989 23.0443 13.6096 22.5532 13.8405C21.8298 14.1813 20.9824 14.0961 20.3426 13.622L15.6826 10.1658C15.5432 10.062 15.3449 10.0775 15.2225 10.1999L10.3503 15.0767C10.2279 15.1991 10.2109 15.3912 10.3131 15.5322L13.7182 20.251C14.1783 20.8893 14.2558 21.732 13.9165 22.4462C13.6934 22.9156 13.489 23.402 13.3077 23.8916C13.0319 24.6352 12.3766 25.1697 11.5958 25.2843L5.79724 26.1441C5.62528 26.1704 5.49515 26.3192 5.49515 26.4927V33.3866C5.49515 33.5616 5.61908 33.7072 5.79259 33.7351L11.4781 34.6553C12.2651 34.7824 12.9142 35.3308 13.1776 36.0868C13.3542 36.5996 13.5571 37.1092 13.7817 37.605C14.1055 38.3207 14.0172 39.1573 13.5494 39.7862L10.104 44.4307C10.0002 44.5701 10.0157 44.7684 10.1381 44.8908L15.0118 49.7661C15.1342 49.89 15.3263 49.9055 15.4673 49.8033L20.0033 46.5314C20.6787 46.0481 21.5277 46 22.2217 46.3439Z" fill="#00BBAE"/>
<path fill-rule="evenodd" clip-rule="evenodd" d="M30.0281 45.1433C21.7276 45.1433 14.9731 38.3904 14.9731 30.0883C14.9731 21.7862 21.726 15.0333 30.0281 15.0333C38.3302 15.0333 45.0831 21.7862 45.0831 30.0883C45.0831 38.3904 38.3287 45.1433 30.0281 45.1433ZM30.0281 16.8428C22.7237 16.8428 16.7826 22.7839 16.7826 30.0883C16.7826 37.3927 22.7237 43.3339 30.0281 43.3339C37.3326 43.3339 43.2737 37.3927 43.2737 30.0883C43.2737 22.7839 37.331 16.8428 30.0281 16.8428Z" fill="#00BBAE"/>
<path fill-rule="evenodd" clip-rule="evenodd" d="M33.1607 44.7948C32.6619 44.7948 32.256 44.3904 32.256 43.89V35.7212C32.256 35.3788 32.4481 35.0674 32.7517 34.914C36.3877 33.0736 37.1297 28.3439 34.5209 25.4671V29.0333C34.5209 29.3881 34.3149 29.7088 33.9926 29.8559L30.4047 31.4965C30.1661 31.6065 29.8919 31.6065 29.6518 31.4965L26.0639 29.8559C25.7417 29.7088 25.5356 29.3865 25.5356 29.0333V25.4687C22.9252 28.3439 23.6689 33.0767 27.3048 34.9156C27.6084 35.0705 27.8005 35.3819 27.8005 35.7227V43.8916C27.8005 44.3904 27.3962 44.7963 26.8958 44.7963C26.3954 44.7963 25.9911 44.392 25.9911 43.8916V36.2572C20.933 33.2347 20.8788 25.8699 25.9725 22.7932C26.5751 22.4291 27.3451 22.8629 27.3451 23.5663V28.4524L30.0283 29.6793L32.7115 28.4524V23.5663C32.7115 22.8629 33.4814 22.4291 34.084 22.7932C39.1824 25.8745 39.1173 33.2378 34.0654 36.2572V43.8916C34.0654 44.3904 33.6596 44.7948 33.1607 44.7948Z" fill="#00BBAE"/>
</svg>
