<svg width="16" height="14" viewBox="0 0 16 14" fill="none" xmlns="http://www.w3.org/2000/svg">
<path fill-rule="evenodd" clip-rule="evenodd" d="M8 1.79642C7.73648 1.25535 7.33746 0.801534 6.84666 0.484674C6.35585 0.167814 5.79218 0.00013367 5.21739 0C3.48974 0 2.08696 1.48584 2.08696 3.31579C2.08696 5.14574 3.48974 6.63158 5.21739 6.63158C5.79218 6.63145 6.35585 6.46377 6.84666 6.1469C7.33746 5.83004 7.73648 5.37623 8 4.83516C8.26346 5.37628 8.66246 5.83014 9.15328 6.14701C9.6441 6.46388 10.2078 6.63153 10.7826 6.63158C12.5103 6.63158 13.913 5.14574 13.913 3.31579C13.913 1.48584 12.5103 0 10.7826 0C10.2078 0.00013367 9.64415 0.167814 9.15334 0.484674C8.66254 0.801534 8.26352 1.25535 8 1.79642ZM10.7826 0.736842C12.1263 0.736842 13.2174 1.89258 13.2174 3.31579C13.2174 4.739 12.1263 5.89474 10.7826 5.89474C9.43896 5.89474 8.34783 4.739 8.34783 3.31579C8.34783 1.89258 9.43896 0.736842 10.7826 0.736842ZM5.21739 0.736842C6.56104 0.736842 7.65217 1.89258 7.65217 3.31579C7.65217 4.739 6.56104 5.89474 5.21739 5.89474C3.87374 5.89474 2.78261 4.739 2.78261 3.31579C2.78261 1.89258 3.87374 0.736842 5.21739 0.736842ZM8 7.64474C8.4313 7.46642 8.90052 7.36842 9.3913 7.36842H12.1739C14.287 7.36842 16 9.18289 16 11.4211V12.8947C16 13.1879 15.8901 13.469 15.6944 13.6763C15.4987 13.8836 15.2333 14 14.9565 14H1.04348C0.766731 14 0.501318 13.8836 0.305628 13.6763C0.109938 13.469 0 13.1879 0 12.8947V11.4211C0 9.18289 1.71304 7.36842 3.82609 7.36842H6.6087C7.09948 7.36842 7.5687 7.46642 8 7.64474ZM9.73913 11.4211V12.8947C9.73913 12.9924 9.70249 13.0862 9.63725 13.1552C9.57203 13.2243 9.48355 13.2632 9.3913 13.2632H1.04348C0.951229 13.2632 0.862758 13.2243 0.797528 13.1552C0.732298 13.0862 0.695652 12.9924 0.695652 12.8947V11.4211C0.695652 10.5417 1.02546 9.69827 1.61254 9.07644C2.19961 8.4546 2.99584 8.10526 3.82609 8.10526H6.6087C7.43894 8.10526 8.23518 8.4546 8.82225 9.07644C9.40932 9.69827 9.73913 10.5417 9.73913 11.4211ZM10.3753 13.2632H14.9565C15.0488 13.2632 15.1372 13.2243 15.2025 13.1552C15.2677 13.0862 15.3043 12.9924 15.3043 12.8947V11.4211C15.3043 10.5417 14.9745 9.69827 14.3875 9.07644C13.8004 8.4546 13.0042 8.10526 12.1739 8.10526H9.3913C9.21357 8.10526 9.03896 8.12111 8.86922 8.15132C9.35476 8.52731 9.74962 9.01942 10.0217 9.5876C10.2937 10.1558 10.4353 10.784 10.4348 11.4211V12.8947C10.4348 13.0241 10.4139 13.1478 10.3753 13.2632Z" fill="#FE5A86"/>
</svg>
