<svg width="73" height="156" viewBox="0 0 73 156" fill="none" xmlns="http://www.w3.org/2000/svg">
<path d="M47.8162 71.0377C52.3962 70.7833 55.855 75.737 55.8153 80.325C55.7755 84.905 53.3186 89.0715 51.0286 93.0393C48.7306 97.007 46.4565 101.325 46.8143 105.897C47.363 112.791 53.5491 117.673 59.2105 121.648C64.8719 125.616 71.082 130.451 71.7022 137.344C72.3304 144.286 66.995 150.186 62.0412 155.092" stroke="white" stroke-miterlimit="10" stroke-linecap="round"/>
<path d="M34.62 69.2408C53.7404 69.2408 69.2404 53.7407 69.2404 34.6204C69.2404 15.5001 53.7404 0 34.62 0C15.4997 0 -0.000366211 15.5001 -0.000366211 34.6204C-0.000366211 53.7407 15.4997 69.2408 34.62 69.2408Z" fill="url(#paint0_linear_9548_5791)"/>
<path d="M49.1164 65.3291C49.1164 65.3291 52.4719 68.2155 58.9364 72.3581C57.1871 76.9938 50.9849 74.2267 44.9339 79.2202C42.7155 73.1056 46.0948 66.6252 46.0948 66.6252L49.1164 65.3291Z" fill="url(#paint1_linear_9548_5791)"/>
<path d="M58.9435 72.3506C57.1942 76.9863 50.9921 74.2192 44.941 79.2127" stroke="white" stroke-width="2" stroke-miterlimit="10" stroke-linecap="round"/>
<path d="M45.4918 67.4919C47.0423 66.9751 48.5372 66.3628 49.9685 65.6631" stroke="white" stroke-width="2" stroke-miterlimit="10" stroke-linecap="round"/>
<path d="M7.80823 45.5459C12.1895 58.7929 25.8579 66.3547 39.1844 63.3968" stroke="#2D1C14" stroke-miterlimit="10" stroke-linecap="round"/>
<path d="M42.3232 6.00309C38.3952 5.02507 34.2128 4.92965 30.0621 5.85201" stroke="white" stroke-miterlimit="10" stroke-linecap="round"/>
<path d="M61.4384 23.7029C59.4505 17.6916 55.5464 12.8492 50.6324 9.62891" stroke="white" stroke-miterlimit="10" stroke-linecap="round"/>
<defs>
<linearGradient id="paint0_linear_9548_5791" x1="69.0719" y1="31.1015" x2="0.174984" y2="38.1466" gradientUnits="userSpaceOnUse">
<stop stop-color="#F6DF6F"/>
<stop offset="0.4801" stop-color="#F0C96D"/>
<stop offset="0.9991" stop-color="#E9A427"/>
</linearGradient>
<linearGradient id="paint1_linear_9548_5791" x1="47.6625" y1="65.9386" x2="52.3268" y2="76.6648" gradientUnits="userSpaceOnUse">
<stop stop-color="#F6DF6F"/>
<stop offset="0.4801" stop-color="#F0C96D"/>
<stop offset="0.9991" stop-color="#E9A427"/>
</linearGradient>
</defs>
</svg>
