<svg width="804" height="497" viewBox="0 0 804 497" fill="none" xmlns="http://www.w3.org/2000/svg">
<path d="M402 497C371.984 497 343.499 481.965 328.491 458.515C322.825 459.894 317.006 460.446 311.186 460.446C294.953 460.446 279.333 455.342 266.775 445.962C254.217 455.342 238.597 460.446 222.363 460.446C193.726 460.446 168.151 444.858 157.737 421.271C156.359 421.409 154.827 421.409 153.449 421.409C116.848 421.409 86.9851 394.786 86.5257 361.818C68.608 352.852 57.5817 335.885 57.5817 317.125C57.5817 315.194 57.7348 313.263 57.888 311.332C24.656 305.676 -1.52588e-05 279.468 -1.52588e-05 248.569C-1.52588e-05 217.67 24.656 191.324 57.888 185.806C57.5817 183.875 57.5817 181.944 57.5817 180.012C57.5817 161.253 68.608 144.286 86.5257 135.32C86.9851 102.352 116.848 75.7294 153.449 75.7294C154.827 75.7294 156.359 75.7294 157.737 75.8673C168.151 52.2795 193.726 36.6922 222.363 36.6922C238.597 36.6922 254.217 41.796 266.775 51.176C279.333 41.796 294.953 36.6922 311.186 36.6922C317.006 36.6922 322.825 37.3819 328.491 38.6234C343.499 15.0355 371.831 0 402 0C432.016 0 460.501 15.0355 475.509 38.4854C481.175 37.106 486.994 36.5543 492.814 36.5543C509.047 36.5543 524.667 41.6581 537.225 51.038C549.783 41.6581 565.403 36.5543 581.637 36.5543C610.274 36.5543 635.849 52.1415 646.263 75.7294C647.641 75.5914 649.173 75.5915 650.551 75.5915C687.152 75.5915 717.015 102.214 717.474 135.182C735.392 144.148 746.418 161.115 746.418 179.875C746.418 181.806 746.265 183.737 746.112 185.668C779.497 191.186 804 217.532 804 248.431C804 279.33 779.344 305.676 746.112 311.194C746.418 313.125 746.418 315.056 746.418 316.988C746.418 335.747 735.392 352.714 717.474 361.68C717.015 394.648 687.152 421.271 650.551 421.271C649.173 421.271 647.641 421.271 646.263 421.133C635.849 444.721 610.274 460.308 581.637 460.308C565.403 460.308 549.783 455.204 537.225 445.824C524.667 455.204 509.047 460.308 492.814 460.308C486.994 460.308 481.175 459.618 475.509 458.377C460.501 481.964 432.016 497 402 497Z" fill="#A3DAD6"/>
<path d="M401.835 493.199C371.513 493.199 344.1 477.612 330.624 453.886C324.345 455.68 317.76 456.645 311.021 456.645C294.482 456.645 278.555 450.852 266.61 440.92C254.665 450.852 238.891 456.645 222.199 456.645C193.714 456.645 169.364 440.368 160.482 417.194C158.032 417.47 155.581 417.608 153.131 417.608C118.674 417.608 90.6488 392.365 90.6488 361.328C90.6488 360.776 90.6488 360.225 90.6488 359.673C73.0374 351.81 61.7048 335.671 61.7048 317.325C61.7048 314.29 62.0111 311.118 62.6236 308.221C29.6979 304.635 4.12308 279.392 4.12308 248.769C4.12308 218.146 29.6979 192.903 62.6236 189.316C62.0111 186.282 61.7048 183.247 61.7048 180.212C61.7048 161.866 73.1905 145.727 90.6488 137.864C90.6488 137.313 90.6488 136.761 90.6488 136.209C90.6488 105.172 118.674 79.9294 153.131 79.9294C155.581 79.9294 158.032 80.0673 160.482 80.3432C169.364 57.1691 193.714 40.8922 222.199 40.8922C238.738 40.8922 254.665 46.6857 266.61 56.6174C278.555 46.6857 294.329 40.8922 311.021 40.8922C317.76 40.8922 324.345 41.8577 330.624 43.651C344.1 20.0631 371.513 4.33789 401.835 4.33789C432.157 4.33789 459.57 19.9252 473.047 43.651C479.325 41.8577 485.911 40.8922 492.649 40.8922C509.188 40.8922 525.115 46.6857 537.06 56.6174C549.005 46.6857 564.779 40.8922 581.472 40.8922C609.956 40.8922 634.306 57.1691 643.188 80.3432C645.639 80.0673 648.089 79.9294 650.539 79.9294C684.996 79.9294 713.021 105.172 713.021 136.209C713.021 136.761 713.021 137.313 713.021 137.864C730.633 145.727 741.965 161.866 741.965 180.212C741.965 183.247 741.659 186.42 741.047 189.316C773.972 192.903 799.547 218.146 799.547 248.769C799.547 279.392 773.972 304.635 741.047 308.221C741.659 311.256 741.965 314.29 741.965 317.325C741.965 335.671 730.48 351.81 713.021 359.673C713.021 360.225 713.021 360.776 713.021 361.328C713.021 392.365 684.996 417.608 650.539 417.608C648.089 417.608 645.639 417.47 643.188 417.194C634.306 440.368 609.956 456.645 581.472 456.645C564.932 456.645 549.005 450.852 537.06 440.92C525.115 450.852 509.341 456.645 492.649 456.645C485.911 456.645 479.325 455.68 473.047 453.886C459.57 477.612 432.157 493.199 401.835 493.199Z" fill="#DFF8F6"/>
<path d="M719.006 203.876C718.546 203.876 718.087 203.6 717.78 203.324C717.474 202.911 717.474 202.221 717.934 201.807C719.006 200.704 719.925 199.6 720.69 198.497L722.987 199.876C722.834 200.152 722.681 200.428 722.375 200.566C722.681 200.566 722.987 200.428 723.294 200.428L723.753 202.911C722.222 203.187 720.69 203.462 719.159 203.876C719.312 203.876 719.159 203.876 719.006 203.876Z" fill="#00BBAE"/>
<path d="M724.366 197.945L722.069 196.703C723.447 194.496 724.672 192.151 725.438 189.668L728.041 190.358C727.122 192.979 725.897 195.6 724.366 197.945ZM728.654 188.151L726.05 187.599C726.663 185.116 726.969 182.633 726.969 180.012H729.726C729.726 182.771 729.266 185.53 728.654 188.151ZM726.816 177.805C726.663 175.322 726.203 172.701 725.285 170.356L727.888 169.667C728.807 172.288 729.266 175.046 729.419 177.667L726.816 177.805ZM724.672 168.287C723.753 165.942 722.375 163.597 720.843 161.528L723.141 160.149C724.825 162.494 726.203 164.839 727.275 167.46L724.672 168.287ZM719.465 159.735C717.781 157.666 715.79 155.873 713.646 154.217L715.483 152.286C717.781 154.079 719.925 156.011 721.762 158.218L719.465 159.735ZM711.808 152.838C709.511 151.321 707.061 150.079 704.457 148.976L705.529 146.769C708.286 147.872 710.889 149.251 713.339 150.907L711.808 152.838Z" fill="#00BBAE"/>
<path d="M702.16 148.148C700.782 147.734 699.25 147.32 697.719 146.907C697.413 146.769 697.106 146.631 696.8 146.355C696.647 146.079 696.494 145.803 696.647 145.389C696.953 144.01 697.259 142.63 697.413 141.251L700.169 141.527C700.016 142.63 699.863 143.596 699.557 144.699C700.782 144.975 701.854 145.251 702.926 145.665L702.16 148.148Z" fill="#00BBAE"/>
<path d="M700.629 139.32L697.872 139.182C698.025 138.079 698.025 137.113 698.025 136.009C698.025 134.354 697.872 132.837 697.719 131.181L700.475 130.906C700.629 132.561 700.782 134.216 700.782 135.871C700.782 136.975 700.629 138.216 700.629 139.32ZM697.413 128.836C696.953 126.216 696.187 123.595 695.115 121.112L697.719 120.284C698.791 122.905 699.557 125.664 700.169 128.423L697.413 128.836ZM694.197 119.043C692.971 116.56 691.593 114.215 689.909 112.008L692.206 110.628C693.89 112.973 695.422 115.456 696.647 118.077L694.197 119.043ZM688.53 110.215C686.693 108.145 684.702 106.076 682.558 104.283L684.395 102.49C686.693 104.421 688.837 106.49 690.674 108.697L688.53 110.215ZM680.567 102.904C678.27 101.248 675.819 99.731 673.216 98.4896L674.594 96.2825C677.351 97.6619 679.954 99.1793 682.251 100.972L680.567 102.904ZM671.072 97.386C668.469 96.2825 665.712 95.3169 662.802 94.6272L663.568 92.2822C666.631 92.9719 669.541 93.9375 672.297 95.179L671.072 97.386ZM640.29 94.0755L639.678 91.7305C642.741 91.1787 645.803 90.7649 649.019 90.7649L649.173 93.2478C646.11 93.2478 643.2 93.5237 640.29 94.0755ZM660.352 94.0755C657.442 93.5237 654.533 93.2478 651.623 93.1099V90.627C654.686 90.627 657.902 91.0408 660.965 91.5925L660.352 94.0755Z" fill="#00BBAE"/>
<path d="M632.939 96.1443C632.633 96.1443 632.48 96.1443 632.174 96.0064C631.867 95.8685 631.561 95.4546 631.561 95.0408C631.408 93.6614 631.255 92.282 630.949 90.9026L633.705 90.4888C633.858 91.4544 634.011 92.282 634.165 93.2476C635.083 92.9717 636.155 92.6958 637.227 92.4199L637.993 94.7649C636.462 95.1787 635.083 95.5926 633.552 96.1443C633.246 96.0064 633.093 96.1443 632.939 96.1443Z" fill="#00BBAE"/>
<path d="M630.336 88.5574C629.57 85.9366 628.652 83.4536 627.426 80.9707L629.877 80.0051C631.102 82.626 632.174 85.2469 632.94 88.0057L630.336 88.5574ZM626.354 78.9016C624.976 76.5566 623.445 74.2116 621.607 72.1425L623.751 70.6252C625.589 72.8322 627.273 75.3151 628.652 77.7981L626.354 78.9016ZM542.432 70.901L540.288 69.3837C542.279 67.1767 544.423 65.1075 546.72 63.3143L548.558 65.1075C546.414 66.9008 544.27 68.8319 542.432 70.901ZM620.076 70.3493C618.238 68.2802 616.094 66.349 613.797 64.6937L615.481 62.7625C617.932 64.5558 620.076 66.6249 622.066 68.694L620.076 70.3493ZM550.549 63.5902L548.864 61.659C551.314 59.8658 553.918 58.3484 556.674 57.107L557.9 59.314C555.449 60.5555 552.846 62.0728 550.549 63.5902ZM611.959 63.3143C609.662 61.659 607.058 60.2796 604.455 59.0382L605.68 56.8311C608.437 58.0726 611.04 59.5899 613.644 61.3831L611.959 63.3143ZM560.35 58.2105L559.125 56.0035C561.881 54.762 564.944 53.7964 567.854 53.1067L568.62 55.4517C565.71 56.2793 562.953 57.107 560.35 58.2105ZM602.158 57.9346C599.401 56.8311 596.645 56.0035 593.735 55.3138L594.348 52.9688C597.41 53.6585 600.32 54.624 603.23 55.7276L602.158 57.9346ZM571.07 55.0379L570.457 52.6929C573.52 52.1411 576.583 51.7273 579.799 51.7273L579.952 54.2102C576.889 54.0723 573.98 54.4861 571.07 55.0379ZM591.285 54.8999C588.375 54.3482 585.465 54.0723 582.402 54.0723V51.5894C585.465 51.5894 588.681 52.0032 591.744 52.417L591.285 54.8999Z" fill="#00BBAE"/>
<path d="M537.225 76.8333C536.766 76.8333 536.306 76.5574 536 76.2815C535.234 75.0401 534.316 73.9365 533.397 72.833L535.541 71.4536C536 72.1433 536.613 72.833 537.072 73.3848C537.532 72.6951 538.144 72.0054 538.604 71.4536L540.748 72.833C539.829 73.9365 538.91 75.178 538.144 76.2815C538.144 76.5574 537.685 76.8333 537.225 76.8333Z" fill="#00BBAE"/>
<path d="M531.865 70.901C530.027 68.8319 528.037 66.9008 525.739 65.2455L527.577 63.4522C529.874 65.2455 532.018 67.3146 534.009 69.5216L531.865 70.901ZM523.902 63.7281C521.605 62.0728 519.154 60.6934 516.551 59.452L517.776 57.2449C520.533 58.6243 523.136 60.1417 525.433 61.797L523.902 63.7281ZM514.254 58.3484C511.65 57.2449 508.894 56.2793 505.984 55.5896L506.75 53.2446C509.659 53.9343 512.569 54.8999 515.479 56.1414L514.254 58.3484ZM472.905 57.6587L471.833 55.4517C474.59 54.3482 477.653 53.5205 480.562 52.8308L481.175 55.1758C478.418 55.8655 475.662 56.6932 472.905 57.6587ZM503.687 55.0379C500.777 54.4861 497.867 54.0723 494.958 54.0723L495.111 51.5894C498.174 51.7273 501.237 52.0032 504.299 52.6929L503.687 55.0379ZM483.778 54.762L483.166 52.417C486.229 51.8652 489.291 51.7273 492.354 51.5894V54.0723C489.445 54.0723 486.535 54.3482 483.778 54.762Z" fill="#00BBAE"/>
<path d="M465.861 60.8323C465.707 60.8323 465.554 60.8323 465.401 60.6944C464.942 60.5564 464.635 60.2806 464.635 59.8667C464.176 58.4873 463.717 57.1079 463.257 55.8665L465.707 55.1768C466.014 56.0044 466.473 56.97 466.779 57.7976C467.698 57.3838 468.617 56.832 469.536 56.4182L470.761 58.6253C469.383 59.177 468.004 59.8667 466.626 60.6944C466.32 60.8323 466.014 60.8323 465.861 60.8323Z" fill="#00BBAE"/>
<path d="M462.032 53.6592C460.807 51.0383 459.429 48.5554 457.897 46.0725L460.194 44.831C461.879 47.3139 463.257 49.9348 464.482 52.6936L462.032 53.6592ZM341.815 53.6592L339.365 52.6936C340.59 50.0727 342.121 47.3139 343.653 44.831L345.95 46.0725C344.418 48.5554 343.04 51.0383 341.815 53.6592ZM456.519 44.1413C454.834 41.7963 452.997 39.5893 450.853 37.3822L452.843 35.7269C454.987 37.934 456.978 40.279 458.663 42.7619L456.519 44.1413ZM347.481 44.1413L345.184 42.7619C347.022 40.279 348.859 37.934 351.003 35.7269L352.994 37.3822C351.003 39.5893 349.166 41.7963 347.481 44.1413ZM449.015 35.7269C446.871 33.6578 444.574 31.7266 442.123 30.0714L443.808 28.1402C446.411 29.9334 448.709 31.8646 451.006 34.0716L449.015 35.7269ZM354.832 35.589L352.841 33.9337C355.138 31.8646 357.435 29.7955 360.039 28.0022L361.723 29.9334C359.273 31.7266 356.976 33.6578 354.832 35.589ZM440.133 28.554C437.682 26.8987 434.926 25.3814 432.169 24.1399L433.394 21.9329C436.304 23.3123 439.061 24.8296 441.664 26.4849L440.133 28.554ZM363.867 28.554L362.336 26.6228C364.939 24.9676 367.696 23.3123 370.606 22.0708L371.831 24.2778C369.074 25.3814 366.471 26.8987 363.867 28.554ZM429.719 23.0364C426.962 21.7949 424.053 20.8293 420.99 20.0017L421.755 17.6567C424.818 18.4843 427.881 19.5879 430.791 20.8293L429.719 23.0364ZM374.281 23.0364L373.056 20.8293C375.966 19.5879 379.029 18.4843 382.091 17.6567L382.857 20.0017C379.947 20.8293 377.038 21.7949 374.281 23.0364ZM418.539 19.4499C415.477 18.7602 412.414 18.2085 409.351 17.9326L409.657 15.4496C412.873 15.7255 416.089 16.2773 419.152 17.1049L418.539 19.4499ZM385.461 19.312L384.695 16.967C387.758 16.2773 390.974 15.7255 394.19 15.3117L394.496 17.7946C391.586 18.2085 388.523 18.6223 385.461 19.312ZM406.747 17.6567C403.685 17.5188 400.469 17.5188 397.406 17.6567L397.099 15.1738C400.315 15.0358 403.685 15.0358 406.747 15.1738V17.6567Z" fill="#00BBAE"/>
<path d="M338.139 60.8323C337.833 60.8323 337.68 60.8323 337.374 60.6944C335.995 60.0047 334.617 59.315 333.239 58.6253L334.464 56.4182C335.383 56.832 336.302 57.2459 337.22 57.7976C337.527 56.832 337.833 56.0044 338.292 55.1768L340.896 56.0044C340.436 57.2459 339.824 58.6253 339.518 60.0047C339.364 60.4185 339.058 60.6944 338.752 60.8323C338.446 60.8323 338.292 60.8323 338.139 60.8323Z" fill="#00BBAE"/>
<path d="M271.982 70.901L269.838 69.3837C271.829 67.1766 273.973 65.2455 276.27 63.3143L278.107 65.1075C275.963 66.9008 273.819 68.8319 271.982 70.901ZM280.098 63.7281L278.414 61.797C280.864 60.1417 283.467 58.4864 286.071 57.2449L287.296 59.452C284.846 60.6934 282.395 62.0728 280.098 63.7281ZM289.593 58.3484L288.368 56.1414C291.124 54.8999 294.034 53.9343 297.097 53.2446L297.863 55.5896C295.106 56.2793 292.35 57.2449 289.593 58.3484ZM331.095 57.6587C328.338 56.6932 325.582 55.8655 322.672 55.1758L323.285 52.8308C326.347 53.5205 329.257 54.3482 332.014 55.4517L331.095 57.6587ZM300.313 55.0379L299.7 52.6929C302.763 52.1411 305.826 51.7273 308.889 51.5894L309.042 54.0723C306.132 54.2102 303.223 54.4861 300.313 55.0379ZM320.222 54.762C317.312 54.3482 314.402 54.0723 311.492 54.0723V51.5894C314.555 51.5894 317.618 51.8652 320.681 52.417L320.222 54.762Z" fill="#00BBAE"/>
<path d="M266.775 76.8333C266.315 76.8333 265.856 76.5574 265.55 76.2815C264.784 75.0401 263.865 73.9365 262.946 72.833L265.09 71.4536C265.55 72.1433 266.162 72.833 266.622 73.3848C267.081 72.6951 267.694 72.0054 268.153 71.4536L270.297 72.833C269.378 73.9365 268.459 75.178 267.694 76.2815C267.694 76.5574 267.234 76.8333 266.775 76.8333Z" fill="#00BBAE"/>
<path d="M173.664 88.5574L171.061 88.0057C171.826 85.2469 172.745 82.626 174.123 80.0051L176.574 80.9707C175.349 83.4536 174.277 85.9366 173.664 88.5574ZM177.493 78.9016L175.042 77.7981C176.421 75.3151 178.105 72.8322 179.943 70.6252L182.087 72.1425C180.402 74.2116 178.871 76.5566 177.493 78.9016ZM261.568 70.901C259.73 68.8319 257.586 66.9008 255.442 65.1075L257.28 63.3143C259.577 65.1075 261.874 67.1767 263.712 69.3837L261.568 70.901ZM183.771 70.3493L181.627 68.8319C183.618 66.6249 185.915 64.6937 188.213 62.9005L189.897 64.8317C187.753 66.349 185.762 68.2802 183.771 70.3493ZM253.451 63.7281C251.154 62.0728 248.551 60.5555 245.947 59.314L247.173 57.107C249.929 58.4864 252.533 60.0037 254.983 61.659L253.451 63.7281ZM192.041 63.1764L190.357 61.2452C192.807 59.5899 195.563 58.0726 198.32 56.6932L199.545 58.9002C196.942 60.1417 194.338 61.659 192.041 63.1764ZM243.65 58.3484C241.047 57.2449 238.137 56.2793 235.381 55.5896L236.146 53.2446C239.209 53.9343 242.119 54.8999 244.875 56.1414L243.65 58.3484ZM201.842 57.9346L200.77 55.7276C203.68 54.624 206.59 53.6585 209.653 52.9688L210.265 55.3138C207.355 56.0035 204.599 56.8311 201.842 57.9346ZM232.93 55.0379C230.021 54.4861 227.111 54.2102 224.048 54.0723L224.201 51.5894C227.264 51.7273 230.48 52.0032 233.543 52.5549L232.93 55.0379ZM212.715 54.8999L212.256 52.417C215.319 51.8652 218.382 51.5894 221.598 51.5894V54.0723C218.535 54.0723 215.625 54.3482 212.715 54.8999Z" fill="#00BBAE"/>
<path d="M171.061 96.1451C170.907 96.1451 170.754 96.1451 170.601 96.0071C169.223 95.4554 167.691 95.0415 166.16 94.6277L166.926 92.2827C167.998 92.5586 168.917 92.8345 169.989 93.1104C170.142 92.1448 170.295 91.1792 170.448 90.3516L173.205 90.7654C172.898 92.1448 172.745 93.5242 172.592 94.9036C172.592 95.3174 172.286 95.5933 171.979 95.8692C171.52 96.0071 171.367 96.1451 171.061 96.1451Z" fill="#00BBAE"/>
<path d="M103.371 139.182C103.218 138.079 103.218 136.975 103.218 135.871C103.218 134.216 103.371 132.423 103.525 130.768L106.281 131.044C105.975 132.699 105.975 134.354 105.975 135.871C105.975 136.975 105.975 137.941 106.128 139.044L103.371 139.182ZM106.587 128.837L103.831 128.423C104.29 125.664 105.209 122.905 106.281 120.284L108.885 121.112C107.813 123.595 107.047 126.216 106.587 128.837ZM109.803 119.043L107.2 118.077C108.578 115.456 109.957 112.973 111.794 110.628L114.091 112.008C112.407 114.215 110.875 116.56 109.803 119.043ZM115.47 110.215L113.326 108.697C115.163 106.49 117.307 104.421 119.605 102.49L121.442 104.283C119.298 106.076 117.307 108.145 115.47 110.215ZM123.28 102.766L121.595 100.972C124.046 99.1793 126.649 97.524 129.406 96.1446L130.784 98.3516C128.027 99.5931 125.577 101.11 123.28 102.766ZM132.928 97.386L131.703 95.041C134.459 93.7996 137.522 92.834 140.432 92.1443L141.198 94.4893C138.288 95.179 135.531 96.1446 132.928 97.386ZM163.71 94.0755C160.8 93.5237 157.89 93.1099 154.981 93.1099L155.134 90.627C158.197 90.7649 161.413 91.0408 164.475 91.7305L163.71 94.0755ZM143.648 94.0755L143.035 91.5925C146.098 91.0408 149.161 90.7649 152.377 90.627V93.1099C149.467 93.2478 146.558 93.5237 143.648 94.0755Z" fill="#00BBAE"/>
<path d="M101.687 148.148L100.768 145.803C101.84 145.389 103.065 145.114 104.137 144.838C103.831 143.734 103.678 142.769 103.525 141.665L106.281 141.389C106.434 142.769 106.741 144.148 107.047 145.527C107.2 145.803 107.047 146.217 106.894 146.493C106.741 146.769 106.434 146.907 105.975 147.045C104.597 147.321 103.218 147.596 101.687 148.148Z" fill="#00BBAE"/>
<path d="M79.4811 197.945C77.9497 195.6 76.7245 192.979 75.9588 190.496L78.5623 189.806C79.328 192.289 80.5531 194.634 81.9314 196.841L79.4811 197.945ZM75.3463 188.151C74.7337 185.53 74.2743 182.771 74.2743 180.012H77.0308C77.0308 182.633 77.3371 185.116 77.9497 187.599L75.3463 188.151ZM77.0308 177.805L74.2743 177.667C74.4274 174.909 75.04 172.288 75.8057 169.667L78.4091 170.357C77.6434 172.702 77.184 175.323 77.0308 177.805ZM79.328 168.288L76.7246 167.46C77.7966 164.839 79.1748 162.494 80.8594 160.149L83.1565 161.528C81.472 163.598 80.2468 165.943 79.328 168.288ZM84.3817 159.735L82.2377 158.218C84.0754 156.011 86.0663 154.08 88.5166 152.286L90.3543 154.218C88.0571 155.735 86.2194 157.666 84.3817 159.735ZM92.192 152.7L90.5074 150.769C92.9577 149.114 95.5611 147.734 98.3177 146.631L99.3897 148.838C96.9394 149.941 94.4891 151.183 92.192 152.7Z" fill="#00BBAE"/>
<path d="M84.9943 203.876C84.8412 203.876 84.688 203.876 84.688 203.876C83.1566 203.462 81.6251 203.187 80.0937 202.911L80.5532 200.428C80.8594 200.428 81.1657 200.566 81.472 200.566C81.3189 200.29 81.1657 200.014 80.8594 199.876L83.1566 198.497C84.0754 199.6 84.9943 200.704 85.9132 201.807C86.3726 202.221 86.3726 202.773 86.0663 203.324C85.9131 203.738 85.4537 203.876 84.9943 203.876Z" fill="#00BBAE"/>
<path d="M70.752 297.262C69.8331 297.262 68.9143 297.262 67.9954 297.262L68.1486 294.779C69.0674 294.779 69.9863 294.779 70.9051 294.779C73.0491 294.779 75.1931 294.641 77.3371 294.366L77.6434 296.848C75.3463 297.124 73.0491 297.262 70.752 297.262ZM65.2389 296.986C62.0229 296.711 58.8069 296.159 55.744 295.331L56.5097 292.986C59.4194 293.814 62.4823 294.228 65.5451 294.503L65.2389 296.986ZM53.1406 294.641C50.0777 293.676 47.168 292.434 44.2583 291.055L45.6366 288.848C48.24 290.227 51.1497 291.331 54.0594 292.296L53.1406 294.641ZM41.9611 289.813C39.2046 288.296 36.6011 286.503 34.304 284.572L36.1417 282.778C38.4389 284.71 40.8891 286.365 43.4926 287.744L41.9611 289.813ZM32.3131 282.778C30.016 280.709 28.0251 278.502 26.1874 276.019L28.4846 274.64C30.1691 276.847 32.16 279.054 34.304 280.985L32.3131 282.778ZM24.656 273.95C22.9714 271.467 21.5931 268.847 20.368 266.088L22.9714 265.26C24.0434 267.881 25.4217 270.364 27.1063 272.709L24.656 273.95ZM19.4491 263.743C18.3771 260.984 17.7646 258.087 17.3051 255.19L20.0617 254.914C20.5211 257.673 21.1337 260.294 22.2057 262.915L19.4491 263.743ZM16.8457 252.845C16.6926 251.466 16.6926 249.949 16.6926 248.569C16.6926 247.052 16.6926 245.672 16.8457 244.155L19.6023 244.431C19.4491 245.81 19.4491 247.19 19.4491 248.569C19.4491 249.949 19.4491 251.328 19.6023 252.707L16.8457 252.845ZM19.9086 241.948L17.152 241.534C17.6114 238.638 18.3771 235.741 19.296 233.12L21.8994 233.948C20.9806 236.568 20.368 239.189 19.9086 241.948ZM22.9714 231.74L20.368 230.913C21.5931 228.154 22.9714 225.533 24.656 223.05L26.9531 224.292C25.4217 226.637 24.0434 229.12 22.9714 231.74ZM28.4846 222.361L26.1874 220.981C28.0251 218.636 30.016 216.291 32.3131 214.222L34.304 216.015C32.16 217.946 30.1691 220.016 28.4846 222.361ZM36.1417 214.222L34.304 212.429C36.7543 210.498 39.2046 208.704 41.9611 207.187L43.3394 209.256C40.8891 210.774 38.4389 212.429 36.1417 214.222ZM45.7897 208.015L44.4114 205.946C47.168 204.566 50.2309 203.325 53.2937 202.359L54.2126 204.704C51.3029 205.532 48.3931 206.773 45.7897 208.015ZM56.6629 204.014L55.8971 201.669C58.96 200.842 62.176 200.29 65.392 200.014L65.6983 202.497C62.6354 202.635 59.5726 203.187 56.6629 204.014ZM77.4903 202.497C74.4274 202.083 71.3646 202.083 68.3017 202.221L68.1486 199.738C71.3646 199.6 74.5806 199.738 77.7966 200.152L77.4903 202.497Z" fill="#00BBAE"/>
<path d="M83.1566 298.504L80.8594 297.124C81.0126 296.848 81.1657 296.572 81.472 296.435C81.1657 296.435 80.8594 296.572 80.5532 296.572L80.0937 294.09C81.6251 293.814 83.1566 293.538 84.688 293.124C85.3006 292.986 85.9131 293.124 86.2194 293.676C86.5257 294.09 86.5257 294.779 86.0663 295.193C84.9943 296.159 84.0754 297.262 83.1566 298.504Z" fill="#00BBAE"/>
<path d="M98.3177 350.369C95.5611 349.266 92.9577 347.886 90.5074 346.231L92.1919 344.3C94.4891 345.817 96.9394 347.059 99.5428 348.162L98.3177 350.369ZM88.5165 344.714C86.2194 342.921 84.0754 340.989 82.2377 338.782L84.3817 337.265C86.0662 339.334 88.0571 341.127 90.2011 342.783L88.5165 344.714ZM80.7062 336.851C79.0217 334.506 77.6434 332.161 76.5714 329.54L79.1748 328.713C80.0937 331.058 81.4719 333.403 83.0034 335.472L80.7062 336.851ZM75.9588 327.333C75.0399 324.712 74.5805 321.954 74.4274 319.333L77.1839 319.195C77.3371 321.678 77.7965 324.299 78.5622 326.644L75.9588 327.333ZM77.0308 316.988H74.2742C74.2742 314.229 74.5805 311.47 75.3462 308.849L77.9497 309.401C77.3371 311.884 77.0308 314.367 77.0308 316.988ZM78.5622 307.332L75.9588 306.642C76.8777 304.021 78.1028 301.538 79.4811 299.193L81.7782 300.435C80.5531 302.504 79.3279 304.849 78.5622 307.332Z" fill="#00BBAE"/>
<path d="M106.281 355.612L103.525 355.336C103.678 354.232 103.831 353.267 104.137 352.163C102.912 351.887 101.84 351.611 100.768 351.198L101.687 348.853C103.065 349.266 104.597 349.68 106.128 350.094C106.434 350.232 106.741 350.37 107.047 350.646C107.2 350.922 107.2 351.198 107.2 351.473C106.741 352.853 106.587 354.232 106.281 355.612Z" fill="#00BBAE"/>
<path d="M152.224 406.373C149.161 406.373 145.945 405.959 142.882 405.407L143.495 403.062C146.405 403.614 149.314 403.89 152.224 404.028V406.373ZM154.981 406.373L154.827 403.89C157.737 403.752 160.8 403.476 163.557 402.924L164.169 405.269C161.259 405.821 158.043 406.235 154.981 406.373ZM140.432 404.856C137.369 404.166 134.459 403.2 131.703 401.959L132.928 399.752C135.531 400.855 138.441 401.821 141.198 402.511L140.432 404.856ZM129.253 400.717C126.496 399.338 123.893 397.821 121.595 396.027L123.28 394.096C125.577 395.752 128.027 397.269 130.631 398.51L129.253 400.717ZM119.605 394.51C117.307 392.579 115.163 390.51 113.326 388.303L115.47 386.785C117.307 388.855 119.298 390.924 121.442 392.717L119.605 394.51ZM111.641 386.234C109.957 383.889 108.425 381.406 107.2 378.923L109.65 377.957C110.875 380.44 112.254 382.785 113.938 384.992L111.641 386.234ZM106.281 376.716C105.209 374.095 104.443 371.336 103.831 368.577L106.587 368.163C107.047 370.784 107.813 373.405 108.885 375.888L106.281 376.716ZM103.525 366.094C103.371 364.439 103.218 362.784 103.218 361.128C103.218 360.025 103.218 358.921 103.371 357.818L106.128 357.956C105.975 359.059 105.975 360.025 105.975 361.128C105.975 362.784 106.128 364.301 106.281 365.956L103.525 366.094Z" fill="#00BBAE"/>
<path d="M170.448 406.649C170.295 405.683 170.142 404.856 169.989 403.89C169.07 404.166 167.998 404.442 166.926 404.718L166.16 402.373C167.691 401.959 169.07 401.545 170.601 400.993C171.061 400.855 171.52 400.856 171.826 401.131C172.133 401.269 172.439 401.683 172.439 402.097C172.592 403.476 172.745 404.856 173.051 406.235L170.448 406.649Z" fill="#00BBAE"/>
<path d="M221.445 445.41C218.382 445.41 215.166 444.997 212.103 444.583L212.562 442.1C215.472 442.652 218.382 442.928 221.445 442.928V445.41ZM224.048 445.41L223.895 442.928C226.805 442.79 229.867 442.514 232.777 441.962L233.39 444.307C230.327 444.997 227.264 445.273 224.048 445.41ZM209.499 444.031C206.437 443.341 203.527 442.376 200.617 441.272L201.689 439.065C204.446 440.169 207.202 440.996 210.112 441.686L209.499 444.031ZM235.993 443.893L235.381 441.41C238.29 440.72 241.047 439.755 243.65 438.651L244.875 440.858C241.966 442.1 239.056 443.065 235.993 443.893ZM198.32 440.169C195.563 438.927 192.96 437.41 190.357 435.617L192.041 433.686C194.338 435.341 196.942 436.72 199.545 437.962L198.32 440.169ZM247.173 439.893L245.947 437.686C248.551 436.444 251.001 434.927 253.451 433.272L255.136 435.203C252.533 436.996 249.929 438.513 247.173 439.893ZM188.213 434.237C185.762 432.444 183.618 430.375 181.627 428.306L183.771 426.651C185.609 428.72 187.753 430.651 190.05 432.306L188.213 434.237ZM257.127 433.686L255.289 431.892C257.586 430.099 259.577 428.168 261.415 426.099L263.559 427.616C261.721 429.823 259.424 431.892 257.127 433.686ZM180.096 426.375C178.258 424.168 176.574 421.685 175.195 419.202L177.646 418.098C179.024 420.443 180.555 422.788 182.393 424.857L180.096 426.375ZM173.97 416.995C172.745 414.374 171.673 411.753 170.907 408.994L173.511 408.442C174.277 411.063 175.195 413.546 176.421 416.029L173.97 416.995Z" fill="#00BBAE"/>
<path d="M268.306 425.685C267.847 424.995 267.234 424.305 266.775 423.753C266.315 424.443 265.703 425.133 265.243 425.685L263.099 424.305C264.018 423.202 264.937 421.96 265.703 420.857C266.162 420.167 267.541 420.167 268 420.857C268.766 422.098 269.685 423.202 270.603 424.305L268.306 425.685Z" fill="#00BBAE"/>
<path d="M311.492 445.41V442.927C314.402 442.927 317.312 442.652 320.222 442.238L320.681 444.721C317.771 445.134 314.555 445.41 311.492 445.41ZM308.889 445.41C305.826 445.272 302.763 444.996 299.7 444.307L300.313 441.962C303.223 442.514 306.132 442.927 309.042 442.927L308.889 445.41ZM323.285 444.169L322.672 441.824C325.582 441.272 328.338 440.444 330.942 439.341L332.014 441.548C329.257 442.651 326.347 443.479 323.285 444.169ZM297.097 443.755C294.187 443.065 291.278 442.1 288.368 440.858L289.593 438.651C292.196 439.755 294.953 440.72 297.863 441.41L297.097 443.755ZM286.071 439.755C283.314 438.375 280.711 436.858 278.414 435.203L280.098 433.272C282.395 434.927 284.846 436.306 287.449 437.686L286.071 439.755ZM276.27 433.685C273.973 431.892 271.829 429.823 269.838 427.616L271.982 426.099C273.819 428.168 275.81 430.099 278.107 431.754L276.27 433.685Z" fill="#00BBAE"/>
<path d="M338.292 441.824C337.986 440.996 337.527 440.031 337.22 439.203C336.302 439.617 335.383 440.169 334.464 440.583L333.239 438.376C334.617 437.824 335.995 437.134 337.374 436.306C337.68 436.168 338.139 436.031 338.599 436.168C339.058 436.306 339.364 436.582 339.364 436.996C339.824 438.376 340.283 439.755 340.743 440.996L338.292 441.824Z" fill="#00BBAE"/>
<path d="M402 481.964C400.315 481.964 398.784 481.964 397.099 481.826L397.253 479.344C400.315 479.481 403.531 479.481 406.594 479.344L406.747 481.826C405.216 481.964 403.531 481.964 402 481.964ZM409.504 481.551L409.198 479.068C412.26 478.792 415.323 478.24 418.386 477.55L419.152 479.895C415.936 480.723 412.72 481.275 409.504 481.551ZM394.343 481.551C391.127 481.275 387.911 480.723 384.848 479.895L385.614 477.55C388.677 478.24 391.739 478.792 394.802 479.068L394.343 481.551ZM421.755 479.344L420.99 476.999C423.899 476.171 426.962 475.205 429.719 473.964L430.944 476.171C427.881 477.412 424.818 478.516 421.755 479.344ZM382.091 479.344C379.029 478.516 375.966 477.412 373.056 476.171L374.281 473.964C377.038 475.205 379.947 476.171 383.01 476.999L382.091 479.344ZM433.394 475.067L432.169 472.86C434.926 471.619 437.529 470.102 440.133 468.446L441.664 470.377C439.061 472.171 436.151 473.688 433.394 475.067ZM370.606 475.067C367.696 473.688 364.939 472.171 362.336 470.515L363.867 468.584C366.318 470.239 369.074 471.757 371.831 472.998L370.606 475.067ZM443.808 468.998L442.123 467.067C444.574 465.274 446.871 463.48 449.015 461.411L451.006 463.067C448.862 465.136 446.411 467.067 443.808 468.998ZM360.039 468.86C357.435 467.067 355.138 465.136 352.841 462.929L354.832 461.273C356.976 463.342 359.273 465.136 361.723 466.929L360.039 468.86ZM452.843 461.135L450.853 459.48C452.843 457.411 454.834 455.066 456.519 452.721L458.816 454.1C456.978 456.721 454.987 459.066 452.843 461.135ZM351.003 461.135C348.859 458.928 346.869 456.583 345.184 454.1L347.481 452.721C349.166 455.066 351.003 457.273 353.147 459.48L351.003 461.135ZM460.194 452.031L457.897 450.79C459.429 448.445 460.96 445.824 462.032 443.341L464.482 444.307C463.41 446.927 461.879 449.548 460.194 452.031ZM343.653 452.031C341.968 449.548 340.59 446.928 339.365 444.169L341.815 443.203C343.04 445.824 344.418 448.307 345.95 450.652L343.653 452.031Z" fill="#00BBAE"/>
<path d="M465.707 441.824L463.104 440.996C463.717 439.617 464.176 438.375 464.482 436.996C464.635 436.582 464.942 436.306 465.248 436.168C465.707 436.03 466.167 436.03 466.473 436.306C467.851 436.996 469.23 437.686 470.608 438.375L469.383 440.582C468.464 440.169 467.545 439.755 466.626 439.203C466.32 440.169 466.014 440.996 465.707 441.824Z" fill="#00BBAE"/>
<path d="M492.354 445.411C489.291 445.411 486.228 445.135 483.166 444.583L483.625 442.1C486.535 442.514 489.445 442.79 492.354 442.79V445.411ZM495.111 445.411L494.958 442.928C497.867 442.79 500.777 442.514 503.687 441.963L504.299 444.308C501.237 444.859 498.174 445.273 495.111 445.411ZM480.562 444.17C477.499 443.48 474.59 442.652 471.833 441.549L472.905 439.342C475.662 440.445 478.418 441.273 481.175 441.825L480.562 444.17ZM506.75 443.756L506.137 441.411C508.894 440.721 511.65 439.755 514.407 438.652L515.632 440.859C512.722 441.963 509.813 443.066 506.75 443.756ZM517.776 439.755L516.551 437.548C519.154 436.307 521.604 434.79 523.902 433.272L525.586 435.203C523.136 436.859 520.533 438.376 517.776 439.755ZM527.577 433.686L525.739 431.893C527.883 430.1 530.027 428.306 531.865 426.237L534.009 427.617C532.018 429.824 529.874 431.893 527.577 433.686Z" fill="#00BBAE"/>
<path d="M538.604 425.685C538.144 424.995 537.532 424.305 537.072 423.753C536.613 424.443 536 425.133 535.541 425.685L533.397 424.305C534.316 423.202 535.234 421.96 536 420.857C536.46 420.167 537.838 420.167 538.297 420.857C539.063 422.098 539.982 423.202 540.901 424.305L538.604 425.685Z" fill="#00BBAE"/>
<path d="M582.402 445.41V442.928C585.312 442.928 588.375 442.652 591.285 442.1L591.744 444.445C588.681 445.135 585.618 445.41 582.402 445.41ZM579.799 445.41C576.736 445.273 573.52 444.997 570.457 444.445L571.07 442.1C573.98 442.652 576.889 442.928 579.952 443.065L579.799 445.41ZM594.348 444.031L593.735 441.686C596.645 440.996 599.401 440.169 602.158 439.065L603.23 441.272C600.32 442.376 597.41 443.341 594.348 444.031ZM567.854 443.893C564.791 443.203 561.881 442.238 559.125 440.996L560.35 438.789C562.953 439.893 565.863 440.858 568.62 441.548L567.854 443.893ZM605.68 440.169L604.455 437.962C607.058 436.72 609.662 435.341 611.959 433.686L613.644 435.617C611.04 437.41 608.437 438.927 605.68 440.169ZM556.674 439.893C553.918 438.513 551.314 436.996 548.864 435.341L550.549 433.41C552.846 435.065 555.449 436.582 558.053 437.824L556.674 439.893ZM615.634 434.237L613.797 432.306C616.094 430.651 618.238 428.72 620.076 426.651L622.22 428.168C620.229 430.375 617.932 432.444 615.634 434.237ZM546.72 433.686C544.423 431.892 542.126 429.823 540.288 427.616L542.432 426.099C544.27 428.168 546.414 430.099 548.558 431.892L546.72 433.686ZM623.904 426.375L621.76 424.857C623.598 422.788 625.129 420.443 626.508 418.098L628.958 419.202C627.426 421.685 625.742 424.168 623.904 426.375ZM630.03 416.995L627.58 416.029C628.805 413.546 629.724 411.063 630.489 408.442L633.093 408.994C632.174 411.753 631.255 414.512 630.03 416.995Z" fill="#00BBAE"/>
<path d="M633.552 406.649L630.795 406.235C631.102 404.856 631.255 403.477 631.408 402.097C631.408 401.683 631.714 401.407 632.02 401.132C632.327 400.994 632.786 400.856 633.246 400.994C634.624 401.545 636.155 401.959 637.687 402.373L636.921 404.718C635.849 404.442 634.93 404.166 633.858 403.89C633.858 404.856 633.705 405.684 633.552 406.649Z" fill="#00BBAE"/>
<path d="M651.623 406.373V403.89C654.533 403.89 657.596 403.476 660.352 402.924L660.965 405.269C657.902 405.959 654.686 406.235 651.623 406.373ZM648.866 406.373C645.804 406.235 642.588 405.959 639.525 405.269L640.137 402.924C643.047 403.476 645.957 403.89 648.866 403.89V406.373ZM663.415 404.856L662.649 402.511C665.559 401.821 668.316 400.855 670.919 399.752L672.144 401.959C669.388 403.062 666.478 404.166 663.415 404.856ZM674.594 400.855L673.216 398.648C675.82 397.407 678.27 395.889 680.567 394.234L682.252 396.165C679.954 397.821 677.351 399.476 674.594 400.855ZM684.396 394.51L682.558 392.717C684.702 390.924 686.693 388.992 688.53 386.785L690.674 388.303C688.837 390.51 686.693 392.579 684.396 394.51ZM692.206 386.372L689.909 384.992C691.593 382.785 692.972 380.44 694.197 377.957L696.647 378.923C695.422 381.544 693.89 384.027 692.206 386.372ZM697.719 376.716L695.116 375.888C696.188 373.405 696.953 370.784 697.413 368.163L700.169 368.577C699.557 371.336 698.791 374.095 697.719 376.716ZM700.476 366.232L697.719 365.956C697.872 364.301 698.025 362.784 698.025 361.128C698.025 360.025 698.025 359.059 697.872 357.956L700.629 357.818C700.782 358.921 700.782 360.025 700.782 361.128C700.782 362.784 700.629 364.577 700.476 366.232Z" fill="#00BBAE"/>
<path d="M697.566 355.611C697.412 354.231 697.106 352.852 696.8 351.473C696.647 351.197 696.8 350.783 696.953 350.507C697.106 350.231 697.412 350.093 697.872 349.955C699.403 349.679 700.782 349.266 702.313 348.714L703.232 351.059C702.16 351.473 700.935 351.749 699.863 352.024C700.169 353.128 700.322 354.094 700.475 355.197L697.566 355.611Z" fill="#00BBAE"/>
<path d="M705.529 350.369L704.457 348.024C707.061 347.058 709.511 345.679 711.808 344.162L713.493 346.093C711.042 347.886 708.286 349.266 705.529 350.369ZM715.483 344.714L713.646 342.782C715.79 341.127 717.781 339.334 719.465 337.265L721.609 338.782C719.771 340.989 717.781 343.058 715.483 344.714ZM723.141 336.851L720.843 335.471C722.375 333.402 723.6 331.057 724.672 328.712L727.275 329.54C726.203 332.161 724.825 334.644 723.141 336.851ZM728.041 327.333L725.438 326.643C726.203 324.16 726.663 321.677 726.969 319.194L729.726 319.332C729.419 322.091 728.96 324.712 728.041 327.333ZM726.969 316.987C726.969 314.367 726.663 311.884 726.05 309.401L728.654 308.849C729.266 311.47 729.726 314.229 729.726 316.987H726.969ZM725.285 307.332C724.519 304.849 723.294 302.504 721.915 300.297L724.213 299.055C725.744 301.4 726.969 304.021 727.735 306.504L725.285 307.332Z" fill="#00BBAE"/>
<path d="M720.69 298.503C719.771 297.4 718.852 296.296 717.934 295.193C717.474 294.779 717.474 294.227 717.78 293.676C718.087 293.262 718.699 292.986 719.312 293.124C720.843 293.538 722.375 293.813 723.906 294.089L723.447 296.572C723.14 296.572 722.834 296.434 722.528 296.434C722.681 296.71 722.834 296.986 723.14 297.124L720.69 298.503Z" fill="#00BBAE"/>
<path d="M733.095 297.262C730.798 297.262 728.501 297.124 726.203 296.848L726.51 294.366C729.573 294.779 732.635 294.779 735.698 294.641L735.851 297.124C734.933 297.262 734.014 297.262 733.095 297.262ZM738.608 296.986L738.302 294.503C741.365 294.228 744.427 293.676 747.337 292.986L748.103 295.331C745.04 296.159 741.824 296.711 738.608 296.986ZM750.706 294.641L749.787 292.296C752.697 291.469 755.454 290.227 758.21 288.848L759.589 291.055C756.679 292.572 753.769 293.676 750.706 294.641ZM761.886 289.813L760.507 287.744C763.111 286.227 765.561 284.572 767.858 282.779L769.696 284.572C767.246 286.503 764.642 288.296 761.886 289.813ZM771.534 282.779L769.543 280.985C771.687 279.054 773.678 276.847 775.362 274.64L777.659 276.019C775.975 278.502 773.831 280.709 771.534 282.779ZM779.344 273.95L777.047 272.709C778.578 270.364 779.957 267.881 781.182 265.26L783.785 266.088C782.407 268.847 781.029 271.605 779.344 273.95ZM784.551 263.881L781.947 263.053C782.866 260.432 783.632 257.673 784.091 255.052L786.848 255.328C786.235 258.225 785.47 261.122 784.551 263.881ZM787.001 252.845L784.245 252.57C784.398 251.19 784.398 249.811 784.398 248.431C784.398 247.052 784.398 245.672 784.245 244.293L787.001 244.017C787.154 245.397 787.154 246.914 787.154 248.293C787.307 249.949 787.154 251.466 787.001 252.845ZM784.091 242.086C783.632 239.327 783.019 236.706 781.947 234.085L784.551 233.258C785.623 236.017 786.235 238.913 786.695 241.81L784.091 242.086ZM781.029 231.74C779.957 229.12 778.578 226.637 776.894 224.292L779.191 223.05C780.875 225.533 782.254 228.154 783.479 230.913L781.029 231.74ZM775.515 222.361C773.831 220.153 771.84 217.946 769.696 216.015L771.687 214.222C773.984 216.291 775.975 218.498 777.813 220.981L775.515 222.361ZM767.858 214.36C765.561 212.429 763.111 210.774 760.507 209.394L762.039 207.325C764.795 208.842 767.399 210.636 769.696 212.567L767.858 214.36ZM758.363 208.153C755.76 206.773 752.85 205.67 749.941 204.704L750.859 202.359C753.922 203.325 756.832 204.566 759.742 205.946L758.363 208.153ZM747.49 204.014C744.581 203.187 741.518 202.773 738.455 202.497L738.761 200.014C741.977 200.29 745.193 200.842 748.256 201.669L747.49 204.014ZM726.663 202.497L726.357 200.014C729.573 199.6 732.789 199.6 736.005 199.738L735.851 202.221C732.789 202.083 729.573 202.221 726.663 202.497Z" fill="#00BBAE"/>
</svg>
