<svg width="146" height="70" viewBox="0 0 146 70" fill="none" xmlns="http://www.w3.org/2000/svg">
<g clip-path="url(#clip0_9144_404)">
<mask id="mask0_9144_404" style="mask-type:luminance" maskUnits="userSpaceOnUse" x="0" y="0" width="145" height="70">
<path d="M0.0361328 0H144.436V70H0.0361328V0Z" fill="white"/>
</mask>
<g mask="url(#mask0_9144_404)">
<path d="M23.6366 57.2998C-0.163445 62.8998 -10.1634 39.8998 13.6366 26.8998C37.4366 13.8998 80.3365 4.09981 116.537 16.1998C158.637 30.2998 140.337 76.5998 99.9366 62.6998C76.4366 54.6998 74.5366 45.2998 23.6366 57.2998Z" fill="url(#paint0_linear_9144_404)"/>
<path opacity="0.25" d="M115.637 49.8997C132.937 47.7997 136.137 24.1997 120.037 17.5997C118.937 17.0997 117.737 16.6997 116.537 16.2997C80.3369 4.09971 37.4369 13.8997 13.7369 26.8997C9.63689 29.0997 6.53689 31.6997 4.33689 34.2997C-1.76311 41.5997 5.23689 52.4997 14.4369 49.8997C18.7369 48.6997 23.0369 46.8997 26.9369 44.7997C42.2369 36.8997 64.3369 36.0997 90.2369 46.3997C98.9369 49.7997 107.937 50.7997 115.637 49.8997Z" fill="url(#paint1_linear_9144_404)"/>
<path opacity="0.18" d="M32.1366 53.9C31.1366 54.2 30.0366 55.4 30.0366 55.4C30.0366 55.4 29.4366 54.6 29.2366 54.1C29.0366 53.6 28.3366 53.2 27.5366 53.3L27.9366 55.9L28.5366 56.1C30.5366 55.7 32.5366 55.2 34.3366 54.9C33.6366 53.6 33.0366 53.6 32.1366 53.9ZM10.8366 33.5C14.5366 35.2 13.2366 39 8.63658 38.2C4.13658 37.4 5.93658 31.3 10.8366 33.5ZM13.6366 39.7C14.2366 40.5 13.3366 41.3 12.4366 40.6C11.4366 39.9 12.8366 38.6 13.6366 39.7ZM68.7366 17.2C64.7366 16.5 64.7366 13.1 69.3366 12.5C75.2366 11.7 75.1366 18.4 68.7366 17.2ZM61.7366 12C53.7366 13.1 45.9366 14.7 38.7366 16.8L22.6366 24.8C39.5366 26.1 59.5366 24.5 61.7366 12Z" fill="#041A35"/>
<path d="M52.4365 59C49.9365 58.3 47.4365 54.6 62.6365 55.1C77.8365 55.6 87.7365 68.4 76.2365 69.9C67.8365 71 69.9365 63.6 52.4365 59Z" fill="url(#paint2_linear_9144_404)"/>
<path d="M65.3365 14.4996C60.4365 13.5996 60.4365 9.59965 66.1365 8.79965C73.3365 7.69965 73.2365 15.8996 65.3365 14.4996Z" fill="url(#paint3_linear_9144_404)"/>
<path d="M8.43656 31.1998C13.0366 33.2998 11.4366 38.0998 5.73656 37.0998C-0.0634406 36.0998 2.23656 28.3998 8.43656 31.1998Z" fill="url(#paint4_linear_9144_404)"/>
<path d="M12.7366 39.2999C13.3366 40.0999 12.4366 40.8999 11.5366 40.1999C10.6366 39.4999 11.9366 38.1999 12.7366 39.2999Z" fill="#FFDF43"/>
<path d="M15.5361 6.89992C19.2361 3.99992 16.8361 -7.53403e-05 11.8361 3.59992C6.83612 7.29992 10.4361 10.9999 15.5361 6.89992ZM62.3361 6.39992C60.6361 6.39992 59.8361 4.79992 61.6361 3.79992C66.8361 0.899925 67.6361 6.39992 62.3361 6.39992Z" fill="#FFAF43"/>
<path d="M77.4361 6.69997C77.1361 6.69997 76.8361 6.59997 76.5361 6.29997C76.0361 5.89997 76.0361 4.99997 76.5361 4.49997L77.7361 3.19997C78.1361 2.69997 78.8361 2.69997 79.3361 2.99997L80.1361 3.49997L80.6361 2.79997C81.0361 2.09997 81.8361 1.99997 82.4361 2.39997C83.0361 2.79997 83.2361 3.59997 82.8361 4.19997L81.6361 5.89997C81.2361 6.49997 80.4361 6.69997 79.8361 6.29997L78.8361 5.69997L78.3361 6.19997C78.1361 6.59997 77.8361 6.69997 77.4361 6.69997Z" fill="url(#paint5_linear_9144_404)"/>
<path d="M91.2366 66.5999H90.9366L87.9366 65.8999C87.6366 65.7999 87.3366 65.5999 87.1366 65.2999C86.9366 64.9999 86.9366 64.5999 87.0366 64.2999L87.3366 62.9999L86.2366 62.6999C85.5366 62.4999 85.1366 61.7999 85.3366 61.0999C85.5366 60.3999 86.2366 59.9999 86.9366 60.1999L89.2366 60.8999C89.9366 61.0999 90.3366 61.7999 90.1366 62.4999L89.8366 63.7999L91.5366 64.1999C92.2366 64.3999 92.6366 65.0999 92.5366 65.7999C92.3366 66.1999 91.8366 66.5999 91.2366 66.5999Z" fill="url(#paint6_linear_9144_404)"/>
<path d="M34.0367 59.5997C33.5367 59.5997 33.1367 59.2997 32.8367 58.8997L31.7367 56.7997L29.0367 57.8997C28.4367 58.0997 27.7367 57.8997 27.4367 57.3997L26.2367 55.3997C25.8367 54.7997 26.0367 53.9997 26.6367 53.5997C27.2367 53.1997 28.0367 53.3997 28.4367 53.9997L29.0367 54.9997L31.7367 53.8997C32.3367 53.5997 33.0367 53.8997 33.3367 54.4997L35.0367 57.6997C35.3367 58.2997 35.1367 59.0997 34.5367 59.4997C34.5367 59.5997 34.2367 59.5997 34.0367 59.5997Z" fill="url(#paint7_linear_9144_404)"/>
<path opacity="0.3" d="M31.3369 10.8L31.8369 10.7C32.4369 10.6 32.7369 10 32.6369 9.4C32.5369 8.8 31.9369 8.5 31.3369 8.6L30.8369 8.7C30.3369 8.9 29.9369 9.5 30.0369 10C30.2369 10.6 30.7369 10.9 31.3369 10.8Z" fill="url(#paint8_linear_9144_404)"/>
<path opacity="0.3" d="M4.53648 30.8998C2.53648 31.4998 2.43648 35.6998 6.93648 34.9998C11.5365 34.2998 8.43648 29.7998 4.53648 30.8998Z" fill="url(#paint9_linear_9144_404)"/>
<path opacity="0.3" d="M31.9366 53.8997L29.2366 54.9997L28.6366 53.9997C28.2366 53.3997 27.4366 53.1997 26.8366 53.5997C26.2366 53.9997 26.0366 54.7997 26.4366 55.3997L27.6366 57.3997C27.9366 57.9997 28.6366 58.1997 29.2366 57.8997L31.9366 56.7997C32.7366 55.7997 33.0366 54.6997 33.1366 53.9997C32.6366 53.7997 32.2366 53.7997 31.9366 53.8997Z" fill="url(#paint10_linear_9144_404)"/>
<path opacity="0.3" d="M90.2366 62.0998C90.2366 61.4998 89.9366 60.8998 89.2366 60.7998L86.9366 60.0998C86.2366 59.8998 85.5366 60.2998 85.3366 60.9998C85.1366 61.6998 85.5366 62.3998 86.2366 62.5998L87.3366 62.8998L87.0366 63.9998C88.9366 63.8998 89.8366 62.9998 90.2366 62.0998Z" fill="url(#paint11_linear_9144_404)"/>
<path opacity="0.3" d="M76.1365 5.30008C77.3365 5.50008 80.7365 5.80008 82.9365 2.90008C82.8365 2.70008 82.6365 2.50008 82.4365 2.30008C81.8365 2.00008 81.0365 2.10008 80.6365 2.80008L80.1365 3.50008L79.3365 3.00008C78.8365 2.70008 78.1365 2.80008 77.7365 3.20008L76.5365 4.50008C76.2365 4.80008 76.1365 5.00008 76.1365 5.30008Z" fill="url(#paint12_linear_9144_404)"/>
<path d="M78.4369 65.9C76.2369 66.6 73.6369 64.3 71.0369 61.5C68.4369 58.7 64.4369 57 66.6369 56.3C70.1369 55.3 84.0369 64 78.4369 65.9Z" fill="url(#paint13_linear_9144_404)"/>
<path opacity="0.18" d="M19.6365 48.6997C20.4365 50.9997 22.3365 52.6997 24.7365 51.7997C27.2365 50.9997 27.5365 49.2997 27.2365 47.6997C26.8365 45.9997 26.3365 44.1997 26.3365 44.1997C26.3365 44.1997 32.4365 42.6997 35.2365 40.4997C37.9365 38.3997 38.7365 35.2997 37.0365 30.4997C35.4365 33.6997 31.2365 38.7997 31.2365 38.7997L26.8365 41.3997L23.2365 42.1997L21.8365 44.2997V49.0997L19.6365 48.6997ZM25.2365 39.7997L24.1365 35.0997C24.1365 35.0997 26.8365 33.4997 28.2365 33.1997C29.5365 32.8997 29.9365 33.1997 29.9365 33.1997L30.1365 31.9997H27.0365L21.7365 34.2997L20.9365 35.5997L23.2365 41.6997L25.2365 39.7997ZM39.9365 42.3997C39.9365 42.3997 39.4365 45.8997 44.1365 46.7997C48.8365 47.6997 53.5365 42.6997 53.5365 42.6997L52.9365 40.9997L51.1365 41.7997C51.1365 41.7997 51.3365 45.5997 53.1365 45.6997C54.8365 45.7997 56.8365 45.5997 57.9365 45.2997C59.0365 44.9997 59.3365 44.3997 59.2365 42.7997C59.1365 41.1997 58.9365 31.7997 58.7365 30.0997C58.5365 28.3997 56.2365 26.4997 53.3365 26.1997C55.5365 31.1997 54.8365 35.9997 54.8365 35.9997L49.9365 41.5997L43.8365 43.1997L39.9365 42.3997Z" fill="#041A35"/>
<path opacity="0.18" d="M46.3365 40.7999C46.3365 40.7999 48.1365 37.1999 52.0365 37.5999C52.3365 35.4999 51.7365 35.3999 51.7365 35.3999C51.7365 35.3999 47.6365 36.1999 46.7365 37.2999C45.8365 38.3999 45.3365 38.7999 45.3365 39.2999C45.3365 39.6999 46.3365 40.7999 46.3365 40.7999ZM41.4365 33.1999C42.7365 34.3999 43.6365 34.7999 44.7365 34.0999C45.8365 33.3999 49.5365 31.1999 51.9365 32.2999C51.7365 29.9999 48.8365 29.6999 48.8365 29.6999L44.5365 30.1999L41.4365 33.1999ZM62.6365 40.9999C62.6365 42.4999 62.8365 45.0999 65.6365 45.2999C68.3365 45.3999 69.8365 44.7999 70.4365 43.2999C71.0365 41.7999 71.1365 37.3999 71.2365 34.5999C71.3365 31.7999 74.5365 30.5999 76.5365 29.8999C78.5365 29.1999 80.3365 23.4999 77.0365 22.3999C75.4365 26.8999 70.7365 27.7999 70.7365 27.7999C70.7365 27.7999 71.8365 23.2999 67.9365 23.1999C66.6365 25.9999 62.6365 40.9999 62.6365 40.9999ZM80.0365 24.9999C80.0365 24.9999 79.2365 27.3999 80.4365 28.1999C81.5365 29.0999 83.9365 28.8999 83.9365 28.8999L81.7365 38.8999C81.7365 38.8999 81.7365 44.6999 86.3365 46.4999C90.2365 48.0999 93.3365 47.4999 93.6365 45.2999C93.8365 43.3999 94.7365 39.6999 91.4365 38.9999C88.3365 40.9999 87.7365 41.6999 87.7365 41.6999L85.8365 25.0999L80.0365 24.9999ZM123.937 24.7999C119.937 25.6999 118.537 27.1999 118.537 27.1999L102.137 54.9999H93.9365C94.2365 56.6999 94.7365 59.2999 99.8365 59.4999C104.937 59.6999 106.637 56.2999 109.637 51.4999C111.137 49.0999 114.737 43.1999 118.037 38.0999C118.337 38.2999 118.737 38.4999 119.237 38.5999C123.037 39.4999 123.237 34.9999 120.337 34.7999H120.137C122.337 31.2999 123.937 28.7999 123.937 28.7999C123.937 28.7999 124.737 26.7999 123.937 24.7999Z" fill="#041A35"/>
<path opacity="0.18" d="M105.336 21.9996C109.236 23.3996 109.336 25.2996 109.636 26.5996C109.836 27.8996 110.336 37.5996 110.336 37.5996L108.236 38.5996L105.336 21.9996ZM89.5361 28.9996C89.5361 28.9996 92.1361 28.9996 93.5361 29.0996C94.9361 29.1996 95.9361 27.9996 96.2361 26.7996C96.5361 25.5996 97.2361 22.4996 94.3361 21.5996C90.5361 23.8996 89.5361 27.7996 89.5361 27.7996V28.9996Z" fill="#041A35"/>
<path d="M16.7367 37.6999C16.1367 35.4999 17.1367 33.2999 19.1367 32.1999C21.7366 30.7999 24.3366 29.4999 27.0366 28.1999C30.8366 26.3999 36.6366 26.1999 37.3366 31.8999C37.9366 37.1999 33.6367 40.9999 29.6367 42.2999C27.8366 42.8999 26.9367 43.1999 25.2367 43.7999C25.5367 44.9999 25.7366 46 25.9366 46.9C26.2366 48.5 25.3367 50.0999 23.7367 50.5999H23.6367C21.9367 51.1999 20.0366 50.1 19.5366 48.4C18.5366 44.8 17.6367 41.2999 16.7367 37.6999ZM27.4366 38.4999C29.7366 37.5999 30.6366 36 30.3366 34.4C30.0366 32.6999 28.7366 32.0999 26.5366 32.9999C25.1367 33.5999 24.5367 33.8999 23.1367 34.4999C23.5367 36.5999 23.8367 37.5999 24.2367 39.6999C25.5367 39.2999 26.1366 38.9999 27.4366 38.4999ZM50.6366 33.4C50.8366 33.4 51.0366 33.2999 51.2366 33.2999V32.9999C51.1367 31.4999 49.7366 31.2999 48.1366 31.5999C46.7366 31.8999 45.2367 32.6999 44.0366 33.5999C43.2367 34.1999 42.0367 33.9999 41.4367 33.1999C41.3367 33.0999 41.2366 32.9999 41.1366 32.7999C40.4366 31.9999 40.5367 30.6999 41.4367 29.9999C43.6367 28.3999 46.0366 27.2999 48.5366 26.4999C52.6367 25.1999 58.3366 26.1999 58.3366 32.0999C58.3366 35.4999 58.4366 38.8999 58.4366 42.2999C58.4366 43.2999 57.6366 44.1999 56.6366 44.2999C55.9366 44.3999 55.2366 44.3999 54.5366 44.4999C53.4366 44.5999 52.4366 43.6999 52.4366 42.4999V42.4H52.3366C51.1366 44.2999 48.8367 45.3999 46.7367 45.7999C44.0366 46.1999 40.4367 44.9999 39.9367 41.7999C39.0367 36.6999 47.1366 34.1 50.6366 33.4ZM48.2367 41.0999C50.1367 40.7999 51.5366 38.7999 51.4366 37.2999C51.4366 36.9999 51.1367 36.7999 50.9366 36.9H50.8366C48.7366 37.2999 46.1367 38.2999 46.2367 39.9C46.2367 40.6999 46.9367 41.2999 48.2367 41.0999ZM65.0366 23.3999L67.1366 23.0999C68.7366 22.8999 70.1366 24.0999 70.0366 25.6999V26.1999C70.0366 26.8999 69.8367 27.4999 69.8367 27.4999H69.9366C71.1367 24.2999 73.1367 22.6999 74.9366 21.9999C76.6367 21.2999 78.4366 22.5999 78.2366 24.3999L78.1366 25.2999C77.9366 27.0999 76.7366 28.6999 75.0366 29.2999C72.8366 29.9999 70.1367 31.6999 69.8367 35.5999L69.5366 40.6999C69.5366 42.5999 68.0367 43.9999 66.3367 43.9999H66.0366C64.1366 43.9999 62.6367 42.4999 62.7366 40.5999C62.8366 35.6999 62.9366 30.7999 62.9366 25.8999C62.9366 24.6999 63.8366 23.5999 65.0366 23.3999ZM82.6367 27.8999H82.2366C80.9366 27.8999 79.8367 26.7999 79.9366 25.3999L80.1366 23.7999C80.2366 22.6999 81.1367 21.8999 82.2366 21.7999C82.6367 21.7999 83.0367 21.7999 83.6367 21.6999C83.8366 19.7999 84.0367 18.5999 84.1367 17.0999C84.2366 15.8999 85.2366 14.8999 86.5367 14.7999C87.4367 14.6999 88.3366 14.6999 89.2366 14.5999C90.9366 14.4999 92.2366 15.9999 92.0367 17.5999C91.8367 18.7999 91.7367 19.8999 91.4367 21.3999H93.6367C95.2366 21.3999 96.3366 22.7999 96.1367 24.2999L95.8367 25.7999C95.6367 26.9999 94.5367 27.8999 93.2366 27.8999C92.4366 27.8999 91.6367 27.7999 90.4367 27.7999C89.9367 30.7999 89.7367 32.2999 89.3367 35.2999C89.0367 37.8999 90.0367 38.7999 91.2366 38.9999C92.6367 39.2999 93.5367 40.7999 93.2366 42.1999L92.9367 43.9999C92.7367 45.2999 91.6367 46.2999 90.2366 46.2999C86.8366 46.3999 81.0367 45.2999 81.7366 35.9999C81.9366 33.2999 82.3366 30.5999 82.6367 27.8999ZM121.637 22.9999C118.637 22.5999 115.637 24.0999 114.237 26.7999C112.837 29.3999 109.437 36.2999 109.037 37.0999C108.737 33.5999 108.437 29.3999 108.137 26.0999C107.937 23.3999 105.737 21.2999 103.037 21.1999H102.937C100.537 21.0999 98.7366 23.1999 99.2366 25.4999C100.637 32.2999 101.837 39.1999 102.737 46.0999C102.837 46.8999 102.637 47.7999 102.237 48.5C101.237 50.2 99.7366 50.2999 98.5367 50C97.0367 49.5999 95.3367 50.2999 94.5367 51.7C94.4367 51.7999 94.4367 51.9 94.3367 52C93.2367 53.7999 93.9367 56.0999 95.8367 57.0999C96.2367 57.2999 96.7366 57.5 97.1367 57.5999C101.337 58.6999 105.337 56.0999 107.637 52.0999C112.737 43.7999 118.037 35.3999 123.637 27.0999C124.737 25.5999 123.737 23.2999 121.637 22.9999Z" fill="url(#paint14_linear_9144_404)"/>
<path d="M21.8361 32.9C20.5361 33.5 20.4361 32.1 21.8361 31.3C23.2361 30.5 26.1361 29.1 26.9361 28.8C27.7361 28.5 28.6361 29.1 26.6361 30C24.7361 30.8 23.4361 32.2 21.8361 32.9ZM42.4361 31.2C41.4361 31.8 41.1361 30.9 42.1361 30.1C43.0361 29.3 45.2361 28.2 45.4361 28.3C45.7361 28.3 46.1361 28.7 44.8361 29.3C43.5361 29.9 43.2361 30.7 42.4361 31.2ZM64.6361 25.2C64.0361 25.3 63.4361 24.4 64.6361 23.9C65.8361 23.4 67.0361 23.6 67.1361 23.8C67.2361 24 66.6361 24.1 65.9361 24.4C65.1361 24.6 65.1361 25.1 64.6361 25.2ZM85.7361 17C84.9361 17.2 84.5361 16.2 85.5361 15.7C86.5361 15.2 88.8361 15.3 89.1361 15.4C89.5361 15.5 89.6361 16.1 88.0361 16.1C86.5361 16.1 86.8361 16.7 85.7361 17ZM101.436 30.5C100.536 30.8 100.436 28.7 100.136 27.6C99.8361 26.5 99.4361 24.4 100.136 23.9C100.836 23.4 101.536 23.7 101.636 26.1C101.736 28.6 102.236 30.2 101.436 30.5Z" fill="white"/>
<path d="M26.7365 54.7999C26.1365 55.0998 26.0365 54.2999 26.8365 53.7999C27.6365 53.1999 27.5365 54.2999 26.7365 54.7999ZM31.9365 4.49985C30.7365 4.89985 30.2365 3.99985 31.5365 3.39985C32.8365 2.79985 34.6365 2.19985 34.9365 2.39985C35.3365 2.59985 34.9365 3.39985 31.9365 4.49985ZM36.1365 2.49985C35.4365 2.59985 35.1365 2.19985 36.1365 1.89985C37.1365 1.59985 36.9365 2.29985 36.1365 2.49985Z" fill="white"/>
</g>
</g>
<defs>
<linearGradient id="paint0_linear_9144_404" x1="105.737" y1="82.5568" x2="37.9616" y2="4.59081" gradientUnits="userSpaceOnUse">
<stop stop-color="#B17AFE"/>
<stop offset="1" stop-color="#27ADFF"/>
</linearGradient>
<linearGradient id="paint1_linear_9144_404" x1="100.878" y1="69.9017" x2="34.7069" y2="3.73072" gradientUnits="userSpaceOnUse">
<stop stop-color="white"/>
<stop offset="1" stop-color="white"/>
</linearGradient>
<linearGradient id="paint2_linear_9144_404" x1="63.0045" y1="52.394" x2="69.4785" y2="72.316" gradientUnits="userSpaceOnUse">
<stop stop-color="#5957FF"/>
<stop offset="1" stop-color="#27ADFF"/>
</linearGradient>
<linearGradient id="paint3_linear_9144_404" x1="63.4805" y1="8.98265" x2="69.9675" y2="14.2356" gradientUnits="userSpaceOnUse">
<stop stop-color="#FFDF43"/>
<stop offset="1" stop-color="#FFAF43"/>
</linearGradient>
<linearGradient id="paint4_linear_9144_404" x1="9.52656" y1="36.9858" x2="3.69756" y2="31.1568" gradientUnits="userSpaceOnUse">
<stop stop-color="#FFAF43"/>
<stop offset="1" stop-color="#FFDF43"/>
</linearGradient>
<linearGradient id="paint5_linear_9144_404" x1="81.4041" y1="6.25497" x2="78.0331" y2="2.88397" gradientUnits="userSpaceOnUse">
<stop stop-color="#3EBF85"/>
<stop offset="1" stop-color="#3EE555"/>
</linearGradient>
<linearGradient id="paint6_linear_9144_404" x1="85.2696" y1="63.3649" x2="92.5586" y2="63.3649" gradientUnits="userSpaceOnUse">
<stop stop-color="#3EE555"/>
<stop offset="1" stop-color="#3EBF85"/>
</linearGradient>
<linearGradient id="paint7_linear_9144_404" x1="26.1377" y1="56.4927" x2="35.3867" y2="56.4927" gradientUnits="userSpaceOnUse">
<stop stop-color="#3EE555"/>
<stop offset="1" stop-color="#3EBF85"/>
</linearGradient>
<linearGradient id="paint8_linear_9144_404" x1="32.2069" y1="10.565" x2="30.5159" y2="8.87401" gradientUnits="userSpaceOnUse">
<stop stop-color="white"/>
<stop offset="1" stop-color="white"/>
</linearGradient>
<linearGradient id="paint9_linear_9144_404" x1="8.05948" y1="34.9978" x2="4.12948" y2="31.0678" gradientUnits="userSpaceOnUse">
<stop stop-color="white"/>
<stop offset="1" stop-color="white"/>
</linearGradient>
<linearGradient id="paint10_linear_9144_404" x1="31.5886" y1="57.0207" x2="27.4246" y2="52.8577" gradientUnits="userSpaceOnUse">
<stop stop-color="white"/>
<stop offset="1" stop-color="white"/>
</linearGradient>
<linearGradient id="paint11_linear_9144_404" x1="89.2306" y1="63.3758" x2="85.9936" y2="60.1388" gradientUnits="userSpaceOnUse">
<stop stop-color="white"/>
<stop offset="1" stop-color="white"/>
</linearGradient>
<linearGradient id="paint12_linear_9144_404" x1="80.7285" y1="5.26808" x2="78.1885" y2="2.72808" gradientUnits="userSpaceOnUse">
<stop stop-color="white"/>
<stop offset="1" stop-color="white"/>
</linearGradient>
<linearGradient id="paint13_linear_9144_404" x1="78.6379" y1="66.064" x2="67.6289" y2="55.054" gradientUnits="userSpaceOnUse">
<stop stop-color="white"/>
<stop offset="1" stop-color="white"/>
</linearGradient>
<linearGradient id="paint14_linear_9144_404" x1="70.3196" y1="58.0909" x2="70.3196" y2="14.6679" gradientUnits="userSpaceOnUse">
<stop stop-color="#9DDAFF"/>
<stop offset="1" stop-color="white"/>
</linearGradient>
<clipPath id="clip0_9144_404">
<rect width="145" height="70" fill="white" transform="translate(0.0361328)"/>
</clipPath>
</defs>
</svg>
