<svg width="141" height="58" viewBox="0 0 141 58" fill="none" xmlns="http://www.w3.org/2000/svg">
<path d="M116.915 49.6011C140.715 55.2011 150.715 32.2011 126.915 19.2011C103.115 6.20108 60.2155 -3.59892 24.0154 8.50108C-18.0845 22.6011 0.215454 68.9011 40.6154 55.0011C64.1154 47.0011 66.0154 37.6011 116.915 49.6011Z" fill="url(#paint0_linear_9144_444)"/>
<path d="M104.84 14.7571C104.261 14.7482 103.816 14.7393 103.549 14.7126C102.952 14.6592 102.418 15.0688 102.32 15.6565C101.385 21.329 100.922 26.9214 100.476 32.3268C100.396 33.2707 100.316 34.2325 100.236 35.1942L99.39 31.8103C99.2564 31.2671 98.731 30.9109 98.1789 30.9554L90.5562 31.7123C90.5295 31.5342 90.4939 31.365 90.4671 31.1958L93.5839 30.6526C93.8956 30.5992 94.1627 30.4211 94.3408 30.1629C94.51 29.9046 94.5724 29.5751 94.5011 29.2723L93.2722 24.1519C93.1387 23.5909 92.6133 23.2169 92.0255 23.2882C91.6426 23.3327 91.1796 23.3861 90.6898 23.4395C90.1199 23.5019 89.5143 23.5731 88.98 23.6355L88.7129 21.9969C89.452 21.8812 90.2356 21.7565 91.0371 21.6407C93.014 21.3379 95.0533 21.0352 96.7096 20.6701C97.2973 20.5365 97.6802 19.9755 97.5823 19.3788C97.1548 16.6717 96.9233 15.6565 96.7719 14.9886C96.6562 14.49 96.6116 14.2584 96.5404 13.5995C96.5137 13.2789 96.3445 12.9939 96.0951 12.798C95.8369 12.611 95.5163 12.5309 95.2046 12.5932L80.4668 15.3538C80.3332 15.3181 80.1996 15.3092 80.066 15.327C79.2913 15.4428 79.0865 15.7278 79.1399 16.7251H79.1221C79.131 16.7608 79.131 16.7964 79.1399 16.832C79.1755 17.2683 79.2468 17.8383 79.3447 18.5685C79.5407 20.0645 79.7366 21.4626 79.9147 22.7806C76.7712 19.4501 70.9028 18.7644 66.851 18.2924C65.7556 18.1678 64.7226 18.0431 63.9034 17.9006C63.2978 17.7937 62.719 18.1767 62.5943 18.7733C62.3094 20.0734 62.0244 21.5339 61.7395 23.0922C61.5881 20.305 61.1695 17.5355 60.7332 15.1311C60.6263 14.5612 60.1098 14.1516 59.531 14.1961L52.0686 14.7749C51.7658 14.8016 51.4808 14.9441 51.2849 15.1846C51.089 15.425 51 15.7278 51.0267 16.0305C51.7213 22.2997 51.4541 28.934 50.5013 29.8957C50.4746 29.8957 50.4568 29.8957 50.43 29.8957C49.6197 28.7737 49.9314 22.6381 50.1006 19.2987C50.1718 17.8917 50.243 16.5381 50.2698 15.3538C50.2876 14.766 49.8512 14.2673 49.2724 14.1961C48.8271 14.1427 41.7654 14.116 41.2667 14.116C40.6523 14.116 40.1536 14.6057 40.1269 15.2202C40.0913 16.2621 40.0111 17.4286 39.931 18.6842C39.6995 22.1572 39.4323 26.1021 39.9221 29.6375C38.5863 26.396 36.0662 23.6711 33.3145 22.086C32.1925 21.4359 30.9547 20.9728 29.7525 20.5276C27.5441 19.6994 25.4514 18.9158 24.2581 17.117C23.8663 16.5292 24.0177 16.4135 24.1334 16.3333C25.3178 15.4428 29.8861 15.8257 31.863 18.141C32.0945 18.4171 32.4418 18.5507 32.8069 18.5329C33.1631 18.5061 33.4926 18.3191 33.6885 18.0164L38.1144 11.1239C38.3904 10.6875 38.3459 10.1176 37.9897 9.73467C33.2522 4.61427 26.048 2.7353 19.6364 4.96156C14.0707 6.89396 10.4731 11.4801 10.0189 17.2327C9.64491 22.5579 12.5925 29.0675 20.046 31.5877C23.5813 32.7542 24.3561 33.8852 24.5163 34.2057C24.6143 34.4017 24.5787 34.4818 24.5698 34.5085C24.5609 34.6154 24.3561 34.838 23.8128 34.9805C22.5929 35.3011 20.3577 34.9805 18.0869 33.0392C17.8019 32.7987 17.419 32.7097 17.0539 32.8077C16.6977 32.9056 16.4038 33.1728 16.2792 33.5201C15.4688 35.773 13.0645 40.5907 12.5747 41.1695C12.361 41.4099 12.263 41.7305 12.2986 42.0422C12.3342 42.3628 12.5034 42.6477 12.7617 42.8347C15.825 45.0432 20.5536 46.3077 25.5137 46.3077C26.333 46.3077 27.1611 46.2721 27.9804 46.2008C35.0154 45.5953 39.5303 42.3093 40.679 36.9307C40.9284 35.773 40.9907 34.6154 40.8927 33.4933C41.3736 34.7311 42.0148 35.8532 42.8964 36.7882C44.615 38.6316 47.0283 39.5577 50.056 39.5577H50.1718C50.2787 39.5577 50.3855 39.5577 50.4924 39.5577C54.0277 39.5577 56.7972 38.4178 58.7117 36.1738C59.1837 35.6217 59.5755 35.0072 59.9317 34.3571C59.6379 36.3341 59.3529 38.3021 59.0768 40.2167C58.4802 44.3575 57.9103 48.2668 57.3938 51.3123C57.2869 51.9268 57.6966 52.5056 58.311 52.6214C60.1276 52.9509 61.7929 53.1824 63.2711 53.3783C64.7048 53.5742 65.9426 53.7434 66.8599 53.9482C66.94 53.9661 67.0202 53.975 67.1092 53.975C67.3496 53.975 67.5901 53.8948 67.786 53.7523C68.0531 53.5564 68.2134 53.2626 68.2491 52.9331C68.4272 50.8137 69.6293 43.1108 70.2705 38.9789C70.3506 38.4535 70.4219 37.9815 70.4842 37.5808C75.0347 38.1329 79.416 37.8835 81.3662 32.6474C82.7465 41.4456 83.3342 42.3182 84.1624 42.3182C84.2603 42.3182 84.3583 42.3093 84.4651 42.2915C84.4741 42.2915 84.4741 42.2915 84.483 42.2915L99.7729 40.1899C99.7017 40.938 99.6304 41.6771 99.5503 42.4251C99.4791 43.0396 99.9154 43.6006 100.539 43.6807C102.578 43.939 104.145 44.0013 105.41 44.0547C106.532 44.0993 107.413 44.1349 108.286 44.2774C108.607 44.3308 108.936 44.2417 109.194 44.0369C109.444 43.8321 109.595 43.5204 109.604 43.1909C109.64 42.0155 109.738 40.4571 109.862 38.9076L111.51 44.028C111.643 44.4466 112.008 44.7493 112.445 44.8117L119.542 45.7111C119.587 45.72 119.64 45.72 119.685 45.72C120.023 45.72 120.344 45.5686 120.566 45.3014C120.816 44.9987 120.887 44.589 120.762 44.2239L117.369 34.0989C120.513 33.3776 122.383 30.7862 122.944 26.3871C123.291 23.6711 122.668 21.3736 121.092 19.548C117.209 15.0332 108.535 14.8462 104.84 14.7571ZM113.692 26.5474C113.095 27.2776 111.919 27.5893 110.459 27.429L111.1 22.8162C112.472 23.0566 113.487 23.6978 113.905 24.6239C114.208 25.2918 114.128 26.0131 113.692 26.5474ZM73.4941 29.9758C72.942 30.5458 72.0604 30.7595 71.0185 30.5903L71.7933 26.3515C72.8708 26.6454 73.6188 27.2242 73.9127 28.0078C74.1531 28.7024 73.9928 29.4594 73.4941 29.9758Z" fill="#6693C4"/>
<path d="M27.8907 42.2649C22.7703 42.7012 17.0265 41.695 13.4378 39.1036C14.0701 38.3823 16.5546 33.3242 17.356 31.089C21.0961 34.2859 25.0589 33.7338 25.6644 32.1042C26.1097 30.8931 24.8184 29.1566 20.4283 27.714C13.3309 25.3186 10.8553 19.1296 11.1759 14.5167C12.1466 2.16543 28.3003 -1.89527 37.1787 7.70437L32.7528 14.5969C29.5648 10.8657 20.8201 11.1684 23.3402 14.9442C25.4507 18.1233 29.6806 18.4973 32.7707 20.2694C37.3657 22.9142 40.7318 28.5066 39.583 33.8852C38.363 39.5934 33.207 41.8107 27.8907 42.2649Z" fill="#FFFBF3"/>
<path d="M50.0732 35.6308C38.1493 35.6308 41.0435 20.2696 41.2839 12.4688C43.2608 12.4688 48.8799 12.5044 49.156 12.54C49.0135 18.3906 47.8558 28.578 50.4472 28.2396C53.1722 28.6848 52.6913 17.7494 52.1837 13.1188L59.6461 12.54C61.249 21.3916 62.6738 35.8712 50.2157 35.6308C50.2068 35.6308 50.0999 35.6308 50.0732 35.6308Z" fill="#FFFBF3"/>
<path d="M63.7243 16.2168C69.2099 17.2142 82.0866 16.76 80.9111 27.1967C79.7178 33.7776 76.0133 34.4187 69.6017 33.5193L69.5215 33.546C69.1653 35.9326 67.3398 47.331 67.1083 50.0471C65.1848 49.6196 62.0947 49.3614 58.5149 48.7113C59.9664 40.1358 61.8098 24.8992 63.7243 16.2168ZM70.8662 22.2366L69.6996 28.6304C75.8975 30.7053 77.5094 22.8778 70.8662 22.2366Z" fill="#FFFBF3"/>
<path d="M84.3224 38.3733C83.512 38.4713 79.9589 11.8452 80.2617 13.7509L95.427 10.9102C95.5873 12.5309 95.703 11.9253 96.4688 16.7608C93.8508 17.3396 90.1285 17.7849 87.4926 18.2568C87.4926 18.2568 87.4302 18.337 87.4302 18.3726L88.0358 22.1127C88.9886 21.9613 90.9833 21.7565 92.1588 21.614L93.3788 26.7344L89.0598 27.4825C89.2647 27.9455 89.5051 29.6375 89.6031 30.1451L98.2766 29.2813L100.013 36.2094L84.3224 38.3733Z" fill="#FFFBF3"/>
<path d="M103.441 13.0469C105.934 13.2873 123.237 12.2276 121.821 23.4391C121.331 27.295 119.764 30.1535 115.863 30.3583L119.683 41.7746L112.586 40.8752L109.22 30.4117C108.98 32.8962 108.543 37.5714 108.463 40.3587C106.451 40.0292 104.411 40.234 100.671 39.7531C101.686 30.8124 101.936 22.1211 103.441 13.0469ZM110.119 18.7817L109.184 25.5674C116.825 27.3395 117.297 18.9954 110.119 18.7817Z" fill="#FFFBF3"/>
<g opacity="0.5">
<path d="M32.7705 20.2872C32.4232 20.0912 32.0581 19.9042 31.693 19.735C25.7088 19.6994 19.4307 21.0797 15.7708 25.1404C17.0353 26.2001 18.5669 27.0906 20.437 27.7229C24.8183 29.1655 26.1095 30.9109 25.6732 32.1131C25.0676 33.7427 21.096 34.2948 17.3648 31.0979C16.5633 33.3331 14.0788 38.3822 13.4465 39.1124C17.0353 41.7038 22.779 42.7101 27.8994 42.2737C33.2157 41.8196 38.3629 39.6022 39.5829 33.903C40.7316 28.5154 37.3566 22.9231 32.7705 20.2872Z" fill="white"/>
<path d="M52.4241 23.9998C52.1747 26.5556 51.6048 28.4256 50.4471 28.2386C49.1915 28.4078 48.8175 26.0747 48.7819 22.9757C46.146 22.2366 43.5012 21.5153 40.8297 20.8652C40.6427 28.0694 41.7113 35.6298 50.0731 35.6298C50.1087 35.6298 50.2067 35.6298 50.2067 35.6298C57.028 35.7634 59.6817 31.489 60.4297 26.137C57.7493 25.4781 55.0867 24.7478 52.4241 23.9998Z" fill="white"/>
<path d="M73.6186 28.488H73.6097C72.6747 29.0223 71.3656 29.1915 69.7004 28.6394L69.8072 28.0249C67.1268 27.6331 64.482 27.0988 61.8639 26.4844C60.635 34.2318 59.4863 42.9676 58.5156 48.7114C62.0955 49.3615 65.1855 49.6197 67.109 50.0471C67.3405 47.3311 69.1661 35.9326 69.5223 33.5461L69.6024 33.5194C75.4976 34.3475 79.0952 33.8489 80.5645 28.6483C78.2937 28.7463 75.9784 28.7017 73.6186 28.488Z" fill="white"/>
<path d="M89.6022 30.1456C89.5132 29.6826 89.3084 28.2756 89.1214 27.6611C86.8862 28.0708 84.6332 28.3824 82.3535 28.5516C83.1639 33.7967 83.9831 38.4095 84.3215 38.3739L100.021 36.2189L98.2846 29.2908L89.6022 30.1456Z" fill="white"/>
<path d="M114.341 20.4827C116.452 22.8871 114.68 26.841 109.176 25.5586L109.728 21.587C108.615 21.9254 107.475 22.2994 106.3 22.7268C104.884 23.2344 103.477 23.7242 102.079 24.1961C101.607 29.3789 101.269 34.526 100.672 39.7533C104.412 40.2252 106.451 40.0204 108.464 40.3588C108.544 37.5804 108.98 32.9053 109.221 30.4119L112.587 40.8753L119.684 41.7747L115.864 30.3584C119.764 30.1536 121.332 27.2951 121.821 23.4392C121.973 22.2727 121.902 21.2486 121.688 20.3314C119.31 19.9484 116.879 20.0464 114.341 20.4827Z" fill="white"/>
</g>
<path d="M25.6644 33.3417C25.789 33.0122 25.7712 32.6293 25.602 32.2375C24.8362 33.7692 20.9981 34.2055 17.356 31.0977C16.5545 33.3328 14.07 38.382 13.4377 39.1122C13.6158 39.2369 13.8118 39.3437 13.9988 39.4595C14.9783 37.7319 16.7059 34.1254 17.3471 32.3266C21.0872 35.5235 25.0588 34.9803 25.6644 33.3417Z" fill="white"/>
<path d="M11.1751 15.7544C12.128 3.62574 27.7296 -0.497295 36.697 8.46119L37.1779 7.71316C28.2995 -1.88648 12.1458 2.17422 11.1751 14.5255C11.1395 14.9708 11.1484 15.4427 11.1662 15.9147C11.1751 15.8613 11.1751 15.8079 11.1751 15.7544Z" fill="white"/>
<path d="M32.7697 20.2869C29.6796 18.5058 25.4497 18.1407 23.3392 14.9616C23.2057 14.7568 23.1077 14.5609 23.0365 14.3828C22.796 14.8548 22.8495 15.4514 23.3392 16.1905C25.4497 19.3696 29.6796 19.7437 32.7697 21.5158C36.5632 23.6975 39.5108 27.8918 39.778 32.3087C40.0451 27.4465 36.9105 22.6645 32.7697 20.2869Z" fill="white"/>
<path d="M59.6375 13.768C60.1362 16.5018 60.6081 19.77 60.6705 22.9847C60.7328 19.396 60.1985 15.6291 59.6375 12.5391L52.175 13.1179C52.2196 13.483 52.2552 13.9015 52.2908 14.3379L59.6375 13.768Z" fill="white"/>
<path d="M50.447 29.468C52.1924 29.7529 52.6199 25.3805 52.5753 20.9814C52.5308 24.9264 52.0321 28.4973 50.447 28.2391C49.1914 28.3994 48.8263 26.1018 48.7818 23.0207C48.7373 26.6896 49.0311 29.655 50.447 29.468Z" fill="white"/>
<path d="M41.2842 13.6978C43.2166 13.6978 48.613 13.7334 49.1117 13.7601C49.1295 13.3327 49.1384 12.923 49.1473 12.5312C48.8713 12.4956 43.2522 12.46 41.2753 12.46C41.1862 15.2918 40.7588 19.112 40.8033 22.8343C40.8567 19.5217 41.204 16.2179 41.2842 13.6978Z" fill="white"/>
<path d="M63.7243 17.4555C68.8447 18.3905 80.4124 18.061 80.9645 26.503C81.4899 16.7965 69.0852 17.1972 63.7243 16.2266C61.8098 24.9001 59.9664 40.1455 58.5149 48.7211C58.5772 48.73 58.6485 48.7389 58.7108 48.7567C60.1267 40.012 61.8988 25.7372 63.7243 17.4555Z" fill="white"/>
<path d="M75.0771 26.5117C74.7031 28.2215 72.8509 29.5661 69.9122 28.6845L69.6985 29.86C73.4653 31.1245 75.5135 28.7291 75.0771 26.5117Z" fill="white"/>
<path d="M89.3438 28.667L89.0588 28.7204C89.2637 29.1835 89.5041 30.8754 89.602 31.383L98.2756 30.5192L99.7093 36.2541L100.003 36.2096L98.2667 29.2814L89.5931 30.1452C89.5486 29.8692 89.4596 29.2547 89.3438 28.667Z" fill="white"/>
<path d="M88.0355 23.3503C88.9883 23.1989 90.983 22.9941 92.1585 22.8516L93.0935 26.7876L93.3785 26.7431L92.1585 21.6227C90.983 21.7652 88.9883 21.97 88.0355 22.1214L87.608 19.4766C87.5724 19.4855 87.5279 19.4855 87.4923 19.4944C87.4923 19.4944 87.4299 19.5745 87.4299 19.6101L88.0355 23.3503Z" fill="white"/>
<path d="M95.4268 12.1392C95.5693 13.6174 95.6762 13.2612 96.2728 16.7965C96.3351 16.7787 96.4064 16.7698 96.4687 16.752C95.694 11.9165 95.5871 12.5221 95.4268 10.9014L80.2615 13.7421C80.2081 13.4215 80.2704 13.9202 80.404 14.9443L95.4268 12.1392Z" fill="white"/>
<path d="M103.442 14.2758C105.775 14.4984 121.154 13.5812 121.875 22.7267C122.481 12.281 105.882 13.2784 103.442 13.0469C101.946 22.1211 101.687 30.8124 100.672 39.7531C100.717 39.762 100.752 39.762 100.797 39.7709C101.705 31.2488 102.008 22.9404 103.442 14.2758Z" fill="white"/>
<path d="M115.134 23.2432C114.769 24.9618 112.827 26.3421 109.345 25.5852L109.176 26.7874C113.602 27.8204 115.606 25.4605 115.134 23.2432Z" fill="white"/>
<path d="M115.855 31.5866L119.248 41.7206L119.675 41.774L116.247 31.5332C116.113 31.551 115.997 31.5866 115.855 31.5866Z" fill="white"/>
<path d="M39.1875 4.3477C42.92 1.68072 40.4989 -1.99788 35.4551 1.31286C30.4112 4.71556 34.0428 8.11827 39.1875 4.3477ZM86.3982 3.88788C84.6833 3.88788 83.8762 2.41644 85.692 1.49679C90.9377 -1.1702 91.7447 3.88788 86.3982 3.88788Z" fill="#5243FF"/>
<path d="M114.77 58H114.481L111.592 57.349C111.303 57.256 111.014 57.07 110.821 56.791C110.628 56.512 110.628 56.14 110.725 55.861L111.014 54.6519L109.954 54.3729C109.28 54.1869 108.894 53.5359 109.087 52.8849C109.28 52.2339 109.954 51.8619 110.628 52.0479L112.844 52.6989C113.518 52.8849 113.903 53.5359 113.711 54.1869L113.422 55.3959L115.059 55.768C115.734 55.954 116.119 56.605 116.023 57.256C115.83 57.628 115.348 58 114.77 58Z" fill="url(#paint1_linear_9144_444)"/>
<path opacity="0.3" d="M55.8214 46.4375L53.0855 47.3845L52.4775 46.5236C52.0722 46.007 51.2615 45.8348 50.6535 46.1792C50.0456 46.5236 49.8429 47.2123 50.2482 47.7289L51.4642 49.4508C51.7682 49.9674 52.4775 50.1396 53.0855 49.8813L55.8214 48.9343C56.632 48.0733 56.936 47.1262 57.0374 46.5236C56.5307 46.3514 56.1254 46.3514 55.8214 46.4375Z" fill="url(#paint2_linear_9144_444)"/>
<defs>
<linearGradient id="paint0_linear_9144_444" x1="34.8154" y1="74.8581" x2="102.59" y2="-3.10792" gradientUnits="userSpaceOnUse">
<stop stop-color="#B17AFE"/>
<stop offset="1" stop-color="#5165FF"/>
</linearGradient>
<linearGradient id="paint1_linear_9144_444" x1="109.022" y1="54.9914" x2="116.044" y2="54.9914" gradientUnits="userSpaceOnUse">
<stop stop-color="#3EE555"/>
<stop offset="1" stop-color="#3EBF85"/>
</linearGradient>
<linearGradient id="paint2_linear_9144_444" x1="55.4688" y1="49.1245" x2="51.9306" y2="44.9614" gradientUnits="userSpaceOnUse">
<stop stop-color="white"/>
<stop offset="1" stop-color="white"/>
</linearGradient>
</defs>
</svg>
