<svg width="95" height="70" viewBox="0 0 95 70" fill="none" xmlns="http://www.w3.org/2000/svg">
<g clip-path="url(#clip0_9144_380)">
<mask id="mask0_9144_380" style="mask-type:luminance" maskUnits="userSpaceOnUse" x="0" y="0" width="94" height="70">
<path d="M0.0361328 0H93.2531V70H0.0361328V0Z" fill="white"/>
</mask>
<g mask="url(#mask0_9144_380)">
<path d="M27.3364 32.6668C26.5194 31.3828 25.5864 30.0998 24.7694 28.8168C24.0694 27.5328 23.7194 26.2498 23.8364 24.7328C23.9534 23.3328 24.4204 21.9328 25.0034 20.6498C26.2864 18.0838 28.3864 15.9838 30.2534 13.7668C31.1864 12.5998 32.1204 11.4338 32.8194 10.1498C33.5194 8.98281 33.9864 7.58281 33.5194 6.29981C33.3434 5.72175 33.0279 5.19589 32.6006 4.76862C32.1733 4.34135 31.6475 4.0258 31.0694 3.84981C29.7864 3.38281 28.2694 3.84981 26.9864 4.43281C24.5364 5.59981 22.5534 7.69981 21.3864 10.1498C20.6864 11.4338 20.2194 12.9498 19.9864 14.3498C19.6364 15.8668 19.5204 17.3838 19.1704 18.8998C19.0534 19.5998 18.8204 20.2998 18.4704 20.9998C18.2364 21.4668 17.6534 22.1668 17.0704 21.6998C16.4864 21.3498 16.2534 20.4168 16.1364 19.8338C16.0194 19.0168 15.9034 18.3168 15.9034 17.4998C15.7864 15.8668 16.0194 14.2328 16.1364 12.5998C16.2534 11.0838 16.3694 9.56681 15.7864 8.16681C15.3204 7.11681 14.5034 6.06681 13.3364 5.59981C12.1694 5.13281 11.0034 5.36681 9.95341 6.18281C7.61941 8.16681 7.96941 11.4328 8.20341 14.2328C8.55341 17.6168 8.90341 20.9998 9.13641 24.3828C9.25341 25.3168 9.36941 26.3668 9.36941 27.2998L8.66941 30.7998C8.31941 32.4338 8.08641 34.0668 7.85341 35.6998C7.73641 37.0998 7.50341 38.6168 7.96941 40.0168C8.78641 42.4668 11.9364 43.6328 14.1534 42.1168C15.3194 41.2998 15.7864 40.1338 16.0194 38.8498C16.1364 37.3328 16.0194 35.6998 15.9034 34.1838C15.9034 33.3668 15.7864 32.5498 15.9034 31.7338C16.0194 31.1498 16.4864 30.4498 17.1864 30.5668C17.8864 30.6828 18.4704 31.3838 18.7034 31.9668C19.0534 32.5498 19.2864 33.2498 19.4034 33.9498C20.2194 36.7498 20.8034 39.7828 22.5534 42.2328C23.9534 44.2168 26.8704 46.4328 29.2034 44.4498C30.1364 43.7498 30.6034 42.5828 30.7194 41.4168C30.8364 39.8998 30.2534 38.4998 29.5534 37.2168C29.0285 35.6049 28.2823 34.0736 27.3364 32.6668Z" fill="#E80000"/>
<path d="M38.6545 15.0501C39.7045 14.2341 40.0545 12.9501 39.5875 11.6671C39.1205 10.5011 37.8375 9.68412 36.5545 10.2671C35.8545 10.6171 35.2705 11.3171 35.1545 12.1341C34.9205 12.8341 34.9205 13.5341 35.2705 14.2341C35.9705 15.5171 37.4875 15.8661 38.6545 15.0501ZM40.2875 33.6001C39.8205 32.4341 39.2375 31.2671 38.8875 30.1001C38.5426 28.9586 38.3082 27.7865 38.1875 26.6001C38.1875 25.6671 38.4205 24.7341 38.5375 23.6841C39.0045 21.7011 39.3545 19.3671 37.9545 17.6171C36.5545 15.8671 34.2205 17.0341 32.9375 18.3171C31.4205 19.8341 30.7205 21.8171 30.2545 23.8001C30.0228 24.8737 29.9055 25.9688 29.9045 27.0671C30.0205 28.1171 30.1375 29.2841 30.3705 30.3341C30.7205 32.3171 31.3045 34.3001 32.4705 35.9341C33.5205 37.5671 34.9205 39.0841 36.9045 39.3171C38.5375 39.5501 40.5205 38.6171 40.7545 36.8671C41.1045 35.8171 40.7545 34.6511 40.2875 33.6001Z" fill="#F8C013"/>
<path d="M70.7361 35.9339C71.2031 34.1839 70.6201 31.4999 68.5201 31.1499C67.9361 31.0339 67.4701 31.1499 66.8861 31.1499C66.3031 31.1499 65.8361 30.9169 65.4861 30.5669C64.7861 29.7499 64.3201 28.5839 64.0861 27.5339C63.6201 25.3169 63.6201 22.8669 63.9701 20.5339C64.3316 18.2613 65.0399 16.0577 66.0701 13.9999C67.2361 11.7839 68.7531 9.91694 70.1531 7.93394C71.3201 6.29994 72.6031 3.96694 71.2031 1.98394C70.1531 0.466943 68.1701 -0.116057 66.4201 0.116943C64.4361 0.349943 62.5701 1.51694 61.2861 3.03394C59.7701 4.66694 58.9531 6.76694 58.3701 8.98394C58.1361 10.0339 57.9031 11.1999 57.6701 12.3669C57.4361 13.4169 57.3201 14.5839 56.6201 15.5169C56.6159 15.5775 56.5898 15.6345 56.5468 15.6773C56.5038 15.7202 56.4467 15.746 56.3861 15.7499C56.2701 15.7499 56.1531 15.6339 56.0361 15.5169C55.8031 15.3999 55.6861 15.1669 55.4531 15.0499C54.9861 14.8169 54.5201 14.5839 54.0531 14.4669C53.1201 14.2339 52.0701 14.2339 51.1361 14.3499C46.8201 15.0499 44.2531 19.4839 43.4361 23.4499C42.9701 25.7839 42.9701 28.1169 43.2031 30.4499C43.4361 32.6669 44.1361 34.8839 45.4201 36.6339C46.5861 38.2669 48.4531 39.6669 50.4361 40.0169C52.6531 40.3669 54.5201 39.0839 56.0361 37.5669C56.2701 37.3339 56.8531 36.6339 57.2031 36.7499C57.7861 38.2669 58.9531 39.5499 60.3531 40.2499C62.2201 41.2999 64.4361 41.1839 66.4201 40.3669C68.5201 39.4339 70.2701 38.0339 70.7361 35.9339ZM52.7701 30.2169C51.2531 30.6839 49.9701 29.6339 49.5031 28.2339C49.1531 27.1839 49.2701 26.1339 49.7361 25.3169C49.8531 25.0839 50.0861 24.8499 50.4361 24.7339C51.0201 24.3839 51.7201 24.2669 52.3031 24.3839C53.1201 24.6169 53.5861 25.3169 53.9361 26.1339C54.5201 27.4169 54.4031 29.6339 52.7701 30.2169Z" fill="#27ADFF"/>
<path d="M84.5031 28.5827C83.2201 26.8327 81.1201 26.1327 79.4861 24.8497C78.6701 24.1497 77.8531 23.3327 77.2701 22.3997C76.6861 21.4667 76.1031 20.4167 76.2201 19.2497C76.3361 18.3167 76.9201 17.2667 77.9701 17.1497C78.4361 17.1497 78.9031 17.2667 79.1361 17.6157C79.4861 17.9657 79.7201 18.5497 79.9531 19.0157C80.4201 19.7157 81.3531 20.1827 82.2861 20.0657C83.2201 19.9497 83.9201 19.2497 84.2701 18.4327C84.9701 16.6827 84.3861 14.4667 83.3361 12.8327C82.1701 11.0827 80.3031 10.0327 78.2031 9.6827C76.1031 9.3327 73.7701 9.6827 71.9031 10.8497C70.7211 11.5643 69.7851 12.6223 69.2201 13.8827C67.8201 15.9827 67.0031 18.4327 67.4701 21.1157C67.8201 23.2157 68.9861 24.9657 70.6201 26.3657C72.2531 27.7657 74.1201 29.0497 75.2861 30.9157C76.3361 32.6657 76.8031 34.6497 76.1031 36.5157C75.7531 37.3327 75.1701 38.1497 74.3531 38.6157C73.4201 39.1997 72.2531 39.4327 71.2031 39.7827C70.2701 40.1327 69.4531 40.5997 68.8701 41.4157C68.2861 42.2327 68.1701 43.1657 68.4031 44.0997C69.1031 46.1997 71.3201 46.8997 73.3031 46.6657C74.4701 46.5497 75.6361 46.0827 76.6861 45.6157C77.6201 45.2657 78.5531 44.7997 79.3701 44.3327C81.1201 43.3997 82.6361 42.1167 83.8031 40.3667C85.0861 38.4997 85.4361 36.2827 85.5531 34.0667C85.7861 32.4327 85.6701 30.3327 84.5031 28.5827Z" fill="#B17AFE"/>
<path d="M11.1202 7.58372C10.6532 7.34972 10.1872 7.81672 9.95321 8.16672C9.72021 8.39972 9.60321 8.74972 9.48721 9.09972C9.37021 9.68372 9.25321 10.3837 9.13721 10.9667C9.13721 11.4337 9.13721 11.8997 9.48721 12.2507C9.83721 12.6007 10.3032 12.4837 10.6532 12.1337C11.0032 11.7837 11.1202 11.0837 11.2372 10.6167C11.3532 10.0337 11.4702 9.44972 11.4702 8.86672C11.5872 8.39972 11.5872 7.81672 11.1202 7.58372ZM28.2702 6.64972C28.1532 6.18372 27.6872 6.18372 27.2202 6.29972C26.4032 6.64972 25.5872 7.34972 25.3532 8.28372V8.86672C25.3532 9.10072 25.4702 9.21672 25.5872 9.21672C26.0532 9.45072 26.5202 9.10072 26.8702 8.86672C27.2202 8.51672 27.6872 8.28372 27.9202 7.81672C28.2702 7.46672 28.3872 7.11572 28.2702 6.64972ZM10.6532 37.3337C10.3032 36.9837 9.83721 37.1007 9.60321 37.4507C9.37021 37.8007 9.37021 38.3837 9.48721 38.8507C9.60321 39.6667 9.95321 40.6007 10.6532 40.2507C11.1202 40.0167 11.1202 39.3167 11.1202 38.9667C11.0032 38.3837 11.0032 37.6837 10.6532 37.3337ZM24.3032 39.8997C23.8372 40.2497 23.8372 40.9497 24.0702 41.4167C24.0702 41.5337 24.1872 41.6507 24.3032 41.7667C24.4202 42.1167 24.6532 42.3507 24.8872 42.4667C25.3532 42.8167 26.0532 42.5837 26.1702 42.0007C26.4032 41.4167 26.1702 40.6007 25.8202 40.1337C25.4702 39.9007 24.8872 39.6657 24.3032 39.8997Z" fill="#ADE2FF"/>
<path d="M48.6859 17.3838C48.3359 17.3838 48.1028 17.5008 47.9858 17.7338C47.8417 17.8668 47.7231 18.0251 47.6358 18.2008C47.4038 18.4441 47.2075 18.7192 47.0528 19.0178C46.9358 19.1338 46.9358 19.2508 46.8198 19.3678C46.5868 19.8338 46.3528 20.3008 46.4698 20.7678C46.7028 21.4678 47.4028 21.1178 47.7528 20.8838C48.2198 20.5338 48.5698 20.0678 48.9198 19.6008C49.1528 19.1338 49.5029 18.4338 49.2699 17.8508C49.1528 17.6178 48.9199 17.3838 48.6859 17.3838ZM61.7528 36.6348C61.5198 36.4008 61.0528 36.1678 60.7028 36.1678C60.5868 36.1678 60.4698 36.1678 60.2368 36.2848C60.0028 36.4008 59.8869 36.7508 59.8869 36.9848V37.2178C60.1199 37.9178 60.5868 38.5008 61.2868 38.8508C61.8698 39.2008 62.8028 39.2008 62.9198 38.3848C62.9198 38.0348 62.8028 37.8008 62.5698 37.5678C62.3368 37.3348 61.9868 36.9848 61.7528 36.6348ZM64.9028 2.21777C64.6698 2.21777 64.5528 2.33377 64.3198 2.33377C63.3868 2.56777 62.6868 3.73377 62.3368 4.55077C62.1028 5.01777 61.8698 5.95077 62.5698 6.06777C62.9198 6.18377 63.1528 5.95077 63.2698 5.71777C63.5028 5.48377 63.7368 5.13377 63.9698 4.90077C64.4368 4.31777 64.9029 3.85077 65.2529 3.26777C65.6029 2.80077 65.4868 2.21777 64.9028 2.21777Z" fill="#A8FFF3"/>
<path d="M2.48616 56.4677C2.02016 55.8837 1.08616 55.7677 0.620155 56.3507C0.153155 56.7007 -0.0798446 57.4007 0.153155 57.9837C0.270155 58.2167 0.503155 58.4507 0.737155 58.5677C1.20316 58.9177 1.78716 58.9177 2.25316 58.5677C2.56132 58.3194 2.75884 57.9593 2.80267 57.5659C2.8465 57.1726 2.73209 56.7778 2.48616 56.4677Z" fill="#F8526B"/>
<path d="M1.32017 56.4671C1.20317 56.3511 1.20317 56.3511 1.08717 56.3511C0.970174 56.3511 0.853174 56.3511 0.853174 56.4671L0.620174 56.7011C0.503174 56.8171 0.503174 56.8171 0.503174 56.9341C0.503174 57.0511 0.503174 57.1671 0.620174 57.1671C0.737174 57.2841 0.737174 57.2841 0.853174 57.2841C0.970174 57.2841 1.08717 57.2841 1.08717 57.1671C1.20317 57.1671 1.20317 57.0511 1.32017 56.9341C1.43717 56.8171 1.43717 56.8171 1.43717 56.7011C1.43717 56.5841 1.32017 56.4671 1.32017 56.4671Z" fill="#FFA8B5"/>
<path d="M91.1537 45.9679C90.9228 45.2844 90.524 44.67 89.9939 44.1807C89.4638 43.6915 88.8194 43.3432 88.1197 43.1679C84.5037 42.2339 81.4697 45.0339 78.5537 46.7839C75.4037 48.6509 71.7867 49.9339 68.0537 49.9339C61.2867 49.7009 55.9197 43.8679 49.0367 44.3339C45.6537 44.5679 42.6197 46.2009 39.4697 47.3679C37.9537 47.9509 36.3197 48.5339 34.5697 48.6509C32.5867 48.8839 30.7197 48.5339 28.8537 47.9509C25.3537 47.0179 21.8537 45.5009 18.1197 45.2679C14.7367 45.1509 11.4697 46.2009 9.60367 49.1179C9.13667 49.7009 8.90367 50.4009 8.66967 51.1009C7.50367 53.5509 7.38667 56.4679 8.55367 58.8009C10.0697 61.8339 13.3367 63.3509 16.4867 64.0509C20.2197 64.8679 24.1867 64.7509 27.8037 63.5839C31.1867 62.5339 34.3367 60.5509 37.9537 59.9679C39.9367 59.6179 41.9197 59.9679 43.7867 60.5509L49.3867 62.3009C53.1197 63.5839 56.8537 65.1009 60.4697 66.8509C62.2197 67.6679 63.9697 68.6009 65.8367 69.1839C67.4697 69.7679 69.3367 69.8839 71.0867 69.6509C77.8537 68.9509 83.8037 64.1679 87.5367 58.6839C88.4697 57.2839 89.1697 55.8839 89.8697 54.3679C90.4537 52.9679 91.0367 51.4509 91.2697 49.9339C91.6197 48.7679 91.6197 47.2509 91.1537 45.9679Z" fill="#F8526B"/>
<path d="M23.8362 56.5838C22.9042 56.8178 21.8542 57.4008 20.9202 57.1678C20.8042 57.1678 20.6872 57.1678 20.6872 57.0508V56.9338C20.8042 56.7008 20.8042 56.4678 20.9202 56.3508C21.1542 55.8848 21.5042 55.5348 21.8542 55.1848C22.9042 54.0178 25.2372 52.6178 23.9542 50.7508C22.7872 49.0008 20.3372 49.8178 18.5872 50.0508C17.5372 50.1678 16.4872 50.0508 15.4372 50.1678C14.6202 50.2848 13.6872 50.5178 13.1042 51.2178C12.5202 51.9178 12.4042 52.9678 12.9872 53.6678C13.4542 54.4838 14.5042 54.8338 15.4372 54.8338C16.4872 54.7178 17.3042 54.0178 18.3542 54.1338C18.7042 54.1338 18.8202 54.2508 18.8202 54.6008C18.7042 54.8338 18.5872 55.0678 18.4702 55.4178C17.8872 56.1178 17.1872 56.8178 16.7202 57.5178C16.2542 58.2178 16.0202 59.0348 16.1372 59.8508C16.3702 60.6678 17.0702 61.1348 17.8872 61.2508C18.8202 61.3678 19.8702 61.0178 20.8042 60.9008C21.8542 60.7838 22.7872 60.6678 23.8372 60.5508C24.6542 60.4338 25.5872 60.0838 26.1702 59.2678C26.6372 58.6838 26.6372 57.8678 26.1702 57.1678C25.7042 56.2338 24.7702 56.4678 23.8372 56.5838H23.8362ZM37.4872 50.9838C37.2542 50.9838 37.1372 50.8678 36.9042 50.8678C35.9712 50.6338 34.8042 50.7508 34.1042 51.3338C33.7542 51.5678 33.4042 51.9178 33.1712 52.1508C32.7042 52.6178 32.2372 53.0838 32.0042 53.6678C31.5372 54.4838 31.4212 55.4178 31.7712 56.2338C32.4712 57.9838 34.2212 58.8008 36.0872 58.5678C36.9042 58.4508 37.7212 57.9838 38.4212 57.4008C39.1212 56.8178 39.8212 56.0008 40.0542 55.1838C40.2872 54.3678 40.1712 53.2008 39.7042 52.3838C39.2372 51.5678 38.4212 51.1008 37.4872 50.9838ZM34.4542 55.6508C34.3372 55.5338 34.3372 55.4178 34.3372 55.3008C34.3372 55.3008 34.3372 55.1838 34.4542 55.1838C34.5712 54.7178 34.9212 53.9008 35.5042 54.1338C35.9712 54.3678 36.0872 55.1838 35.8542 55.5338C35.6212 56.1178 34.8042 56.0008 34.4542 55.6508ZM58.7202 51.4508C57.9042 50.9838 56.8542 50.6338 55.9202 50.7508C54.8702 50.8678 53.9372 51.2178 53.1202 51.8008C52.1872 52.3838 51.3702 53.0838 50.4372 53.5508C50.2032 53.6678 49.8532 53.9008 49.6202 53.7838C49.3872 53.7838 49.6202 53.7838 49.5032 53.6678C49.5032 53.5508 49.5032 53.2008 49.6202 53.0838C49.9702 52.2678 50.0872 51.4508 49.9702 50.6338C49.8542 49.8178 49.1542 48.8838 48.2202 49.2338C47.7542 49.3508 47.5202 49.8178 47.2872 50.2838C47.0542 50.8678 46.7032 51.4508 46.4702 52.0338C46.0042 53.0838 45.6542 54.2508 45.3042 55.3008C45.0702 56.2338 44.7202 57.4008 45.3042 58.3338C45.8872 59.1508 46.8202 59.5008 47.7542 59.3838C48.8042 59.2678 49.6202 58.6838 50.3202 57.8678C51.0202 57.1678 51.9532 56.3508 53.0042 56.1178C53.4702 56.0008 54.0542 56.0008 54.2872 56.3508C54.6372 56.7008 54.6372 57.2838 54.5202 57.7508C54.4032 58.8008 53.8202 59.8508 54.0532 60.9008C54.2872 61.8338 54.9872 62.5338 55.8032 62.7678C56.7372 63.0008 57.6702 62.7678 58.4872 62.1838C60.2372 60.9008 60.7032 58.3338 60.8202 56.3508C61.0532 54.3678 60.3542 52.5008 58.7202 51.4508ZM78.2042 54.6008C77.1542 52.8508 74.9372 52.2678 73.0702 52.3838C70.8542 52.5008 68.7542 53.4338 67.0042 54.7178C65.4872 55.8838 64.5542 57.6338 64.2042 59.3838C63.8542 61.1338 63.8542 63.4678 65.1372 64.8678C65.8372 65.5678 66.8872 65.9178 67.8202 66.0338C68.7542 66.1508 69.8042 66.1508 70.7372 66.0338C72.6042 65.8008 74.8202 64.8678 75.9872 63.2338C76.5702 62.4178 76.9202 61.1338 75.9872 60.4338C75.0542 59.7338 73.6542 60.3178 72.7202 60.6678C72.0202 60.9008 71.3202 61.1338 70.6202 61.2508C70.1542 61.3678 69.4542 61.4838 69.1042 61.0178C68.8702 60.6678 68.8702 60.0838 69.2202 59.7338C69.6872 59.2678 70.8542 59.3838 71.0872 59.3838C72.8372 59.2678 74.7042 59.0338 76.4542 58.5678C77.3872 58.3338 78.2042 57.8678 78.5542 56.9338C78.7872 56.2338 78.6702 55.3008 78.2042 54.6008ZM72.0202 56.7008V56.4678C72.1372 56.2338 72.2542 56.0008 72.3702 55.8838C72.7202 55.5338 73.3042 55.1838 73.6542 55.6508C74.2372 56.3508 72.8372 56.7008 72.0202 56.7008Z" fill="white"/>
<path d="M13.3375 47.95C13.3375 47.6 12.9875 47.367 12.6375 47.484H12.4045C11.7045 47.951 11.1205 48.651 10.8875 49.351C10.7705 49.701 11.1205 49.934 11.4705 49.817C11.9375 49.584 12.2875 49.234 12.7545 49.001C12.9875 48.767 13.3375 48.416 13.3375 47.95ZM72.9545 68.134C72.6045 67.551 71.7875 67.901 71.3205 68.017C70.9705 68.134 70.6205 68.251 70.3875 68.367C70.1545 68.484 69.8035 68.601 69.6875 68.951V69.068C69.6875 69.184 69.8045 69.301 69.8045 69.301C70.0375 69.534 70.5045 69.534 70.8545 69.534C71.0875 69.534 71.3205 69.417 71.5545 69.301H71.7875C72.2535 69.184 72.6035 68.951 72.9535 68.601C72.9535 68.484 73.0715 68.251 72.9545 68.134ZM86.3705 43.984C86.1375 43.168 84.6205 43.984 84.1535 44.218C83.8035 44.451 83.4535 44.684 83.3375 45.034C83.3375 45.501 83.6875 45.618 84.0375 45.618C84.5035 45.501 84.9705 45.384 85.4375 45.151C85.7875 45.034 86.1375 44.801 86.2535 44.451C86.3705 44.451 86.3705 44.218 86.3705 43.984ZM45.7705 45.501C45.5375 45.384 45.3045 45.384 45.1875 45.501C44.9545 45.501 44.8375 45.618 44.6045 45.734C44.1375 45.968 43.7875 46.201 43.3205 46.551C43.0875 46.784 43.2045 47.134 43.4375 47.251C43.5545 47.368 43.7875 47.368 43.9045 47.251C44.6045 47.134 45.4205 46.901 45.8875 46.318C46.2375 46.084 46.1205 45.734 45.7705 45.501Z" fill="#FFA8B5"/>
<path d="M92.7864 36.6341C92.3204 36.2841 91.7364 36.4011 91.2704 36.7511C90.6874 37.1011 90.2204 37.5681 89.9874 38.2681C89.8704 38.6479 89.8704 39.0542 89.9874 39.4341C90.1034 39.7841 90.4544 39.9011 90.9204 40.0181C91.7374 40.1341 92.5534 39.6681 93.0204 38.9681C93.3704 38.2681 93.4864 37.1011 92.7864 36.6341Z" fill="#F8526B"/>
<path d="M91.8542 37.1012C91.8542 36.9842 91.7372 36.9842 91.6202 36.8682H91.2702C91.1542 36.8682 91.1542 36.9842 91.0372 36.9842C90.9202 36.9842 90.9202 37.1012 90.8042 37.2182V37.5682C90.8042 37.6842 90.9202 37.6842 91.0372 37.8012H91.3872C91.5042 37.8012 91.5042 37.6842 91.6202 37.6842C91.7372 37.6842 91.7372 37.5682 91.8542 37.4512V37.1012Z" fill="#FFA8B5"/>
<path d="M91.8536 60.4339C91.5036 59.7339 90.8036 59.7339 90.3376 60.0839C89.9876 60.3169 89.7536 60.5509 89.6376 60.9009C89.5206 61.3669 89.7536 61.8339 90.2206 61.9509C91.0376 62.1839 92.3206 61.3669 91.8536 60.4339Z" fill="#F8526B"/>
<path d="M91.0366 60.434C91.0326 60.3734 91.0068 60.3163 90.964 60.2733C90.9211 60.2303 90.8641 60.2042 90.8036 60.2C90.6866 60.2 90.5706 60.084 90.4536 60.2C90.3366 60.2 90.2196 60.317 90.1036 60.434C89.9866 60.55 89.9866 60.55 89.9866 60.667C89.9866 60.784 89.9866 60.9 90.1036 60.9C90.2206 61.017 90.2206 61.017 90.3366 61.017C90.4536 61.017 90.5706 61.017 90.5706 60.9C90.6866 60.9 90.6866 60.784 90.8036 60.784C91.0366 60.55 91.1536 60.434 91.0366 60.434Z" fill="#FFA8B5"/>
<path d="M33.7531 19.7168C33.6361 19.7168 33.5201 19.8328 33.4031 19.8328C32.9361 20.1828 32.7031 20.7668 32.5861 21.2328C32.4701 21.5828 32.2361 22.3998 32.7031 22.6328C33.1691 22.8668 33.7531 22.2828 33.9861 21.8168C34.3361 21.3498 34.5691 20.7668 34.5691 20.2998C34.5691 19.9498 34.2191 19.5998 33.7531 19.7168ZM36.4361 10.8498C36.4361 10.8498 36.3191 10.8498 36.3191 10.9668C35.9691 11.1998 35.7361 11.8998 36.0861 12.2498C36.5531 12.5998 37.1361 12.0168 37.2531 11.6668C37.3105 11.5591 37.3405 11.4389 37.3405 11.3168C37.3405 11.1947 37.3105 11.0745 37.2531 10.9668C37.0191 10.7328 36.6691 10.7328 36.4361 10.8498ZM40.4031 35.6998C40.4031 35.5828 40.2861 35.5828 40.2861 35.4668C40.0531 35.2328 39.7031 35.3498 39.5861 35.5828C39.4701 35.8158 39.4701 36.1668 39.3531 36.5168C39.3531 36.7498 39.2361 37.0998 39.2361 37.3328C39.3531 37.5658 39.7031 37.6828 39.9361 37.5658C40.1691 37.4498 40.2861 37.0998 40.2861 36.8658C40.4031 36.5158 40.4031 36.2828 40.4031 35.9328C40.5201 35.8158 40.5201 35.6998 40.4031 35.6998Z" fill="#FFE594"/>
<path d="M74.2362 11.3168C73.6532 11.4328 73.0702 11.7828 72.6032 12.1328C72.1372 12.4828 71.6702 13.0668 71.7872 13.7668V13.8828C72.0202 14.5828 72.7202 14.1168 73.0702 13.8828C73.5372 13.5328 73.8872 13.1828 74.1202 12.8328L74.4702 12.4828C74.7032 12.2498 74.9372 12.0168 74.8202 11.6668C74.8202 11.3168 74.5862 11.1998 74.2362 11.3168ZM71.9032 41.4168C71.5532 41.2998 71.0872 41.5328 70.7372 41.7668C70.5032 41.9998 70.3872 42.2328 70.3872 42.4668C70.3872 43.2828 71.3202 43.0498 71.7872 42.6998C72.0202 42.5828 72.2532 42.3498 72.3702 41.9998C72.3702 41.8828 72.1372 41.5328 71.9032 41.4168ZM83.8032 28.4668C83.6862 28.2328 83.3372 27.9998 83.1032 27.8828C82.7532 27.7668 82.4032 27.9998 82.4032 28.3498C82.4032 28.5828 82.4032 28.6998 82.6362 28.8168L82.9862 29.1668L83.3362 29.5168C83.5702 29.6328 83.8032 29.5168 83.9202 29.2828C84.0372 29.0498 83.9202 28.6998 83.8032 28.4668Z" fill="#CFADFE"/>
<path d="M31.3028 64.6339V64.5179C30.9528 63.7009 29.7868 63.7009 29.3198 64.4009C29.3198 64.5179 29.2028 64.6339 29.2028 64.7509C28.8528 65.3339 28.7368 65.9179 29.0868 66.6179C29.5528 67.4339 30.6028 67.3179 31.1868 66.7339C31.6528 66.1509 31.7698 65.2179 31.3028 64.6339Z" fill="#F8526B"/>
<path d="M30.3702 64.517C30.3702 64.401 30.2542 64.401 30.2542 64.284C30.1372 64.284 30.1372 64.167 30.0202 64.167C29.9042 64.167 29.7872 64.167 29.7872 64.284L29.6702 64.401C29.5542 64.518 29.5542 64.518 29.5542 64.634V64.751C29.5582 64.8115 29.584 64.8684 29.6269 64.9113C29.6697 64.9542 29.7267 64.98 29.7872 64.984C29.9042 64.984 30.0202 65.101 30.1372 64.984H30.2542C30.3702 64.984 30.3702 64.868 30.3702 64.868C30.3702 64.751 30.4872 64.751 30.4872 64.634V64.517C30.3702 64.634 30.3702 64.517 30.3702 64.517Z" fill="#FFA8B5"/>
</g>
</g>
<defs>
<clipPath id="clip0_9144_380">
<rect width="94" height="70" fill="white" transform="translate(0.0361328)"/>
</clipPath>
</defs>
</svg>
