<svg version="1.2" xmlns="http://www.w3.org/2000/svg" viewBox="0 0 134 80" width="134" height="80">
	<title>brand7</title>
	<style>
		.s0 { fill: #fec23c } 
		.s1 { fill: #f89b3b } 
		.s2 { fill: #ffffff } 
		.s3 { fill: #e5f7fd } 
		.s4 { fill: #392b75 } 
		.s5 { fill: #ee2e73 } 
		.s6 { fill: #1d9db1 } 
		.s7 { fill: #94c93d } 
		.s8 { fill: #ee312c } 
		.s9 { fill: #f36e2b } 
	</style>
	<path class="s0" d="m16 44.5c4.7-1.4 2.7-3.6 3.1-6.7 0.6-4.4 2-4 6.3-5.6 4.1-1.5 4.7-1.1 6.2-5.1 1.1-2.7 1-5.9 4.3-7.5 3.7-1.7 8.3 0.5 12 0.5 5.6-0.1 3.8-2.9 7.7-5.8 2.6-1.8 6.9-2.2 10-3 5.5-1.4 6.7-2.8 10-6.5 3.2-3.7 3.5-2.4 8.1-1.6 3.7 0.6 9.3-1.4 12.1 0.4 3.5 2.2 1.2 6.9 2.1 9.8 0.9 3 4.3 4.3 5.4 7.1 1.5 3.6-1.2 5.8 3.7 8.1 3.4 1.6 6.6 1.1 9.2 4.4 2.2 2.8 3 6.6-0.1 8.7-2.8 1.9-7.9 1.3-11.1 2.8-2.7 1.1-7.2 4-8.6 5.8-2.4 3.1-2 5.4-7 7.1-3.4 1.2-7.8 1.1-11.7 1.1-4 0-7.8-0.5-11 1.4-3.8 2.2-2.5 4.3-8.7 3.6-5.1-0.7-6.3-2.5-11.1 0.1-3.8 2-5.8 4.8-10.6 5.2-10.7 0.9-8.5-7.6-15.6-9.9-4.8-1.6-23.2-5.1-16.3-12.8 2.7-3.1 8-0.6 11.6-1.6z"/>
	<path class="s1" d="m7.5 39.9c1 0.3 4 1.7 5 0.7 1.5-1.6 1.2-4.8 1.2-6.9q0-1.2 0-2.5c-2 6-3.1 6.5-7.4 8.3q0.6 0.2 1.2 0.4z"/>
	<path class="s2" d="m-32.9 39.2q0 0-0.2 0.3-0.3 0.2-0.7 0.8c-0.4 0.7-1.1 1.8-1.3 3.2-0.1 0.7 0 1.5 0.3 2.2 0 0.2 0.1 0.4 0.2 0.6q0.2 0.2 0.3 0.5c0.2 0.2 0.3 0.4 0.4 0.6q0.2 0.2 0.4 0.5c0.6 0.6 1.3 1.3 2.1 1.8q0.6 0.5 1.2 0.9l0.6 0.4 0.6 0.4c0.9 0.5 1.7 1 2.6 1.5q0.6 0.4 1.3 0.8c0.4 0.3 0.8 0.6 1.2 0.9q0.5 0.5 1.1 1 0.4 0.5 0.9 1c0.3 0.4 0.5 0.8 0.7 1.2l0.1 0.1 0.1 0.1v0.1l0.1 0.3 0.1 0.2q0.1 0.2 0.1 0.3 0.1 0.4 0.2 0.7 0 0.3 0.1 0.5c0 0.4 0 0.8 0 1.1-0.1 0.3-0.1 0.6-0.2 0.9q-0.1 0.4-0.2 0.7-0.2 0.4-0.3 0.6-0.1 0.2-0.2 0.4-0.2 0.3-0.2 0.3-0.1 0-0.2 0 0 0 0-0.1 0 0 0.1-0.3 0.1-0.2 0.1-0.4 0.1-0.3 0.1-0.6 0.1-0.6 0-1.5c0-0.3-0.1-0.6-0.2-0.9q0-0.2-0.1-0.4-0.1-0.2-0.2-0.4c0-0.1 0-0.2-0.1-0.3l-0.1-0.2-0.2-0.3c0 0.1 0 0 0 0l-0.1-0.1q-0.4-0.5-0.8-0.9-0.4-0.5-0.8-0.9c-0.4-0.3-0.7-0.6-1-0.9q-0.6-0.4-1.1-0.8c-0.4-0.3-0.8-0.6-1.2-0.9-0.8-0.5-1.6-1.1-2.4-1.7l-0.6-0.4-0.6-0.5q-0.6-0.5-1.2-1c-0.8-0.6-1.5-1.3-2.1-2.1q-0.2-0.3-0.4-0.6c-0.2-0.2-0.3-0.4-0.4-0.6q-0.2-0.3-0.3-0.6c-0.2-0.3-0.2-0.5-0.3-0.7-0.2-0.9-0.2-1.8-0.1-2.6 0.4-1.5 1.1-2.6 1.7-3.3q0.5-0.5 0.7-0.8 0.3-0.2 0.3-0.2 0.1 0 0.1 0 0.1 0.1 0 0.1z"/>
	<path class="s2" d="m-37.6 82.7q0 0-0.2-0.4-0.1-0.2-0.2-0.5-0.2-0.3-0.2-0.6-0.1-0.4-0.2-0.8c-0.1-0.3 0-0.6-0.1-1 0-0.3 0-0.6 0.1-1q0.1-0.5 0.2-1 0.1-0.5 0.2-1 0.2-0.5 0.4-0.9 0.2-0.4 0.5-0.8 0.3-0.3 0.6-0.6c0.7-0.7 1.5-0.9 1.5-0.9q0 0 0.1 0.1 0 0 0 0c0 0 0 0.2-0.1 0.5q-0.2 0.4-0.4 1.1c-0.2 0.4-0.4 0.9-0.7 1.4q-0.2 0.4-0.4 0.8-0.3 0.3-0.5 0.7c-0.1 0.3-0.2 0.6-0.3 0.9q-0.1 0.4-0.2 0.8c0 0.3-0.1 0.6-0.1 0.8q-0.1 0.4-0.1 0.8 0 0.3 0.1 0.6 0 0.3 0 0.5 0.1 0.4 0.1 0.4 0 0.1 0 0.1-0.1 0-0.1 0z"/>
	<path class="s2" d="m17.2 3.7q0 0-0.5 0-0.4 0-1.2 0-0.8 0.1-1.9 0.2c-0.8 0.2-1.6 0.4-2.5 0.7-0.8 0.3-1.7 0.7-2.5 1.3-0.9 0.6-1.7 1.3-2.3 2.2q-0.5 0.7-0.9 1.5-0.2 0.3-0.3 0.7-0.2 0.4-0.4 0.9c-0.3 1.1-0.5 2.3-0.6 3.5q-0.2 1.8 0 3.6c0.1 1.1 0.3 2.3 0.4 3.5q0.3 1.7 0.4 3.3 0.2 1.6 0.4 3 0.1 1.4 0 2.6c0 0.8-0.2 1.5-0.4 2-0.2 0.5-0.4 0.9-0.6 1.2q-0.3 0.3-0.3 0.3-0.1 0.1-0.1 0-0.1 0 0-0.1 0 0 0.1-0.4 0.1-0.2 0.2-0.5 0.1-0.3 0.1-0.6 0.2-0.8 0.1-1.9-0.2-1.1-0.5-2.4-0.1-0.7-0.3-1.5-0.1-0.7-0.2-1.5-0.3-1.6-0.6-3.3c-0.3-2.4-0.4-4.9 0-7.5q0.2-1.9 0.9-3.7 0.2-0.5 0.3-0.9 0.3-0.4 0.5-0.8 0.4-0.9 1-1.6c0.8-0.9 1.7-1.7 2.6-2.3 1-0.6 2-0.9 2.9-1.2 0.9-0.3 1.8-0.4 2.5-0.5q1.2-0.1 2-0.1 0.8 0 1.3 0.1 0.4 0 0.4 0 0.1 0 0.1 0.1 0 0-0.1 0.1z"/>
	<path class="s2" d="m66.9-29.4q0 0-0.3 0.1-0.1 0-0.3 0-0.1 0.1-0.2 0.1-0.2 0-0.3 0.1c-0.1 0-0.3 0.1-0.5 0.2-0.2 0.1-0.4 0.2-0.5 0.3-0.2 0.2-0.4 0.4-0.5 0.6q-0.1 0.1-0.3 0.3 0 0.2-0.1 0.4c-0.2 0.5-0.4 1.1-0.4 1.8q0 1 0.2 2.1 0.2 1.1 0.7 2.1c0.3 0.7 0.6 1.5 0.9 2.2 0.3 0.7 0.7 1.5 0.9 2.3q0.2 0.5 0.4 1.1 0.2 0.6 0.3 1.1c0.1 0.4 0.2 0.8 0.2 1.1q0.1 0.6 0.1 1.1 0 1.1-0.1 2-0.1 1-0.4 1.7-0.3 0.7-0.7 1.2-0.1 0.2-0.3 0.3-0.1 0.2-0.3 0.3-0.2 0.1-0.2 0.1-0.1 0-0.1 0 0-0.1 0-0.1 0 0 0.2-0.2 0.1-0.1 0.2-0.3 0.1-0.1 0.2-0.3 0.3-0.5 0.4-1.2 0.1-0.7 0.1-1.5 0-0.9-0.1-1.9 0-0.5-0.1-1c-0.1-0.3-0.1-0.7-0.2-1q-0.1-0.6-0.2-1.1-0.2-0.6-0.3-1.1-0.2-0.6-0.4-1.1-0.2-0.6-0.4-1.2c-0.3-0.7-0.6-1.4-0.8-2.2q-0.4-1.2-0.6-2.3-0.2-1.1-0.1-2.2c0.1-0.7 0.3-1.4 0.5-2q0.1-0.2 0.2-0.4 0.2-0.1 0.3-0.3c0.2-0.3 0.4-0.4 0.6-0.6 0.2-0.1 0.4-0.2 0.6-0.3 0.2-0.1 0.4-0.2 0.6-0.2q0.2-0.1 0.4-0.1 0.3 0 0.4-0.1 0.3 0 0.3 0 0 0 0 0.1 0 0 0 0z"/>
	<path class="s2" d="m92.1-34q0 0 0.3 0.3c0.2 0.2 0.5 0.5 0.8 0.8q0.6 0.5 1.2 1.1c0.2 0.2 0.4 0.5 0.6 0.8q0.4 0.3 0.6 0.7 0.3 0.4 0.5 0.8 0.3 0.4 0.5 0.8 0.2 0.5 0.3 0.9 0.1 0.4 0.2 0.8c0.1 0.2 0.1 0.4 0.1 0.6q0 0.3 0 0.6-0.1 0.4-0.1 0.4 0 0.1-0.1 0.1 0 0 0-0.1c0 0-0.1-0.1-0.2-0.4q-0.1-0.2-0.3-0.4-0.1-0.3-0.2-0.6-0.2-0.3-0.4-0.6-0.2-0.4-0.3-0.8-0.2-0.4-0.4-0.8-0.2-0.4-0.4-0.8-0.2-0.5-0.4-0.8c-0.2-0.3-0.3-0.5-0.5-0.8q-0.5-0.7-1-1.2-0.4-0.6-0.6-1-0.3-0.3-0.3-0.3 0-0.1 0-0.1 0.1 0 0.1 0z"/>
	<path class="s2" d="m133.7-28.2c0 0 0.7 0.1 1.9 0.4q0.9 0.2 2.1 0.6c0.8 0.2 1.7 0.6 2.7 1.1 0.9 0.5 1.9 1.2 2.7 2.1q0.3 0.4 0.5 0.8 0.3 0.4 0.5 0.8l0.2 0.3c0 0.1 0 0.1 0.1 0.2l0.1 0.4c0.2 0.3 0.2 0.7 0.3 1 0.3 1.4 0.2 2.8-0.1 4.2-0.3 1.4-1 2.8-1.7 4q-1.2 1.8-2.9 3.2c-0.1 0.1-0.1 0.1-0.2 0.2l-0.2 0.2-0.4 0.3q-0.5 0.3-0.9 0.6-1 0.5-1.9 0.9c-1.2 0.6-2.3 1-3.4 1.5q-1.7 0.6-3 1.3-1.4 0.6-2.3 1.4-1 0.8-1.6 1.4c-0.4 0.5-0.6 0.9-0.8 1.1q-0.2 0.5-0.2 0.5 0 0-0.1 0 0 0 0-0.1 0 0 0.1-0.5c0-0.3 0.2-0.8 0.6-1.3q0.5-0.8 1.3-1.8c0.6-0.6 1.4-1.3 2.3-1.9 0.9-0.6 1.9-1.1 3-1.6 1.1-0.5 2.3-1 3.4-1.5q0.9-0.4 1.7-0.9 0.4-0.2 0.8-0.4l0.4-0.3 0.3-0.2c0 0 0.1-0.1 0.1-0.1 1.1-0.8 2-1.7 2.8-2.8 0.7-1 1.3-2.2 1.7-3.5 0.4-1.2 0.5-2.5 0.3-3.7-0.1-0.3-0.1-0.5-0.2-0.8l-0.2-0.5c0 0 0-0.2-0.1-0.2l-0.1-0.2q-0.1-0.4-0.4-0.8-0.2-0.3-0.4-0.7c-0.7-0.9-1.6-1.6-2.4-2.1-0.9-0.5-1.7-0.9-2.5-1.2q-1.2-0.5-2.1-0.7c-1.1-0.4-1.8-0.5-1.8-0.5q-0.1 0-0.1-0.1 0.1-0.1 0.1-0.1z"/>
	<path class="s2" d="m152.6 37.1c0 0 0.6 0.4 1.8 1q1 0.5 2.2 1.1c0.8 0.5 1.8 1 2.8 1.6q0.7 0.4 1.5 0.9c0.5 0.4 1.1 0.7 1.6 1.2q1.6 1.1 3.1 2.7 0.4 0.4 0.8 0.9l0.4 0.4 0.1 0.1 0.1 0.1 0.1 0.2c0.5 0.6 0.9 1.3 1.3 2 0.7 1.4 1.2 2.9 1.5 4.5 0.2 1.6 0.2 3.2-0.1 4.8-0.2 1.6-0.7 3.1-1.3 4.5q-0.3 0.5-0.6 1-0.2 0.4-0.6 0.9l-0.3 0.4-0.1 0.3h-0.1v0.1l-0.1 0.1q-0.4 0.4-0.7 0.7-0.2 0.2-0.3 0.4-0.2 0.2-0.4 0.3-0.4 0.4-0.8 0.7c-0.5 0.4-1 0.8-1.5 1.1-0.5 0.3-1.1 0.6-1.6 0.8q-0.7 0.4-1.4 0.6-1.3 0.5-2.4 0.6-1 0.2-1.6 0.1-0.3 0-0.4-0.1-0.2-0.1-0.2-0.1 0 0 0-0.1 0 0 0.1 0c0 0 0.2 0.1 0.5 0 0.3 0 0.9-0.1 1.5-0.3q0.9-0.4 2.1-1c0.4-0.2 0.9-0.4 1.3-0.7 0.4-0.3 0.9-0.6 1.3-0.9 0.4-0.4 0.9-0.7 1.3-1.1q0.3-0.3 0.6-0.6l0.4-0.3q0.1-0.2 0.3-0.4 0.3-0.4 0.6-0.8l0.1-0.1c0.1-0.1 0 0 0 0l0.2-0.2 0.2-0.5q0.3-0.4 0.5-0.8 0.3-0.4 0.5-0.9c0.6-1.2 1.1-2.6 1.4-4 0.3-1.4 0.4-2.8 0.2-4.3-0.1-1.5-0.5-2.9-1.1-4.2-0.4-0.6-0.7-1.2-1.1-1.9l-0.2-0.2-0.1-0.1v-0.1l-0.4-0.4q-0.3-0.4-0.7-0.8-1.4-1.6-2.9-2.8c-0.5-0.5-1-0.8-1.5-1.2q-0.7-0.6-1.5-1c-0.9-0.7-1.8-1.2-2.6-1.7q-1.2-0.7-2.1-1.3c-1.2-0.6-1.8-1-1.8-1q-0.1-0.1-0.1-0.1 0.1-0.1 0.2-0.1z"/>
	<path class="s2" d="m79.5 100c0 0 0.5-0.4 1.3-1.1q0.7-0.5 1.6-1.2 0.5-0.3 1-0.7c0.4-0.2 0.8-0.5 1.2-0.7 0.5-0.1 0.9-0.4 1.5-0.5q0.4-0.1 0.7-0.2 0.4-0.1 0.9-0.1 0.2 0 0.4-0.1c0.1 0 0.1 0 0.2 0h0.2q0.4 0 0.9 0 0.4 0 0.8 0c0.3 0 0.6 0 0.9 0 1.3 0.1 2.5 0.3 3.7 0.6q1 0.3 1.9 0.5 0.9 0.3 1.8 0.6 0.9 0.4 1.8 0.8 0.9 0.3 1.7 0.7 0.9 0.4 1.7 0.8 0.8 0.4 1.6 0.8c1.1 0.5 2.1 1.1 3 1.5q1.5 0.8 2.7 1.4 1.3 0.6 2.3 1.2 1.1 0.5 1.8 0.9c1 0.6 1.5 0.9 1.5 0.9q0.1 0 0 0.1 0 0.1-0.1 0c0 0-2.4-0.6-6-1.9-0.9-0.3-1.8-0.7-2.9-1.1-1-0.4-2-0.9-3.1-1.5q-0.4-0.2-0.8-0.4l-0.4-0.2-0.4-0.2c-0.5-0.3-1-0.6-1.6-0.9q-0.8-0.4-1.6-0.8-0.9-0.4-1.7-0.8-0.9-0.4-1.7-0.7-0.9-0.3-1.8-0.6c-1.1-0.3-2.3-0.6-3.4-0.7-0.3-0.1-0.6-0.1-0.9-0.1q-0.4 0-0.8-0.1-0.5 0-0.9 0h-0.2-0.2l-0.4 0.1q-0.3 0-0.7 0-0.4 0.1-0.8 0.2c-0.4 0-0.9 0.2-1.3 0.4-0.4 0.1-0.8 0.4-1.2 0.5q-0.6 0.4-1.1 0.7-0.9 0.6-1.6 1.1c-0.9 0.6-1.4 1-1.4 1q-0.1 0-0.1-0.1-0.1 0 0-0.1z"/>
	<path class="s2" d="m47.6 105.6c0 0 0.4-0.1 1-0.1q0.4-0.1 1.1-0.1 0.6-0.1 1.4-0.1 0.8 0 1.8 0.1c0.6 0.1 1.2 0.2 1.9 0.5 0.6 0.2 1.3 0.6 1.8 1 0.3 0.2 0.6 0.5 0.8 0.8 0.3 0.3 0.5 0.5 0.7 0.8 0.5 0.6 0.8 1.3 1.2 1.9q0.5 0.9 1 1.8c0.5 1.1 1.1 2.2 1.6 3.1q0.4 0.7 0.7 1.2 0.4 0.5 0.7 0.8 0.2 0.2 0.3 0.3 0.1 0.1 0.2 0.2 0.2 0.1 0.2 0.1h0.1q0 0.1 0 0.1-0.1 0-0.1 0 0 0-0.2-0.1-0.2 0-0.3-0.1-0.2 0-0.4-0.2-0.5-0.2-0.9-0.7-0.5-0.4-1-1.1-0.5-0.6-1-1.4-0.5-0.8-1-1.7-0.4-0.9-0.8-1.9c-0.3-0.6-0.6-1.2-1-1.8-0.2-0.3-0.4-0.5-0.6-0.8-0.2-0.2-0.4-0.5-0.7-0.7-0.4-0.4-1-0.8-1.6-1.1-0.5-0.2-1.1-0.4-1.7-0.5q-0.9-0.2-1.7-0.2-0.8-0.1-1.4-0.1-0.6 0.1-1.1 0.1c-0.6 0-1 0-1 0q0 0 0-0.1 0 0 0 0z"/>
	<path class="s2" d="m-29.4 71.2q0 0-0.1 0.3c-0.1 0.3-0.3 0.6-0.4 1.1q-0.1 0.3-0.2 0.7c0 0.3-0.1 0.6-0.1 0.9-0.1 0.6 0 1.3 0.1 2.1 0.3 1.5 1.3 3.1 2.8 4.4 1.4 1.3 3.2 2.4 5.1 3.3q1.5 0.6 2.9 1.2 1.5 0.6 2.9 1.1 1.4 0.5 2.7 1.1 1.3 0.5 2.4 1c0.7 0.4 1.4 0.7 1.9 1.1 0.6 0.3 1.1 0.6 1.5 0.9 0.8 0.6 1.2 1 1.2 1q0 0 0 0.1-0.1 0-0.1 0c0 0-0.5-0.2-1.4-0.6-0.4-0.2-1-0.3-1.6-0.5-0.6-0.3-1.3-0.5-2-0.7q-0.6-0.2-1.2-0.4-0.6-0.2-1.3-0.4-1.3-0.4-2.7-1-1.5-0.6-2.9-1.3-1.5-0.7-2.9-1.5c-1.9-1-3.7-2.3-5.2-3.7-0.7-0.8-1.4-1.6-1.8-2.4-0.5-0.9-0.8-1.8-0.9-2.6q-0.1-1.3 0.1-2.3c0-0.3 0.1-0.6 0.2-0.9q0.1-0.4 0.2-0.7c0.2-0.5 0.4-0.8 0.5-1q0.2-0.4 0.2-0.4 0-0.1 0.1 0 0 0 0 0.1z"/>
	<path class="s2" d="m6.5 41.7c0 0-0.3 0.1-0.7 0.2q-0.4 0.1-0.9 0.3-0.5 0.1-1.1 0.4-0.3 0.1-0.6 0.3-0.3 0.1-0.6 0.3c-0.4 0.2-0.8 0.5-1.3 0.8-0.4 0.3-0.8 0.6-1.2 1-0.5 0.3-0.8 0.7-1.2 1.1-0.3 0.4-0.7 0.8-0.9 1.3-0.3 0.4-0.5 0.9-0.7 1.3-0.2 0.5-0.5 0.9-0.6 1.3q-0.2 0.4-0.3 0.7-0.1 0.3-0.2 0.6c0 0.2-0.1 0.3-0.2 0.5q0 0.3-0.1 0.5-0.1 0.3-0.1 0.5-0.1 0.2-0.1 0.4c-0.1 0.5-0.2 0.8-0.2 0.8q0 0.1-0.1 0.1 0-0.1 0-0.1c0 0-0.1-0.3-0.3-0.8q0-0.2-0.1-0.4 0-0.2-0.1-0.5c0-0.4 0-0.8 0-1.3q0-0.3 0.1-0.7 0.1-0.4 0.1-0.7 0.1-0.2 0.1-0.4 0.1-0.2 0.2-0.4 0.1-0.4 0.3-0.8c0.3-0.5 0.6-1 1-1.5 0.4-0.5 0.8-0.9 1.3-1.3 0.4-0.4 0.9-0.8 1.3-1.2 0.5-0.3 1-0.6 1.5-0.9 0.5-0.2 1-0.5 1.5-0.6q0.3-0.2 0.7-0.3 0.3-0.1 0.6-0.2 0.7-0.1 1.2-0.2 0.3-0.1 0.5-0.1 0.2 0 0.4-0.1c0.5 0 0.8 0 0.8 0q0.1 0 0.1 0 0 0.1-0.1 0.1z"/>
	<path class="s2" d="m26.1 15.4q-0.1 0-0.3 0c-0.2 0-0.5 0-0.8 0.1-0.2 0.1-0.3 0.1-0.5 0.2q-0.3 0.1-0.6 0.2-0.3 0.2-0.6 0.4-0.3 0.2-0.7 0.5-0.3 0.3-0.6 0.6c-0.2 0.2-0.4 0.5-0.6 0.7q-0.6 0.8-1.2 1.7c-0.7 1.2-1.4 2.6-1.8 4.1l-0.1 0.2-0.1 0.2c0 0 0-0.1 0 0v0.1l-0.1 0.5c-0.1 0.4-0.2 0.8-0.2 1.2q-0.1 0.5-0.2 1 0 0.6-0.1 1.1c0 0.7-0.1 1.4-0.2 2.1q-0.1 1-0.3 1.9-0.1 0.9-0.4 1.6-0.2 0.7-0.4 1.2c-0.3 0.6-0.5 1-0.5 1q0 0-0.1 0-0.1 0-0.1-0.1c0 0 0.1-0.4 0.1-1.1q0.1-0.5 0.1-1.2 0-0.3 0-0.7 0-0.4 0-0.9 0-0.8 0-1.8 0-1 0.1-2.2 0.1-0.5 0.2-1.1 0.1-0.6 0.2-1.2c0.1-0.4 0.3-0.8 0.4-1.1l0.2-0.6v-0.1-0.1l0.1-0.1 0.1-0.3c0.6-1.5 1.4-2.9 2.3-4.1q0.7-0.9 1.4-1.7c0.2-0.3 0.5-0.5 0.7-0.7q0.4-0.3 0.8-0.6 0.4-0.2 0.7-0.4 0.4-0.2 0.7-0.4 0.4-0.1 0.7-0.2c0.2 0 0.4 0 0.6-0.1 0.3 0 0.6 0 0.8 0q0.2 0 0.2 0 0.1 0 0.1 0.1 0 0 0 0.1z"/>
	<path class="s2" d="m120.7 4.2q0 0 0 0.3c0 0.1 0 0.3 0.1 0.6q0 0.4 0.2 0.9 0.2 0.6 0.5 1.2 0.3 0.6 0.8 1.3 0.5 0.6 1 1.3c0.8 0.8 1.7 1.7 2.6 2.6q0.7 0.7 1.4 1.4 0.7 0.7 1.3 1.4c0.4 0.5 0.7 1 0.9 1.6q0.2 0.4 0.4 0.8c0 0.3 0.1 0.6 0.1 0.9q0.1 0.4 0.1 0.7c0 0.3 0 0.5-0.1 0.7q-0.1 0.7-0.3 1.1c-0.1 0.3-0.3 0.4-0.4 0.6q-0.1 0.2-0.1 0.2-0.1 0-0.1 0-0.1 0-0.1-0.1 0 0 0.1-0.2c0-0.2 0-0.4 0-0.7 0-0.5 0-1.2-0.4-2-0.3-0.8-0.8-1.7-1.5-2.6q-0.5-0.7-1-1.4-0.6-0.7-1.2-1.5c-0.8-1-1.7-1.9-2.4-2.9q-0.6-0.8-1-1.5-0.4-0.8-0.7-1.5-0.2-0.7-0.3-1.3-0.1-0.6-0.1-1c0-0.3 0-0.5 0-0.7q0-0.2 0-0.2 0.1-0.1 0.1-0.1 0.1 0.1 0.1 0.1z"/>
	<path class="s2" d="m153.9 48.5q0 0 0 0.3 0 0.4 0 1.1 0 0.8 0 1.7c-0.1 0.7-0.2 1.4-0.4 2.2-0.3 0.8-0.6 1.7-1.2 2.5-0.6 0.8-1.3 1.5-2.2 2q-0.4 0.3-0.7 0.4l-0.4 0.2c-0.2 0.1-0.2 0.1-0.4 0.2-0.5 0.2-0.9 0.4-1.4 0.5-0.6 0.2-1.1 0.4-1.6 0.5q-0.8 0.2-1.6 0.4c-1.1 0.2-2.1 0.4-3.2 0.6q-1.5 0.4-2.9 0.8-0.6 0.2-1.3 0.4-0.6 0.2-1.3 0.5c-0.4 0.1-0.8 0.3-1.2 0.5q-0.6 0.3-1.1 0.5-1.1 0.5-2 0.9-0.9 0.4-1.6 0.7c-0.8 0.3-1.4 0.5-1.4 0.5q0 0-0.1-0.1 0 0 0.1-0.1c0 0 0.4-0.3 1.2-0.9q0.5-0.4 1.3-0.9c0.6-0.4 1.2-0.8 1.9-1.3 0.7-0.4 1.4-0.9 2.3-1.3q0.6-0.3 1.3-0.6l0.1-0.1h0.1 0.2l0.3-0.2q0.4-0.1 0.8-0.2 1.5-0.4 3.1-0.6 1.5-0.2 3.1-0.4 0.8-0.2 1.6-0.3c0.5-0.1 1-0.2 1.5-0.3 0.5-0.2 1-0.4 1.5-0.5 0.1-0.1 0.2-0.1 0.3-0.1l0.3-0.2q0.4-0.1 0.7-0.3c0.8-0.4 1.5-1 2.1-1.7 0.5-0.7 0.9-1.4 1.2-2.1 0.3-0.8 0.4-1.5 0.5-2.1q0.2-1 0.2-1.7 0.1-0.7 0.1-1.1 0-0.3 0-0.3 0-0.1 0.1-0.1 0.1 0 0.1 0.1z"/>
	<path class="s3" d="m21.6 39.4c-0.7-0.8-3-3.8-3.9-3.8-1.1 0-1.2 1.1-1.2 2.2v0.9c0 1.9 2.5 2.1 2.5 4 0 1.3-0.9 2.5-8 2.5-6.3 0-7.1-1.1-7.1-2.4 0-2.1 2-1 2.5-4.4 0.3-2.2 0.4-4.8 0.4-7.1 0-2.4 0-5.3-0.4-7.8-0.6-3.4-2.7-1.9-2.7-4.4 0-0.6-0.4-2.9 8.4-2.9 1.9 0 6.1 0 6.1 2.8 0 2.1-2.2 0.8-2.2 5.5 0 0.6 0 1.7 0.7 1.7 1.1 0 4.3-4.1 4.3-5 0-0.9-0.7-1.3-0.7-2.2 0-2.9 5.3-2.8 7.3-2.8 1.9 0 6.5-0.2 6.5 2.7 0 3.3-4.1 1.3-5.5 2.7-0.8 0.8-4.3 3.3-4.3 4.9 0 1.1 1 2.1 1.6 2.8l8.4 9.6c1.2 1.4 3.7 1.2 3.7 3.7 0 2-2.1 2.2-3.6 2.2h-6.8c-1.6 0-1.7-0.2-3.3-2.1z"/>
	<path class="s3" d="m41.9 28.7c0-5-0.4-6.2-0.9-6.8-0.9-1.1-2.5-1.3-2.5-2.8 0-2.9 8.2-2.9 9-2.9 2.4 0 7.3 0.1 7.3 2.8 0 1.5-1.5 1.4-2.4 2.5-0.8 0.8-0.8 4.4-0.8 7.2v4c0 7.1 0.5 7 1.3 7.5 1 0.6 1.9 0.8 1.9 2 0 1.2-0.3 3-9.1 3-1.7 0-6.7 0-6.7-2.6 0-1.3 1.3-1.5 2-2.2 0.5-0.6 0.9-2.1 0.9-7.7v-4z"/>
	<path class="s3" d="m59.6 23.3c0-4.2-3-2.2-3-4.8 0-1.8 2.4-2.1 3.8-2.1h13c11.2 0 14.8 6.9 14.8 14.1 0 7.5-4.3 14.5-14.5 14.5-1.7 0-3.2-0.1-4.4-0.1-1.2-0.1-2.3-0.1-3.4-0.1-1.2 0-2.3 0-3.4 0.1q-1.7 0.1-3.5 0.1c-1.3 0-3-0.7-3-2.3 0-2.9 3.1 0.3 3.2-5.5zm9.7 14.6c0 2.1 0.3 2.9 2.5 2.9 5 0 5.9-5.2 5.9-9.2 0-9.3-3.5-10.8-6.6-10.8-1.7 0-1.8 0.7-1.8 2.2v14.9z"/>
	<path class="s3" d="m92 20.8c0-1.7 2.8-2.2 2.8-3.3 0-0.4-0.3-0.5-0.3-0.9 0-1 2.7-1.2 3.3-1.2 1.3 0 4.9 0.4 4.9 2.2 0 1-3.1 4.7-8.5 4.7-1.1 0-2.2-0.2-2.2-1.5z"/>
	<path class="s3" d="m107.1 25.5c0-4.2 4-9.4 11.8-9.4 2.6 0 5.5 1.1 6.1 1.1 0.5 0 1.1-0.5 1.9-0.5 1.4 0 4.4 3.1 4.4 6.4 0 1.4-0.8 2.8-2.3 2.8-2.7 0-4.3-4.6-8.4-4.6-1.3 0-2.6 0.5-2.6 2 0 3.2 5.5 2.3 10.1 5.4 2.5 1.6 3.8 3.6 3.8 6.7 0 4.6-3.9 9.9-13.2 9.9-2.7 0-7.2-0.7-9.5-1.9-1.9-1.1-2.8-5.3-2.8-7.4 0-1 0.5-2.1 1.7-2.1 2.8 0 2.3 6.3 9.7 6.3 0.9 0 3.1-0.4 3.1-1.9 0-2.9-5.5-2.2-10-5.8-2.2-1.7-3.8-4.2-3.8-7z"/>
	<path class="s4" d="m21.6 36.2c-0.7-0.8-3-3.7-3.9-3.7-1.1 0-1.2 1-1.2 2.2v0.8c0 2 2.5 2.1 2.5 4.1 0 1.3-0.9 2.5-8 2.5-6.3 0-7.1-1.1-7.1-2.5 0-2.1 2-1 2.5-4.3 0.3-2.2 0.4-4.8 0.4-7.1 0-2.5 0-5.4-0.4-7.8-0.6-3.5-2.7-2-2.7-4.4 0-0.7-0.4-2.9 8.4-2.9 1.9 0 6.1 0 6.1 2.7 0 2.1-2.2 0.9-2.2 5.6 0 0.5 0 1.7 0.7 1.7 1.1 0 4.3-4.2 4.3-5.1 0-0.8-0.7-1.2-0.7-2.1 0-3 5.3-2.8 7.3-2.8 1.9 0 6.5-0.2 6.5 2.6 0 3.3-4.1 1.4-5.5 2.8-0.8 0.8-4.3 3.2-4.3 4.9 0 1.1 1 2 1.6 2.8l8.4 9.6c1.2 1.3 3.7 1.2 3.7 3.6 0 2-2.1 2.2-3.6 2.2h-6.8c-1.6 0-1.7-0.1-3.3-2.1z"/>
	<path class="s5" d="m41.9 25.6c0-5.1-0.4-6.2-0.9-6.8-0.9-1.2-2.5-1.3-2.5-2.8 0-2.9 8.2-2.9 9-2.9 2.4 0 7.3 0.1 7.3 2.8 0 1.4-1.5 1.4-2.4 2.4-0.8 0.9-0.8 4.5-0.8 7.3v4c0 7.1 0.5 6.9 1.3 7.4 1 0.6 1.9 0.8 1.9 2.1 0 1.2-0.3 3-9.1 3-1.7 0-6.7-0.1-6.7-2.6 0-1.3 1.3-1.5 2-2.3 0.5-0.5 0.9-2 0.9-7.6v-4z"/>
	<path class="s6" d="m59.6 20.1c0-4.1-3-2.1-3-4.7 0-1.9 2.4-2.1 3.8-2.1h13c11.2 0 14.8 6.9 14.8 14.1 0 7.4-4.3 14.4-14.5 14.4-1.7 0-3.2 0-4.4-0.1-1.2 0-2.3-0.1-3.4-0.1-1.2 0-2.3 0.1-3.4 0.1q-1.7 0.1-3.5 0.1c-1.3 0-3-0.6-3-2.2 0-2.9 3.1 0.3 3.2-5.6zm9.7 14.7c0 2 0.3 2.9 2.5 2.9 5 0 5.9-5.2 5.9-9.2 0-9.4-3.5-10.9-6.6-10.9-1.7 0-1.8 0.7-1.8 2.2v15z"/>
	<path class="s6" d="m92 17.7c0-1.7 2.8-2.3 2.8-3.4 0-0.3-0.3-0.4-0.3-0.9 0-1 2.7-1.2 3.3-1.2 1.3 0 4.9 0.4 4.9 2.3 0 1-3.1 4.7-8.5 4.7-1.1 0-2.2-0.2-2.2-1.5z"/>
	<path class="s7" d="m107.1 22.3c0-4.1 4-9.3 11.8-9.3 2.6 0 5.5 1.1 6.1 1.1 0.5 0 1.1-0.6 1.9-0.6 1.4 0 4.4 3.1 4.4 6.5 0 1.4-0.8 2.7-2.3 2.7-2.7 0-4.3-4.5-8.4-4.5-1.3 0-2.6 0.5-2.6 2 0 3.1 5.5 2.3 10.1 5.4 2.5 1.6 3.8 3.6 3.8 6.6 0 4.7-3.9 10-13.2 10-2.7 0-7.2-0.7-9.5-1.9-1.9-1.1-2.8-5.4-2.8-7.4 0-1.1 0.5-2.2 1.7-2.2 2.8 0 2.3 6.4 9.7 6.4 0.9 0 3.1-0.4 3.1-2 0-2.8-5.5-2.1-10-5.7-2.2-1.8-3.8-4.2-3.8-7.1z"/>
	<path class="s8" d="m47.4 63c0.5 0.5 0.5 2.3 0 2.8-2.1 2.1-10.8 2.8-12 0-1-2.3 5.3-8.5 5.3-8.5 0 0-4 0.8-4.8 0-0.6-0.5-0.6-2.4 0-2.9 2-2.1 10.6-2.7 11.8 0 1 2.3-5.3 8.6-5.3 8.6 0 0 4.1-0.9 5 0z"/>
	<path class="s6" d="m54.3 66q-2.4 0-4.1-1.7-1.7-1.7-1.7-4.2 0-2.4 1.7-4.1 1.7-1.7 4.1-1.7 2.4 0 4.1 1.7 1.7 1.7 1.7 4.1 0 2.5-1.7 4.2-1.7 1.7-4.1 1.7zm0-7.4q-0.5 0-0.8 0.4-0.3 0.3-0.3 0.8 0 0.5 0.3 0.9 0.3 0.3 0.8 0.3 0.5 0 0.8-0.3 0.3-0.4 0.3-0.9 0-0.5-0.3-0.8-0.3-0.4-0.8-0.4z"/>
	<path class="s4" d="m73.2 65.9c-0.6 0.7-2.9 0.4-3.8 0-0.9-0.5-2.4-3.6-2.4-3.6 0 0 0.6 2.9 0 3.5-0.9 0.9-4.2 0.9-5.1 0-2-2-2-9.4 0-11.4 0.7-0.6 2.8-0.4 3.6 0 1.1 0.6 2.7 3.9 2.7 3.9 0 0-0.7-3.2 0-3.9 0.9-0.9 4.2-0.9 5 0 2.1 2.1 2.1 9.5 0 11.5z"/>
	<path class="s9" d="m86 63c0.5 0.5 0.5 2.3 0 2.8-1.7 1.7-8 1.9-9.5 0-1.8-2.2-1.8-9.2 0-11.4 1.5-1.8 7.8-1.6 9.5 0 0.5 0.5 0.5 2.4 0 2.9-0.8 0.8-4.4 0-4.4 0v1.4c0 0 2.5-0.5 3 0 0.5 0.5 0.5 2.4 0 2.9-0.5 0.5-3 0-3 0v1.4c0 0 3.6-0.8 4.4 0z"/>
	<path class="s2" d="m118.1 50.2q0 0 0.4 0 0.4 0 1.1 0.1 0.7 0 1.6 0.1 0.8 0.1 1.8 0.4c0.3 0.1 0.6 0.2 1 0.3q0.4 0.1 0.9 0.5 0.2 0.1 0.4 0.3 0.1 0.2 0.3 0.4 0.1 0.3 0.2 0.5 0.1 0.2 0.1 0.4c0.1 0.3 0.1 0.6 0 0.8 0 0.2 0 0.4-0.1 0.6-0.1 0.2-0.2 0.4-0.2 0.4q-0.1 0.1-0.2 0 0 0 0 0c0 0-0.1-0.2-0.3-0.4q-0.1-0.2-0.2-0.4c-0.1-0.1-0.2-0.3-0.4-0.4q-0.1-0.1-0.1-0.2-0.2-0.1-0.3-0.1-0.1-0.1-0.2-0.2c-0.1-0.1-0.1-0.2-0.2-0.2-0.2-0.2-0.4-0.3-0.6-0.5-0.2-0.1-0.4-0.3-0.6-0.4-0.5-0.3-1.1-0.5-1.6-0.7q-0.8-0.3-1.5-0.5c-0.4-0.2-0.8-0.4-1-0.5q-0.4-0.2-0.4-0.2 0 0 0-0.1 0-0.1 0.1 0z"/>
	<path class="s2" d="m116.8 62.9q0.6-0.1 1.2-0.2 0.6-0.1 1.2-0.2 0.6-0.1 1.2-0.2c0.4 0 0.8-0.1 1.2-0.2 0.3 0 0.6 0.2 0.7 0.4l0.1 0.2q0.2 0.3 0.2 0.7 0.1 0.4 0.1 0.7-0.1 0.4-0.2 0.8-0.1 0.3-0.4 0.6-0.1 0.1-0.2 0 0 0 0 0-0.3-0.3-0.4-0.6-0.2-0.2-0.4-0.5-0.1-0.2-0.3-0.5-0.1-0.2-0.2-0.5l0.9 0.6c-0.4 0-0.8-0.2-1.2-0.2q-0.5-0.1-1.1-0.2-0.6-0.1-1.2-0.2-0.6-0.1-1.2-0.3-0.1 0 0-0.1 0 0 0 0z"/>
	<path class="s2" d="m119.9 73.3q0 0 0.3-0.2 0.1-0.1 0.3-0.2 0.3-0.1 0.5-0.2c0.4-0.2 0.8-0.4 1.3-0.5q0.4-0.1 0.8-0.1 0.4-0.1 0.9 0c0.1 0 0.3 0 0.4 0q0.3 0.1 0.5 0.2c0.4 0.1 0.7 0.3 0.9 0.5q0.2 0.2 0.3 0.4 0.1 0.2 0.2 0.5c0.1 0.2 0.1 0.5 0.1 0.8q-0.1 0.3-0.2 0.6c0 0.2-0.1 0.3-0.2 0.4-0.1 0.2-0.2 0.4-0.2 0.4q-0.1 0-0.2 0 0-0.1 0-0.1c0 0-0.1-0.1-0.2-0.3-0.1-0.1-0.1-0.2-0.2-0.4q-0.2-0.2-0.3-0.4c-0.1-0.1-0.2-0.2-0.3-0.3q0-0.1-0.1-0.2-0.1 0-0.1-0.1c-0.1-0.1-0.2-0.2-0.3-0.3q-0.1-0.1-0.2-0.2-0.1 0-0.2-0.1-0.3-0.1-0.6-0.2-0.4 0-0.7 0c-0.4 0-0.8 0-1.2 0q-0.6 0-0.9 0.1-0.3 0.1-0.4 0.1 0 0-0.1-0.1 0-0.1 0.1-0.1z"/>
	<path class="s2" d="m116.7 22.3q0 0 0.2 0.2c0.2 0.1 0.4 0.3 0.7 0.4q0.4 0.3 1.1 0.6 0.3 0.2 0.7 0.3 0.3 0.2 0.8 0.3c1.1 0.4 2.4 0.8 3.9 1.3q1.1 0.3 2.2 0.9c0.8 0.4 1.4 0.9 2.1 1.6l0.4 0.4c0.2 0.2 0.3 0.4 0.4 0.6l0.2 0.3 0.2 0.3q0.2 0.3 0.3 0.6c0.4 0.8 0.5 1.7 0.6 2.6-0.1 0.8-0.2 1.7-0.5 2.4-0.1 0.3-0.2 0.7-0.4 1q-0.2 0.5-0.5 0.9-0.5 0.8-1.1 1.4-0.3 0.2-0.5 0.4-0.3 0.3-0.5 0.4c-0.3 0.2-0.6 0.4-0.8 0.4q-0.2 0.2-0.2 0.2-0.1 0-0.2-0.1 0 0 0-0.1 0.1 0 0.2-0.2c0.1-0.2 0.3-0.4 0.5-0.7q0.3-0.4 0.6-1 0.2-0.3 0.4-0.7 0.1-0.3 0.3-0.7 0.3-0.8 0.5-1.7 0.2-0.9 0.2-1.9c0-0.7 0-1.3-0.2-2q-0.1-0.2-0.2-0.5l-0.1-0.2-0.1-0.2c-0.1-0.2-0.1-0.3-0.3-0.5l-0.3-0.4c-0.4-0.5-1-1.1-1.6-1.5q-1-0.6-2-1c-1.4-0.6-2.7-1.1-3.8-1.7q-0.4-0.2-0.8-0.4-0.3-0.2-0.7-0.4-0.6-0.4-1-0.7c-0.3-0.2-0.5-0.4-0.6-0.6q-0.2-0.2-0.2-0.2-0.1 0 0-0.1 0 0 0.1 0z"/>
	<path class="s2" d="m127.2 15.3q0 0 0.2 0 0.2 0.1 0.3 0.1 0.2 0 0.4 0.2 0.2 0.1 0.4 0.2c0.2 0.1 0.3 0.2 0.4 0.4q0.2 0.1 0.4 0.4 0.2 0.2 0.4 0.5 0.1 0.2 0.3 0.5 0.2 0.2 0.3 0.5c0 0.2 0 0.4 0 0.6q0 0.3-0.1 0.5c-0.1 0.3-0.3 0.5-0.4 0.7-0.2 0.1-0.3 0.2-0.3 0.2q-0.1 0.1-0.2 0c0 0-0.1-0.1-0.2-0.3q-0.1-0.1-0.2-0.2-0.1-0.2-0.2-0.3-0.1-0.2-0.2-0.4c0-0.1-0.1-0.2-0.1-0.3-0.1-0.2 0-0.3-0.1-0.5q0-0.2 0-0.4c-0.1-0.3-0.1-0.6-0.3-0.9 0-0.1-0.1-0.3-0.1-0.4q-0.1-0.1-0.2-0.3-0.1-0.2-0.2-0.3-0.2-0.1-0.2-0.2-0.2-0.2-0.2-0.2-0.1 0 0-0.1 0 0 0.1 0z"/>
	<path class="s2" d="m101 13.9q0 0 0 0.4 0 0.2-0.1 0.4 0 0.3-0.2 0.6-0.1 0.3-0.3 0.6-0.3 0.3-0.6 0.6-0.3 0.3-0.6 0.5-0.4 0.2-0.8 0.4-0.3 0.2-0.7 0.4-0.4 0.2-0.8 0.3c-0.5 0.1-1 0.1-1.4 0-0.9-0.2-1.4-0.6-1.4-0.6q-0.1-0.1 0-0.2 0 0 0 0c0 0 0.1-0.1 0.4-0.2q0.3-0.3 0.8-0.5c0.4-0.2 0.8-0.3 1.2-0.4 0.2-0.1 0.5-0.1 0.7-0.1q0.4 0 0.7-0.1 0.4 0 0.7-0.2 0.3-0.1 0.6-0.2 0.3-0.2 0.5-0.3 0.3-0.2 0.5-0.4 0.2-0.2 0.3-0.4 0.1-0.1 0.2-0.3 0.1-0.3 0.1-0.3 0.1-0.1 0.2-0.1 0 0.1 0 0.1z"/>
	<path class="s2" d="m74.9 14.6q0 0 0.3 0c0.2 0.1 0.5 0.1 0.8 0.1q0.6 0.1 1.3 0.2 0.4 0.1 0.8 0.3 0.4 0.1 0.9 0.2 0.4 0.2 0.9 0.4 0.4 0.2 0.9 0.5c0.7 0.4 1.3 0.8 1.9 1.4 0.6 0.5 1.2 1.1 1.6 1.8 0.3 0.4 0.5 0.8 0.7 1.1 0.2 0.4 0.4 0.8 0.5 1.2q0.1 0.4 0.2 0.7l0.2 0.6c0.1 0.5 0.2 0.8 0.2 1.2q0.3 1.2 0.4 2.4 0.1 1.2 0.1 2.3-0.1 1.1-0.3 2.1-0.3 0.9-0.7 1.7c-0.2 0.5-0.6 0.9-0.9 1.1-0.3 0.3-0.6 0.4-0.8 0.5q-0.3 0-0.3 0-0.1 0-0.1 0 0-0.1 0-0.1 0.1 0 0.3-0.2c0.1-0.2 0.3-0.3 0.4-0.6q0.3-0.5 0.4-1.1 0.2-0.7 0.2-1.5 0-0.9 0-1.9-0.1-1-0.2-2.1-0.1-1.1-0.2-2.3c0-0.4 0-0.8-0.1-1.2l-0.1-0.6q0-0.2-0.1-0.5c-0.1-0.4-0.2-0.7-0.3-1.1-0.2-0.3-0.3-0.7-0.5-1-0.4-0.7-0.9-1.2-1.4-1.8q-0.7-0.8-1.6-1.4-0.4-0.3-0.8-0.5-0.4-0.3-0.8-0.5-0.4-0.2-0.8-0.3-0.3-0.2-0.7-0.3-0.7-0.2-1.2-0.4c-0.3 0-0.6-0.1-0.8-0.1q-0.3-0.1-0.3-0.1-0.1 0-0.1-0.1 0-0.1 0.1-0.1z"/>
	<path class="s2" d="m51.8 14.8q0 0 0.2 0.1c0.1 0 0.3 0.1 0.6 0.3q0.1 0 0.1 0.2 0.1 0.1 0.1 0.3c0 0.2-0.2 0.4-0.3 0.5-0.2 0.3-0.5 0.6-0.8 0.9q-0.3 0.2-0.5 0.4-0.1 0.1-0.2 0.2-0.1 0.1-0.1 0.1v0.1c0-0.1 0 0 0-0.1v0.1q-0.1 0.2-0.2 0.4 0 0-0.1 0.1v0.2l-0.1 0.3q0 0.1 0 0.3c-0.1 0.5 0 1 0 1.5 0.1 0.6 0.2 1.1 0.2 1.8q0 0.8 0.1 1.6 0 0.9 0 1.7 0 0.8-0.1 1.5-0.1 0.7-0.2 1.3c-0.2 1.7-0.7 2.8-0.7 2.8q0 0.1-0.1 0.1-0.1 0-0.1-0.1c0 0-0.4-1.1-0.6-2.8q0-0.6-0.1-1.4 0-0.7 0-1.5 0-0.8 0.1-1.6 0.1-0.8 0.2-1.7c0.1-1-0.1-2.2 0.2-3.4q0.1-0.2 0.1-0.4 0.1-0.2 0.2-0.4c0.1-0.3 0.3-0.5 0.4-0.7v-0.1l0.1-0.1q0.1-0.1 0.2-0.2 0.2-0.1 0.3-0.2 0.3-0.2 0.6-0.4c0.3-0.2 0.7-0.4 0.9-0.6 0.2-0.2 0.3-0.4 0.1-0.5-0.1-0.2-0.2-0.2-0.4-0.3q-0.2-0.1-0.2-0.1 0 0 0-0.1 0-0.1 0.1-0.1z"/>
	<path class="s2" d="m23 25.4c0 0 0.7 0.9 1.9 2.4 0.6 0.7 1.2 1.5 1.9 2.4 0.8 0.9 1.5 1.9 2.2 2.8q0.6 0.7 1.2 1.4c-0.1-0.1 0 0-0.1 0h0.1v0.1h0.1l0.2 0.2 0.3 0.3q0 0.1 0.1 0.2 0.1 0 0.1 0.1l0.3 0.2c0.1 0.1 0.4 0.2 0.6 0.3 0.1 0.2 0.4 0.3 0.6 0.4q0.1 0.1 0.3 0.2h0.1c-0.1 0 0 0 0 0v0.1h0.2c0.1 0.1 0.4 0.2 0.6 0.3 0.4 0.1 0.8 0.3 1.2 0.5 0.4 0.3 0.7 0.5 0.8 0.8 0.2 0.3 0.3 0.6 0.3 0.7q0 0.3 0 0.3 0 0.1-0.1 0.1-0.1 0-0.1-0.1 0 0-0.1-0.2c-0.1-0.1-0.3-0.2-0.4-0.3q-0.3-0.2-0.8-0.2c-0.3-0.1-0.7-0.1-1.2-0.2-0.2 0-0.5 0-0.8-0.1h-0.1l-0.1-0.1h-0.1-0.1q-0.2-0.1-0.4-0.2c-0.2 0-0.5-0.1-0.8-0.3-0.3-0.2-0.6-0.3-0.8-0.5q-0.2-0.2-0.4-0.4-0.2-0.2-0.4-0.4-0.2-0.4-0.5-0.8-0.5-0.7-1-1.5c-0.6-1.1-1.3-2.1-1.9-3.1-0.5-0.9-1.1-1.9-1.6-2.7-0.9-1.5-1.5-2.6-1.5-2.6q0-0.1 0-0.1 0.1 0 0.2 0z"/>
	<path class="s2" d="m24.5 73.7q0.9-0.2 1.7-0.3 0.9-0.2 1.8-0.2l0.9-0.1q0.4 0 0.9 0 0.5 0 0.9 0.1 0.5 0.2 0.9 0.4l0.3 0.2c0.2 0.1 0.3 0.3 0.3 0.5q-0.1 0.2-0.1 0.5 0 0.2-0.1 0.5 0 0.3-0.2 0.5 0 0.2-0.1 0.3-0.2 0.1-0.3 0.2-0.1 0-0.1 0 0 0 0-0.1-0.1-0.1-0.1-0.2l-0.1-0.2-0.2-0.4q-0.2-0.2-0.3-0.4-0.1-0.2-0.2-0.5l0.6 0.7q-0.4 0-0.8-0.1-0.3-0.1-0.7-0.3-0.4-0.1-0.8-0.2l-0.8-0.2-0.8-0.1q-0.4-0.1-0.9-0.1-0.8-0.2-1.7-0.3-0.1-0.1-0.1-0.1 0.1-0.1 0.1-0.1z"/>
</svg>