<svg width="104" height="70" viewBox="0 0 104 70" fill="none" xmlns="http://www.w3.org/2000/svg">
<g clip-path="url(#clip0_9144_432)">
<mask id="mask0_9144_432" style="mask-type:luminance" maskUnits="userSpaceOnUse" x="0" y="0" width="103" height="70">
<path d="M0.0361328 0H102.703V70H0.0361328V0Z" fill="white"/>
</mask>
<g mask="url(#mask0_9144_432)">
<path d="M0.0908203 13.86C0.0908203 13.86 5.44382 12.878 11.9378 8.818C19.7618 3.94 22.2888 0 22.2888 0L18.2218 17.866L0.0918203 13.86H0.0908203Z" fill="#06CBAD"/>
<path d="M0.0361328 15.3882L18.0451 19.3612L10.8081 51.1522C10.8081 51.1522 9.95513 41.0462 7.00713 32.8502C5.44413 28.4952 0.0361328 15.3882 0.0361328 15.3882Z" fill="#F6CD01"/>
<path d="M37.6488 22.373C37.6488 22.373 33.2278 19.23 29.1158 12.834C24.1618 5.12995 23.5758 0.501953 23.5758 0.501953L19.5088 18.368L37.6488 22.373Z" fill="#FE466C"/>
<path d="M27.8192 61.182C22.0012 59.894 24.7492 73.089 16.1612 69.334C8.58125 66.028 11.8272 52.276 12.0492 51.349C12.0492 51.338 12.0492 51.338 12.0602 51.327V51.306L19.1532 20.103L37.1622 24.053C37.1622 24.053 26.6002 33.637 23.2862 36.922C20.9472 39.247 18.7532 41.953 16.9362 44.409L17.9332 38.526L16.4812 42.477C15.9397 44.0066 15.4481 45.5534 15.0072 47.115C9.05625 68.385 20.1492 70.831 22.4542 64.861C24.6492 59.142 27.8182 61.183 27.8182 61.183L27.8192 61.182Z" fill="#70A6B1"/>
<path d="M57.5425 27.5571C57.5425 28.4961 57.1985 29.3031 56.5125 29.9801C55.8245 30.6561 55.0045 30.9951 54.0515 30.9951C53.1205 30.9951 52.3115 30.6561 51.6245 29.9801C50.9375 29.3031 50.6045 28.4951 50.6045 27.5571C50.6045 26.6401 50.9485 25.8431 51.6245 25.1771C52.3115 24.5121 53.1205 24.1851 54.0515 24.1851C55.0045 24.1851 55.8245 24.5121 56.5115 25.1781C57.1985 25.8431 57.5425 26.6401 57.5425 27.5571Z" fill="#5B3AEE"/>
<path d="M30.5681 24.8179C32.0201 24.8179 33.0621 25.1779 33.6931 25.9089C34.3251 26.6399 34.6461 27.5689 34.6461 28.7029V42.6939C35.794 41.2246 36.9507 39.7623 38.1161 38.3069C39.2901 36.8459 40.5634 35.4676 41.9271 34.1819C42.6371 33.5159 43.3571 33.0899 44.0991 32.9159C44.8421 32.7409 45.6951 32.6539 46.6491 32.6539H50.0511V32.8609C49.6301 33.2109 49.0091 33.8329 48.1671 34.6949C47.3241 35.5679 46.4371 36.5169 45.4961 37.5649C44.5476 38.6112 43.6128 39.6699 42.6921 40.7409C41.7621 41.8209 40.9971 42.7489 40.3761 43.5239C41.3291 44.6809 42.2711 45.8479 43.2361 47.0049C44.1901 48.1625 45.1917 49.2801 46.2381 50.3549C46.7701 50.8689 47.2471 51.2949 47.6571 51.6549C48.0781 52.0039 48.4551 52.2879 48.8091 52.5049C49.1641 52.7129 49.4971 52.8879 49.8181 53.0299C50.1391 53.1599 50.4721 53.2909 50.8151 53.3999C50.4941 54.3399 50.0621 55.0489 49.4971 55.5289C48.9311 56.0189 48.0341 56.2599 46.8041 56.2599C46.091 56.2539 45.3862 56.1057 44.7311 55.8239C44.0583 55.5514 43.4449 55.1506 42.9251 54.6439C41.4035 53.1023 39.9645 51.4814 38.6141 49.7879C37.2614 48.0923 35.9313 46.3788 34.6241 44.6479V56.0959L32.7291 56.1399C30.0141 56.1729 28.6511 54.7869 28.6511 52.0039V24.8289H30.5681V24.8179ZM61.7871 52.8219C61.7871 54.0979 61.5101 55.0039 60.9671 55.5389C60.4241 56.0739 59.5151 56.3469 58.2521 56.3469C55.9471 56.3469 54.1961 55.7249 52.9661 54.4799C51.7461 53.2359 51.1371 51.4249 51.1371 49.0459V33.1879H52.8221C54.1401 33.1879 55.1821 33.5379 55.9251 34.2469C56.6671 34.9559 57.0441 36.0469 57.0441 37.5209V48.4999C57.0441 49.6899 57.3211 50.4969 57.8641 50.9339C58.4071 51.3699 59.3491 51.5769 60.6681 51.5769H61.7881L61.7871 52.8219ZM83.1421 45.3139C83.1421 47.0269 82.9321 48.5769 82.5111 49.9629C82.0901 51.3489 81.4141 52.5489 80.5051 53.5529C79.5961 54.5579 78.4101 55.3329 76.9471 55.8669C75.4841 56.4019 73.7441 56.6749 71.7171 56.6749C70.1541 56.6749 68.6911 56.3579 67.3391 55.7359C66.0035 55.1276 64.8048 54.2555 63.8151 53.1719C62.8125 52.0695 62.0199 50.7932 61.4761 49.4059C60.9111 47.9869 60.6341 46.4709 60.6341 44.8559C60.6341 42.9339 60.8671 41.1879 61.3321 39.6159C61.7981 38.0559 62.4851 36.7139 63.3821 35.5899C64.2743 34.4753 65.4277 33.598 66.7401 33.0359C68.0821 32.4459 69.6221 32.1519 71.3621 32.1519C71.9491 32.1519 72.5481 32.2389 73.1461 32.4249C73.7418 32.6109 74.3116 32.8713 74.8421 33.1999C75.3621 33.5269 75.8391 33.9199 76.2721 34.3779C76.7031 34.8369 77.0361 35.3169 77.2581 35.8409V24.8179H79.0641C80.4711 24.8179 81.5021 25.1779 82.1441 25.9089C82.7881 26.6399 83.1201 27.6009 83.1201 28.7899V45.3139H83.1421ZM77.1921 45.0519C77.1921 43.5679 77.0361 42.3119 76.7261 41.3079C76.4161 40.2929 76.0061 39.4749 75.4841 38.8529C74.9641 38.2309 74.3541 37.7729 73.6561 37.4889C72.9464 37.1954 72.1851 37.0468 71.4171 37.0519C70.6421 37.0519 69.9541 37.2159 69.3451 37.5539C68.7336 37.8935 68.2071 38.3674 67.8051 38.9399C67.3831 39.5299 67.0511 40.2389 66.8181 41.0569C66.5774 41.9164 66.4579 42.8053 66.4631 43.6979C66.4631 44.9209 66.6191 46.0229 66.9291 47.0049C67.2391 47.9979 67.6601 48.8499 68.1921 49.5479C68.687 50.2231 69.3271 50.7787 70.0651 51.1739C70.7982 51.5523 71.6122 51.7472 72.4371 51.7419C74.0991 51.7419 75.3181 51.1629 76.0721 49.9959C76.8141 48.8389 77.1921 47.1909 77.1921 45.0519ZM102.703 48.7519C102.703 51.2399 101.85 53.1819 100.143 54.5799C98.4361 55.9759 95.9761 56.6749 92.7731 56.6749C91.6761 56.6749 90.6671 56.5439 89.7481 56.2819C88.8171 56.0199 88.0081 55.6819 87.3211 55.2559C86.6331 54.8309 86.0911 54.3389 85.7141 53.7939C85.3371 53.2369 85.1371 52.6589 85.1371 52.0479V49.4179H85.3471C85.7299 49.7467 86.1506 50.0287 86.6001 50.2579C87.1211 50.5309 87.6971 50.7709 88.3511 50.9779C88.9941 51.1849 89.6811 51.3379 90.3911 51.4579C91.1001 51.5679 91.8091 51.6329 92.5181 51.6329C95.3881 51.6329 96.8291 50.7819 96.8291 49.0679C96.8291 48.7299 96.7631 48.4349 96.6291 48.1839C96.4971 47.9339 96.2641 47.7139 95.9091 47.5079C95.5551 47.2999 95.0561 47.1249 94.4131 46.9619C93.5783 46.769 92.7355 46.6122 91.8871 46.4919C89.3601 46.1539 87.4761 45.4779 86.2571 44.4739C85.0371 43.4689 84.4281 42.0729 84.4281 40.2719C84.4281 39.1799 84.6721 38.1439 85.1481 37.1499C85.6336 36.148 86.3335 35.2652 87.1981 34.5639C88.0851 33.8329 89.1381 33.2439 90.3791 32.8179C91.6211 32.3809 93.0061 32.1739 94.5351 32.1739C95.8871 32.1739 97.0401 32.3269 97.9931 32.6319C98.9461 32.9379 99.7331 33.3309 100.353 33.8219C100.974 34.3119 101.417 34.8479 101.705 35.4479C101.982 36.0379 102.127 36.6159 102.127 37.1719V39.3769H101.916C101.295 38.7659 100.364 38.2529 99.1121 37.8379C97.8601 37.4229 96.5301 37.2159 95.1001 37.2159C93.2941 37.2159 92.0421 37.4659 91.3551 37.9579C90.6671 38.4489 90.3351 39.0709 90.3351 39.8239C90.3351 40.1079 90.4011 40.3589 90.5231 40.5769C90.6451 40.7959 90.8781 40.9919 91.2111 41.1669C91.5431 41.3409 92.0311 41.5049 92.6411 41.6469C93.2611 41.7889 94.0811 41.9409 95.1011 42.1169C97.6161 42.5309 99.5111 43.2729 100.797 44.3429C102.06 45.3899 102.703 46.8629 102.703 48.7519Z" fill="#443375"/>
<path d="M34.1697 61.9679C34.0697 61.8369 33.9477 61.7279 33.8037 61.6399C33.6552 61.5542 33.4996 61.4812 33.3387 61.4219C33.0353 61.3191 32.717 61.2674 32.3967 61.2689C32.1195 61.2689 31.8448 61.3208 31.5867 61.4219C31.3449 61.5167 31.126 61.6619 30.9447 61.8479C30.761 62.0351 30.6177 62.258 30.5237 62.5029C30.4193 62.7706 30.3667 63.0556 30.3687 63.3429C30.3687 63.7139 30.4237 64.0409 30.5237 64.3249C30.6237 64.6089 30.7677 64.8489 30.9437 65.0349C31.1217 65.2199 31.3437 65.3619 31.5987 65.4599C31.8537 65.5589 32.1307 65.6019 32.4407 65.6019C32.5957 65.6019 32.7617 65.5919 32.9287 65.5579C33.0906 65.5276 33.2498 65.4841 33.4047 65.4279C33.5509 65.3756 33.6919 65.3096 33.8257 65.2309C33.9587 65.1549 34.0697 65.0669 34.1587 64.9809H34.2027V65.4609C34.2085 65.6643 34.1462 65.8639 34.0257 66.0279C33.9005 66.1867 33.746 66.3201 33.5707 66.4209C33.3762 66.5243 33.1672 66.5978 32.9507 66.6389C32.7243 66.6827 32.4943 66.7045 32.2637 66.7039C31.8307 66.7039 31.4207 66.6279 31.0337 66.4749C30.6555 66.3277 30.3092 66.1091 30.0137 65.8309C29.7177 65.545 29.4806 65.2039 29.3157 64.8269C29.1432 64.4119 29.0564 63.9663 29.0607 63.5169C29.0607 63.0269 29.1387 62.5789 29.3047 62.1639C29.4547 61.7668 29.6859 61.4054 29.9837 61.1028C30.2814 60.8002 30.639 60.5632 31.0337 60.4069C31.4641 60.2375 31.9232 60.1526 32.3857 60.1569C32.6517 60.1569 32.8957 60.1779 33.1167 60.2329C33.3387 60.2869 33.5377 60.3629 33.7037 60.4729C33.8707 60.5819 33.9917 60.7229 34.0917 60.8879C34.1807 61.0509 34.2247 61.2479 34.2247 61.4549V61.9569H34.1697V61.9679ZM40.0877 66.6499C39.8928 66.6457 39.7069 66.5674 39.5677 66.4309C39.4117 66.2889 39.3347 66.0709 39.3347 65.7979V63.9099H36.7187V66.6499H36.2087C35.9992 66.6525 35.7967 66.5741 35.6437 66.4309C35.4887 66.2889 35.4227 66.0709 35.4227 65.7979V60.2649H36.0537C36.2427 60.2649 36.3977 60.3299 36.5197 60.4609C36.6403 60.5877 36.7075 60.7559 36.7077 60.9309V62.8299H39.3357V60.2539H39.9227C40.0061 60.2525 40.089 60.2675 40.1667 60.2979C40.2503 60.3277 40.3262 60.3758 40.3887 60.4389C40.4584 60.4973 40.5117 60.5728 40.5437 60.6579C40.5841 60.743 40.603 60.8368 40.5987 60.9309V66.6489H40.0887L40.0877 66.6499ZM43.1247 66.6499C43.0299 66.6475 42.9362 66.6289 42.8477 66.5949C42.7507 66.5615 42.6633 66.5053 42.5927 66.4309C42.5127 66.3596 42.4515 66.2696 42.4147 66.1689C42.3686 66.0508 42.3461 65.9247 42.3487 65.7979V60.2539H42.9357C43.0247 60.2539 43.1027 60.2639 43.1797 60.2979C43.262 60.3303 43.3373 60.3782 43.4017 60.4389C43.469 60.502 43.5251 60.5761 43.5677 60.6579C43.6119 60.7421 43.6349 60.8358 43.6347 60.9309V66.6379H43.1247V66.6499ZM49.6297 65.7869C49.6297 65.9289 49.6077 66.0599 49.5637 66.1689C49.5183 66.2826 49.4463 66.3838 49.3537 66.4639C49.2537 66.5509 49.1087 66.6059 48.9317 66.6489C48.7134 66.697 48.4902 66.7192 48.2667 66.7149H47.7567C46.9927 66.7149 46.4047 66.5069 46.0067 66.1039C45.5967 65.6999 45.3967 65.1109 45.3967 64.3359V60.2539H45.9287C46.4607 60.2539 46.7377 60.5699 46.7377 61.1929V64.2589C46.7377 64.4989 46.7597 64.7069 46.7927 64.8699C46.8215 65.0214 46.8863 65.1638 46.9817 65.2849C47.0761 65.3981 47.2039 65.4786 47.3467 65.5149C47.5027 65.5579 47.7017 65.5799 47.9457 65.5799H48.2777C48.5877 65.5799 48.8547 65.5579 49.0977 65.5029C49.3307 65.4489 49.5197 65.4049 49.6297 65.3509V65.7869ZM56.0907 63.3529C56.0907 63.8449 56.0127 64.2809 55.8687 64.6959C55.725 65.0843 55.5111 65.4429 55.2377 65.7539C54.9697 66.0529 54.6416 66.292 54.275 66.4557C53.9083 66.6194 53.5112 66.704 53.1097 66.7039H52.5667C52.0127 66.7039 51.5797 66.5939 51.2587 66.3659C50.9377 66.1469 50.7707 65.7759 50.7707 65.2859V60.4829C50.8487 60.4509 50.9487 60.4289 51.0807 60.3959C51.2147 60.3739 51.3587 60.3409 51.5027 60.3199C51.6467 60.2979 51.8017 60.2759 51.9457 60.2649C52.1007 60.2549 52.2337 60.2429 52.3667 60.2429H53.0427C53.4087 60.2429 53.7857 60.3089 54.1397 60.4289C54.5057 60.5489 54.8277 60.7449 55.1267 60.9959C55.4147 61.2469 55.6467 61.5749 55.8247 61.9669C56.0017 62.3599 56.0907 62.8189 56.0907 63.3529ZM54.7717 63.5389C54.7717 63.1789 54.7277 62.8619 54.6277 62.5889C54.5486 62.3293 54.4122 62.0908 54.2287 61.8909C54.0592 61.706 53.8509 61.5608 53.6187 61.4659C53.3726 61.3667 53.109 61.3184 52.8437 61.3239H52.5667C52.5217 61.3239 52.4777 61.3239 52.4227 61.3339C52.3667 61.3449 52.3117 61.3449 52.2667 61.3669C52.2047 61.379 52.1418 61.3864 52.0787 61.3889V65.0449C52.0787 65.2309 52.1227 65.3729 52.2227 65.4599C52.3227 65.5469 52.4887 65.5899 52.7327 65.5899H52.9547C53.2029 65.5888 53.4479 65.5347 53.6735 65.4312C53.8991 65.3277 54.1 65.1773 54.2627 64.9899C54.4234 64.7983 54.5505 64.5809 54.6387 64.3469C54.7277 64.0959 54.7717 63.8229 54.7717 63.5389ZM62.4517 66.4969C62.3912 66.5726 62.3104 66.6295 62.2187 66.6609C62.1417 66.6929 62.0087 66.7039 61.8307 66.7039C61.6207 66.7039 61.4327 66.6609 61.2657 66.5739C61.0891 66.4785 60.952 66.3237 60.8787 66.1369L60.4017 64.9799C60.3372 64.8367 60.2631 64.698 60.1797 64.5649C60.1204 64.4759 60.0455 64.3983 59.9587 64.3359C59.8879 64.2863 59.8091 64.2494 59.7257 64.2269C59.6477 64.2049 59.5707 64.1829 59.4817 64.1719C59.3377 64.1509 59.2157 64.1289 59.1047 64.1179C58.9947 64.1069 58.9047 64.0959 58.8387 64.0959V66.6609H58.4187C58.1297 66.6609 57.9087 66.5839 57.7527 66.4309C57.6087 66.2789 57.5317 66.0709 57.5317 65.8099V60.4499C57.5977 60.4289 57.7087 60.3959 57.8417 60.3739C57.9747 60.3419 58.1297 60.3199 58.2847 60.2979C58.4466 60.2735 58.6094 60.2552 58.7727 60.2429C58.9387 60.2329 59.0827 60.2219 59.2047 60.2219H59.9247C60.2467 60.2219 60.5457 60.2649 60.8007 60.3519C61.0667 60.4399 61.2877 60.5709 61.4767 60.7349C61.6641 60.897 61.8138 61.0982 61.9152 61.3244C62.0166 61.5505 62.0673 61.7961 62.0637 62.0439C62.0637 62.2629 62.0307 62.4699 61.9637 62.6659C61.8977 62.8629 61.7977 63.0259 61.6877 63.1789C61.5688 63.3284 61.4263 63.4575 61.2657 63.5609C61.1035 63.6597 60.9222 63.7231 60.7337 63.7469C60.9117 63.8119 61.0667 63.9319 61.2107 64.1069C61.3547 64.2819 61.4547 64.4569 61.5427 64.6419L62.0637 65.8319C62.1527 66.0169 62.2297 66.1589 62.2967 66.2569C62.3627 66.3659 62.4187 66.4419 62.4517 66.4969ZM59.4157 61.3019C59.3817 61.3019 59.3377 61.3019 59.2937 61.3129C59.2487 61.3129 59.1937 61.3239 59.1377 61.3239C59.0827 61.3339 59.0277 61.3339 58.9717 61.3459C58.9167 61.3559 58.8717 61.3679 58.8387 61.3679V63.0589C58.9827 63.0919 59.1277 63.1029 59.2827 63.1139H59.7697C60.0357 63.1139 60.2687 63.0369 60.4567 62.8959C60.6457 62.7539 60.7447 62.5359 60.7447 62.2409C60.7447 62.0439 60.7227 61.8909 60.6787 61.7709C60.6384 61.6573 60.5696 61.556 60.4787 61.4769C60.3906 61.4017 60.2832 61.3525 60.1687 61.3349C60.041 61.3082 59.9111 61.2935 59.7807 61.2909H59.4157V61.3019ZM68.1927 65.9069C68.1927 66.0379 68.1707 66.1469 68.1257 66.2459C68.0776 66.3487 68.0009 66.4355 67.9047 66.4959C67.8047 66.5619 67.6607 66.6159 67.4717 66.6489C67.241 66.687 67.0075 66.7054 66.7737 66.7039H66.0867C65.2887 66.7039 64.6907 66.4969 64.2807 66.0709C63.8707 65.6559 63.6707 65.0339 63.6707 64.2049V63.0149C63.6707 62.7089 63.6817 62.4039 63.7047 62.0869C63.7267 61.7709 63.7597 61.4769 63.7927 61.2139C63.8367 60.8319 63.9587 60.5809 64.1257 60.4499C64.3027 60.3199 64.5247 60.2539 64.7787 60.2539H68.1707V60.6789C68.1707 61.1269 67.8827 61.3559 67.2947 61.3559H65.0897C65.0689 61.4788 65.0542 61.6026 65.0457 61.7269L65.0117 62.1199C65.0017 62.2509 65.0017 62.3819 64.9897 62.5019V62.8299H67.4837V63.2879C67.4837 63.4949 67.4167 63.6479 67.2837 63.7349C67.1507 63.8229 66.9517 63.8769 66.6967 63.8769H64.9897V64.2479C64.9897 64.5319 65.0117 64.7499 65.0567 64.9249C65.0906 65.0802 65.1716 65.2213 65.2887 65.3289C65.4121 65.4331 65.562 65.5009 65.7217 65.5249C65.8987 65.5579 66.1087 65.5799 66.3637 65.5799H66.7847C67.0177 65.5799 67.2617 65.5689 67.4947 65.5469C67.7267 65.5249 67.9707 65.4919 68.2037 65.4369L68.1927 65.9069ZM74.2767 66.6499C74.1461 66.6508 74.0158 66.6361 73.8887 66.6059C73.7335 66.5665 73.5894 66.4919 73.4677 66.3879C73.284 66.2382 73.12 66.0658 72.9797 65.8749C72.7734 65.5829 72.5882 65.2764 72.4257 64.9579L71.2397 62.6879C71.0627 62.3379 70.9187 62.0879 70.8077 61.9459V66.6499H70.2977C70.1993 66.6475 70.102 66.6289 70.0097 66.5949C69.9141 66.5588 69.8272 66.5029 69.7547 66.4309C69.6774 66.3575 69.617 66.268 69.5777 66.1689C69.5307 66.0514 69.5082 65.9254 69.5117 65.7989V60.2429H70.1537C70.5867 60.2429 70.9407 60.3529 71.2287 60.5709C71.5167 60.7889 71.7717 61.1159 71.9937 61.5419L73.1237 63.7789C73.1907 63.9099 73.2687 64.0629 73.3347 64.2269C73.4007 64.3899 73.4567 64.5319 73.5117 64.6409V60.2319H74.0887C74.1767 60.2319 74.2547 60.2539 74.3437 60.2869C74.4305 60.3213 74.5067 60.3778 74.5647 60.4509C74.6347 60.5197 74.691 60.6012 74.7307 60.6909C74.7748 60.7787 74.7978 60.8756 74.7977 60.9739V66.6279H74.2767V66.6499ZM83.7957 62.1969C83.7957 62.5349 83.7407 62.8409 83.6297 63.1139C83.5197 63.3869 83.3647 63.6159 83.1757 63.8009C82.9757 63.9869 82.7437 64.1389 82.4777 64.2379C82.2011 64.3399 81.9085 64.3917 81.6137 64.3909C81.1587 64.3909 80.7937 64.3139 80.5267 64.1719V66.6609H80.0167C79.9229 66.6613 79.8297 66.6465 79.7407 66.6169C79.6476 66.5808 79.5614 66.529 79.4857 66.4639C79.4054 66.382 79.3413 66.2856 79.2967 66.1799C79.2499 66.0432 79.2276 65.8993 79.2307 65.7549V60.5269C79.3469 60.487 79.4655 60.4543 79.5857 60.4289C79.7297 60.3959 79.8847 60.3629 80.0397 60.3309C80.1947 60.2979 80.3497 60.2759 80.5157 60.2649C80.6707 60.2429 80.8157 60.2319 80.9257 60.2319H81.6577C81.9787 60.2319 82.2677 60.2759 82.5327 60.3629C82.7987 60.4509 83.0207 60.5819 83.2207 60.7449C83.4087 60.9089 83.5527 61.1269 83.6637 61.3669C83.7407 61.6069 83.7957 61.8799 83.7957 62.1969ZM82.4657 62.3169C82.4657 61.9459 82.3887 61.6839 82.2227 61.5309C82.0677 61.3779 81.8127 61.2909 81.4807 61.2909H81.0587C80.9817 61.2909 80.8927 61.3019 80.7817 61.3239C80.6817 61.3459 80.5937 61.3669 80.5157 61.3779V63.1899C80.6267 63.2229 80.7707 63.2449 80.9367 63.2659C81.1037 63.2879 81.2697 63.2989 81.4367 63.2989C81.7687 63.2989 82.0237 63.2119 82.2007 63.0369C82.3777 62.8629 82.4657 62.6229 82.4657 62.3169ZM89.3047 65.7869C89.3047 65.9289 89.2817 66.0599 89.2377 66.1689C89.1923 66.2826 89.1203 66.3838 89.0277 66.4639C88.9277 66.5509 88.7837 66.6059 88.6057 66.6489C88.3877 66.6969 88.1649 66.7191 87.9417 66.7149H87.4317C86.6667 66.7149 86.0797 66.5069 85.6807 66.1039C85.2707 65.6999 85.0707 65.1109 85.0707 64.3359V60.2539H85.6027C86.1347 60.2539 86.4127 60.5699 86.4127 61.1929V64.2589C86.4127 64.4989 86.4337 64.7069 86.4677 64.8699C86.4962 65.0213 86.5606 65.1637 86.6557 65.2849C86.7504 65.3983 86.8785 65.4788 87.0217 65.5149C87.1767 65.5579 87.3757 65.5799 87.6197 65.5799H87.9527C88.2627 65.5799 88.5287 65.5579 88.7727 65.5029C89.0047 65.4489 89.1927 65.4049 89.3047 65.3509V65.7869ZM95.0887 66.6499C94.8227 66.6499 94.6127 66.5839 94.4687 66.4529C94.3247 66.3219 94.2357 66.1799 94.2137 66.0269C94.1749 65.6853 94.1155 65.3463 94.0357 65.0119H91.4537C91.3877 65.2849 91.3207 65.5579 91.2767 65.8309C91.2217 66.1039 91.1667 66.3759 91.1217 66.6489H90.6117C90.4017 66.6489 90.2457 66.5949 90.1467 66.4859C90.0567 66.3759 90.0137 66.2239 90.0137 66.0269C90.0137 65.8739 90.0467 65.6449 90.1137 65.3509C90.1797 65.0559 90.2567 64.7279 90.3677 64.3569C90.4787 63.9869 90.6007 63.6039 90.7447 63.2009C90.8887 62.7969 91.0447 62.4039 91.2097 62.0329C91.3767 61.6509 91.5427 61.3129 91.7197 60.9959C91.8621 60.7307 92.0332 60.4819 92.2297 60.2539H92.7617C93.0277 60.2539 93.2497 60.3089 93.4157 60.4289C93.5927 60.5489 93.7147 60.6789 93.8037 60.8429C93.9477 61.1049 94.1137 61.4539 94.2907 61.9019C94.4797 62.3489 94.6567 62.8399 94.8337 63.3749C95.0127 63.9223 95.1718 64.476 95.3107 65.0349C95.4547 65.6019 95.5547 66.1359 95.6207 66.6489L95.0887 66.6499ZM93.7487 63.9969C93.6906 63.7643 93.6201 63.535 93.5377 63.3099C93.4597 63.0699 93.3717 62.8399 93.2827 62.6109C93.201 62.3918 93.1086 62.1769 93.0057 61.9669C92.9214 61.7903 92.8328 61.616 92.7397 61.4439C92.6397 61.6069 92.5507 61.7929 92.4517 61.9999C92.3627 62.2069 92.2627 62.4259 92.1747 62.6439C92.0819 62.8652 92.0004 63.0912 91.9307 63.3209C91.8553 63.5436 91.7886 63.7691 91.7307 63.9969H93.7487ZM101.462 60.7559C101.462 60.8319 101.428 60.9519 101.362 61.1159C101.284 61.2996 101.195 61.4783 101.096 61.6509C100.977 61.8626 100.852 62.07 100.719 62.2729C100.575 62.4909 100.442 62.7089 100.298 62.9169C100.154 63.1239 100.021 63.3209 99.8877 63.4949C99.7547 63.6699 99.6437 63.8229 99.5437 63.9319V66.6599H99.0007C98.906 66.6578 98.8123 66.6395 98.7237 66.6059C98.6267 66.5726 98.5392 66.5163 98.4687 66.4419C98.3914 66.3684 98.331 66.279 98.2917 66.1799C98.2446 66.062 98.2221 65.9358 98.2257 65.8089V63.9199C98.0216 63.6554 97.8291 63.3821 97.6487 63.1009C97.4607 62.7959 97.2727 62.4909 97.0947 62.1629C96.9236 61.8437 96.7612 61.5199 96.6077 61.1919C96.4687 60.8841 96.3429 60.5705 96.2307 60.2519H96.8407C97.0947 60.2519 97.2947 60.3079 97.4387 60.4059C97.5561 60.4768 97.6519 60.5785 97.7157 60.6999C97.7927 60.8859 97.8817 61.0819 97.9927 61.2899C98.0927 61.4969 98.2027 61.6939 98.3027 61.8899C98.4137 62.0859 98.5247 62.2719 98.6357 62.4579C98.7457 62.6429 98.8567 62.7959 98.9567 62.9379C99.2313 62.5565 99.4831 62.1591 99.7107 61.7479C99.8436 61.5062 99.9654 61.2586 100.076 61.0059C100.187 60.7549 100.287 60.5039 100.353 60.2639H100.919C101.085 60.2639 101.218 60.3079 101.307 60.4059C101.417 60.4819 101.462 60.6029 101.462 60.7559Z" fill="#70A6B1"/>
</g>
</g>
<defs>
<clipPath id="clip0_9144_432">
<rect width="103" height="70" fill="white" transform="translate(0.0361328)"/>
</clipPath>
</defs>
</svg>
