<svg width="123" height="70" viewBox="0 0 123 70" fill="none" xmlns="http://www.w3.org/2000/svg">
<g clip-path="url(#clip0_9144_351)">
<mask id="mask0_9144_351" style="mask-type:luminance" maskUnits="userSpaceOnUse" x="0" y="0" width="122" height="70">
<path d="M0.0361328 0H121.936V70H0.0361328V0Z" fill="white"/>
</mask>
<g mask="url(#mask0_9144_351)">
<path d="M27.3365 53.7998C43.5365 51.3998 68.5365 49.3998 93.7365 54.0998C105.436 56.2998 116.836 49.3998 120.736 37.7998C120.736 37.6998 120.736 37.6998 120.836 37.5998C124.836 24.8998 117.836 11.2998 105.336 7.59977C84.4365 1.29977 50.2365 -5.00023 16.5365 5.89977C4.03647 9.89977 -2.86353 23.6998 1.23647 36.5998C1.33647 36.7998 1.33647 36.9998 1.43647 37.1998C5.03647 48.4998 15.9365 55.4998 27.3365 53.7998Z" fill="url(#paint0_linear_9144_351)"/>
<path opacity="0.25" d="M97.5365 30.7996C97.5365 30.7996 98.0365 27.5996 101.236 27.6996C95.6365 24.9996 93.9365 27.3996 94.0365 27.9996C94.1365 28.5996 92.6365 29.4996 94.3365 30.3996C96.0365 31.2996 97.5365 30.7996 97.5365 30.7996Z" fill="#CE5800"/>
<path opacity="0.25" d="M95.7366 33.5999C95.7366 33.5999 104.137 36.5999 105.537 36.7999C106.937 36.9999 107.737 36.5999 108.137 35.3999C108.437 34.1999 108.637 25.9999 101.637 23.3999C105.137 27.6999 107.137 34.8999 95.7366 33.5999Z" fill="#CE5800"/>
<path opacity="0.3" d="M83.1364 2.39972C87.4364 3.09972 87.6364 9.19972 83.4364 10.1997C43.0364 19.7997 40.0364 53.2997 12.9364 42.8997C2.13637 38.6997 -2.36363 25.7997 3.73637 15.9997C6.63637 11.3997 11.0364 7.69972 16.5364 5.89972C40.0364 -1.70028 63.8364 -0.900276 83.1364 2.39972ZM98.6364 5.69972C90.1364 3.79972 87.5364 9.49973 98.6364 12.0997C109.736 14.5997 110.136 8.29972 98.6364 5.69972Z" fill="url(#paint1_linear_9144_351)"/>
<path opacity="0.2" d="M19.1658 12.8156C19.2962 12.0119 19.267 11.1904 19.0799 10.398C18.8928 9.60557 18.5515 8.85776 18.0754 8.19726C17.5993 7.53676 16.9978 6.97649 16.3052 6.54846C15.6126 6.12042 14.8425 5.833 14.0388 5.70259C13.2351 5.57219 12.4136 5.60137 11.6212 5.78845C10.8287 5.97553 10.0809 6.31686 9.42043 6.79294C8.75993 7.26903 8.19966 7.87055 7.77163 8.56316C7.34359 9.25577 7.05617 10.0259 6.92577 10.8296C6.66241 12.4527 7.05462 14.114 8.01612 15.4479C8.97761 16.7819 10.4296 17.6792 12.0528 17.9426C13.6759 18.206 15.3372 17.8137 16.6711 16.8522C18.005 15.8907 18.9024 14.4387 19.1658 12.8156ZM113.837 23.5996C114.191 23.5996 114.542 23.5298 114.87 23.3941C115.198 23.2584 115.495 23.0595 115.746 22.8088C115.997 22.5581 116.196 22.2604 116.331 21.9328C116.467 21.6053 116.537 21.2542 116.537 20.8996C116.537 20.545 116.467 20.1939 116.331 19.8663C116.196 19.5388 115.997 19.2411 115.746 18.9904C115.495 18.7397 115.198 18.5408 114.87 18.4051C114.542 18.2694 114.191 18.1996 113.837 18.1996C113.121 18.1996 112.434 18.4841 111.928 18.9904C111.421 19.4968 111.137 20.1835 111.137 20.8996C111.137 21.6157 111.421 22.3024 111.928 22.8088C112.434 23.3151 113.121 23.5996 113.837 23.5996ZM95.3368 54.3996C95.0368 52.0996 93.3368 46.1996 85.0368 46.1996L85.6368 52.8996C88.3368 53.2996 91.0368 53.6996 93.6368 54.1996C94.2368 54.1996 94.8368 54.2996 95.3368 54.3996Z" fill="#49270D"/>
<path opacity="0.2" d="M34.0369 66.6997C34.0369 63.3997 32.6369 60.7997 28.8369 60.1997V60.6997C29.0369 63.6997 31.2369 66.0997 34.0369 66.6997Z" fill="#49270D"/>
<path d="M117.636 54.3C118.167 54.3 118.675 54.0893 119.05 53.7142C119.425 53.3391 119.636 52.8304 119.636 52.3C119.636 51.7696 119.425 51.2609 119.05 50.8858C118.675 50.5107 118.167 50.3 117.636 50.3C117.106 50.3 116.597 50.5107 116.222 50.8858C115.847 51.2609 115.636 51.7696 115.636 52.3C115.636 52.8304 115.847 53.3391 116.222 53.7142C116.597 54.0893 117.106 54.3 117.636 54.3ZM19.2361 3.4C19.687 3.4 20.1194 3.22089 20.4382 2.90208C20.757 2.58327 20.9361 2.15087 20.9361 1.7C20.9361 1.24913 20.757 0.81673 20.4382 0.497918C20.1194 0.179107 19.687 0 19.2361 0C18.7853 0 18.3529 0.179107 18.0341 0.497918C17.7152 0.81673 17.5361 1.24913 17.5361 1.7C17.5361 2.15087 17.7152 2.58327 18.0341 2.90208C18.3529 3.22089 18.7853 3.4 19.2361 3.4Z" fill="#008DD3"/>
<path d="M27.5361 70C28.8622 70 30.134 69.4732 31.0717 68.5355C32.0093 67.5979 32.5361 66.3261 32.5361 65C32.5361 63.6739 32.0093 62.4021 31.0717 61.4645C30.134 60.5268 28.8622 60 27.5361 60C26.2101 60 24.9383 60.5268 24.0006 61.4645C23.0629 62.4021 22.5361 63.6739 22.5361 65C22.5361 66.3261 23.0629 67.5979 24.0006 68.5355C24.9383 69.4732 26.2101 70 27.5361 70Z" fill="url(#paint2_linear_9144_351)"/>
<path opacity="0.3" d="M23.0361 64.7V65C23.0361 66.3 24.2361 67.4 25.5361 67.3H25.6361C27.8361 67.2 29.6361 65.4 29.8361 63.1V63C29.9361 61.7 28.8361 60.5 27.5361 60.5H27.2361C24.9361 60.7 23.1361 62.5 23.0361 64.7Z" fill="url(#paint3_linear_9144_351)"/>
<path d="M9.43691 16.9998C11.4526 16.9998 13.3856 16.1991 14.8109 14.7738C16.2362 13.3485 17.0369 11.4154 17.0369 9.3998C17.0369 7.38416 16.2362 5.45107 14.8109 4.02579C13.3856 2.60052 11.4526 1.7998 9.43691 1.7998C7.42127 1.7998 5.48818 2.60052 4.0629 4.02579C2.63763 5.45107 1.83691 7.38416 1.83691 9.3998C1.83691 11.4154 2.63763 13.3485 4.0629 14.7738C5.48818 16.1991 7.42127 16.9998 9.43691 16.9998Z" fill="url(#paint4_linear_9144_351)"/>
<path opacity="0.3" d="M2.63672 8.89971V9.29971C2.63672 11.2997 4.43672 12.9997 6.43672 12.8997H6.53672C9.93672 12.6997 12.6367 9.89971 12.8367 6.59971V6.49971C12.9367 4.49971 11.3367 2.69971 9.23672 2.69971H8.83672C5.53672 2.79971 2.83672 5.49971 2.63672 8.89971Z" fill="url(#paint5_linear_9144_351)"/>
<path d="M98.2361 63.6998C98.722 63.6998 99.2032 63.6041 99.6521 63.4182C100.101 63.2322 100.509 62.9597 100.852 62.6161C101.196 62.2725 101.469 61.8646 101.654 61.4157C101.84 60.9668 101.936 60.4857 101.936 59.9998C101.936 59.5139 101.84 59.0328 101.654 58.5839C101.469 58.135 101.196 57.7271 100.852 57.3835C100.509 57.0399 100.101 56.7674 99.6521 56.5815C99.2032 56.3955 98.722 56.2998 98.2361 56.2998C97.2548 56.2998 96.3137 56.6896 95.6198 57.3835C94.926 58.0774 94.5361 59.0185 94.5361 59.9998C94.5361 60.9811 94.926 61.9222 95.6198 62.6161C96.3137 63.31 97.2548 63.6998 98.2361 63.6998Z" fill="url(#paint6_linear_9144_351)"/>
<path opacity="0.3" d="M94.9365 59.7998V59.9998C94.9365 60.9998 95.8365 61.7998 96.7365 61.6998C98.3365 61.5998 99.7365 60.2998 99.8365 58.5998C99.9365 57.5998 99.1365 56.7998 98.1365 56.7998H97.9365C96.3365 56.7998 95.0365 58.0998 94.9365 59.7998Z" fill="url(#paint7_linear_9144_351)"/>
<path d="M110.936 22.9997C111.97 22.9997 112.962 22.5888 113.694 21.8574C114.425 21.126 114.836 20.1341 114.836 19.0997C114.836 18.0654 114.425 17.0734 113.694 16.342C112.962 15.6106 111.97 15.1997 110.936 15.1997C109.902 15.1997 108.91 15.6106 108.178 16.342C107.447 17.0734 107.036 18.0654 107.036 19.0997C107.036 20.1341 107.447 21.126 108.178 21.8574C108.91 22.5888 109.902 22.9997 110.936 22.9997Z" fill="url(#paint8_linear_9144_351)"/>
<path opacity="0.3" d="M107.536 18.8998V19.0998C107.536 20.0998 108.436 20.9998 109.436 20.8998C111.136 20.7998 112.536 19.3998 112.636 17.6998C112.736 16.6998 111.836 15.7998 110.836 15.7998H110.636C108.936 15.7998 107.536 17.1998 107.536 18.8998Z" fill="url(#paint9_linear_9144_351)"/>
<path opacity="0.25" d="M44.6367 39.1998C44.6367 39.1998 47.9367 41.1998 51.4367 38.2998C51.4367 38.9998 51.8367 39.5998 52.9367 39.5998H56.2367C57.0367 39.5998 57.8367 38.8998 57.7367 37.3998C57.7367 35.8998 57.6367 27.2998 57.5367 25.7998C57.4367 24.2998 56.2367 20.1998 51.8367 19.2998C52.7367 25.6998 54.5367 32.9998 54.5367 33.2998C54.5367 33.5998 49.8367 35.9998 49.8367 35.9998L44.6367 39.1998Z" fill="#CE5800"/>
<path d="M50.3364 26.5996H50.8364V26.2996C50.7364 24.6996 49.5364 24.1996 48.2364 24.2996C47.0364 24.3996 45.8364 24.8996 44.8364 25.5996C44.0364 26.0996 43.1364 25.7996 42.6364 24.9996L42.0364 23.7996C41.5364 22.8996 41.7364 21.5996 42.6364 20.9996C44.2364 19.9996 46.4364 19.0996 48.6364 18.8996C52.8364 18.5996 56.7364 21.0996 56.8364 26.3996C56.9364 29.8996 56.9364 33.3996 57.0364 36.8996C57.0364 37.6996 56.5364 38.3996 55.8364 38.3996C54.9364 38.3996 54.2364 38.4996 53.3364 38.4996C52.6364 38.4996 52.0364 37.8996 52.0364 36.9996V36.1996H51.9364C50.9364 38.0996 49.0364 39.1996 47.1364 39.3996C43.9364 39.6996 41.4364 37.2996 41.2364 34.0996C40.7364 28.8996 46.5364 26.6996 50.3364 26.5996ZM48.3364 34.4996C49.9364 34.3996 51.1364 32.3996 51.0364 30.8996V30.3996H50.5364C48.7364 30.4996 46.5364 31.1996 46.6364 32.9996C46.7364 33.8996 47.3364 34.5996 48.3364 34.4996Z" fill="url(#paint10_linear_9144_351)"/>
<path opacity="0.25" d="M17.6367 37.8998C17.6367 37.8998 21.7367 44.2998 28.3367 43.2998C35.0367 42.2998 35.9367 37.9998 35.9367 37.9998H33.6367C33.6367 37.9998 34.0367 40.7998 34.1367 41.3998C34.2367 41.9998 35.1367 41.9998 36.9367 41.6998C38.7367 41.4998 40.0367 41.2998 40.2367 40.2998C40.4367 39.1998 40.0367 35.3998 39.7367 32.9998C39.4367 30.5998 38.9367 26.9998 38.8367 25.9998C38.7367 24.9998 37.7367 24.6998 36.0367 24.8998C36.1367 27.2998 35.7367 34.5998 35.7367 34.5998L31.5367 37.5998L17.6367 37.8998Z" fill="#CE5800"/>
<path d="M25.3362 14.4997C27.7362 13.9997 30.9362 14.0997 33.5362 15.1997C34.6362 15.6997 35.1362 17.1997 34.6362 18.3997C34.4362 18.8997 34.2362 19.2997 34.0362 19.7997C33.6362 20.7997 32.6362 21.1997 31.7362 20.8997C30.2362 20.2997 28.3362 20.0997 26.8362 20.2997C23.0362 20.9997 19.9362 24.6997 20.7362 29.3997C21.5362 33.7997 25.0362 36.6997 28.8362 35.8997C30.3362 35.5997 31.8362 34.6997 33.0362 33.4997C33.3362 33.1997 33.4362 32.6997 33.2362 32.1997L33.0362 31.8997C32.8362 31.4997 32.5362 31.2997 32.1362 31.2997C31.8362 31.3997 31.3362 31.3997 31.1362 31.4997C30.4362 31.5997 29.7362 30.9997 29.6362 30.0997C29.5362 29.2997 29.4362 28.5997 29.3362 27.7997C29.0362 26.9997 29.5362 26.0997 30.3362 25.9997C32.5362 25.5997 34.1362 25.2997 36.3362 24.9997C37.1362 24.8997 37.8362 25.5997 37.9362 26.4997L39.1362 38.4997C39.2362 39.2997 38.7362 39.9997 38.0362 40.0997C37.2362 40.1997 36.6362 40.2997 35.8362 40.3997C35.1362 40.4997 34.5362 39.8997 34.4362 39.0997V38.6997H34.3362C33.1362 40.3997 30.8362 41.6997 28.6362 42.1997C22.2362 43.4997 16.2362 38.6997 14.7362 31.2997C13.0362 22.8997 18.7362 15.9997 25.3362 14.4997Z" fill="url(#paint11_linear_9144_351)"/>
<path opacity="0.25" d="M60.5361 36.8C60.5361 38.5 60.6361 39.5 62.4361 39.6C64.2361 39.7 65.9361 39.8 66.4361 39.3C66.9361 38.7 66.8361 37.4 66.8361 35.7C66.8361 34 66.2361 26 68.5361 25C65.7361 24.3 63.1361 25.8 63.1361 25.8L60.5361 36.8ZM64.5361 19C65.8361 19 67.2361 19.5 67.0361 21.7C66.9361 23.9 64.2361 22.5 64.2361 22.5L64.5361 19ZM70.6361 36.9C70.5361 38.5 70.4361 39.5 71.8361 39.7C73.2361 39.9 75.3361 40.3 76.3361 39.8C77.3361 39.3 77.3361 38.2 77.3361 36.1C77.3361 34 77.3361 27.6 78.4361 26.1C76.1361 24.3 75.0361 24.9 75.0361 24.9L70.6361 36.9ZM80.7361 38.1C80.6361 39.1 80.7361 40.6 81.7361 40.7C82.7361 40.7 83.0361 40.5 84.0361 40.9C85.0361 41.4 86.1361 41.1 86.7361 40.3C87.3361 39.5 87.7361 35.3 88.0361 31.7C88.3361 28.1 88.2361 22.2 84.5361 20.5C85.7361 25.9 80.7361 38.1 80.7361 38.1Z" fill="#CE5800"/>
<path d="M62.1368 18.8999H64.6368C65.5368 18.8999 66.3368 19.8999 66.2368 20.9999V21.0999C66.2368 21.2999 66.4368 21.3999 66.5368 21.2999C67.5368 19.9999 69.2368 18.5999 71.6368 18.6999C73.7368 18.7999 75.3368 19.8999 76.2368 21.6999C76.3368 21.9999 76.7368 22.0999 76.9368 21.7999C78.1368 20.4999 80.2368 19.3999 82.5368 19.5999C89.2368 20.2999 87.0368 32.2999 86.3368 38.0999C86.1368 39.3999 85.3368 40.3999 84.3368 39.7999C83.8368 39.4999 83.1368 39.2999 82.5368 39.4999C81.5368 39.7999 80.6368 38.7999 80.7368 37.6999C81.0368 34.3999 81.3368 31.1999 81.6368 27.8999C81.7368 26.4999 81.6368 25.3999 80.4368 25.2999C77.8368 24.9999 76.8368 27.7999 76.6368 30.6999C76.4368 33.3999 76.3368 34.9999 76.2368 37.2999C76.1368 38.1999 75.5368 38.8999 74.7368 38.7999C73.7368 38.6999 72.9368 38.6999 71.9368 38.5999C71.1368 38.4999 70.5368 37.7999 70.6368 36.8999C70.7368 33.5999 70.9368 30.2999 71.0368 26.9999C71.1368 25.5999 70.9368 24.4999 69.7368 24.4999C67.0368 24.3999 66.2368 27.3999 66.2368 30.0999C66.1368 32.7999 66.1368 34.3999 66.1368 36.6999C66.1368 37.5999 65.4368 38.2999 64.7368 38.2999H61.9368C61.1368 38.2999 60.5368 37.5999 60.5368 36.5999V20.6999C60.4368 19.7999 61.2368 18.8999 62.1368 18.8999Z" fill="url(#paint12_linear_9144_351)"/>
<path opacity="0.25" d="M90.4364 35.6997C90.4364 35.6997 90.3364 42.3997 96.9364 44.2997C103.536 46.0997 107.136 43.5997 106.636 42.1997C106.136 40.7997 105.536 36.9997 103.336 37.6997C101.936 40.0997 100.036 40.6997 100.036 40.6997L90.4364 35.6997Z" fill="#CE5800"/>
<path d="M100.636 22.9996C104.836 24.1996 108.236 28.8996 107.036 34.2996C106.736 35.3996 105.836 35.9996 104.936 35.7996C101.936 34.9996 98.9365 34.1996 95.8365 33.5996C95.9365 35.9996 97.4365 37.4996 99.2365 37.8996C100.436 38.1996 101.636 37.9996 102.836 37.5996C103.636 37.3996 104.336 37.8996 104.536 38.7996C104.736 39.3996 104.836 39.9996 104.936 40.6996C105.136 41.5996 104.736 42.4996 103.936 42.7996C102.036 43.4996 99.7365 43.4996 97.7365 43.0996C93.0365 42.1996 89.3365 36.5996 90.0365 31.0996C90.7365 25.5996 95.7365 21.5996 100.636 22.9996ZM100.936 30.9996C101.336 31.0996 101.736 30.6996 101.636 30.1996C101.536 28.9996 100.836 27.9996 99.6365 27.6996C97.9365 27.2996 96.9365 28.4996 96.3365 29.8996C98.2365 30.2996 99.3365 30.5996 100.936 30.9996Z" fill="url(#paint13_linear_9144_351)"/>
<path d="M5.63682 4C6.53682 3.1 7.83682 2.8 8.23682 3.2C8.63682 3.6 7.23682 4 6.53682 4.7C5.93682 5.4 4.63682 5.1 5.63682 4ZM96.1368 57.6C96.7368 57 97.6368 56.8 97.9368 57.1C98.2368 57.4 97.2368 57.7 96.8368 58.1C96.3368 58.6 95.4368 58.3 96.1368 57.6ZM55.4368 1.9C53.3368 1.9 52.8368 0.5 56.0368 0.5C58.3368 0.5 59.9368 0.6 60.2368 1C60.6368 1.4 60.3368 1.7 59.3368 1.6C58.1368 1.5 56.9368 1.9 55.4368 1.9ZM109.437 16C108.337 16.6 108.437 17.7 109.937 16.8C111.437 16.1 110.637 15.4 109.437 16ZM18.1368 23.9C16.7368 26.1 15.0368 24.7 16.2368 22.5C17.4368 20.3 20.0368 17.7 22.1368 16.8C24.2368 16 24.8368 17.4 22.4368 18.4C20.1368 19.4 19.0368 22.5 18.1368 23.9ZM31.6368 28.1C29.6368 28.5 29.0368 26.7 31.2368 26.3C33.5368 25.9 35.6368 25.7 35.8368 26.1C36.1368 26.5 33.9368 27.7 31.6368 28.1ZM43.5368 23C42.3368 23.5 41.5368 21.9 43.4368 20.9C45.4368 19.9 47.6368 19.2 48.4368 19.6C49.0368 19.9 46.7368 20.8 45.5368 21.3C44.4368 21.8 44.2368 22.6 43.5368 23ZM61.8368 24.5C60.7368 23.8 60.5368 20 62.0368 19.6C63.4368 19.2 64.8368 19.5 64.9368 20C65.0368 20.5 63.1368 20.4 62.7368 20.8C62.3368 21.1 62.8368 25.1 61.8368 24.5ZM93.4368 27C92.3368 27.1 92.9368 25.2 95.1368 24.1C97.4368 23 99.7368 23 100.337 23.9C101.037 24.8 98.9368 24.9 96.7368 25.1C94.8368 25.4 94.6368 26.9 93.4368 27Z" fill="white"/>
</g>
</g>
<defs>
<linearGradient id="paint0_linear_9144_351" x1="91.8925" y1="66.8418" x2="29.6515" y2="-7.33424" gradientUnits="userSpaceOnUse">
<stop stop-color="#27ADFF"/>
<stop offset="1" stop-color="#B17AFE"/>
</linearGradient>
<linearGradient id="paint1_linear_9144_351" x1="1.00037" y1="22.4217" x2="107.097" y2="22.4217" gradientUnits="userSpaceOnUse">
<stop stop-color="white"/>
<stop offset="1" stop-color="white"/>
</linearGradient>
<linearGradient id="paint2_linear_9144_351" x1="31.0301" y1="68.542" x2="23.9901" y2="61.501" gradientUnits="userSpaceOnUse">
<stop stop-color="#1367D7"/>
<stop offset="1" stop-color="#27ADFF"/>
</linearGradient>
<linearGradient id="paint3_linear_9144_351" x1="28.4691" y1="65.98" x2="24.3281" y2="61.84" gradientUnits="userSpaceOnUse">
<stop stop-color="white"/>
<stop offset="1" stop-color="white"/>
</linearGradient>
<linearGradient id="paint4_linear_9144_351" x1="14.7929" y1="14.7698" x2="4.06491" y2="4.04181" gradientUnits="userSpaceOnUse">
<stop stop-color="#1367D7"/>
<stop offset="1" stop-color="#27ADFF"/>
</linearGradient>
<linearGradient id="paint5_linear_9144_351" x1="10.8897" y1="10.8667" x2="4.57972" y2="4.55671" gradientUnits="userSpaceOnUse">
<stop stop-color="white"/>
<stop offset="1" stop-color="white"/>
</linearGradient>
<linearGradient id="paint6_linear_9144_351" x1="100.792" y1="62.6028" x2="95.5991" y2="57.4098" gradientUnits="userSpaceOnUse">
<stop stop-color="#1367D7"/>
<stop offset="1" stop-color="#27ADFF"/>
</linearGradient>
<linearGradient id="paint7_linear_9144_351" x1="98.9025" y1="60.7138" x2="95.8485" y2="57.6588" gradientUnits="userSpaceOnUse">
<stop stop-color="white"/>
<stop offset="1" stop-color="white"/>
</linearGradient>
<linearGradient id="paint8_linear_9144_351" x1="113.669" y1="21.8587" x2="108.212" y2="16.4017" gradientUnits="userSpaceOnUse">
<stop stop-color="#1367D7"/>
<stop offset="1" stop-color="#27ADFF"/>
</linearGradient>
<linearGradient id="paint9_linear_9144_351" x1="111.684" y1="19.8738" x2="108.474" y2="16.6638" gradientUnits="userSpaceOnUse">
<stop stop-color="white"/>
<stop offset="1" stop-color="white"/>
</linearGradient>
<linearGradient id="paint10_linear_9144_351" x1="48.9994" y1="39.5276" x2="48.9994" y2="18.9146" gradientUnits="userSpaceOnUse">
<stop stop-color="#FFEEC8"/>
<stop offset="1" stop-color="white"/>
</linearGradient>
<linearGradient id="paint11_linear_9144_351" x1="26.7522" y1="42.4677" x2="26.7522" y2="14.2327" gradientUnits="userSpaceOnUse">
<stop stop-color="#FFEEC8"/>
<stop offset="1" stop-color="white"/>
</linearGradient>
<linearGradient id="paint12_linear_9144_351" x1="73.8818" y1="40.1959" x2="73.8818" y2="18.7849" gradientUnits="userSpaceOnUse">
<stop stop-color="#FFEEC8"/>
<stop offset="1" stop-color="white"/>
</linearGradient>
<linearGradient id="paint13_linear_9144_351" x1="98.6115" y1="43.4016" x2="98.6115" y2="22.7526" gradientUnits="userSpaceOnUse">
<stop stop-color="#FFEEC8"/>
<stop offset="1" stop-color="white"/>
</linearGradient>
<clipPath id="clip0_9144_351">
<rect width="122" height="70" fill="white" transform="translate(0.0361328)"/>
</clipPath>
</defs>
</svg>
