<svg width="131" height="62" viewBox="0 0 131 62" fill="none" xmlns="http://www.w3.org/2000/svg">
<path d="M129.383 38.6304C129.033 38.1704 128.573 37.8004 128.033 37.5504C128.573 37.3004 128.883 36.7004 128.743 36.1104C128.543 35.2404 128.003 30.7304 127.473 26.3704C126.833 21.1004 126.183 15.6504 125.823 13.9204C125.693 13.2904 125.123 12.8604 124.493 12.9004L117.343 13.3804C116.973 13.4004 116.633 13.5904 116.413 13.8804C116.193 14.1704 116.103 14.5504 116.183 14.9104L117.993 23.7304C117.723 23.3704 117.453 23.0004 117.143 22.6604C113.793 18.9804 108.483 17.3104 103.623 18.4104C98.5726 19.5504 94.8326 23.3204 93.0926 29.0204C93.0626 29.1104 93.0426 29.2004 93.0226 29.3004C92.9426 24.0204 91.3426 19.8904 88.2326 17.0104C84.3026 13.3704 78.1826 12.0504 70.5526 13.1804C69.9626 13.2704 69.5026 13.7604 69.4626 14.3604L68.9126 22.6404C68.6626 26.3704 68.4026 30.3304 68.1726 33.7404C67.1726 28.0704 64.7426 24.0904 60.9326 21.9304C56.7526 19.5604 51.1726 19.6204 44.7826 22.0704C44.9626 20.0304 45.0326 19.4004 45.0826 19.0304C45.1626 18.3404 44.6826 17.7204 43.9926 17.6204L43.8626 17.6004C45.0526 16.8604 45.6126 15.6204 45.4526 14.1204C45.4526 14.0704 45.4426 14.0204 45.4326 13.9804C44.8626 11.4604 41.6626 10.1104 38.8826 10.2304C37.4426 10.3004 36.2826 10.7904 35.5126 11.5604C36.8526 9.93039 37.8826 8.65039 38.6226 7.64039C38.9026 7.26039 38.9526 6.74039 38.7326 6.32039C38.5226 5.89039 38.0826 5.62039 37.6126 5.61039C34.0726 5.55039 26.6026 5.05039 24.5926 4.66039C24.1426 4.57039 23.6926 4.73039 23.3926 5.07039C21.8526 6.83039 20.4026 8.66039 18.9926 10.4404C18.3126 11.3004 17.6226 12.1704 16.9226 13.0304C16.9626 11.2804 17.0426 8.64039 17.1726 4.64039C17.1926 3.95039 16.6626 3.36039 15.9726 3.32039C13.9726 3.21039 11.1326 3.19039 8.38259 3.18039C6.99259 3.17039 5.65259 3.17039 4.52259 3.15039C3.83259 3.17039 3.2926 3.64039 3.2326 4.31039C1.6026 21.8704 1.03259 31.0704 0.692587 36.5704C0.462587 40.3404 0.322594 42.6104 0.0125943 44.8104C-0.0374057 45.1704 0.062593 45.5304 0.292593 45.8104C0.522593 46.0904 0.862601 46.2504 1.2226 46.2704C2.0326 46.3004 2.8526 46.3104 3.6726 46.3104C5.2426 46.3104 6.81259 46.2704 8.35259 46.2204C10.4226 46.1604 12.5626 46.1004 14.6226 46.1504C14.6326 46.1504 14.6426 46.1504 14.6526 46.1504C15.3326 46.1504 15.8926 45.6204 15.9226 44.9404L16.4926 34.5304C17.4026 36.8504 18.7026 40.1904 20.5626 44.9904C20.7526 45.4804 21.2226 45.8004 21.7526 45.8004C22.5926 45.8004 23.7426 45.8204 25.0126 45.8404C28.0826 45.8904 31.9026 45.9604 34.0326 45.7904C34.4426 45.7604 34.8026 45.5304 35.0226 45.1904C35.2326 44.8404 35.2726 44.4204 35.1226 44.0404L34.6926 42.9904C36.9826 43.5104 39.8626 43.7004 41.5826 43.7004C41.7326 43.7004 41.8726 43.7004 41.9926 43.7004C42.6526 43.6904 43.1926 43.1704 43.2426 42.5104C43.7126 35.9604 44.0526 31.2804 44.3126 27.9204L44.8226 31.0104C46.0326 38.3304 47.4026 46.6204 47.7726 48.6004C47.8826 49.2104 48.4126 49.6404 49.0226 49.6404C49.0526 49.6404 49.0926 49.6404 49.1226 49.6404C57.5326 48.9904 63.3026 46.7704 66.2426 43.0304C66.8926 42.2104 67.3826 41.3204 67.7426 40.3704C67.6926 41.1604 67.6626 41.7904 67.6426 42.1904C67.6126 42.8404 68.0826 43.4104 68.7226 43.5104C71.4926 43.9404 74.0326 44.1504 76.3426 44.1504C81.6726 44.1504 85.7826 43.0204 88.6226 40.7504C90.3526 39.3704 91.5626 37.5804 92.2726 35.4104C92.5626 40.6904 95.4326 44.9804 100.333 46.8804C102.183 47.6304 103.963 47.9704 105.643 47.9704C112.133 47.9704 117.183 42.9004 119.693 36.7804C119.923 36.0704 120.093 35.3704 120.233 34.6804L120.833 37.6004C120.953 38.1704 121.443 38.5904 122.033 38.6204C122.083 38.6204 122.133 38.6204 122.173 38.6204C121.393 39.3504 120.883 40.3204 121.033 41.4904C121.263 43.2504 122.903 43.7304 123.703 43.9704C123.803 44.0004 123.913 44.0204 124.023 44.0204C124.043 44.0204 124.063 44.0204 124.093 44.0204C124.493 44.0204 125.543 43.9504 125.713 43.9204C127.683 43.8504 129.153 43.0704 129.763 41.7804C130.233 40.7704 130.093 39.5604 129.383 38.6304ZM35.6826 16.4504C35.4226 16.4704 35.1826 16.5604 34.9726 16.7304C34.7026 16.9504 34.5226 17.2704 34.4926 17.6204C33.5626 29.0504 33.0926 35.2204 32.8626 38.5504L26.3426 22.5404C28.1826 20.3204 29.8126 18.3704 31.2626 16.6404C32.7426 14.8704 33.9926 13.3704 35.0726 12.0604C34.7626 12.5104 34.5526 13.0304 34.4826 13.6204C34.3626 14.6504 34.7826 15.6304 35.6826 16.4504ZM55.3626 29.7904C57.2126 30.1404 58.4626 31.9804 58.8026 33.9204C59.1226 35.7304 58.6826 37.8104 56.6926 38.8004L55.3626 29.7904ZM83.1426 29.2304C83.0326 31.2604 81.9626 33.5504 79.3926 34.0704L80.2526 23.7504C82.3126 24.5504 83.2726 26.9504 83.1426 29.2304ZM105.283 36.0804C104.313 35.7504 103.733 35.2504 103.513 34.5504C103.293 33.8604 103.383 32.9204 103.793 31.7004C104.103 30.5604 104.723 29.6904 105.563 29.2504C105.973 29.0304 106.423 28.9204 106.893 28.9204C107.253 28.9204 107.633 28.9804 108.013 29.1204C108.653 29.3404 110.603 30.0004 109.373 33.6504C109.013 34.6804 107.913 36.9704 105.283 36.0804Z" fill="#E88900"/>
<path d="M129.383 35.48C129.033 35.02 128.573 34.65 128.033 34.4C128.573 34.15 128.883 33.55 128.743 32.96C128.543 32.09 128.003 27.58 127.473 23.22C126.833 17.95 126.183 12.5 125.823 10.77C125.693 10.14 125.123 9.71 124.493 9.75L117.343 10.23C116.973 10.25 116.633 10.44 116.413 10.73C116.193 11.02 116.103 11.4 116.183 11.76L117.993 20.58C117.723 20.22 117.453 19.85 117.143 19.51C113.793 15.83 108.483 14.16 103.623 15.26C98.5726 16.4 94.8326 20.17 93.0926 25.87C93.0626 25.96 93.0426 26.05 93.0226 26.15C92.9426 20.87 91.3426 16.74 88.2326 13.86C84.3026 10.22 78.1826 8.9 70.5526 10.03C69.9626 10.12 69.5026 10.61 69.4626 11.21L68.9126 19.49C68.6626 23.22 68.4026 27.18 68.1726 30.59C67.1726 24.92 64.7426 20.94 60.9326 18.78C56.7526 16.41 51.1726 16.47 44.7826 18.92C44.9626 16.88 45.0326 16.25 45.0826 15.88C45.1626 15.19 44.6826 14.57 43.9926 14.47L43.8626 14.45C45.0526 13.71 45.6126 12.47 45.4526 10.97C45.4526 10.92 45.4426 10.87 45.4326 10.83C44.8626 8.31 41.6626 6.96 38.8826 7.08C37.4426 7.15 36.2826 7.64 35.5126 8.41C36.8526 6.78 37.8826 5.5 38.6226 4.49C38.9026 4.11 38.9526 3.59 38.7326 3.17C38.5226 2.74 38.0826 2.47 37.6126 2.46C34.0726 2.4 26.6026 1.9 24.5926 1.51C24.1426 1.42 23.6926 1.58 23.3926 1.92C21.8526 3.68 20.4026 5.51 18.9926 7.29C18.3126 8.15 17.6226 9.02 16.9226 9.88C16.9626 8.13 17.0426 5.49 17.1726 1.49C17.1926 0.8 16.6626 0.21 15.9726 0.17C13.9726 0.0600001 11.1326 0.0400002 8.38259 0.0300002C6.99259 0.0200002 5.65259 0.02 4.52259 0C3.83259 0.02 3.2926 0.49 3.2326 1.16C1.6026 18.72 1.03259 27.92 0.692587 33.42C0.462587 37.19 0.322594 39.46 0.0125943 41.66C-0.0374057 42.02 0.062593 42.38 0.292593 42.66C0.522593 42.94 0.862601 43.1 1.2226 43.12C2.0326 43.15 2.8526 43.16 3.6726 43.16C5.2426 43.16 6.81259 43.12 8.35259 43.07C10.4226 43.01 12.5626 42.95 14.6226 43C14.6326 43 14.6426 43 14.6526 43C15.3326 43 15.8926 42.47 15.9226 41.79L16.4926 31.38C17.4026 33.7 18.7026 37.04 20.5626 41.84C20.7526 42.33 21.2226 42.65 21.7526 42.65C22.5926 42.65 23.7426 42.67 25.0126 42.69C28.0826 42.74 31.9026 42.81 34.0326 42.64C34.4426 42.61 34.8026 42.38 35.0226 42.04C35.2326 41.69 35.2726 41.27 35.1226 40.89L34.6926 39.84C36.9826 40.36 39.8626 40.55 41.5826 40.55C41.7326 40.55 41.8726 40.55 41.9926 40.55C42.6526 40.54 43.1926 40.02 43.2426 39.36C43.7126 32.81 44.0526 28.13 44.3126 24.77L44.8226 27.86C46.0326 35.18 47.4026 43.47 47.7726 45.45C47.8826 46.06 48.4126 46.49 49.0226 46.49C49.0526 46.49 49.0926 46.49 49.1226 46.49C57.5326 45.84 63.3026 43.62 66.2426 39.88C66.8926 39.06 67.3826 38.17 67.7426 37.22C67.6926 38.01 67.6626 38.64 67.6426 39.04C67.6126 39.69 68.0826 40.26 68.7226 40.36C71.4926 40.79 74.0326 41 76.3426 41C81.6726 41 85.7826 39.87 88.6226 37.6C90.3526 36.22 91.5626 34.43 92.2726 32.26C92.5626 37.54 95.4326 41.83 100.333 43.73C102.183 44.48 103.963 44.82 105.643 44.82C112.133 44.82 117.183 39.75 119.693 33.63C119.923 32.92 120.093 32.22 120.233 31.53L120.833 34.45C120.953 35.02 121.443 35.44 122.033 35.47C122.083 35.47 122.133 35.47 122.173 35.47C121.393 36.2 120.883 37.17 121.033 38.34C121.263 40.1 122.903 40.58 123.703 40.82C123.803 40.85 123.913 40.87 124.023 40.87C124.043 40.87 124.063 40.87 124.093 40.87C124.493 40.87 125.543 40.8 125.713 40.77C127.683 40.7 129.153 39.92 129.763 38.63C130.233 37.62 130.093 36.41 129.383 35.48ZM35.6826 13.3C35.4226 13.32 35.1826 13.41 34.9726 13.58C34.7026 13.8 34.5226 14.12 34.4926 14.47C33.5626 25.9 33.0926 32.07 32.8626 35.4L26.3426 19.39C28.1826 17.17 29.8126 15.22 31.2626 13.49C32.7426 11.72 33.9926 10.22 35.0726 8.91C34.7626 9.36 34.5526 9.88 34.4826 10.47C34.3626 11.51 34.7826 12.49 35.6826 13.3ZM55.3626 26.64C57.2126 27 58.4626 28.82 58.8026 30.77C59.1226 32.58 58.6826 34.66 56.6926 35.65L55.3626 26.64ZM83.1426 26.08C83.0326 28.11 81.9626 30.4 79.3926 30.92L80.2526 20.6C82.3126 21.41 83.2726 23.8 83.1426 26.08ZM105.283 32.94C104.313 32.61 103.733 32.11 103.513 31.41C103.293 30.72 103.383 29.78 103.793 28.56C104.103 27.42 104.723 26.55 105.563 26.11C105.973 25.89 106.423 25.78 106.893 25.78C107.253 25.78 107.633 25.84 108.013 25.98C108.653 26.2 110.603 26.86 109.373 30.51C109.013 31.53 107.913 33.83 105.283 32.94Z" fill="#FFB000"/>
<path d="M4.48293 1.25977C7.81293 1.31977 12.8929 1.25977 15.8829 1.42977C15.4729 13.5598 15.5929 13.4498 15.6029 13.3898C18.6429 9.91977 21.2929 6.20977 24.3329 2.73977C26.4429 3.13977 33.9729 3.64977 37.5729 3.70977C35.6029 6.38977 31.5329 11.1198 24.8729 19.1498L33.9229 41.3598C30.9829 41.5898 24.5929 41.3598 21.7429 41.3598C15.6229 25.5798 15.5229 25.5198 15.5229 25.5198L14.6329 41.6998C10.2229 41.5898 5.64293 41.9898 1.25293 41.8198C2.04293 36.2898 1.73293 30.8198 4.48293 1.25977Z" fill="#FFD400"/>
<path d="M44.1734 11.1093C44.6734 15.7993 35.3634 13.8093 35.7534 10.6293C36.1934 7.06929 43.4734 8.00929 44.1734 11.1093ZM33.9834 38.0393C34.0534 36.8593 34.3134 32.5193 35.7734 14.5693L43.8034 15.7193C43.7934 15.7593 43.7934 15.7593 43.7934 15.7993C43.6934 16.6393 43.3934 19.0593 41.9634 39.2593C39.8734 39.2993 36.1734 39.0193 33.9434 38.3193C33.9534 38.2493 33.9634 38.1693 33.9834 38.0393Z" fill="#FFD400"/>
<path d="M44.843 20.2399C56.163 15.7499 65.013 18.9299 66.993 31.2399C68.633 41.4399 58.243 44.4999 49.023 45.2099C48.493 42.4699 46.003 27.2199 44.843 20.2399ZM55.653 37.3299C63.193 35.8099 60.353 24.4099 53.963 25.3599L53.883 25.3699L55.653 37.3299Z" fill="#FFD400"/>
<path d="M70.7229 11.2898C83.9729 9.31978 92.6429 14.9598 91.6729 28.6298C90.8729 39.9598 78.9729 40.6298 68.9229 39.0698C69.0529 36.0098 70.2129 19.0598 70.7229 11.2898ZM78.0029 32.3098C86.4629 32.5698 86.2828 19.6598 79.1928 19.0698L79.1129 19.0598L78.0029 32.3098Z" fill="#FFD400"/>
<path d="M94.303 26.2397C99.713 8.52971 123.943 16.3897 118.463 33.2297C115.423 40.6397 108.903 45.8197 100.803 42.5397C94.093 39.9397 92.223 33.0897 94.303 26.2397ZM104.873 34.1497C107.623 35.0797 109.693 33.5197 110.573 30.9197C111.253 28.9297 111.603 25.8597 108.413 24.7797C105.733 23.8697 103.313 25.3897 102.553 28.2397C101.663 30.8397 101.973 33.1597 104.873 34.1497Z" fill="#FFD400"/>
<path d="M117.423 11.4995L124.573 11.0195C125.223 14.2095 127.043 31.2595 127.503 33.2395C126.063 33.7395 124.283 34.2795 122.073 34.1895L117.423 11.4995ZM122.283 38.1695C122.093 36.6895 123.873 35.5695 125.183 35.3195C129.253 34.5895 130.423 39.3395 125.653 39.4995C125.383 39.5295 124.283 39.5995 124.043 39.5995C123.333 39.3795 122.413 39.1195 122.283 38.1695Z" fill="#FFD400"/>
<g opacity="0.5">
<path d="M20.7727 23.1796C14.7827 20.7896 9.06269 20.3896 2.85269 20.3496C1.82269 33.7596 1.8327 37.7796 1.2627 41.8196C5.6627 41.9896 10.2427 41.5896 14.6427 41.6996L15.5327 25.5196C15.5327 25.5196 15.6327 25.5796 21.7527 41.3596C24.6127 41.3596 30.9927 41.5896 33.9327 41.3596L27.8827 26.4996C25.5427 25.3096 23.1927 24.1496 20.7727 23.1796Z" fill="#FFD400"/>
<path d="M39.8724 31.8393C38.0524 31.2693 36.2924 30.5593 34.5624 29.7793C34.1324 35.3793 34.0224 37.3093 33.9824 38.0393C33.9624 38.1693 33.9524 38.2493 33.9424 38.3293C36.1724 39.0293 39.8724 39.3093 41.9624 39.2693C42.1424 36.7693 42.3024 34.5393 42.4424 32.5593C41.5824 32.3393 40.7324 32.1093 39.8724 31.8393Z" fill="#FFD400"/>
<path d="M59.8222 33.8493C59.2522 35.4993 57.9322 36.8693 55.6522 37.3293L55.1722 34.0593C52.4622 34.0693 49.7522 33.8893 47.0322 33.4693C47.9222 38.8293 48.7422 43.7693 49.0122 45.2093C57.7522 44.5393 67.5222 41.7393 67.1322 32.7793C64.7122 33.2793 62.2722 33.6393 59.8222 33.8493Z" fill="#FFD400"/>
<path d="M84.2723 27.2602C83.7223 30.0402 81.6823 32.4302 77.9923 32.3102L78.2123 29.6402C75.2823 30.6902 72.3123 31.5802 69.3123 32.3002C69.1023 35.5302 68.9423 38.0702 68.9023 39.0902C78.9523 40.6502 90.8523 39.9702 91.6523 28.6502C91.7623 27.1302 91.7324 25.7302 91.6124 24.4102C89.1224 25.1902 86.6723 26.2402 84.2723 27.2602Z" fill="#FFD400"/>
<path d="M117.133 28.7892C114.833 28.0592 112.553 26.9992 110.253 25.9892C111.383 27.3992 111.063 29.4492 110.563 30.9092C109.673 33.5192 107.613 35.0792 104.863 34.1392C101.963 33.1592 101.663 30.8292 102.543 28.2292C103.143 26.0192 104.733 24.6192 106.673 24.5292C104.853 23.8592 103.023 23.3292 101.133 23.1392C99.1927 22.9492 97.2927 23.0792 95.4127 23.4292C94.9827 24.2892 94.6027 25.2192 94.2827 26.2492C92.2027 33.0992 94.0727 39.9492 100.783 42.5492C108.883 45.8192 115.403 40.6492 118.443 33.2392C118.883 31.8992 119.113 30.6192 119.193 29.3992C118.523 29.1992 117.833 29.0092 117.133 28.7892Z" fill="#FFD400"/>
<path d="M127.123 30.7791C125.163 30.6291 123.183 30.3091 121.183 29.8691L122.073 34.1891C124.283 34.2791 126.063 33.7391 127.503 33.2391C127.413 32.8691 127.283 31.9891 127.123 30.7791Z" fill="#FFD400"/>
<path d="M125.183 35.3194C123.863 35.5694 122.083 36.6894 122.283 38.1694C122.403 39.1194 123.333 39.3794 124.053 39.5994C124.283 39.6094 125.393 39.5394 125.663 39.4994C130.423 39.3394 129.263 34.5894 125.183 35.3194Z" fill="#FFD400"/>
</g>
<path d="M15.6024 13.3C15.5824 14.86 15.6124 14.82 15.6224 14.79C18.6624 11.32 21.3124 7.61 24.3524 4.14C26.2724 4.5 32.7024 4.96 36.5524 5.08C36.9424 4.58 37.2924 4.13 37.5924 3.72C33.9924 3.66 26.4524 3.15 24.3524 2.75C21.3124 6.22 18.6624 9.93 15.6224 13.4C15.6124 13.43 15.6024 13.43 15.6024 13.3Z" fill="white"/>
<path d="M4.4827 2.66027C7.8027 2.72027 12.8427 2.66027 15.8427 2.83027C15.8527 2.38027 15.8727 1.94027 15.8927 1.45027C12.8927 1.28027 7.82269 1.34027 4.49269 1.28027C1.74269 30.8403 2.0427 36.3103 1.2627 41.8403C1.3227 41.8403 1.38269 41.8403 1.43269 41.8403C2.01269 36.6303 1.9627 29.7903 4.4827 2.66027Z" fill="white"/>
<path d="M24.8828 20.5506L33.3828 41.4206C33.5728 41.4106 33.7628 41.4006 33.9328 41.3906L25.2628 20.1006C25.1328 20.2506 25.0128 20.3906 24.8828 20.5506Z" fill="white"/>
<path d="M44.0626 12.1903C44.1626 11.8703 44.2126 11.5203 44.1726 11.1003C43.4726 8.00031 36.1926 7.07031 35.7526 10.6203C35.7126 10.9103 35.7826 11.1803 35.8926 11.4503C36.9626 8.67031 43.0426 9.50031 44.0626 12.1903Z" fill="white"/>
<path d="M39.7126 15.1403L35.7726 14.5703C34.3026 32.5203 34.0426 36.8603 33.9826 38.0403C33.9626 38.1703 33.9526 38.2503 33.9426 38.3303C33.9726 38.3403 34.0126 38.3503 34.0426 38.3603C34.1826 36.1403 34.5826 30.5503 35.7726 15.9603L43.6526 17.0903C43.7226 16.3603 43.7626 16.0303 43.7926 15.8103C43.8026 15.7703 43.8026 15.7703 43.8026 15.7303L40.2526 15.2203C40.0726 15.2003 39.8926 15.1703 39.7126 15.1403Z" fill="white"/>
<path d="M66.9925 32.6301C67.0625 33.0901 67.0925 33.5101 67.1125 33.9401C67.1625 33.1001 67.1425 32.2101 66.9925 31.2501C65.0125 18.9401 56.1725 15.7501 44.8425 20.2501C44.9125 20.6601 44.9825 21.1001 45.0625 21.5501C56.2825 17.1801 65.0225 20.4001 66.9925 32.6301Z" fill="white"/>
<path d="M55.6528 38.7102C59.1028 38.0102 60.3628 35.2502 60.1228 32.5502C59.8728 34.7502 58.5128 36.7502 55.6528 37.3302L54.0828 26.7402C54.0428 26.7502 54.0028 26.7402 53.9528 26.7402L53.8728 26.7502L55.6528 38.7102Z" fill="white"/>
<path d="M70.7229 12.6806C82.9929 10.8606 91.3228 15.5706 91.7128 27.1306C91.9428 14.5606 83.4629 9.40062 70.7229 11.3006C70.2129 19.0706 69.0529 36.0206 68.9229 39.0906C68.9429 39.0906 68.9728 39.1006 68.9928 39.1006C69.2828 33.9906 70.2629 19.6406 70.7229 12.6806Z" fill="white"/>
<path d="M84.3932 26.3711C84.1332 29.4711 82.1032 32.3711 78.1132 32.3011L77.9932 33.6811C82.6632 33.8311 84.6932 29.9711 84.3932 26.3711Z" fill="white"/>
<path d="M94.3022 27.6196C99.0822 11.9596 118.552 16.2896 119.232 29.1396C119.942 15.2396 99.2522 10.0296 94.3022 26.2396C93.6922 28.2396 93.4322 30.2296 93.5222 32.1196C93.5822 30.6496 93.8422 29.1396 94.3022 27.6196Z" fill="white"/>
<path d="M104.872 35.5294C107.622 36.4594 109.692 34.8994 110.572 32.2994C110.882 31.3794 111.122 30.2294 110.982 29.1494C110.912 29.7794 110.752 30.3894 110.572 30.9194C109.682 33.5294 107.622 35.0894 104.872 34.1494C103.162 33.5694 102.372 32.5194 102.182 31.2194C101.922 33.1394 102.582 34.7494 104.872 35.5294Z" fill="white"/>
<path d="M125.183 35.3191C123.863 35.5691 122.083 36.6891 122.283 38.1691C122.303 38.3391 122.363 38.4891 122.433 38.6191C122.873 37.6191 124.163 36.8891 125.183 36.6991C126.963 36.3791 128.193 37.1091 128.603 38.0491C129.223 36.6591 127.823 34.8491 125.183 35.3191Z" fill="white"/>
<path d="M124.573 12.3995C125.143 15.2095 126.623 28.7595 127.283 33.3095C127.353 33.2895 127.433 33.2595 127.503 33.2395C127.043 31.2495 125.223 14.2095 124.573 11.0195L117.423 11.4995L117.703 12.8595L124.573 12.3995Z" fill="white"/>
<path d="M109.1 59.3C109.63 59.3 110.139 59.0893 110.514 58.7142C110.889 58.3391 111.1 57.8304 111.1 57.3C111.1 56.7696 110.889 56.2609 110.514 55.8858C110.139 55.5107 109.63 55.3 109.1 55.3C108.57 55.3 108.061 55.5107 107.686 55.8858C107.311 56.2609 107.1 56.7696 107.1 57.3C107.1 57.8304 107.311 58.3391 107.686 58.7142C108.061 59.0893 108.57 59.3 109.1 59.3ZM10.7 8.4C11.1509 8.4 11.5833 8.22089 11.9021 7.90208C12.2209 7.58327 12.4 7.15087 12.4 6.7C12.4 6.24913 12.2209 5.81673 11.9021 5.49792C11.5833 5.17911 11.1509 5 10.7 5C10.2491 5 9.81673 5.17911 9.49792 5.49792C9.17911 5.81673 9 6.24913 9 6.7C9 7.15087 9.17911 7.58327 9.49792 7.90208C9.81673 8.22089 10.2491 8.4 10.7 8.4Z" fill="#FFD400"/>
<path d="M22.4244 28.0444C21.9584 27.4604 21.0244 27.3444 20.5584 27.9274C20.0914 28.2774 19.8584 28.9774 20.0914 29.5604C20.2084 29.7934 20.4414 30.0274 20.6754 30.1444C21.1414 30.4944 21.7254 30.4944 22.1914 30.1444C22.4996 29.896 22.6971 29.536 22.7409 29.1426C22.7847 28.7492 22.6703 28.3545 22.4244 28.0444Z" fill="#DA942B"/>
<path d="M21.2584 28.0447C21.1414 27.9287 21.1414 27.9287 21.0254 27.9287C20.9084 27.9287 20.7914 27.9287 20.7914 28.0447L20.5584 28.2787C20.4414 28.3947 20.4414 28.3947 20.4414 28.5117C20.4414 28.6287 20.4414 28.7447 20.5584 28.7447C20.6754 28.8617 20.6754 28.8617 20.7914 28.8617C20.9084 28.8617 21.0254 28.8617 21.0254 28.7447C21.1414 28.7447 21.1414 28.6287 21.2584 28.5117C21.3754 28.3947 21.3754 28.3947 21.3754 28.2787C21.3754 28.1617 21.2584 28.0447 21.2584 28.0447Z" fill="#FFA8B5"/>
<path d="M112.725 8.2112C112.259 7.8612 111.675 7.9782 111.209 8.3282C110.626 8.6782 110.159 9.1452 109.926 9.8452C109.809 10.2251 109.809 10.6313 109.926 11.0112C110.042 11.3612 110.393 11.4782 110.859 11.5952C111.676 11.7112 112.492 11.2452 112.959 10.5452C113.309 9.8452 113.425 8.6782 112.725 8.2112Z" fill="#DA942B"/>
<path d="M111.792 8.67831C111.792 8.56131 111.675 8.56131 111.558 8.44531H111.208C111.092 8.44531 111.092 8.56131 110.975 8.56131C110.858 8.56131 110.858 8.67831 110.742 8.79531V9.14531C110.742 9.26131 110.858 9.26131 110.975 9.37831H111.325C111.442 9.37831 111.442 9.26131 111.558 9.26131C111.675 9.26131 111.675 9.14531 111.792 9.02831V8.67831Z" fill="#FFA8B5"/>
<path d="M111.792 32.0106C111.442 31.3106 110.742 31.3106 110.276 31.6606C109.926 31.8936 109.692 32.1276 109.576 32.4776C109.459 32.9436 109.692 33.4106 110.159 33.5276C110.976 33.7606 112.259 32.9436 111.792 32.0106Z" fill="#DA942B"/>
<path d="M110.975 32.0111C110.971 31.9506 110.945 31.8935 110.902 31.8504C110.859 31.8074 110.802 31.7814 110.742 31.7771C110.625 31.7771 110.509 31.6611 110.392 31.7771C110.275 31.7771 110.158 31.8941 110.042 32.0111C109.925 32.1271 109.925 32.1271 109.925 32.2441C109.925 32.3611 109.925 32.4771 110.042 32.4771C110.159 32.5941 110.159 32.5941 110.275 32.5941C110.392 32.5941 110.509 32.5941 110.509 32.4771C110.625 32.4771 110.625 32.3611 110.742 32.3611C110.975 32.1271 111.092 32.0111 110.975 32.0111Z" fill="#FFA8B5"/>
<path d="M51.2411 36.211V36.095C50.8911 35.278 49.7251 35.278 49.2581 35.978C49.2581 36.095 49.1411 36.211 49.1411 36.328C48.7911 36.911 48.6751 37.495 49.0251 38.195C49.4911 39.011 50.5411 38.895 51.1251 38.311C51.5911 37.728 51.7081 36.795 51.2411 36.211Z" fill="#DA942B"/>
<path d="M50.3082 36.0941C50.3082 35.9781 50.1922 35.9781 50.1922 35.8611C50.0752 35.8611 50.0752 35.7441 49.9582 35.7441C49.8422 35.7441 49.7252 35.7441 49.7252 35.8611L49.6082 35.9781C49.4922 36.0951 49.4922 36.0951 49.4922 36.2111V36.3281C49.4962 36.3886 49.522 36.4456 49.5649 36.4885C49.6077 36.5313 49.6647 36.5572 49.7252 36.5611C49.8422 36.5611 49.9582 36.6781 50.0752 36.5611H50.1922C50.3082 36.5611 50.3082 36.4451 50.3082 36.4451C50.3082 36.3281 50.4252 36.3281 50.4252 36.2111V36.0941C50.3082 36.2111 50.3082 36.0941 50.3082 36.0941Z" fill="#FFA8B5"/>
<path d="M98.6335 49.5609C98.402 49.2036 98.0023 48.8824 97.4708 48.6267C96.9393 48.3709 96.2932 48.1889 95.5917 48.0972C91.9664 47.6089 88.9246 49.0726 86.0011 49.9875C82.843 50.9634 79.2167 51.6341 75.4741 51.6341C68.6897 51.5123 63.3089 48.4631 56.4082 48.7067C53.0165 48.829 49.9747 49.6827 46.8166 50.2927C45.2967 50.5975 43.6585 50.9023 41.904 50.9634C39.9159 51.0852 38.0441 50.9023 36.1733 50.5975C32.6643 50.1098 29.1553 49.3168 25.4117 49.195C22.0201 49.1338 18.7447 49.6827 16.8739 51.2075C16.4057 51.5123 16.1721 51.8782 15.9375 52.2442C14.7685 53.5249 14.6512 55.0498 15.8212 56.2693C17.3411 57.8548 20.6165 58.6478 23.7746 59.0138C27.5171 59.4408 31.4943 59.3797 35.1206 58.7696C38.5123 58.2207 41.6704 57.1841 45.2967 56.8794C47.2848 56.6964 49.2729 56.8794 51.1447 57.1841L56.7591 58.0989C60.5017 58.7696 64.2453 59.5626 67.8706 60.4775C69.6251 60.9045 71.3796 61.3923 73.2514 61.697C74.8886 62.0023 76.7604 62.063 78.5149 61.9411C85.2993 61.5752 91.2646 59.0749 95.0072 56.2082C95.9426 55.4763 96.6444 54.7445 97.3462 53.952C97.9317 53.2201 98.5162 52.4271 98.7498 51.6341C99.1007 51.0246 99.1007 50.2316 98.6335 49.5609Z" fill="#3FDDC7"/>
<path d="M20.4892 50.335C20.4892 50.1459 20.1369 50.0199 19.7846 50.0832H19.5501C18.8455 50.3356 18.2577 50.7139 18.0232 51.0922C17.9054 51.2813 18.2577 51.4073 18.61 51.344C19.08 51.2181 19.4323 51.029 19.9024 50.903C20.1369 50.7766 20.4892 50.5869 20.4892 50.335ZM80.4962 61.2434C80.1439 60.9283 79.3216 61.1175 78.8515 61.1801C78.4992 61.2434 78.1469 61.3066 77.9124 61.3693C77.6779 61.4325 77.3246 61.4958 77.2078 61.6849V61.7482C77.2078 61.8108 77.3256 61.8741 77.3256 61.8741C77.5601 62 78.0302 62 78.3825 62C78.617 62 78.8515 61.9368 79.0871 61.8741H79.3216C79.7906 61.8108 80.1429 61.6849 80.4952 61.4958C80.4952 61.4325 80.614 61.3066 80.4962 61.2434ZM94 48.1916C93.7655 47.7506 92.2385 48.1916 91.7685 48.3181C91.4162 48.444 91.0639 48.5699 90.9472 48.7591C90.9472 49.0115 91.2994 49.0747 91.6517 49.0747C92.1208 49.0115 92.5908 48.9482 93.0609 48.8223C93.4132 48.7591 93.7655 48.6332 93.8822 48.444C94 48.444 94 48.3181 94 48.1916ZM53.1344 49.0115C52.8998 48.9482 52.6653 48.9482 52.5476 49.0115C52.313 49.0115 52.1953 49.0747 51.9607 49.1374C51.4907 49.2639 51.1384 49.3898 50.6683 49.5789C50.4338 49.7049 50.5516 49.894 50.7861 49.9573C50.9039 50.0205 51.1384 50.0205 51.2562 49.9573C51.9607 49.894 52.7821 49.7681 53.2521 49.453C53.6044 49.3266 53.4867 49.1374 53.1344 49.0115Z" fill="#FFA8B5"/>
</svg>
