<svg width="1330" height="223" viewBox="0 0 1330 223" fill="none" xmlns="http://www.w3.org/2000/svg">
<path d="M1330 0H0V223H1330V0Z" fill="url(#paint0_linear_9069_187)"/>
<mask id="mask0_9069_187" style="mask-type:alpha" maskUnits="userSpaceOnUse" x="0" y="0" width="1330" height="223">
<path d="M1330 0H0V223H1330V0Z" fill="url(#paint1_linear_9069_187)"/>
</mask>
<g mask="url(#mask0_9069_187)">
<g style="mix-blend-mode:screen" opacity="0.2">
<path fill-rule="evenodd" clip-rule="evenodd" d="M1024 0.00389972C1024 0.00389972 1025.29 32.5295 1069.89 40.5725C1114.49 48.6155 1157.06 10.5365 1219.58 29.5762C1282.1 48.6158 1296.93 118.092 1393.34 105.48C1489.75 92.868 1512 0 1512 0L1024 0.00389972Z" fill="white"/>
</g>
<g style="mix-blend-mode:screen" opacity="0.2">
<path fill-rule="evenodd" clip-rule="evenodd" d="M609.998 222.31C609.998 222.31 514.947 251.862 416.152 211.967C317.358 172.072 200.869 150.097 91.7501 222.406C-17.3687 294.715 26.8695 540 26.8695 540H610V222.31H609.998Z" fill="white"/>
</g>
<path d="M1159 271V255.234C1159 237.754 1177.94 226.455 1193.15 235.15C1195.13 236.282 1196.69 237.59 1197.63 239.062C1197.79 231.008 1200.73 222.898 1206.35 217.174C1211.96 211.454 1220.32 208.378 1228.16 209.858C1235.75 211.29 1242.48 217.264 1244.32 224.815C1243.2 219.622 1243.04 214.098 1244.9 209.143C1246.85 203.95 1251.34 199.515 1256.78 198.742C1262.22 197.969 1268.24 201.647 1269.16 207.125C1268.68 201.151 1269.4 194.927 1272.29 189.695C1275.17 184.46 1280.45 180.372 1286.36 179.954C1292.28 179.536 1298.5 183.398 1299.94 189.211C1299.24 179.497 1307.2 169.986 1316.79 169.073C1326.39 168.159 1335.97 175.995 1337.08 185.666L1341 187.165C1337.24 211.025 1336.15 246.918 1338.06 271H1159Z" fill="url(#paint2_linear_9069_187)"/>
<path d="M82 229V219.881C82 209.77 71.0706 203.234 62.2982 208.263C61.1576 208.918 60.2565 209.675 59.7144 210.526C59.6218 205.867 57.9233 201.176 54.6845 197.866C51.4457 194.557 46.6213 192.777 42.1018 193.633C37.7224 194.462 33.8399 197.918 32.7761 202.285C33.4221 199.282 33.5169 196.086 32.4418 193.22C31.317 190.216 28.7287 187.651 25.5892 187.204C22.4498 186.756 18.9783 188.884 18.4453 192.052C18.7253 188.597 18.3053 184.997 16.6429 181.971C14.9783 178.942 11.9315 176.578 8.521 176.336C5.11052 176.095 1.51935 178.328 0.690445 181.691C1.09248 176.072 -3.50152 170.57 -9.03508 170.042C-14.5686 169.514 -20.0977 174.046 -20.7391 179.64L-23 180.507C-20.8317 194.309 -20.1993 215.07 -21.3038 229H82Z" fill="url(#paint3_linear_9069_187)"/>
<path d="M460.228 266.059L468.898 222.602C477.433 200.791 507.164 196.167 522.354 214.622C524.328 217.024 525.686 219.437 526.168 221.744C530.306 211.773 538.029 203.127 547.999 198.793C557.968 194.464 570.158 194.807 579.449 200.572C588.452 206.156 594.136 216.976 592.806 227.321C593.911 220.281 596.398 213.305 601.199 208.055C606.227 202.55 614.127 199.26 621.46 201.017C628.793 202.774 634.688 210.373 633.194 217.67C635.49 209.974 639.46 202.572 645.697 197.485C651.942 192.395 660.688 189.936 668.448 192.371C676.208 194.807 682.279 202.738 681.276 210.711C685.129 198.241 699.951 190.356 712.657 194.014C725.362 197.671 733.786 212.242 730.485 224.866L774.876 276.237L726.208 340.501C709.754 368.393 737.331 304.866 728.019 335.873L460.228 266.059Z" fill="url(#paint4_linear_9069_187)"/>
</g>
<defs>
<linearGradient id="paint0_linear_9069_187" x1="665" y1="0" x2="665" y2="223" gradientUnits="userSpaceOnUse">
<stop stop-color="#00BBAE"/>
<stop offset="1" stop-color="#0B837A"/>
</linearGradient>
<linearGradient id="paint1_linear_9069_187" x1="665" y1="0" x2="665" y2="223" gradientUnits="userSpaceOnUse">
<stop stop-color="#00BBAE"/>
<stop offset="1" stop-color="#0B837A"/>
</linearGradient>
<linearGradient id="paint2_linear_9069_187" x1="1247.96" y1="-10.6009" x2="1247.96" y2="273.856" gradientUnits="userSpaceOnUse">
<stop offset="0.01" stop-color="white"/>
<stop offset="0.9969" stop-color="white" stop-opacity="0"/>
</linearGradient>
<linearGradient id="paint3_linear_9069_187" x1="30.6756" y1="66.1132" x2="30.6756" y2="230.652" gradientUnits="userSpaceOnUse">
<stop offset="0.01" stop-color="white"/>
<stop offset="0.9969" stop-color="white" stop-opacity="0"/>
</linearGradient>
<linearGradient id="paint4_linear_9069_187" x1="712.409" y1="-64.6092" x2="573.515" y2="290.334" gradientUnits="userSpaceOnUse">
<stop offset="0.01" stop-color="white"/>
<stop offset="0.9969" stop-color="white" stop-opacity="0"/>
</linearGradient>
</defs>
</svg>
