<svg width="1920" height="669" viewBox="0 0 1920 669" fill="none" xmlns="http://www.w3.org/2000/svg">
<path d="M1920 0H0V669H1920V0Z" fill="#103741"/>
<mask id="mask0_9548_5751" style="mask-type:alpha" maskUnits="userSpaceOnUse" x="0" y="0" width="1920" height="669">
<path d="M1920 0H0V669H1920V0Z" fill="url(#paint0_linear_9548_5751)"/>
</mask>
<g mask="url(#mask0_9548_5751)">
<g opacity="0.2">
<path d="M1097 746.246V705.866C1097 661.096 1186.71 632.156 1258.72 654.426C1268.08 657.326 1275.48 660.676 1279.93 664.446C1280.69 643.816 1294.63 623.046 1321.21 608.386C1347.8 593.736 1387.4 585.856 1424.5 589.646C1460.45 593.316 1492.32 608.616 1501.05 627.956C1495.75 614.656 1494.97 600.506 1503.79 587.816C1513.03 574.516 1534.27 563.156 1560.04 561.176C1585.81 559.196 1614.31 568.616 1618.68 582.646C1616.38 567.346 1619.83 551.406 1633.48 538.006C1647.14 524.596 1672.15 514.126 1700.15 513.056C1728.14 511.986 1757.62 521.876 1764.42 536.766C1761.12 511.886 1798.83 487.526 1844.26 485.186C1889.68 482.846 1935.06 502.916 1940.33 527.686L1958.89 531.526C1941.09 592.636 1935.9 684.566 1944.96 746.246H1097Z" fill="url(#paint1_linear_9548_5751)"/>
<path d="M778 732.848V697.94C778 659.236 690.149 634.217 619.635 653.47C610.467 655.977 603.223 658.873 598.866 662.132C598.122 644.297 584.469 626.341 558.435 613.668C532.401 601.003 493.623 594.19 457.295 597.467C422.092 600.64 390.884 613.867 382.333 630.586C387.526 619.088 388.288 606.855 379.647 595.885C370.605 584.387 349.8 574.566 324.565 572.854C299.329 571.143 271.426 579.286 267.141 591.415C269.392 578.188 266.015 564.408 252.653 552.824C239.273 541.231 214.782 532.179 187.369 531.254C159.955 530.329 131.089 538.879 124.426 551.752C127.657 530.243 90.7304 509.184 46.251 507.161C1.77167 505.138 -42.6714 522.488 -47.8273 543.902L-66.0004 547.222C-48.5717 600.052 -43.4883 679.526 -52.366 732.848H778Z" fill="url(#paint2_linear_9548_5751)"/>
<path d="M1197.08 656.283L1182.36 618.679C1166.05 576.988 1110.44 567.671 1082.39 602.563C1078.74 607.104 1076.25 611.678 1075.38 616.063C1067.48 597.001 1052.91 580.4 1034.22 571.973C1015.52 563.556 992.762 564.002 975.509 574.823C958.789 585.306 948.357 605.818 951.018 625.545C948.835 612.117 944.07 598.787 935.013 588.704C925.528 578.134 910.717 571.731 897.051 574.952C883.385 578.174 872.505 592.547 875.42 606.472C870.999 591.772 863.458 577.606 851.721 567.809C839.971 558.007 823.594 553.173 809.142 557.679C794.69 562.185 783.488 577.189 785.496 592.393C778.087 568.575 750.269 553.302 726.601 560.051C702.933 566.8 687.449 594.41 693.831 618.512L703.798 838.844C735.007 892.254 682.413 770.776 700.336 829.997L1197.08 656.283Z" fill="url(#paint3_linear_9548_5751)"/>
</g>
</g>
<defs>
<linearGradient id="paint0_linear_9548_5751" x1="960" y1="0" x2="960" y2="669" gradientUnits="userSpaceOnUse">
<stop stop-color="#00BBAE"/>
<stop offset="1" stop-color="#005650"/>
</linearGradient>
<linearGradient id="paint1_linear_9548_5751" x1="1518.29" y1="25" x2="1518.29" y2="753.56" gradientUnits="userSpaceOnUse">
<stop offset="0.01" stop-color="white"/>
<stop offset="0.9969" stop-color="white" stop-opacity="0"/>
</linearGradient>
<linearGradient id="paint2_linear_9548_5751" x1="365.449" y1="109.328" x2="365.449" y2="739.172" gradientUnits="userSpaceOnUse">
<stop offset="0.01" stop-color="white"/>
<stop offset="0.9969" stop-color="white" stop-opacity="0"/>
</linearGradient>
<linearGradient id="paint3_linear_9548_5751" x1="722.636" y1="67.4373" x2="988.128" y2="745.902" gradientUnits="userSpaceOnUse">
<stop offset="0.01" stop-color="white"/>
<stop offset="0.9969" stop-color="white" stop-opacity="0"/>
</linearGradient>
</defs>
</svg>
