<svg width="200" height="50" viewBox="0 0 200 50" fill="none" xmlns="http://www.w3.org/2000/svg">
<path d="M14.8603 4.24779L14.5659 4.91076C14.5422 4.96344 14.5458 5.02338 14.5733 5.07424L14.9206 5.71178C15.0047 5.86798 14.8438 6.04054 14.6811 5.9697L14.0139 5.67727C13.9608 5.65365 13.9005 5.65729 13.8493 5.68453L13.2077 6.02964C13.0505 6.11319 12.8768 5.95335 12.9481 5.7917L13.2424 5.12873C13.2662 5.07605 13.2625 5.01611 13.2351 4.96525L12.8878 4.32771C12.8037 4.17151 12.9645 3.99895 13.1272 4.06979L13.7963 4.36041C13.8493 4.38402 13.9097 4.38039 13.9608 4.35314L14.6025 4.00804C14.7579 3.9263 14.9334 4.08614 14.8603 4.24779Z" fill="#FC800A"/>
<path d="M41.651 4.42035L41.6291 5.01612C41.6272 5.06334 41.6473 5.10875 41.6839 5.13963L42.1446 5.52106C42.2561 5.6137 42.1866 5.79533 42.0404 5.78989L41.4408 5.76809C41.3932 5.76627 41.3475 5.78625 41.3164 5.82258L40.9325 6.2803C40.8393 6.3911 40.6565 6.32208 40.662 6.17677L40.6839 5.581C40.6858 5.53378 40.6656 5.48837 40.6291 5.45749L40.1684 5.07606C40.0551 4.98342 40.1264 4.80179 40.2726 4.80724L40.8722 4.82903C40.9198 4.83085 40.9655 4.81087 40.9965 4.77454L41.3804 4.31682C41.4737 4.20421 41.6565 4.27505 41.651 4.42035Z" fill="#FC800A"/>
<path d="M34.8359 45.1993L35.207 45.6679C35.2362 45.7043 35.2819 45.7261 35.3294 45.7261L35.9291 45.7206C36.0753 45.7188 36.1411 45.9022 36.0259 45.9931L35.5543 46.3618C35.5177 46.3908 35.4958 46.4363 35.4958 46.4835L35.5013 47.0792C35.5031 47.2245 35.3185 47.2899 35.2271 47.1755L34.856 46.7069C34.8267 46.6706 34.781 46.6488 34.7335 46.6488L34.1339 46.6542C33.9876 46.656 33.9218 46.4726 34.037 46.3818L34.5086 46.013C34.5452 45.984 34.5671 45.9386 34.5671 45.8913L34.5616 45.2956C34.5616 45.1485 34.7463 45.0849 34.8359 45.1993Z" fill="#FC800A"/>
<path d="M48.9085 22.1225L49.1791 22.6547C49.201 22.6965 49.2394 22.7274 49.2869 22.7365L49.8756 22.8509C50.02 22.8781 50.0456 23.0725 49.9158 23.1379L49.3802 23.4067C49.3381 23.4285 49.3071 23.4666 49.2979 23.5139L49.1827 24.0987C49.1553 24.2422 48.9615 24.2677 48.8957 24.1387L48.6252 23.6065C48.6032 23.5647 48.5648 23.5338 48.5173 23.5248L47.9287 23.4103C47.7842 23.3831 47.7586 23.1887 47.8884 23.1234L48.4241 22.8545C48.4661 22.8327 48.4972 22.7946 48.5063 22.7474L48.6215 22.1625C48.6489 22.019 48.8427 21.9936 48.9085 22.1225Z" fill="#FC800A"/>
<path d="M3.32316 28.0402L2.92281 28.4834C2.89173 28.5179 2.87711 28.567 2.88625 28.6124L2.99411 29.1991C3.0197 29.3425 2.84969 29.437 2.74 29.3407L2.29395 28.9429C2.25921 28.9121 2.20985 28.8975 2.16415 28.9066L1.57368 29.0138C1.42926 29.0392 1.3342 28.8703 1.43108 28.7613L1.83144 28.3181C1.86252 28.2836 1.87714 28.2346 1.868 28.1892L1.76014 27.6025C1.73455 27.459 1.90456 27.3645 2.01425 27.4608L2.4603 27.8586C2.49504 27.8895 2.54439 27.904 2.5901 27.8949L3.18057 27.7877C3.32499 27.7605 3.42005 27.9312 3.32316 28.0402Z" fill="#FC800A"/>
<path d="M43.2798 7.0686L43.2487 7.91865C43.2469 7.98585 43.2762 8.05124 43.3274 8.09302L43.9836 8.63793C44.1445 8.77052 44.044 9.03026 43.8356 9.02299L42.98 8.99212C42.9124 8.9903 42.8466 9.01936 42.8045 9.07022L42.2561 9.72229C42.1226 9.88213 41.8612 9.78223 41.8685 9.57516L41.8996 8.72511C41.9014 8.6579 41.8722 8.59252 41.821 8.55074L41.1647 8.00583C41.0038 7.87324 41.1044 7.6135 41.3128 7.62077L42.1683 7.65165C42.236 7.65346 42.3018 7.6244 42.3438 7.57354L42.8923 6.92147C43.0275 6.76163 43.2871 6.86153 43.2798 7.0686Z" fill="#FC800A"/>
<path d="M33.1723 47.0992L33.7024 47.7658C33.7445 47.8185 33.8085 47.8494 33.8761 47.8494L34.7317 47.8421C34.9401 47.8403 35.0333 48.1019 34.8688 48.2308L34.1978 48.7576C34.1448 48.7993 34.1138 48.8629 34.1138 48.9301L34.1211 49.7802C34.1229 49.9872 33.8596 50.0799 33.7299 49.9164L33.1997 49.2498C33.1577 49.1971 33.0937 49.1662 33.026 49.1662L32.1705 49.1735C31.9621 49.1753 31.8689 48.9138 32.0334 48.7848L32.7043 48.2581C32.7573 48.2163 32.7884 48.1527 32.7884 48.0855L32.7811 47.2355C32.7792 47.0302 33.0425 46.9376 33.1723 47.0992Z" fill="#FC800A"/>
<path d="M2.75462 30.6485L2.18243 31.2806C2.13673 31.3315 2.11845 31.3987 2.12942 31.464L2.28298 32.2996C2.31954 32.503 2.0764 32.6392 1.92101 32.5012L1.28484 31.9327C1.23365 31.8873 1.16601 31.8691 1.1002 31.88L0.259275 32.0326C0.0545288 32.0689 -0.0825783 31.8273 0.0563569 31.6729L0.628551 31.0408C0.674253 30.99 0.692534 30.9228 0.681565 30.8574L0.528005 30.0219C0.491443 29.8184 0.73458 29.6822 0.889968 29.8202L1.52615 30.3888C1.57733 30.4342 1.64497 30.4523 1.71078 30.4414L2.55171 30.2889C2.75828 30.2507 2.89356 30.4941 2.75462 30.6485Z" fill="#FC800A"/>
<path d="M23.2805 25.57C23.1836 24.5782 23.913 23.6955 24.9111 23.5992C25.9093 23.503 26.7977 24.2277 26.8946 25.2194C26.9915 26.2111 26.2621 27.0939 25.264 27.1902C24.2658 27.2882 23.3774 26.5617 23.2805 25.57Z" fill="#FE5A86"/>
<path d="M35.3868 12.8727C37.9937 12.1309 39.5018 9.42983 38.7552 6.83966C38.0087 4.24949 35.2901 2.75107 32.6832 3.49285C30.0763 4.23463 28.5682 6.93571 29.3148 9.52589C30.0613 12.1161 32.7799 13.6145 35.3868 12.8727Z" fill="#FE5A86"/>
<path d="M46.0604 13.7455C45.7185 13.7183 45.2414 13.7292 45.2414 13.7292C45.2414 13.7292 46.1572 13.4095 46.5357 13.2024C46.9122 12.9954 46.6691 12.6702 46.3346 12.7265C46.0037 12.781 45.1043 13.0063 45.1043 13.0063C45.1043 13.0063 46.2322 12.3033 46.5302 12.0345C46.8263 11.7657 46.5942 11.3025 46.1189 11.5423C45.6509 11.7784 44.5668 12.3215 44.5668 12.3215C44.5668 12.3215 45.3858 11.693 45.7752 11.268C46.1646 10.843 45.7094 10.5251 45.3675 10.7467C45.0257 10.9665 43.8557 11.9237 43.8557 11.9237C44.331 11.2753 44.0458 10.8484 43.7862 10.9411C43.5266 11.0337 43.1226 12.1943 42.523 12.4686C40.7772 12.8065 39.0313 13.1443 37.2855 13.4821C36.302 13.6729 35.3459 14.0398 34.3441 14.1215C32.9017 14.2377 31.3588 13.9072 30.2693 12.9173C29.304 12.04 28.7922 10.8085 28.3809 9.60241C27.9129 8.22925 27.3882 6.87243 26.8855 5.50835C26.6844 4.96526 26.4851 4.42398 26.284 3.88089C26.189 3.23064 26.9458 2.26252 26.8818 1.99552C26.8178 1.72852 26.3023 1.72488 26.0153 2.47504C26.0153 2.47504 26.1817 0.978361 26.1817 0.573314C26.1817 0.168267 25.6643 -0.036981 25.5181 0.518823C25.3718 1.07463 25.2895 2.10087 25.2895 2.10087C25.2895 2.10087 25.1561 0.902074 25.0994 0.382597C25.0428 -0.144146 24.5254 -0.0860225 24.4596 0.308126C24.3938 0.702275 24.4194 2.02458 24.4194 2.02458C24.4194 2.02458 24.1177 1.15273 23.9825 0.847583C23.8472 0.538803 23.4413 0.513374 23.4724 0.938401C23.5035 1.36706 23.7338 2.3043 23.7338 2.3043C23.7338 2.3043 23.4816 1.90288 23.2713 1.63225C23.0483 1.34345 22.8052 1.47241 22.8765 1.77937C22.9478 2.08815 23.339 3.45405 23.52 4.57656L24.8801 19.2127C25.2036 21.9518 28.2182 23.4921 30.6477 22.157L43.3657 15.175C43.3913 15.1677 43.4169 15.1586 43.4444 15.1477C44.4882 14.6846 45.8538 14.2632 46.1536 14.1542C46.4516 14.0452 46.426 13.7746 46.0604 13.7455Z" fill="#FE5A86"/>
<path d="M47.1292 32.8351C49.2812 31.354 49.8173 28.42 48.3266 26.2819C46.8359 24.1438 43.883 23.6111 41.731 25.0922C39.5791 26.5733 39.043 29.5073 40.5336 31.6454C42.0243 33.7836 44.9772 34.3162 47.1292 32.8351Z" fill="#00BBAE"/>
<path d="M42.5815 41.5539C42.512 41.2324 42.3713 40.7965 42.3713 40.7965C42.3713 40.7965 42.9215 41.5503 43.2213 41.8391C43.5193 42.1279 43.7533 41.8136 43.6071 41.5212C43.4645 41.2324 43.0056 40.4677 43.0056 40.4677C43.0056 40.4677 43.9708 41.3105 44.3054 41.5085C44.6399 41.7065 45.0037 41.365 44.6491 40.9945C44.2999 40.6294 43.4937 39.7848 43.4937 39.7848C43.4937 39.7848 44.3054 40.3642 44.8099 40.6039C45.3145 40.8437 45.4827 40.3369 45.1829 40.0845C44.8831 39.832 43.6674 39.0201 43.6674 39.0201C44.4023 39.2762 44.7204 38.8966 44.5632 38.6841C44.4059 38.4697 43.214 38.4225 42.7917 37.9466C41.9947 36.4354 41.1958 34.9242 40.3988 33.4148C39.949 32.5629 39.3421 31.7874 38.9893 30.8883C38.4811 29.595 38.3623 28.0856 38.982 26.8087C39.5304 25.679 40.5377 24.8671 41.545 24.1569C42.6948 23.3468 43.8136 22.4894 44.9416 21.6503C45.3913 21.3161 45.841 20.9819 46.2907 20.6477C46.8684 20.3788 47.9817 20.8093 48.212 20.6749C48.4424 20.5423 48.3034 20.0664 47.5265 20.0101C47.5265 20.0101 48.967 19.7486 49.3436 19.636C49.7202 19.5233 49.7696 18.993 49.2102 19.0111C48.6526 19.0311 47.6746 19.2382 47.6746 19.2382C47.6746 19.2382 48.7531 18.7841 49.2211 18.5879C49.6964 18.3899 49.499 17.9304 49.1133 17.9794C48.7276 18.0285 47.5027 18.4172 47.5027 18.4172C47.5027 18.4172 48.2321 17.8977 48.4789 17.6906C48.7294 17.4799 48.6416 17.1003 48.2522 17.2456C47.8629 17.3928 47.053 17.865 47.053 17.865C47.053 17.865 47.3583 17.5217 47.5521 17.2547C47.7587 16.9695 47.5722 16.7825 47.3053 16.9332C47.0384 17.084 45.8739 17.8214 44.8794 18.2973L31.6294 23.5992C29.1688 24.6545 28.5692 27.8513 30.485 29.7149L40.5066 39.4705C40.5212 39.4923 40.5359 39.5141 40.5541 39.5359C41.2744 40.3678 42.044 41.5067 42.2287 41.7501C42.4097 41.9953 42.6564 41.8972 42.5815 41.5539Z" fill="#00BBAE"/>
<path d="M31.3386 47.0669C32.9178 45.0201 32.5281 42.0889 30.4681 40.5197C28.4081 38.9506 25.4579 39.3378 23.8787 41.3846C22.2994 43.4314 22.6891 46.3626 24.7491 47.9317C26.8091 49.5009 29.7593 49.1136 31.3386 47.0669Z" fill="#FC800A"/>
<path d="M15.0723 46.2128C15.3593 46.0512 15.7323 45.7896 15.7323 45.7896C15.7323 45.7896 15.1783 46.5307 14.9901 46.8976C14.8036 47.2627 15.171 47.3898 15.4069 47.1664C15.639 46.9467 16.2313 46.2891 16.2313 46.2891C16.2313 46.2891 15.714 47.4461 15.6244 47.8185C15.5348 48.1908 15.9681 48.4324 16.2167 47.9892C16.4598 47.5533 17.0266 46.5452 17.0266 46.5452C17.0266 46.5452 16.7158 47.4807 16.6353 48.0238C16.5567 48.5687 17.0887 48.5777 17.2404 48.2199C17.3922 47.8639 17.8053 46.4817 17.8053 46.4817C17.7779 47.2482 18.2349 47.4352 18.3903 47.2245C18.5475 47.012 18.2404 45.8786 18.5676 45.341C19.7705 44.144 20.9734 42.947 22.1763 41.7501C22.8545 41.0744 23.4139 40.2752 24.1653 39.6776C25.2475 38.8167 26.6496 38.259 28.0481 38.4643C29.2858 38.6459 30.357 39.3507 31.3314 40.0881C32.4429 40.9291 33.5909 41.7264 34.7243 42.5402C35.1759 42.8635 35.6274 43.1868 36.0771 43.5119C36.5031 43.9769 36.4245 45.1485 36.6182 45.3265C36.8138 45.5045 37.2233 45.232 37.0478 44.4855C37.0478 44.4855 37.7224 45.7624 37.9418 46.0839C38.1612 46.4054 38.6803 46.2928 38.4975 45.7751C38.3147 45.2556 37.8266 44.3983 37.8266 44.3983C37.8266 44.3983 38.5798 45.2792 38.9034 45.6607C39.2324 46.0476 39.6108 45.7261 39.45 45.3791C39.2891 45.0322 38.556 43.9951 38.556 43.9951C38.556 43.9951 39.2653 44.5273 39.5359 44.698C39.8101 44.8706 40.1465 44.6762 39.8924 44.3529C39.6364 44.0296 38.9491 43.4102 38.9491 43.4102C38.9491 43.4102 39.3659 43.5955 39.6785 43.6972C40.0112 43.8062 40.1337 43.5773 39.9125 43.3702C39.6894 43.1632 38.6438 42.2877 37.8943 41.494L28.9256 30.6067C27.1926 28.6051 23.9715 28.9884 22.7631 31.3405L16.4379 43.6481C16.4215 43.6681 16.405 43.6881 16.3904 43.7117C15.8109 44.6344 14.9553 45.6952 14.7762 45.9404C14.6007 46.182 14.767 46.3836 15.0723 46.2128Z" fill="#FC800A"/>
<path d="M13.0318 34.3576C13.3397 31.7969 11.4999 29.473 8.92261 29.1671C6.34528 28.8612 4.00638 30.6892 3.69852 33.2499C3.39067 35.8107 5.23043 38.1346 7.80776 38.4405C10.3851 38.7464 12.724 36.9184 13.0318 34.3576Z" fill="#F0344F"/>
<path d="M1.87349 22.9635C2.12942 23.1688 2.51332 23.4158 2.51332 23.4158C2.51332 23.4158 1.61572 23.1778 1.20258 23.1397C0.793082 23.1016 0.809535 23.4884 1.10386 23.6228C1.39453 23.7554 2.22996 24.0606 2.22996 24.0606C2.22996 24.0606 0.955783 24.0115 0.575539 24.066C0.195295 24.1205 0.127656 24.6109 0.634038 24.6763C1.13311 24.7399 2.28481 24.8907 2.28481 24.8907C2.28481 24.8907 1.29581 24.9488 0.75652 25.0777C0.217233 25.2067 0.407354 25.7008 0.796738 25.7098C1.18612 25.7189 2.63215 25.5881 2.63215 25.5881C1.90456 25.8461 1.89908 26.3365 2.15501 26.4037C2.41095 26.4709 3.3579 25.768 3.98311 25.8715C5.54796 26.5381 7.11098 27.2065 8.67583 27.8731C9.55697 28.2491 10.5131 28.4689 11.3503 28.9429C12.555 29.6241 13.5971 30.7103 13.9206 32.078C14.2076 33.2877 13.9444 34.5373 13.6172 35.7107C13.2424 37.0475 12.9207 38.4025 12.5788 39.7484C12.4435 40.2843 12.3064 40.8201 12.1711 41.3577C11.8951 41.9226 10.769 42.2841 10.6758 42.5293C10.5825 42.7745 10.9884 43.0542 11.6209 42.6146C11.6209 42.6146 10.6776 43.7099 10.4582 44.0296C10.2388 44.3511 10.535 44.7888 10.9536 44.4274C11.3704 44.0659 11.992 43.2976 11.992 43.2976C11.992 43.2976 11.4472 44.3184 11.2114 44.7579C10.9719 45.2048 11.4107 45.4354 11.6776 45.1594C11.9426 44.8833 12.641 43.8225 12.641 43.8225C12.641 43.8225 12.407 44.6744 12.3466 44.9868C12.2863 45.3028 12.5934 45.5426 12.8 45.1884C13.0084 44.8324 13.3338 43.9678 13.3338 43.9678C13.3338 43.9678 13.3155 44.4219 13.3338 44.747C13.3539 45.094 13.6153 45.123 13.7269 44.8415C13.8384 44.56 14.2698 43.2685 14.736 42.2841L21.5986 29.9783C22.8289 27.6388 21.2787 24.8053 18.6335 24.5601L4.78564 23.2741C4.76188 23.2668 4.73628 23.2578 4.70886 23.2541C3.63211 23.0616 2.3232 22.6638 2.02705 22.5893C1.72724 22.5185 1.59927 22.7455 1.87349 22.9635Z" fill="#F0344F"/>
<path d="M12.8886 16.9702C15.303 16.1958 16.6284 13.6233 15.849 11.2244C15.0695 8.82549 12.4804 7.5086 10.066 8.28302C7.65163 9.05744 6.32622 11.6299 7.10565 14.0288C7.88508 16.4277 10.4742 17.7446 12.8886 16.9702Z" fill="#103741"/>
<path d="M19.6352 3.33599C19.5219 3.63569 19.4067 4.06253 19.4067 4.06253C19.4067 4.06253 19.3556 3.16162 19.266 2.76929C19.1764 2.37877 18.8199 2.51318 18.7834 2.8256C18.7468 3.13438 18.7175 3.99714 18.7175 3.99714C18.7175 3.99714 18.3757 2.80743 18.2093 2.47141C18.043 2.1372 17.564 2.22438 17.6572 2.71117C17.7487 3.19068 17.9589 4.30048 17.9589 4.30048C17.9589 4.30048 17.6042 3.40501 17.3191 2.94729C17.0357 2.48957 16.6299 2.8147 16.7414 3.17615C16.8529 3.53942 17.4141 4.83267 17.4141 4.83267C16.9516 4.24054 16.4909 4.38403 16.5074 4.64013C16.5238 4.89624 17.469 5.55739 17.5604 6.16405C17.4123 7.81149 17.2642 9.4571 17.1161 11.1045C17.032 12.0327 17.118 12.9808 16.9297 13.8981C16.6609 15.2168 15.9608 16.5082 14.7817 17.2238C13.7378 17.8577 12.4892 17.994 11.2937 18.0485C9.92989 18.1102 8.56614 18.2246 7.20238 18.3191C6.65943 18.3572 6.11649 18.3954 5.57354 18.4317C4.96113 18.3482 4.28108 17.42 4.02332 17.4073C3.76556 17.3946 3.62845 17.8541 4.23172 18.3064C4.23172 18.3064 2.92098 17.7687 2.55353 17.6634C2.18791 17.558 1.86617 17.9667 2.33233 18.241C2.79667 18.5171 3.7034 18.8567 3.7034 18.8567C3.7034 18.8567 2.58461 18.6642 2.10016 18.5807C1.60841 18.4953 1.52797 18.9712 1.86617 19.1328C2.20619 19.2945 3.40908 19.616 3.40908 19.616C3.40908 19.616 2.54074 19.6596 2.22996 19.6995C1.91553 19.7395 1.78573 20.0955 2.1806 20.179C2.57547 20.2626 3.48403 20.2989 3.48403 20.2989C3.48403 20.2989 3.05443 20.4206 2.75462 20.5369C2.43653 20.6622 2.48772 20.911 2.7857 20.9274C3.08368 20.9437 4.42002 20.9492 5.48214 21.08L19.0759 23.6683C21.637 24.0915 23.8143 21.7992 23.2384 19.2836L20.2276 6.11138C20.2276 6.08595 20.2276 6.06052 20.2239 6.03328C20.0758 4.97979 20.0502 3.65204 20.0301 3.35597C20.0082 3.06535 19.7559 3.01631 19.6352 3.33599Z" fill="#103741"/>
<path d="M60.72 25.4868C59.8366 25.4868 59.1624 25.246 58.6974 24.7645C58.2325 24.2829 58 23.6065 58 22.7352V3.33632C58 2.46498 58.2325 1.80001 58.6974 1.34141C59.1624 0.859878 59.8366 0.619112 60.72 0.619112C61.5802 0.619112 62.2428 0.859878 62.7077 1.34141C63.1727 1.80001 63.4052 2.46498 63.4052 3.33632V11.488H63.4749L72.7509 1.92612C73.1461 1.51339 73.553 1.20383 73.9714 0.997459C74.4131 0.768157 74.913 0.653507 75.4709 0.653507C76.2846 0.653507 76.8658 0.859877 77.2145 1.27262C77.5865 1.68536 77.7492 2.16689 77.7027 2.71721C77.6562 3.26753 77.4005 3.78346 76.9356 4.26499L67.6247 13.6549L67.6596 11.3504L77.4238 21.6345C77.9585 22.2078 78.2258 22.7925 78.2258 23.3887C78.2491 23.9848 78.0515 24.4893 77.633 24.902C77.2378 25.2919 76.6449 25.4868 75.8545 25.4868C75.1803 25.4868 74.634 25.3492 74.2155 25.074C73.8203 24.7989 73.3786 24.3976 72.8904 23.8702L63.4749 14.102H63.4052V22.7352C63.4052 23.6065 63.1727 24.2829 62.7077 24.7645C62.266 25.246 61.6035 25.4868 60.72 25.4868Z" fill="#103741"/>
<path d="M85.3634 25.4524C84.5032 25.4524 83.8407 25.2116 83.3757 24.7301C82.934 24.2256 82.7131 23.5262 82.7131 22.632V10.8689C82.7131 9.95165 82.934 9.25228 83.3757 8.77075C83.8407 8.26629 84.5032 8.01406 85.3634 8.01406C86.2004 8.01406 86.8397 8.26629 87.2814 8.77075C87.7464 9.25228 87.9788 9.95165 87.9788 10.8689V22.632C87.9788 23.5262 87.758 24.2256 87.3163 24.7301C86.8745 25.2116 86.2236 25.4524 85.3634 25.4524ZM85.3634 5.19366C84.387 5.19366 83.6314 4.97582 83.0967 4.54015C82.5853 4.08155 82.3296 3.43951 82.3296 2.61403C82.3296 1.76562 82.5853 1.12357 83.0967 0.687903C83.6314 0.229301 84.387 0 85.3634 0C86.3398 0 87.0838 0.229301 87.5952 0.687903C88.1067 1.12357 88.3624 1.76562 88.3624 2.61403C88.3624 3.43951 88.1067 4.08155 87.5952 4.54015C87.0838 4.97582 86.3398 5.19366 85.3634 5.19366Z" fill="#103741"/>
<path d="M98.7047 25.5556C97.2169 25.5556 95.9033 25.2001 94.7642 24.4893C93.6483 23.7785 92.7765 22.7581 92.1488 21.4281C91.5211 20.0982 91.2072 18.5275 91.2072 16.716C91.2072 14.9045 91.5211 13.3453 92.1488 12.0383C92.7765 10.7313 93.6483 9.72235 94.7642 9.01151C95.9033 8.30068 97.2169 7.94527 98.7047 7.94527C100.053 7.94527 101.239 8.26629 102.262 8.90833C103.308 9.55037 104.017 10.3873 104.389 11.4192H104.005V3.26753C104.005 2.39619 104.226 1.74269 104.668 1.30702C105.11 0.848413 105.761 0.619112 106.621 0.619112C107.458 0.619112 108.109 0.848413 108.574 1.30702C109.038 1.74269 109.271 2.39619 109.271 3.26753V22.8383C109.271 23.6868 109.038 24.3403 108.574 24.7989C108.132 25.2575 107.492 25.4868 106.656 25.4868C105.819 25.4868 105.168 25.2575 104.703 24.7989C104.261 24.3403 104.04 23.6868 104.04 22.8383V20.4995L104.424 21.8409C104.098 22.9645 103.401 23.8702 102.331 24.5581C101.285 25.2231 100.076 25.5556 98.7047 25.5556ZM100.274 21.6689C101.041 21.6689 101.704 21.4855 102.262 21.1186C102.82 20.7517 103.261 20.2128 103.587 19.502C103.912 18.7683 104.075 17.8396 104.075 16.716C104.075 15.0421 103.726 13.8154 103.029 13.0357C102.331 12.2332 101.413 11.8319 100.274 11.8319C99.53 11.8319 98.8675 12.0039 98.2863 12.3478C97.7283 12.6918 97.2866 13.2306 96.9611 13.9644C96.6589 14.6752 96.5078 15.5924 96.5078 16.716C96.5078 18.3899 96.8565 19.6396 97.5539 20.4651C98.2514 21.2676 99.1581 21.6689 100.274 21.6689Z" fill="#103741"/>
<path d="M121.558 25.5556C119.722 25.5556 118.118 25.2001 116.746 24.4893C115.397 23.7785 114.351 22.7581 113.607 21.4281C112.863 20.0982 112.491 18.5275 112.491 16.716C112.491 15.3631 112.701 14.1478 113.119 13.0701C113.538 11.9924 114.142 11.0752 114.933 10.3185C115.746 9.53891 116.711 8.95419 117.827 8.56438C118.943 8.15164 120.187 7.94527 121.558 7.94527C123.395 7.94527 124.987 8.30068 126.336 9.01151C127.707 9.72235 128.765 10.7313 129.509 12.0383C130.276 13.3453 130.66 14.9045 130.66 16.716C130.66 18.0918 130.439 19.3186 129.997 20.3963C129.579 21.474 128.974 22.4027 128.184 23.1823C127.393 23.9619 126.429 24.5581 125.29 24.9708C124.174 25.3607 122.93 25.5556 121.558 25.5556ZM121.558 21.6689C122.325 21.6689 122.988 21.4855 123.546 21.1186C124.104 20.7517 124.546 20.2128 124.871 19.502C125.197 18.7683 125.359 17.8396 125.359 16.716C125.359 15.0421 125.011 13.8154 124.313 13.0357C123.616 12.2332 122.697 11.8319 121.558 11.8319C120.814 11.8319 120.152 12.0039 119.571 12.3478C119.013 12.6918 118.571 13.2306 118.245 13.9644C117.943 14.6752 117.792 15.5924 117.792 16.716C117.792 18.3899 118.141 19.6396 118.838 20.4651C119.536 21.2676 120.442 21.6689 121.558 21.6689Z" fill="#103741"/>
<path d="M142.198 25.5556C140.338 25.5556 138.711 25.2001 137.316 24.4893C135.944 23.7555 134.886 22.7237 134.142 21.3937C133.398 20.0638 133.026 18.4931 133.026 16.6816C133.026 15.3287 133.236 14.1135 133.654 13.0357C134.073 11.958 134.677 11.0408 135.468 10.2841C136.281 9.52744 137.258 8.95419 138.397 8.56438C139.536 8.15164 140.803 7.94527 142.198 7.94527C142.919 7.94527 143.686 8.03699 144.499 8.22043C145.313 8.38094 146.115 8.66756 146.906 9.08031C147.371 9.28668 147.684 9.58477 147.847 9.97458C148.033 10.3415 148.103 10.7313 148.056 11.144C148.01 11.5338 147.859 11.8892 147.603 12.2103C147.371 12.5083 147.068 12.7147 146.696 12.8294C146.324 12.9211 145.906 12.8523 145.441 12.623C144.999 12.3708 144.534 12.1873 144.046 12.0727C143.581 11.958 143.139 11.9007 142.721 11.9007C142.023 11.9007 141.407 12.0154 140.873 12.2447C140.338 12.451 139.885 12.7606 139.513 13.1733C139.164 13.5631 138.885 14.0561 138.676 14.6523C138.49 15.2485 138.397 15.9364 138.397 16.716C138.397 18.2294 138.769 19.4218 139.513 20.2931C140.28 21.1415 141.349 21.5657 142.721 21.5657C143.139 21.5657 143.581 21.5199 144.046 21.4281C144.511 21.3135 144.976 21.1301 145.441 20.8778C145.906 20.6485 146.324 20.5912 146.696 20.7058C147.068 20.8205 147.359 21.0383 147.568 21.3594C147.801 21.6574 147.929 22.0129 147.952 22.4256C147.998 22.8154 147.929 23.2052 147.743 23.595C147.58 23.9619 147.278 24.2485 146.836 24.4549C146.045 24.8447 145.255 25.1199 144.465 25.2804C143.674 25.4638 142.919 25.5556 142.198 25.5556Z" fill="#103741"/>
<path d="M156.237 25.5556C154.981 25.5556 153.854 25.3148 152.854 24.8333C151.855 24.3517 151.076 23.6982 150.518 22.8727C149.96 22.0473 149.681 21.1186 149.681 20.0867C149.681 18.8485 150.006 17.874 150.657 17.1632C151.308 16.4294 152.366 15.9135 153.831 15.6154C155.295 15.2944 157.237 15.1338 159.654 15.1338H161.503V17.8167H159.689C158.504 17.8167 157.539 17.8854 156.795 18.023C156.074 18.1377 155.551 18.3441 155.226 18.6421C154.923 18.9402 154.772 19.353 154.772 19.8804C154.772 20.5224 154.993 21.0498 155.435 21.4625C155.9 21.8753 156.562 22.0817 157.423 22.0817C158.097 22.0817 158.69 21.9326 159.201 21.6345C159.736 21.3135 160.154 20.8893 160.456 20.3619C160.759 19.8116 160.91 19.1925 160.91 18.5046V14.5491C160.91 13.5402 160.677 12.8294 160.212 12.4166C159.747 11.981 158.957 11.7631 157.841 11.7631C157.213 11.7631 156.527 11.8434 155.784 12.0039C155.063 12.1415 154.261 12.3822 153.377 12.7262C152.866 12.9555 152.413 13.0128 152.017 12.8982C151.622 12.7606 151.32 12.5313 151.111 12.2103C150.901 11.8663 150.797 11.4994 150.797 11.1096C150.797 10.6969 150.913 10.3071 151.146 9.94018C151.378 9.55037 151.762 9.26375 152.296 9.08031C153.389 8.64463 154.412 8.34654 155.365 8.18603C156.341 8.02552 157.237 7.94527 158.05 7.94527C159.84 7.94527 161.305 8.20896 162.444 8.73635C163.607 9.24082 164.478 10.0319 165.06 11.1096C165.641 12.1644 165.931 13.5287 165.931 15.2026V22.8383C165.931 23.6868 165.722 24.3403 165.304 24.7989C164.885 25.2575 164.281 25.4868 163.49 25.4868C162.7 25.4868 162.084 25.2575 161.642 24.7989C161.224 24.3403 161.014 23.6868 161.014 22.8383V21.5657L161.258 21.7721C161.119 22.5517 160.817 23.2282 160.352 23.8014C159.91 24.3517 159.34 24.7874 158.643 25.1084C157.946 25.4065 157.144 25.5556 156.237 25.5556Z" fill="#103741"/>
<path d="M172.579 25.4868C171.696 25.4868 171.022 25.2575 170.557 24.7989C170.092 24.3403 169.859 23.6868 169.859 22.8383V10.6281C169.859 9.77967 170.08 9.13763 170.522 8.70196C170.987 8.24336 171.626 8.01406 172.44 8.01406C173.277 8.01406 173.916 8.24336 174.358 8.70196C174.8 9.13763 175.02 9.77967 175.02 10.6281V12.4166H174.672C174.951 11.0408 175.567 9.97458 176.52 9.21789C177.473 8.46119 178.705 8.03699 180.216 7.94527C180.798 7.89941 181.239 8.04845 181.541 8.3924C181.867 8.71342 182.041 9.25228 182.065 10.009C182.111 10.7198 181.96 11.2816 181.611 11.6943C181.286 12.1071 180.728 12.3593 179.937 12.451L179.135 12.5198C177.81 12.6345 176.822 13.0128 176.171 13.6549C175.543 14.2969 175.23 15.2256 175.23 16.4409V22.8383C175.23 23.6868 174.997 24.3403 174.532 24.7989C174.09 25.2575 173.44 25.4868 172.579 25.4868Z" fill="#103741"/>
<path d="M192.816 25.5556C190.794 25.5556 189.05 25.2001 187.586 24.4893C186.144 23.7555 185.028 22.7352 184.238 21.4281C183.471 20.0982 183.087 18.539 183.087 16.7504C183.087 15.0077 183.459 13.4829 184.203 12.1759C184.947 10.8459 185.981 9.81407 187.307 9.08031C188.655 8.32361 190.178 7.94527 191.875 7.94527C193.107 7.94527 194.223 8.15164 195.223 8.56438C196.222 8.95419 197.082 9.52744 197.803 10.2841C198.524 11.0179 199.07 11.9236 199.442 13.0013C199.814 14.0561 200 15.237 200 16.544C200 16.9797 199.861 17.3122 199.582 17.5415C199.303 17.7479 198.896 17.8511 198.361 17.8511H187.411V15.1682H196.199L195.641 15.6498C195.641 14.7096 195.501 13.93 195.223 13.3109C194.944 12.6689 194.537 12.1873 194.002 11.8663C193.491 11.5453 192.851 11.3848 192.084 11.3848C191.224 11.3848 190.492 11.5797 189.887 11.9695C189.283 12.3593 188.818 12.9211 188.492 13.6549C188.167 14.3886 188.004 15.2714 188.004 16.3033V16.5784C188.004 18.3211 188.411 19.6052 189.225 20.4307C190.061 21.2562 191.294 21.6689 192.921 21.6689C193.479 21.6689 194.118 21.6001 194.839 21.4625C195.56 21.325 196.234 21.1071 196.862 20.809C197.396 20.5568 197.873 20.4765 198.291 20.5683C198.71 20.6371 199.035 20.8205 199.268 21.1186C199.5 21.4167 199.628 21.7606 199.651 22.1504C199.698 22.5403 199.616 22.9301 199.407 23.3199C199.198 23.6868 198.849 23.9963 198.361 24.2485C197.571 24.6842 196.676 25.0052 195.676 25.2116C194.699 25.4409 193.746 25.5556 192.816 25.5556Z" fill="#103741"/>
<path d="M58 47.6744V38.9996H59.0087V42.9371H59.0333L63.2403 38.9996H64.5319L59.7099 43.4908L59.7222 42.9494L64.8025 47.6744H63.474L59.0333 43.5893H59.0087V47.6744H58Z" fill="#103741"/>
<path d="M65.4299 40.2055V39.0858H66.66V40.2055H65.4299ZM65.5529 47.6744V41.6944H66.5493V47.6744H65.5529Z" fill="#103741"/>
<path d="M68.412 47.6744V41.6944H69.3837V43.0233H69.2484C69.4206 42.5475 69.6995 42.1906 70.0849 41.9528C70.4785 41.7067 70.9296 41.5836 71.438 41.5836C71.9137 41.5836 72.3073 41.6697 72.6189 41.842C72.9388 42.0061 73.1766 42.2645 73.3324 42.6172C73.4882 42.9699 73.5661 43.4129 73.5661 43.9461V47.6744H72.5697V44.0076C72.5697 43.6385 72.5205 43.335 72.4221 43.0971C72.3319 42.8592 72.1843 42.6828 71.9793 42.568C71.7825 42.4531 71.5241 42.3957 71.2043 42.3957C70.8435 42.3957 70.5277 42.4736 70.2571 42.6295C69.9865 42.7854 69.7774 43.0028 69.6298 43.2817C69.4821 43.5606 69.4083 43.8887 69.4083 44.266V47.6744H68.412Z" fill="#103741"/>
<path d="M77.6791 47.7852C77.1461 47.7852 76.6786 47.658 76.2768 47.4037C75.8832 47.1494 75.5756 46.7926 75.3542 46.3332C75.141 45.8656 75.0344 45.316 75.0344 44.6844C75.0344 44.0445 75.141 43.4949 75.3542 43.0356C75.5756 42.568 75.8832 42.2112 76.2768 41.9651C76.6786 41.7108 77.1461 41.5836 77.6791 41.5836C78.2204 41.5836 78.6837 41.719 79.0692 41.9897C79.4546 42.2604 79.7129 42.6254 79.8441 43.0848H79.7088V38.9996H80.7052V47.6744H79.7334V46.2471H79.8564C79.7252 46.7147 79.4628 47.0879 79.0692 47.3668C78.6837 47.6457 78.2204 47.7852 77.6791 47.7852ZM77.8882 46.9854C78.4541 46.9854 78.901 46.7885 79.2291 46.3947C79.5653 45.9928 79.7334 45.4227 79.7334 44.6844C79.7334 43.9379 79.5653 43.3678 79.2291 42.974C78.901 42.5803 78.4541 42.3834 77.8882 42.3834C77.3306 42.3834 76.8837 42.5803 76.5474 42.974C76.2112 43.3678 76.0431 43.9379 76.0431 44.6844C76.0431 45.4227 76.2112 45.9928 76.5474 46.3947C76.8837 46.7885 77.3306 46.9854 77.8882 46.9854Z" fill="#103741"/>
<path d="M85.269 47.7852C84.6376 47.7852 84.0922 47.6621 83.633 47.416C83.1819 47.1617 82.8293 46.8049 82.5751 46.3455C82.3291 45.8861 82.206 45.3365 82.206 44.6967C82.206 44.0733 82.3291 43.5319 82.5751 43.0725C82.8211 42.6049 83.1573 42.2399 83.5838 41.9774C84.0184 41.7149 84.5187 41.5836 85.0845 41.5836C85.6258 41.5836 86.0891 41.7026 86.4745 41.9404C86.86 42.1783 87.1552 42.5147 87.3602 42.9494C87.5734 43.3842 87.68 43.9051 87.68 44.5121V44.8936H82.9687V44.2414H87.0158L86.819 44.4014C86.819 43.7451 86.6714 43.2365 86.3761 42.8756C86.0891 42.5065 85.6668 42.3219 85.1091 42.3219C84.6909 42.3219 84.3341 42.4203 84.0389 42.6172C83.7519 42.8059 83.5346 43.0725 83.387 43.417C83.2393 43.7533 83.1655 44.1471 83.1655 44.5983V44.6721C83.1655 45.1725 83.2434 45.5949 83.3993 45.9395C83.5633 46.284 83.8052 46.5465 84.125 46.727C84.4448 46.8992 84.8262 46.9854 85.269 46.9854C85.6217 46.9854 85.962 46.932 86.29 46.8254C86.6263 46.7106 86.942 46.526 87.2372 46.2717L87.5816 46.9731C87.311 47.2192 86.9666 47.416 86.5483 47.5637C86.1301 47.7113 85.7037 47.7852 85.269 47.7852Z" fill="#103741"/>
<path d="M89.1221 47.6744V41.6944H90.0939V43.1094H89.9708C90.1103 42.6254 90.3522 42.2604 90.6966 42.0143C91.041 41.76 91.4962 41.6123 92.062 41.5713L92.4188 41.5344L92.4926 42.3957L91.8652 42.4695C91.3076 42.5188 90.877 42.6992 90.5736 43.011C90.2784 43.3145 90.1308 43.7328 90.1308 44.266V47.6744H89.1221Z" fill="#103741"/>
<path d="M96.1034 50C95.5868 50 95.0989 49.9303 94.6396 49.7908C94.1886 49.6596 93.7867 49.4586 93.4341 49.1879L93.7662 48.4619C94.0122 48.6342 94.2542 48.7736 94.492 48.8803C94.738 48.9951 94.9881 49.0772 95.2424 49.1264C95.5048 49.1756 95.7754 49.2002 96.0542 49.2002C96.6365 49.2002 97.0752 49.0443 97.3705 48.7326C97.6739 48.4209 97.8256 47.9697 97.8256 47.3791V45.9887H97.9486C97.8256 46.4645 97.5632 46.8418 97.1613 47.1207C96.7677 47.3996 96.3044 47.5391 95.7713 47.5391C95.2219 47.5391 94.7462 47.416 94.3444 47.1699C93.9425 46.9156 93.6309 46.5629 93.4095 46.1117C93.1963 45.6606 93.0897 45.1397 93.0897 44.549C93.0897 43.9584 93.1963 43.4416 93.4095 42.9986C93.6309 42.5475 93.9425 42.1988 94.3444 41.9528C94.7462 41.7067 95.2219 41.5836 95.7713 41.5836C96.3126 41.5836 96.78 41.7231 97.1736 42.002C97.5673 42.2727 97.8215 42.6418 97.9363 43.1094H97.8256V41.6944H98.7974V47.2438C98.7974 47.8508 98.6949 48.3594 98.4899 48.7695C98.293 49.1797 97.9937 49.4873 97.5919 49.6924C97.19 49.8975 96.6939 50 96.1034 50ZM95.9558 46.727C96.5299 46.727 96.985 46.5301 97.3213 46.1363C97.6575 45.7426 97.8256 45.2135 97.8256 44.549C97.8256 43.8846 97.6575 43.3596 97.3213 42.974C96.985 42.5803 96.5299 42.3834 95.9558 42.3834C95.39 42.3834 94.9389 42.5803 94.6027 42.974C94.2665 43.3596 94.0984 43.8846 94.0984 44.549C94.0984 45.2135 94.2665 45.7426 94.6027 46.1363C94.9389 46.5301 95.39 46.727 95.9558 46.727Z" fill="#103741"/>
<path d="M102.548 47.7852C102.138 47.7852 101.769 47.7072 101.441 47.5514C101.122 47.3873 100.867 47.1658 100.679 46.8869C100.49 46.608 100.396 46.2963 100.396 45.9518C100.396 45.5088 100.506 45.1602 100.728 44.9059C100.958 44.6516 101.331 44.4711 101.847 44.3645C102.372 44.2578 103.086 44.2045 103.988 44.2045H104.541V44.8567H104C103.5 44.8567 103.082 44.8731 102.745 44.9059C102.409 44.9387 102.143 44.9961 101.946 45.0781C101.749 45.1602 101.609 45.2668 101.527 45.3981C101.445 45.5293 101.404 45.6934 101.404 45.8902C101.404 46.2266 101.519 46.5014 101.749 46.7147C101.987 46.9279 102.307 47.0346 102.708 47.0346C103.036 47.0346 103.323 46.9566 103.569 46.8008C103.824 46.6449 104.021 46.4316 104.16 46.1609C104.308 45.8902 104.381 45.5785 104.381 45.2258V43.8231C104.381 43.3145 104.279 42.9494 104.074 42.7279C103.869 42.4983 103.533 42.3834 103.065 42.3834C102.704 42.3834 102.356 42.4367 102.02 42.5434C101.683 42.6418 101.339 42.8059 100.986 43.0356L100.642 42.3096C100.855 42.1619 101.097 42.0348 101.368 41.9281C101.638 41.8133 101.921 41.7272 102.216 41.6697C102.512 41.6123 102.794 41.5836 103.065 41.5836C103.582 41.5836 104.008 41.6697 104.344 41.842C104.681 42.0061 104.931 42.2604 105.095 42.6049C105.259 42.9412 105.341 43.376 105.341 43.9092V47.6744H104.406V46.284H104.517C104.451 46.5957 104.324 46.8623 104.135 47.0838C103.955 47.3053 103.729 47.4775 103.459 47.6006C103.188 47.7236 102.885 47.7852 102.548 47.7852Z" fill="#103741"/>
<path d="M107.189 47.6744V41.6944H108.161V43.1094H108.038C108.178 42.6254 108.419 42.2604 108.764 42.0143C109.108 41.76 109.563 41.6123 110.129 41.5713L110.486 41.5344L110.56 42.3957L109.933 42.4695C109.375 42.5188 108.944 42.6992 108.641 43.011C108.346 43.3145 108.198 43.7328 108.198 44.266V47.6744H107.189Z" fill="#103741"/>
<path d="M114.321 47.7852C113.616 47.7852 113.087 47.5965 112.734 47.2191C112.382 46.8418 112.205 46.3045 112.205 45.6072V42.4695H111.037V41.6944H112.205V39.861H113.202V41.6944H115.096V42.4695H113.202V45.5088C113.202 45.9764 113.3 46.3332 113.497 46.5793C113.694 46.8172 114.014 46.9361 114.456 46.9361C114.588 46.9361 114.719 46.9197 114.85 46.8869C114.981 46.8541 115.1 46.8213 115.207 46.7885L115.379 47.5514C115.272 47.6088 115.117 47.6621 114.912 47.7113C114.707 47.7606 114.51 47.7852 114.321 47.7852Z" fill="#103741"/>
<path d="M118.857 47.7852C118.225 47.7852 117.68 47.6621 117.221 47.416C116.77 47.1617 116.417 46.8049 116.163 46.3455C115.917 45.8861 115.794 45.3365 115.794 44.6967C115.794 44.0733 115.917 43.5319 116.163 43.0725C116.409 42.6049 116.745 42.2399 117.172 41.9774C117.606 41.7149 118.107 41.5836 118.672 41.5836C119.214 41.5836 119.677 41.7026 120.062 41.9404C120.448 42.1783 120.743 42.5147 120.948 42.9494C121.161 43.3842 121.268 43.9051 121.268 44.5121V44.8936H116.557V44.2414H120.604L120.407 44.4014C120.407 43.7451 120.259 43.2365 119.964 42.8756C119.677 42.5065 119.255 42.3219 118.697 42.3219C118.279 42.3219 117.922 42.4203 117.627 42.6172C117.34 42.8059 117.122 43.0725 116.975 43.417C116.827 43.7533 116.753 44.1471 116.753 44.5983V44.6721C116.753 45.1725 116.831 45.5949 116.987 45.9395C117.151 46.284 117.393 46.5465 117.713 46.727C118.033 46.8992 118.414 46.9854 118.857 46.9854C119.21 46.9854 119.55 46.932 119.878 46.8254C120.214 46.7106 120.53 46.526 120.825 46.2717L121.17 46.9731C120.899 47.2192 120.554 47.416 120.136 47.5637C119.718 47.7113 119.292 47.7852 118.857 47.7852Z" fill="#103741"/>
<path d="M122.71 47.6744V41.6944H123.682V43.0233H123.546C123.719 42.5475 123.997 42.1906 124.383 41.9528C124.777 41.7067 125.228 41.5836 125.736 41.5836C126.212 41.5836 126.605 41.6697 126.917 41.842C127.237 42.0061 127.475 42.2645 127.63 42.6172C127.786 42.9699 127.864 43.4129 127.864 43.9461V47.6744H126.868V44.0076C126.868 43.6385 126.819 43.335 126.72 43.0971C126.63 42.8592 126.482 42.6828 126.277 42.568C126.08 42.4531 125.822 42.3957 125.502 42.3957C125.141 42.3957 124.826 42.4736 124.555 42.6295C124.284 42.7854 124.075 43.0028 123.928 43.2817C123.78 43.5606 123.706 43.8887 123.706 44.266V47.6744H122.71Z" fill="#103741"/>
<path d="M135.456 47.7852C134.882 47.7852 134.386 47.6949 133.968 47.5145C133.55 47.3258 133.23 47.0674 133.008 46.7393C132.795 46.4111 132.689 46.0297 132.689 45.5949C132.689 45.2258 132.754 44.8936 132.885 44.5983C133.025 44.2947 133.23 44.0117 133.5 43.7492C133.771 43.4785 134.107 43.2119 134.509 42.9494L134.903 42.691L134.767 42.9002C134.374 42.4736 134.095 42.1045 133.931 41.7928C133.775 41.4729 133.697 41.1447 133.697 40.8084C133.697 40.4311 133.783 40.0989 133.956 39.8117C134.128 39.5164 134.374 39.2908 134.694 39.135C135.022 38.9709 135.399 38.8889 135.825 38.8889C136.211 38.8889 136.547 38.9627 136.834 39.1104C137.121 39.2498 137.347 39.4508 137.511 39.7133C137.683 39.9758 137.769 40.2875 137.769 40.6485C137.769 40.9438 137.712 41.2227 137.597 41.4852C137.482 41.7395 137.289 41.9979 137.019 42.2604C136.748 42.5147 136.371 42.7854 135.887 43.0725L135.911 42.8141L138.212 45.3981H137.99C138.187 45.0617 138.343 44.6475 138.458 44.1553C138.581 43.6549 138.651 43.134 138.667 42.5926H139.528C139.512 43.2735 139.417 43.9092 139.245 44.4998C139.081 45.0822 138.856 45.599 138.569 46.0502L138.556 45.7549L140.34 47.6744H139.122L138.015 46.4316H138.273C137.929 46.8582 137.515 47.1904 137.031 47.4283C136.547 47.6662 136.022 47.7852 135.456 47.7852ZM135.506 46.9608C135.973 46.9608 136.387 46.8623 136.748 46.6654C137.117 46.4686 137.437 46.1815 137.707 45.8041L137.695 46.1117L135.087 43.257L135.481 43.294L135.1 43.5401C134.747 43.7697 134.464 43.9871 134.251 44.1922C134.046 44.3891 133.898 44.5942 133.808 44.8074C133.718 45.0207 133.673 45.2586 133.673 45.5211C133.673 45.9723 133.828 46.325 134.14 46.5793C134.452 46.8336 134.907 46.9608 135.506 46.9608ZM135.825 39.6641C135.473 39.6641 135.186 39.7666 134.964 39.9717C134.743 40.1768 134.632 40.4475 134.632 40.7838C134.632 40.9643 134.657 41.1324 134.706 41.2883C134.763 41.436 134.862 41.6041 135.001 41.7928C135.141 41.9733 135.333 42.207 135.579 42.4942L135.321 42.5065C135.715 42.2522 136.026 42.0307 136.256 41.842C136.486 41.6451 136.65 41.4565 136.748 41.276C136.846 41.0955 136.896 40.9028 136.896 40.6977C136.896 40.3778 136.797 40.1276 136.6 39.9471C136.404 39.7584 136.145 39.6641 135.825 39.6641Z" fill="#103741"/>
<path d="M144.685 47.6744V38.9996H148.153C149.039 38.9996 149.728 39.1965 150.22 39.5903C150.712 39.984 150.958 40.5418 150.958 41.2637C150.958 41.8051 150.798 42.2563 150.478 42.6172C150.167 42.9781 149.74 43.216 149.199 43.3309V43.1586C149.609 43.2078 149.962 43.3268 150.257 43.5154C150.552 43.6959 150.778 43.9379 150.934 44.2414C151.089 44.5367 151.167 44.8854 151.167 45.2873C151.167 45.8041 151.052 46.243 150.823 46.6039C150.601 46.9566 150.277 47.2233 149.851 47.4037C149.425 47.5842 148.908 47.6744 148.301 47.6744H144.685ZM145.669 46.8623H148.203C148.465 46.8623 148.699 46.8418 148.904 46.8008C149.117 46.7598 149.302 46.6983 149.457 46.6162C149.613 46.526 149.744 46.4193 149.851 46.2963C149.958 46.1733 150.036 46.0256 150.085 45.8533C150.142 45.6811 150.171 45.4883 150.171 45.275C150.171 45.0535 150.142 44.8608 150.085 44.6967C150.036 44.5244 149.958 44.3768 149.851 44.2537C149.744 44.1225 149.613 44.0158 149.457 43.9338C149.302 43.8518 149.117 43.7902 148.904 43.7492C148.699 43.7082 148.465 43.6877 148.203 43.6877H145.669V46.8623ZM145.669 42.8756H148.006C148.646 42.8756 149.129 42.7444 149.457 42.4819C149.794 42.2194 149.962 41.842 149.962 41.3498C149.962 40.8412 149.794 40.4598 149.457 40.2055C149.129 39.943 148.646 39.8117 148.006 39.8117H145.669V42.8756Z" fill="#103741"/>
<path d="M154.744 47.7852C154.334 47.7852 153.965 47.7072 153.637 47.5514C153.317 47.3873 153.063 47.1658 152.874 46.8869C152.686 46.608 152.592 46.2963 152.592 45.9518C152.592 45.5088 152.702 45.1602 152.924 44.9059C153.153 44.6516 153.526 44.4711 154.043 44.3645C154.568 44.2578 155.281 44.2045 156.183 44.2045H156.737V44.8567H156.196C155.695 44.8567 155.277 44.8731 154.941 44.9059C154.605 44.9387 154.338 44.9961 154.141 45.0781C153.945 45.1602 153.805 45.2668 153.723 45.3981C153.641 45.5293 153.6 45.6934 153.6 45.8902C153.6 46.2266 153.715 46.5014 153.945 46.7147C154.182 46.9279 154.502 47.0346 154.904 47.0346C155.232 47.0346 155.519 46.9566 155.765 46.8008C156.019 46.6449 156.216 46.4316 156.356 46.1609C156.503 45.8902 156.577 45.5785 156.577 45.2258V43.8231C156.577 43.3145 156.475 42.9494 156.27 42.7279C156.065 42.4983 155.728 42.3834 155.261 42.3834C154.9 42.3834 154.551 42.4367 154.215 42.5434C153.879 42.6418 153.535 42.8059 153.182 43.0356L152.838 42.3096C153.051 42.1619 153.293 42.0348 153.563 41.9281C153.834 41.8133 154.117 41.7272 154.412 41.6697C154.707 41.6123 154.99 41.5836 155.261 41.5836C155.778 41.5836 156.204 41.6697 156.54 41.842C156.876 42.0061 157.127 42.2604 157.291 42.6049C157.455 42.9412 157.537 43.376 157.537 43.9092V47.6744H156.602V46.284H156.712C156.647 46.5957 156.52 46.8623 156.331 47.0838C156.151 47.3053 155.925 47.4775 155.654 47.6006C155.384 47.7236 155.08 47.7852 154.744 47.7852Z" fill="#103741"/>
<path d="M162.411 47.7852C161.87 47.7852 161.402 47.6457 161.009 47.3668C160.623 47.0879 160.365 46.7147 160.234 46.2471H160.357V47.6744H159.385V38.9996H160.381V43.0848H160.234C160.373 42.6254 160.636 42.2604 161.021 41.9897C161.407 41.719 161.87 41.5836 162.411 41.5836C162.952 41.5836 163.42 41.7108 163.814 41.9651C164.207 42.2112 164.511 42.568 164.724 43.0356C164.945 43.4949 165.056 44.0445 165.056 44.6844C165.056 45.316 164.945 45.8656 164.724 46.3332C164.511 46.7926 164.203 47.1494 163.801 47.4037C163.408 47.658 162.944 47.7852 162.411 47.7852ZM162.202 46.9854C162.768 46.9854 163.215 46.7885 163.543 46.3947C163.879 45.9928 164.047 45.4227 164.047 44.6844C164.047 43.9379 163.879 43.3678 163.543 42.974C163.215 42.5803 162.768 42.3834 162.202 42.3834C161.644 42.3834 161.197 42.5803 160.861 42.974C160.525 43.3678 160.357 43.9379 160.357 44.6844C160.357 45.4227 160.525 45.9928 160.861 46.3947C161.197 46.7885 161.644 46.9854 162.202 46.9854Z" fill="#103741"/>
<path d="M167.162 49.8893L168.281 47.3668V47.7975L165.661 41.6944H166.743L168.884 46.9361H168.552L170.717 41.6944H171.762L168.207 49.8893H167.162Z" fill="#103741"/>
<path d="M179.838 47.7852C178.985 47.7852 178.255 47.6047 177.648 47.2438C177.041 46.8828 176.574 46.3701 176.246 45.7057C175.926 45.0412 175.766 44.2496 175.766 43.3309C175.766 42.4121 175.926 41.6246 176.246 40.9684C176.574 40.3039 177.041 39.7912 177.648 39.4303C178.255 39.0694 178.985 38.8889 179.838 38.8889C180.437 38.8889 180.99 38.9832 181.499 39.1719C182.007 39.3606 182.433 39.6354 182.778 39.9963L182.384 40.8207C182.007 40.468 181.613 40.2137 181.203 40.0578C180.802 39.8938 180.355 39.8117 179.863 39.8117C178.887 39.8117 178.14 40.1194 177.624 40.7346C177.107 41.3498 176.849 42.2152 176.849 43.3309C176.849 44.4465 177.107 45.316 177.624 45.9395C178.14 46.5547 178.887 46.8623 179.863 46.8623C180.355 46.8623 180.802 46.7844 181.203 46.6285C181.613 46.4645 182.007 46.2061 182.384 45.8533L182.778 46.6777C182.433 47.0305 182.007 47.3053 181.499 47.5022C180.99 47.6908 180.437 47.7852 179.838 47.7852Z" fill="#103741"/>
<path d="M185.918 47.7852C185.507 47.7852 185.138 47.7072 184.81 47.5514C184.491 47.3873 184.236 47.1658 184.048 46.8869C183.859 46.608 183.765 46.2963 183.765 45.9518C183.765 45.5088 183.876 45.1602 184.097 44.9059C184.327 44.6516 184.7 44.4711 185.216 44.3645C185.741 44.2578 186.455 44.2045 187.357 44.2045H187.91V44.8567H187.369C186.869 44.8567 186.451 44.8731 186.114 44.9059C185.778 44.9387 185.512 44.9961 185.315 45.0781C185.118 45.1602 184.979 45.2668 184.897 45.3981C184.814 45.5293 184.773 45.6934 184.773 45.8902C184.773 46.2266 184.888 46.5014 185.118 46.7147C185.356 46.9279 185.676 47.0346 186.077 47.0346C186.405 47.0346 186.692 46.9566 186.938 46.8008C187.193 46.6449 187.39 46.4316 187.529 46.1609C187.677 45.8902 187.75 45.5785 187.75 45.2258V43.8231C187.75 43.3145 187.648 42.9494 187.443 42.7279C187.238 42.4983 186.902 42.3834 186.434 42.3834C186.073 42.3834 185.725 42.4367 185.389 42.5434C185.052 42.6418 184.708 42.8059 184.355 43.0356L184.011 42.3096C184.224 42.1619 184.466 42.0348 184.737 41.9281C185.007 41.8133 185.29 41.7272 185.585 41.6697C185.881 41.6123 186.164 41.5836 186.434 41.5836C186.951 41.5836 187.377 41.6697 187.713 41.842C188.05 42.0061 188.3 42.2604 188.464 42.6049C188.628 42.9412 188.71 43.376 188.71 43.9092V47.6744H187.775V46.284H187.886C187.82 46.5957 187.693 46.8623 187.504 47.0838C187.324 47.3053 187.098 47.4775 186.828 47.6006C186.557 47.7236 186.254 47.7852 185.918 47.7852Z" fill="#103741"/>
<path d="M190.558 47.6744V41.6944H191.53V43.1094H191.407C191.547 42.6254 191.788 42.2604 192.133 42.0143C192.477 41.76 192.933 41.6123 193.498 41.5713L193.855 41.5344L193.929 42.3957L193.302 42.4695C192.744 42.5188 192.313 42.6992 192.01 43.011C191.715 43.3145 191.567 43.7328 191.567 44.266V47.6744H190.558Z" fill="#103741"/>
<path d="M197.589 47.7852C196.958 47.7852 196.412 47.6621 195.953 47.416C195.502 47.1617 195.149 46.8049 194.895 46.3455C194.649 45.8861 194.526 45.3365 194.526 44.6967C194.526 44.0733 194.649 43.5319 194.895 43.0725C195.141 42.6049 195.477 42.2399 195.904 41.9774C196.338 41.7149 196.839 41.5836 197.404 41.5836C197.946 41.5836 198.409 41.7026 198.794 41.9404C199.18 42.1783 199.475 42.5147 199.68 42.9494C199.893 43.3842 200 43.9051 200 44.5121V44.8936H195.289V44.2414H199.336L199.139 44.4014C199.139 43.7451 198.991 43.2365 198.696 42.8756C198.409 42.5065 197.987 42.3219 197.429 42.3219C197.011 42.3219 196.654 42.4203 196.359 42.6172C196.072 42.8059 195.855 43.0725 195.707 43.417C195.559 43.7533 195.485 44.1471 195.485 44.5983V44.6721C195.485 45.1725 195.563 45.5949 195.719 45.9395C195.883 46.284 196.125 46.5465 196.445 46.727C196.765 46.8992 197.146 46.9854 197.589 46.9854C197.942 46.9854 198.282 46.932 198.61 46.8254C198.946 46.7106 199.262 46.526 199.557 46.2717L199.902 46.9731C199.631 47.2192 199.287 47.416 198.868 47.5637C198.45 47.7113 198.024 47.7852 197.589 47.7852Z" fill="#103741"/>
</svg>
