<svg width="129" height="30" viewBox="0 0 129 30" fill="none" xmlns="http://www.w3.org/2000/svg">
<path d="M24.3794 29.3752C22.8223 28.701 21.5919 27.6195 20.6728 26.3028C20.3302 25.817 20.0809 25.2681 19.8006 24.7197C19.8006 24.6881 19.8006 24.6728 19.7849 24.6413C19.7849 24.6255 19.754 24.5944 19.7384 24.5786C19.6918 24.4687 19.6604 24.3592 19.6139 24.2492C19.5982 24.1866 19.583 24.0766 19.5203 24.0613C19.4894 24.0298 19.2091 24.0613 19.1621 24.0771C19.022 24.1086 18.8349 24.0771 18.6795 24.1086C18.5859 24.1397 18.4771 24.1086 18.3992 24.1244C18.2904 24.1559 18.1812 24.1244 18.1033 24.1401C18.041 24.1559 17.9318 24.1559 17.8852 24.1401C17.8386 24.1401 17.7294 24.1559 17.6828 24.1559C17.5427 24.187 17.3712 24.1401 17.2311 24.1717C17.1845 24.1717 17.1375 24.1717 17.091 24.1559C17.06 24.1717 17.0131 24.1559 16.9665 24.1559C16.8729 24.187 16.6705 24.1717 16.5926 24.1559C16.4525 24.1244 16.281 24.187 16.1409 24.1559C16.063 24.1401 15.9542 24.1717 15.8606 24.1559C15.4245 24.1244 15.0041 24.109 14.5837 24.0932C14.2721 24.0148 13.9139 24.0621 13.6027 23.9837C13.5248 23.9837 13.4313 23.9837 13.3538 23.968C13.2445 23.9522 13.1357 23.9522 13.0265 23.9211C12.9486 23.9211 12.8707 23.9053 12.7928 23.9053C12.6836 23.8742 12.5282 23.8742 12.419 23.8427C12.3881 23.8427 12.3567 23.8427 12.3254 23.8427C12.2009 23.8116 12.0608 23.8116 11.9359 23.78C11.9202 23.78 11.8893 23.78 11.858 23.78C11.562 23.7016 11.2039 23.6859 10.9079 23.6075C10.8613 23.6075 10.83 23.6075 10.7834 23.5917C10.7212 23.5759 10.6433 23.5602 10.5654 23.5448C10.5345 23.5448 10.5032 23.5448 10.4562 23.5448C10.316 23.4979 10.1137 23.4664 9.97352 23.4195C9.92694 23.4195 9.86428 23.4195 9.81771 23.4038C9.67757 23.3727 9.5061 23.3411 9.36596 23.2938C9.33463 23.2938 9.30373 23.2938 9.25673 23.2938C8.94513 23.2001 8.58695 23.1212 8.27576 23.0432C8.11996 22.9964 7.97982 22.9806 7.83968 22.9337C7.79311 22.918 7.74611 22.918 7.69954 22.9022C7.41926 22.8084 7.10766 22.7454 6.81171 22.6516C6.35997 22.5106 5.90822 22.3695 5.44123 22.2285C5.28543 22.1816 5.09872 22.1032 4.94291 22.0401C4.84935 22.009 4.77144 21.9933 4.69354 21.9617C4.50683 21.8991 4.3197 21.8207 4.14865 21.7423C4.05509 21.7112 3.97718 21.6954 3.88404 21.6639C3.68166 21.5697 3.47929 21.4913 3.26125 21.4133C3.08978 21.3349 2.91831 21.2407 2.74726 21.1623C2.12447 20.896 1.53259 20.5981 1.0186 20.2376C0.784899 20.0808 0.535951 19.9244 0.364482 19.7045C0.348817 19.6734 0.302245 19.6418 0.271339 19.6107C0.177772 19.4854 0.0842046 19.3444 0.0376328 19.1876C0.0219678 19.1407 0.0219678 19.0934 0.0219678 19.0623C0.00630272 18.9997 -0.00893896 18.9524 0.00630272 18.8897C0.00630272 18.8424 0.00630272 18.8113 0.00630272 18.764C0.130776 18.3093 0.535528 18.0745 0.956367 17.9177C1.11217 17.8551 1.29888 17.792 1.47035 17.7293C1.64182 17.6825 1.81287 17.6509 1.96867 17.6041C2 17.6041 2.03091 17.5883 2.06224 17.5883C2.24937 17.5414 2.46741 17.5257 2.65412 17.4788C2.82559 17.4319 3.0123 17.4319 3.18335 17.3846C3.22992 17.3846 3.29258 17.3846 3.35482 17.3688C3.69733 17.2904 4.1025 17.3062 4.46068 17.2278C4.53859 17.212 4.61649 17.2278 4.69439 17.212C4.75663 17.212 4.81929 17.212 4.88152 17.1963C5.02166 17.1651 5.19313 17.1805 5.33327 17.1494C5.37984 17.1494 5.41117 17.1494 5.45774 17.1494C5.62921 17.1025 5.84725 17.1336 6.0183 17.1025C6.11187 17.0867 6.18977 17.0867 6.28291 17.0867C6.43872 17.0556 6.60976 17.071 6.76556 17.0399C6.84347 17.0399 6.92137 17.0399 6.99927 17.0399C7.23298 16.9772 7.55983 17.0399 7.8092 16.9772C7.94934 16.9772 8.08947 16.9772 8.22961 16.9615C8.49423 16.9142 8.75926 16.9772 9.02387 16.9299C9.11702 16.8988 9.24191 16.9299 9.33506 16.9142C9.56876 16.8984 9.80247 16.8984 10.0205 16.8984C10.0984 16.8826 10.2386 16.8826 10.3008 16.8826C10.3317 16.8826 10.3787 16.8826 10.41 16.8668C10.4257 16.8668 10.4566 16.8826 10.4723 16.8826C10.5188 16.8826 10.5815 16.8668 10.6124 16.8668C10.7212 16.8353 10.8304 16.8668 10.924 16.8511C11.0328 16.82 11.1577 16.8668 11.2509 16.8353C11.3601 16.8195 11.5155 16.8511 11.609 16.8353C11.6713 16.8353 11.7178 16.8353 11.7648 16.8353C11.905 16.8353 12.1387 16.8511 12.2632 16.8195C12.3097 16.8195 12.3567 16.8195 12.4033 16.8195C12.419 16.8195 12.4812 16.8038 12.5121 16.8038C12.5278 16.8195 12.5743 16.8195 12.6057 16.8195C12.6213 16.8195 12.6522 16.8038 12.6836 16.8038C12.7301 16.8038 12.7928 16.8038 12.8394 16.8038C12.9173 16.788 13.0418 16.788 13.1197 16.788C13.1506 16.788 13.1662 16.788 13.1976 16.788C13.2598 16.788 13.369 16.8038 13.4469 16.788C13.5714 16.7565 13.7738 16.7722 13.9139 16.7722C14.1006 16.7722 14.2878 16.7722 14.4745 16.7722C14.5524 16.7722 14.6612 16.788 14.7391 16.7722C14.9728 16.7722 15.2217 16.7722 15.4554 16.7722C15.502 16.7565 15.549 16.7565 15.5956 16.7722C15.7044 16.7722 15.8293 16.7565 15.9381 16.7565C16.1718 16.7407 16.4521 16.7565 16.701 16.7407C16.7946 16.7407 16.9347 16.7407 17.0126 16.7407C17.0592 16.7249 17.1371 16.7407 17.1684 16.7407C17.215 16.7407 17.2616 16.7407 17.2929 16.7407C17.433 16.7407 17.6045 16.7565 17.729 16.7249C17.7756 16.7249 17.8378 16.7249 17.8535 16.7407C17.9 16.7407 17.947 16.7249 17.9623 16.7249C18.0715 16.7092 18.196 16.7407 18.2895 16.7249C18.3518 16.7249 18.414 16.7249 18.4763 16.7249C18.6164 16.7249 18.7409 16.7249 18.8658 16.7249C18.9437 16.7249 19.0216 16.7249 19.0681 16.7249C19.1617 16.6938 19.2862 16.7561 19.3328 16.6938C19.3637 16.6312 19.3793 16.4433 19.395 16.3644C19.4263 16.2707 19.4729 16.1292 19.5042 16.0355C19.5199 15.9886 19.5199 15.9413 19.5351 15.8944C19.5817 15.7534 19.6287 15.5965 19.6753 15.4713C19.6909 15.4086 19.6909 15.3613 19.7218 15.2829C19.8463 14.9382 19.9865 14.5777 20.1266 14.2482C20.1888 14.1072 20.2202 13.9819 20.2824 13.8404C20.5161 13.4173 20.7185 12.9626 20.9674 12.5552C21.014 12.4768 21.0297 12.3826 21.0919 12.3046C21.4035 11.8346 21.6994 11.3484 22.042 10.9095C22.1512 10.7527 22.2909 10.5963 22.4158 10.4395C22.4315 10.4237 22.4624 10.4083 22.478 10.3768C22.5716 10.2515 22.6804 10.1416 22.7897 10.0163C22.8053 10.0005 22.8362 9.9852 22.8519 9.96943C22.9768 9.82838 23.1013 9.68733 23.2414 9.57738C23.2727 9.54628 23.3036 9.51474 23.335 9.48321C23.5064 9.34216 23.6622 9.16957 23.8333 9.04429C24.1601 8.79372 24.4874 8.54273 24.8456 8.32327C25.3596 7.99387 25.9358 7.77441 26.5586 7.55495C26.8389 7.47654 27.1661 7.44543 27.4616 7.36702C27.6175 7.36702 27.7889 7.36702 27.9443 7.35125C27.9909 7.33549 28.0688 7.33549 28.1158 7.35125C28.1623 7.35125 28.1937 7.35125 28.2246 7.35125C28.3025 7.35125 28.4117 7.35125 28.4892 7.36702C28.5828 7.38279 28.6607 7.36702 28.7386 7.38279C29.1124 7.47696 29.5015 7.50807 29.7974 7.66489C29.9067 7.71219 30.0155 7.72753 30.109 7.77483C30.358 7.88478 30.6074 8.0254 30.8254 8.16688C31.5574 8.65267 32.1336 9.32682 32.5854 10.0794C32.7878 10.4083 32.9279 10.8004 33.0837 11.1609C33.1303 11.2708 33.146 11.3804 33.1773 11.5056C33.2552 11.7409 33.3174 12.023 33.3797 12.274C33.4106 12.3993 33.4106 12.5403 33.4419 12.6502C33.4419 12.7444 33.4419 12.8228 33.4576 12.9008C33.4732 13.0108 33.4732 13.1829 33.4732 13.2929C33.4889 13.4339 33.5046 13.5907 33.4732 13.716C33.4732 13.7471 33.4732 13.7786 33.4889 13.8102C33.4732 13.9828 33.458 14.1549 33.4423 14.3275C33.4114 14.4843 33.4267 14.6411 33.3801 14.7975C33.3487 14.9228 33.3335 15.0639 33.3022 15.1896C33.2399 15.409 33.1934 15.6285 33.1155 15.8322C33.0532 16.0517 32.9597 16.2869 32.8661 16.4906C32.8352 16.5847 32.7573 16.6632 32.7573 16.7884C32.7573 16.8042 32.7573 16.8042 32.7573 16.8042C32.8039 16.8042 32.8818 16.82 32.9288 16.8042C32.9597 16.8042 33.0223 16.7884 33.0532 16.8042C33.1311 16.82 33.2404 16.8353 33.3178 16.82C33.3335 16.82 33.3644 16.8042 33.3957 16.8042C33.458 16.82 33.5829 16.8353 33.6604 16.82C33.7539 16.82 33.8475 16.82 33.9563 16.82C34.0964 16.82 34.2522 16.8357 34.3767 16.8357C34.4233 16.8357 34.5169 16.8046 34.5791 16.82C34.6879 16.8511 34.8437 16.8357 34.9529 16.8357C35.2019 16.8357 35.4356 16.8357 35.685 16.8357C36.4013 16.8357 37.1177 16.8357 37.834 16.8357C38.2545 16.8357 38.6905 16.8515 39.111 16.8515C39.2824 16.8515 39.4069 16.8515 39.5627 16.8515C39.6249 16.8515 39.6872 16.8673 39.7342 16.8515C39.7964 16.8357 39.89 16.8515 39.9213 16.8515C40.0144 16.8515 40.0928 16.8515 40.1702 16.8515C40.2325 16.8673 40.2947 16.8515 40.357 16.8515C40.4192 16.8515 40.4971 16.8673 40.5593 16.8515C40.6529 16.6947 40.6995 16.5225 40.793 16.3499C40.9488 16.0678 41.0733 15.77 41.1982 15.4721C41.2139 15.4563 41.2448 15.4406 41.2448 15.4095C41.307 15.2684 41.3693 15.1431 41.4319 15.0017C41.4476 14.9705 41.4628 14.939 41.4785 14.9075C41.7588 14.2649 42.039 13.6538 42.3193 13.0108C42.4908 12.6187 42.6775 12.2271 42.8333 11.8508C42.8646 11.7724 42.8646 11.7255 42.8955 11.6471C42.9734 11.4903 43.067 11.3177 43.1292 11.1609C43.1602 11.0983 43.1602 11.0199 43.2072 10.9414C43.2537 10.8473 43.316 10.722 43.363 10.5967C43.3786 10.5652 43.3786 10.5494 43.3939 10.5183C43.3939 10.5025 43.4252 10.4868 43.4252 10.471C43.6898 9.7815 43.9701 9.12312 44.266 8.48051C44.3283 8.33946 44.3439 8.21418 44.4062 8.08847C44.4218 8.05736 44.4527 8.04159 44.4527 8.01006C44.5306 7.82171 44.5772 7.66489 44.6551 7.47696C44.6864 7.41432 44.733 7.33591 44.7644 7.27327C44.7644 7.24174 44.78 7.21063 44.78 7.1791C44.7957 7.14756 44.8266 7.13222 44.8423 7.10069C44.8732 7.02228 44.8732 6.95964 44.9202 6.88123C44.9511 6.80282 44.9981 6.70864 45.0294 6.63066C45.076 6.55225 45.076 6.47384 45.123 6.38009C45.2474 6.09799 45.4032 5.78436 45.5125 5.50225C45.6056 5.29856 45.6683 5.12598 45.7462 4.92229C45.7927 4.84388 45.8554 4.73393 45.902 4.64018C45.9329 4.54601 45.9485 4.4676 45.9951 4.37385C46.0108 4.35808 46.0264 4.34274 46.0417 4.32697C46.0574 4.29587 46.0574 4.26433 46.0574 4.23322C46.073 4.20169 46.1039 4.18592 46.1196 4.15482C46.1196 4.12371 46.1353 4.10794 46.1353 4.07641C46.1509 4.02953 46.1975 3.998 46.2132 3.96689C46.2132 3.93536 46.2288 3.90425 46.2288 3.87271C46.3067 3.70013 46.4003 3.52797 46.4778 3.35539C46.4934 3.30809 46.54 3.27698 46.5557 3.24544C46.5557 3.22968 46.5557 3.19857 46.5713 3.1828C46.587 3.1355 46.6022 3.10439 46.6179 3.07286C46.6336 3.04133 46.6336 3.02598 46.6488 2.99445C46.6645 2.96292 46.6954 2.93181 46.711 2.90027C46.7267 2.88451 46.7267 2.8534 46.742 2.82187C46.7576 2.77499 46.7885 2.74346 46.8042 2.71192C46.8199 2.66505 46.8351 2.61775 46.8508 2.57087C46.9439 2.4294 47.0375 2.28877 47.1154 2.14772C47.1463 2.10085 47.1619 2.0382 47.1933 1.97514C47.2399 1.89673 47.3021 1.80255 47.3647 1.72457C47.3647 1.69346 47.3804 1.66193 47.3804 1.63039C47.3961 1.61463 47.427 1.59928 47.427 1.58352C47.4583 1.53664 47.4736 1.47357 47.5206 1.4267C47.5362 1.39517 47.5828 1.36406 47.5985 1.33252C47.7543 1.11306 47.9101 0.924713 48.1124 0.768321C48.2056 0.674146 48.2991 0.57997 48.3927 0.48622C48.5019 0.407811 48.5951 0.344743 48.7043 0.282528C48.72 0.26676 48.7352 0.235653 48.7509 0.235653C48.7818 0.235653 48.8131 0.219886 48.8445 0.219886C48.8601 0.204119 48.891 0.188352 48.9067 0.172585C48.9376 0.172585 48.9689 0.172585 48.9846 0.172585C49.0312 0.156818 49.0625 0.12571 49.0938 0.109943C49.1561 0.109943 49.2183 0.0941758 49.281 0.0941758C49.3432 0.0784088 49.4054 0.031534 49.4677 0.031534C49.5612 0 49.6391 0.031534 49.7166 0C49.8102 0 49.8724 0.015767 49.9503 0.031534C50.0126 0.047301 50.0596 0.031534 50.1061 0.047301C50.1684 0.0784088 50.2306 0.12571 50.2776 0.156818C50.3085 0.172585 50.3242 0.172585 50.3555 0.187926C50.4021 0.203693 50.4491 0.2348 50.48 0.266334C50.5109 0.297868 50.5422 0.344743 50.5735 0.376277C50.6201 0.423152 50.6671 0.454686 50.7137 0.501561C50.7446 0.548436 50.7446 0.595737 50.7759 0.642612C50.7916 0.673719 50.8382 0.705253 50.8538 0.752128C50.8852 0.799003 50.8852 0.846304 50.9161 0.908946C50.9317 0.955821 50.9626 0.987355 50.9783 1.03423C51.0096 1.08153 50.994 1.12841 51.0096 1.17571C51.0096 1.22258 51.0405 1.25412 51.0562 1.30099C51.0719 1.34829 51.0562 1.39517 51.0719 1.45781C51.0875 1.47357 51.1032 1.52045 51.1032 1.53622C51.1189 1.59886 51.1189 1.6615 51.1189 1.7088C51.1189 1.73991 51.1345 1.78721 51.1498 1.81832C51.1498 1.86562 51.1498 1.91249 51.1341 1.95937C51.165 2.05354 51.1807 2.27258 51.1498 2.38252C51.1341 2.46093 51.1654 2.52357 51.1498 2.60198C51.1498 2.66462 51.1498 2.72726 51.1498 2.78991C51.1189 2.94672 51.1341 3.13465 51.1032 3.29147C51.0719 3.36988 51.1032 3.43252 51.0875 3.52669C51.0253 3.73039 51.0253 3.99672 50.9783 4.18507C50.9783 4.23237 50.9783 4.26348 50.9783 4.29501C50.9626 4.31078 50.9474 4.35766 50.9474 4.37342C50.9474 4.40496 50.9474 4.43607 50.9474 4.4676C50.9008 4.65595 50.8695 4.87498 50.8229 5.0791C50.792 5.15751 50.8073 5.20439 50.792 5.29856C50.7141 5.5649 50.6675 5.87853 50.5896 6.14487C50.5896 6.17597 50.5896 6.20751 50.5896 6.23904C50.574 6.30168 50.5431 6.38009 50.5274 6.44274C50.5274 6.47427 50.5274 6.5058 50.5274 6.53691C50.4338 6.85055 50.3716 7.17952 50.2785 7.47739C50.2785 7.5085 50.2785 7.54003 50.2785 7.5558C50.2471 7.63421 50.2319 7.71262 50.2005 7.77526C50.2005 7.80679 50.2005 7.8379 50.2005 7.86943C50.0761 8.22995 49.9825 8.62199 49.8894 8.9825C49.8115 9.21773 49.7958 9.40565 49.5621 9.46872C49.5155 9.48449 49.4533 9.49983 49.4063 9.48449C49.2348 9.43761 49.0168 9.26503 49.079 9.01446C49.1256 8.87341 49.2505 8.74813 49.3127 8.60665C49.375 8.43406 49.4063 8.26191 49.4685 8.08932C49.6709 7.55623 49.7488 6.92938 49.9203 6.34941C49.9512 6.25524 49.9359 6.17683 49.9668 6.08308C49.9977 5.92626 50.0291 5.73833 50.0604 5.58152C50.0604 5.55041 50.0604 5.53464 50.0604 5.50311C50.1226 5.28365 50.1226 5.03308 50.1849 4.79785C50.1849 4.76675 50.1849 4.73521 50.1849 4.68834C50.2315 4.51575 50.2158 4.29629 50.2628 4.12413C50.2628 4.0926 50.2785 3.92044 50.2785 3.92044C50.2785 3.90468 50.2628 3.87357 50.2628 3.84203C50.2785 3.79516 50.2785 3.68522 50.2937 3.62257C50.2937 3.57527 50.2937 3.5284 50.2937 3.46576C50.3094 3.38735 50.3094 3.2463 50.2937 3.16789C50.2937 3.13635 50.2937 3.08948 50.3094 3.05794C50.2937 2.91689 50.2937 2.76008 50.2937 2.60326C50.278 2.54062 50.2937 2.44644 50.278 2.3838C50.278 2.33692 50.278 2.28962 50.278 2.24275C50.2624 2.16434 50.2467 2.03906 50.2158 1.96065C50.2158 1.92911 50.2158 1.88224 50.2158 1.8507C50.1692 1.69389 50.1379 1.53707 50.0756 1.39602C49.9977 1.20767 49.9355 0.988633 49.7331 0.941332C49.2814 0.816049 48.9854 1.20767 48.7831 1.44289C48.7052 1.5213 48.6116 1.59971 48.5494 1.69346C48.4562 1.81874 48.3627 1.94403 48.2691 2.08508C48.2225 2.13238 48.1599 2.19502 48.1133 2.25766C48.0354 2.38337 47.9575 2.50866 47.8796 2.64971C47.833 2.69658 47.786 2.74388 47.7551 2.80652C47.7394 2.82229 47.7394 2.86917 47.7238 2.88493C47.4748 3.24544 47.2411 3.62172 47.0697 4.02911C47.054 4.06064 47.0231 4.09175 46.9918 4.12328C46.9761 4.15439 46.9761 4.20169 46.9608 4.23322C46.9143 4.31163 46.8673 4.40581 46.8207 4.46845C46.805 4.51533 46.7898 4.56263 46.7741 4.6095C46.681 4.75055 46.6183 4.8916 46.5561 5.06419C46.5095 5.1426 46.4473 5.25254 46.4003 5.33052C46.3224 5.51887 46.2445 5.69103 46.1513 5.87938C46.1513 5.91049 46.1204 5.94203 46.1048 5.95779C44.9989 8.40296 43.9091 10.8797 42.8342 13.3563C42.476 14.2027 42.0556 15.0178 41.6974 15.8488C41.6351 15.9741 41.5572 16.084 41.5102 16.2093C41.4637 16.3031 41.4323 16.4288 41.3858 16.523C41.3235 16.6014 41.23 16.7424 41.23 16.8519H41.2456C41.2765 16.8677 41.3392 16.8519 41.3858 16.8519C41.4793 16.8519 41.5881 16.8362 41.6974 16.8519C41.7283 16.8677 41.8219 16.8362 41.8841 16.8519C41.9307 16.8677 41.9933 16.8519 42.0399 16.8519C42.1487 16.8519 42.2736 16.8519 42.3667 16.8677C42.4446 16.8677 42.5069 16.8519 42.5691 16.8677C42.647 16.8677 42.7249 16.8519 42.7872 16.8519C42.8337 16.8677 42.8807 16.8519 42.943 16.8519C43.0209 16.8519 43.0988 16.8519 43.1919 16.8519C43.2228 16.8519 43.2385 16.8677 43.2541 16.8677C43.3321 16.8519 43.5031 16.8362 43.581 16.8519C43.6432 16.8519 43.7055 16.8519 43.7834 16.8519C43.8299 16.8519 43.8926 16.8519 43.9392 16.8519C43.9857 16.8519 44.048 16.8519 44.095 16.8519C44.1572 16.8519 44.2042 16.8519 44.2508 16.8519C44.2974 16.8519 44.3596 16.8362 44.4066 16.8519C44.4532 16.8519 44.5467 16.8519 44.6246 16.8519C44.7648 16.8519 44.9362 16.8677 45.0607 16.8362C45.0916 16.8362 45.123 16.8519 45.1543 16.8519C45.2631 16.8519 45.4502 16.8519 45.5438 16.8362L46.5248 16.8204C46.6806 16.8204 46.8829 16.8204 47.0387 16.7893C47.1166 16.7893 47.2102 16.7893 47.2881 16.7893C47.3813 16.7735 47.5218 16.7735 47.6306 16.7735C47.6772 16.7735 47.7085 16.7735 47.7551 16.7735C47.8017 16.7735 47.9109 16.7578 47.9731 16.7735C48.051 16.7893 48.2378 16.9772 48.1446 17.1183C48.098 17.2751 47.9422 17.2751 47.7242 17.2751C47.662 17.2751 47.6154 17.2751 47.5527 17.2751C47.4905 17.2593 47.4126 17.2593 47.3504 17.2751C47.3347 17.2751 47.3038 17.2593 47.3038 17.2593C47.2572 17.2593 47.1636 17.2593 47.1171 17.2593C47.0857 17.2593 47.0548 17.2751 47.0235 17.2751C46.8834 17.244 46.7276 17.2751 46.5874 17.2751L45.0302 17.244C44.7965 17.244 44.5476 17.244 44.2982 17.244C44.189 17.244 44.0645 17.2282 43.9709 17.244C43.9087 17.2597 43.8308 17.2129 43.7686 17.2282C43.7063 17.244 43.5662 17.244 43.4883 17.2282C43.4417 17.2282 43.3947 17.2282 43.3325 17.2282C43.2389 17.2124 43.0679 17.2282 42.9743 17.2282C42.9121 17.2282 42.8342 17.2124 42.7872 17.2282C42.647 17.2282 42.5225 17.2124 42.3976 17.2124C42.1017 17.2124 41.8058 17.2124 41.5098 17.2124C41.354 17.2124 41.1673 17.1967 41.0272 17.2282C40.8714 17.5103 40.7469 17.8551 40.5754 18.1372C40.5132 18.2156 40.4975 18.3255 40.4509 18.4035C40.3108 18.623 40.2172 18.8582 40.0771 19.0619C40.0614 19.093 40.0614 19.1403 40.0462 19.1714C39.7816 19.6261 39.5479 20.1119 39.2676 20.5508C39.2363 20.6292 39.221 20.6918 39.174 20.7545C38.8002 21.3813 38.4263 21.9928 38.0529 22.6039C37.9907 22.6981 37.9128 22.8076 37.8349 22.9018C37.5233 23.3722 37.2117 23.8265 36.8848 24.2812C36.6202 24.6574 36.3086 24.9864 36.0436 25.3469C35.9813 25.4253 35.9034 25.488 35.8412 25.5822C35.8099 25.6133 35.7789 25.629 35.7476 25.6606C35.6384 25.8016 35.5296 25.8958 35.436 26.0211C35.4051 26.0522 35.3738 26.0837 35.3424 26.1153C35.2645 26.2094 35.171 26.319 35.0622 26.3974C34.9686 26.4758 34.9064 26.5699 34.8128 26.6479C34.7971 26.6479 34.7971 26.6637 34.7971 26.6795C34.7506 26.7106 34.7192 26.7579 34.6727 26.789C34.657 26.8047 34.6413 26.8358 34.6261 26.8516C34.4546 26.9769 34.3145 27.1495 34.1278 27.2748C34.1121 27.3059 34.0812 27.3374 34.0655 27.3532C33.9097 27.4631 33.7696 27.5726 33.6294 27.6826C33.6138 27.7137 33.5981 27.7295 33.5672 27.7452C33.4736 27.8236 33.3648 27.8863 33.2556 27.9647C33.2399 27.9804 33.209 28.0273 33.1934 28.0431C32.9288 28.2157 32.6637 28.4036 32.3834 28.5762C32.3678 28.592 32.3369 28.592 32.3055 28.6077C32.2433 28.6388 32.1811 28.6861 32.1188 28.733C32.0875 28.7488 32.0566 28.7488 32.0253 28.7641C31.6514 28.9993 31.2153 29.1873 30.7949 29.3756C30.7483 29.3914 30.717 29.3756 30.6704 29.3914C30.4681 29.4851 30.2344 29.564 30.0163 29.6419C29.9228 29.6731 29.8449 29.6577 29.7674 29.6888C29.6895 29.7046 29.6116 29.7515 29.5337 29.7672C29.5028 29.7672 29.4714 29.7672 29.4401 29.7672C29.2686 29.8141 29.0663 29.8456 28.8952 29.8925C28.8486 29.8925 28.8016 29.8925 28.7551 29.9083C28.6149 29.9394 28.4126 29.9394 28.2568 29.9709C28.2102 29.9709 28.1632 29.9709 28.1166 29.9709C28.07 29.9867 27.9921 29.9867 27.9295 29.9867C27.8207 30.0178 27.7114 29.9709 27.6026 29.9867C27.4782 30.0178 27.291 29.9867 27.1509 29.9709C27.12 29.9709 27.073 29.9867 27.0421 29.9867C26.9328 29.9556 26.7775 29.9709 26.6682 29.9398C26.6373 29.9398 26.606 29.9398 26.5751 29.9398C26.4193 29.9087 26.2635 29.9087 26.1077 29.8772C25.9675 29.8303 25.7965 29.8145 25.6407 29.7677C25.2046 29.6573 24.7842 29.532 24.3794 29.3752ZM19.2866 23.1677C19.2087 22.9171 19.1774 22.6346 19.0995 22.384C19.0686 22.2587 19.0838 22.1177 19.0529 21.992C19.0063 21.8041 19.0063 21.5846 18.9593 21.3962C18.9437 21.3178 18.9593 21.2079 18.9437 21.1299C18.928 21.0515 18.9437 20.9416 18.928 20.8478C18.928 20.8009 18.928 20.7541 18.928 20.7068C18.9123 20.6441 18.9123 20.5184 18.9123 20.4558C18.9123 20.4247 18.9123 20.3931 18.9123 20.362C18.8967 20.2521 18.8967 19.8758 18.9123 19.7663C18.9437 19.6568 18.9123 19.5468 18.928 19.4526C18.928 19.3742 18.928 19.2958 18.9437 19.2174C18.9746 19.0137 18.9593 18.7627 19.0059 18.5748C19.0059 18.5437 19.0059 18.5122 19.0059 18.4806C19.0838 18.1674 19.0681 17.8222 19.146 17.5244C19.177 17.3991 19.2396 17.1954 19.2239 17.0697C19.193 17.0697 19.1617 17.0697 19.146 17.0697C19.1151 17.0539 19.0525 17.0539 19.0059 17.0539C18.928 17.0539 18.8192 17.0697 18.7256 17.0539C18.6791 17.085 18.5385 17.0697 18.4763 17.0697C18.3984 17.0539 18.1651 17.0697 18.0867 17.0855C18.0245 17.0855 17.9466 17.0697 17.8687 17.0697C17.7908 17.0855 17.6972 17.0855 17.6198 17.0855C17.4483 17.0855 17.2772 17.0855 17.1214 17.0855C16.8098 17.0855 16.4673 17.1012 16.1557 17.1012C16.0156 17.1012 15.8598 17.0855 15.7505 17.1012C15.6726 17.117 15.5791 17.1012 15.5168 17.117C15.4546 17.117 15.3767 17.117 15.2988 17.117C15.2209 17.1328 15.0807 17.117 15.0028 17.1328C14.9563 17.117 14.9249 17.117 14.8779 17.117C14.7691 17.1481 14.6442 17.1328 14.5354 17.1481C14.4889 17.1323 14.4575 17.1323 14.411 17.1323C14.3487 17.1481 14.1463 17.1481 14.0684 17.1481C14.0528 17.1481 14.0062 17.1323 13.9749 17.1481C13.8504 17.1639 13.6633 17.117 13.5231 17.1481C13.4609 17.1639 13.3673 17.1323 13.3051 17.1481C13.2429 17.1639 13.165 17.1481 13.1027 17.1639C12.9626 17.195 12.8068 17.1639 12.6823 17.195C12.6201 17.2107 12.5422 17.195 12.4799 17.195C12.4334 17.195 12.3864 17.195 12.3398 17.195C12.184 17.195 11.9973 17.195 11.8728 17.2107C11.8419 17.2107 11.7949 17.2107 11.7636 17.2107C11.7013 17.2265 11.6078 17.195 11.5299 17.2107C11.4985 17.2265 11.4206 17.2107 11.3584 17.2265C11.1713 17.2734 10.9532 17.2265 10.7352 17.2734C10.6729 17.2891 10.5328 17.2576 10.4392 17.2734C10.2678 17.2734 10.112 17.2891 9.94092 17.2891C9.73854 17.336 9.47393 17.2891 9.25589 17.336C9.22498 17.3518 9.16232 17.336 9.11575 17.336C9.00694 17.3671 8.88204 17.336 8.75757 17.3518C8.53953 17.4144 8.25925 17.3518 8.02554 17.4144C7.96331 17.4144 7.88541 17.4144 7.82317 17.4144C7.63646 17.4613 7.41842 17.4302 7.21562 17.4771C7.18471 17.4771 7.13772 17.4771 7.09114 17.4771C6.90401 17.5082 6.68597 17.4928 6.49926 17.5239C6.43702 17.5397 6.37479 17.5397 6.32779 17.5397C6.17199 17.5713 5.98528 17.5555 5.84514 17.5866C5.76723 17.5866 5.705 17.6024 5.64276 17.6024C5.25325 17.6961 4.78626 17.665 4.38109 17.7592C4.33452 17.7592 4.27186 17.7749 4.20962 17.7749C4.05382 17.806 3.86711 17.806 3.7113 17.8534C3.64906 17.8691 3.60249 17.8534 3.53983 17.8691C3.41536 17.9007 3.24389 17.9164 3.11942 17.9475C3.04151 17.9633 2.97928 17.9475 2.90138 17.9633C2.43439 18.089 1.91998 18.167 1.48432 18.3238C1.42209 18.3553 1.35943 18.3553 1.29719 18.3864C1.12572 18.4491 0.954674 18.5433 0.814535 18.637C0.720968 18.6997 0.61216 18.7623 0.580829 18.888C0.534258 19.0133 0.627401 19.1232 0.658731 19.1854C0.814535 19.4049 1.01691 19.5775 1.23495 19.7343C1.93565 20.2516 2.76124 20.6433 3.60207 21.0195C3.78878 21.0979 3.96025 21.1606 4.14696 21.239C4.59871 21.4273 5.09702 21.5995 5.57968 21.7879C5.61058 21.7879 5.65758 21.8036 5.68849 21.8036C5.9531 21.9131 6.24946 21.9916 6.51408 22.0857C6.54541 22.1015 6.57631 22.1015 6.62331 22.1015C6.85702 22.1799 7.12163 22.2583 7.35533 22.3367C7.47981 22.3836 7.58904 22.3836 7.71351 22.4151C8.08736 22.5408 8.49211 22.6346 8.88162 22.7445C9.00609 22.7756 9.13057 22.7756 9.25546 22.8072C9.78511 22.964 10.3613 23.0266 10.9062 23.1677C10.9998 23.1834 11.062 23.1677 11.1399 23.1992C11.5603 23.3087 12.043 23.3245 12.4634 23.4187C12.5413 23.4344 12.6036 23.4187 12.6815 23.4344C12.8838 23.4813 13.1641 23.4813 13.3665 23.5286C13.4287 23.5286 13.4757 23.5286 13.538 23.5444C13.6781 23.5755 13.8496 23.5602 13.9897 23.5913C14.0676 23.5913 14.1298 23.5913 14.2077 23.5913C14.4258 23.6381 14.6595 23.607 14.8775 23.6539C14.9711 23.685 15.0799 23.6539 15.1735 23.6697C15.2666 23.7008 15.4072 23.6697 15.5003 23.6854C15.5312 23.6854 15.5469 23.6854 15.5782 23.6854C15.6248 23.6854 15.7184 23.6854 15.7654 23.7012C15.8119 23.7012 15.8589 23.7012 15.9212 23.7012C15.9677 23.7012 16.0613 23.717 16.1235 23.717C16.1392 23.7012 16.1701 23.7012 16.1858 23.7012C16.3259 23.7323 16.5283 23.717 16.6684 23.717C16.7463 23.717 16.8865 23.7012 16.933 23.717C17.0109 23.717 17.1045 23.717 17.1667 23.717C17.3069 23.7012 17.4779 23.7327 17.5872 23.7012C17.696 23.6854 17.8209 23.717 17.914 23.6854C18.0385 23.6854 18.1634 23.6854 18.2722 23.6854C18.3814 23.6543 18.5059 23.6854 18.6304 23.6697C18.8641 23.607 19.1287 23.6381 19.3781 23.5913C19.4111 23.544 19.3023 23.2619 19.2866 23.1677ZM20.003 23.5282C20.0965 23.5282 20.1901 23.5124 20.2676 23.4971C20.3141 23.4813 20.3611 23.4813 20.4077 23.4813C20.47 23.4656 20.5635 23.4655 20.6258 23.4502C20.7972 23.4033 20.9839 23.4033 21.1397 23.356C21.1863 23.356 21.2176 23.356 21.2485 23.356C21.3578 23.3249 21.4823 23.3092 21.5915 23.2934C21.6224 23.2934 21.6537 23.2776 21.6846 23.2776C21.8404 23.2307 22.0271 23.215 22.1829 23.1677C22.2295 23.1677 22.2608 23.1519 22.3074 23.1519C22.6034 23.0577 22.9306 22.9951 23.2105 22.9167C23.2414 22.9167 23.2727 22.9167 23.2884 22.9167C23.6157 22.8072 23.9582 22.7283 24.285 22.6188C24.5966 22.5246 24.9082 22.3994 25.2038 22.2894C25.5154 22.1641 25.8113 22.07 26.0759 21.9289C26.1695 21.882 26.2631 21.882 26.3562 21.8347C26.6521 21.6779 26.979 21.5369 27.2593 21.3647C27.3058 21.3332 27.3528 21.3178 27.4151 21.2863C27.5865 21.2079 27.7576 21.0826 27.9291 20.9884C27.9447 20.9727 27.9756 20.9727 28.007 20.9416C28.0849 20.8947 28.1784 20.832 28.2563 20.7847C28.272 20.769 28.3186 20.769 28.3342 20.7379C28.7394 20.4715 29.1285 20.1894 29.518 19.8911C29.6425 19.797 29.7517 19.6717 29.8919 19.5779C29.9228 19.5464 29.9384 19.5153 29.9698 19.4837C30.032 19.4369 30.0942 19.3896 30.1569 19.3427C30.1878 19.2958 30.2191 19.2643 30.2505 19.2332C30.3284 19.1705 30.4063 19.0917 30.4685 19.0137C30.5307 18.9353 30.6086 18.8884 30.6552 18.8258C30.7174 18.7316 30.811 18.6532 30.8889 18.5748C30.9198 18.5437 30.9355 18.5122 30.9668 18.4806C31.1539 18.2301 31.3563 18.0106 31.5274 17.7285C31.543 17.7127 31.5739 17.697 31.5896 17.6816C31.6675 17.5563 31.7454 17.4311 31.8233 17.2896C31.8546 17.2427 31.9012 17.1954 31.9169 17.117C31.9012 17.1012 31.9012 17.1012 31.8703 17.1012C31.8394 17.0855 31.6679 17.1012 31.6057 17.1012C31.4033 17.0855 31.1853 17.0855 30.9672 17.0855C30.2043 17.0855 29.441 17.0855 28.678 17.0855C28.2419 17.0855 27.8372 17.0855 27.4163 17.0697C27.3228 17.0697 27.2292 17.0697 27.1361 17.0697C27.1047 17.0697 27.0112 17.0539 26.9803 17.0539C26.9024 17.0697 26.7622 17.0697 26.6687 17.0539C26.5755 17.0539 26.4819 17.0697 26.3727 17.0697C26.2639 17.0539 26.1547 17.0539 26.0302 17.0539C25.9366 17.0539 25.8587 17.0539 25.7656 17.0539C25.6877 17.0539 25.5941 17.0539 25.5166 17.0382C25.4231 17.0382 25.3143 17.0539 25.205 17.0539C25.1115 17.0224 24.9713 17.0382 24.8625 17.0382C24.7067 17.0382 24.5357 17.0382 24.3799 17.0382C24.2863 17.0382 24.1932 17.0539 24.1153 17.0382C23.7727 17.0382 23.4302 17.0382 23.0873 17.0382C22.3396 17.0382 21.5458 17.0382 20.829 17.0382C20.7824 17.0693 20.6418 17.0382 20.58 17.0382C20.3929 17.0382 20.2375 17.0539 20.0504 17.0539C19.9881 17.0539 19.848 17.0224 19.8014 17.0539C19.7858 17.0697 19.7858 17.0697 19.7705 17.085C19.724 17.1634 19.724 17.3045 19.7083 17.4144C19.6461 17.6339 19.6304 17.9002 19.5682 18.1197C19.5525 18.2292 19.5682 18.3391 19.5372 18.4491C19.4907 18.6997 19.5216 18.9975 19.4593 19.2639C19.4593 19.3269 19.4593 19.4053 19.4593 19.4676C19.4437 19.546 19.475 19.6401 19.4593 19.7181C19.4284 19.8281 19.4284 20.1886 19.4593 20.2823C19.475 20.4076 19.4437 20.5333 19.475 20.6586C19.475 20.737 19.475 20.8154 19.475 20.8938C19.5529 21.2075 19.5216 21.5522 19.5999 21.8501C19.6156 21.9285 19.5999 21.9911 19.6156 22.0538C19.6935 22.3201 19.7091 22.6022 19.787 22.8532C19.8493 23.0727 19.9272 23.2921 19.9742 23.5116C19.9877 23.5128 20.003 23.5128 20.003 23.5282ZM19.8472 16.6785C19.9094 16.7411 19.9873 16.7254 20.0961 16.7254C20.2832 16.7254 20.47 16.7254 20.6567 16.7254C21.155 16.7254 21.6533 16.7254 22.1516 16.7254C22.3853 16.7254 22.6343 16.7254 22.868 16.7254C23.1952 16.7254 23.5378 16.7254 23.8646 16.7254C24.4252 16.7254 25.0014 16.7411 25.5776 16.7411C25.7491 16.7411 25.998 16.71 26.1538 16.7569C26.2317 16.7411 26.3253 16.7411 26.4184 16.7411C26.5586 16.7727 26.7144 16.7254 26.8545 16.7569C26.9947 16.7727 27.1661 16.7258 27.3215 16.7569C27.3994 16.7727 27.493 16.7411 27.5861 16.7569C27.7263 16.7727 27.9134 16.7727 28.0531 16.7727C28.2246 16.7727 28.3956 16.7727 28.5514 16.7727C28.7695 16.7727 28.9875 16.7727 29.2212 16.7727C29.6573 16.7727 30.109 16.7727 30.5451 16.7727C30.9033 16.7727 31.2615 16.7727 31.6197 16.7727C31.7598 16.7884 31.9622 16.8038 32.1023 16.7727C32.2895 16.4748 32.4292 16.0985 32.5693 15.7538C32.6472 15.5501 32.6785 15.3306 32.7408 15.1112C32.7721 15.0012 32.7721 14.8917 32.803 14.7822C32.8496 14.6254 32.8496 14.4375 32.8966 14.2806C32.8966 14.2338 32.8966 14.2022 32.8966 14.1711C32.9275 14.0454 32.8966 13.8733 32.9275 13.7322C32.9275 13.7007 32.9275 13.6849 32.9275 13.6538C32.9431 13.5754 32.9431 13.4186 32.9275 13.3402C32.9275 13.2775 32.9275 13.1991 32.9275 13.1365C32.8809 12.9796 32.9118 12.7917 32.8809 12.6507C32.85 12.5412 32.85 12.4001 32.8187 12.2902C32.7564 12.0549 32.7099 11.8044 32.632 11.5691C32.3983 10.8639 32.118 10.3308 31.7289 9.78235C31.6353 9.6413 31.5265 9.53179 31.433 9.40608C31.4173 9.37497 31.3707 9.37497 31.3551 9.34344C31.137 9.09287 30.8881 8.87341 30.6074 8.68506C29.8753 8.15196 29.0811 7.85409 27.8507 7.85409C27.8042 7.88563 27.6636 7.85409 27.5861 7.86986C27.3837 7.91674 27.1657 7.9325 26.9786 7.9798C26.9477 7.99557 26.9163 7.99557 26.885 7.99557C26.7605 8.02668 26.6361 8.07398 26.5268 8.10509C26.4955 8.10509 26.4646 8.12085 26.4333 8.12085C26.1843 8.21503 25.9349 8.30921 25.7012 8.41872C25.6233 8.44983 25.5611 8.49713 25.4989 8.52824C25.4057 8.59088 25.3122 8.62242 25.2186 8.66929C25.1877 8.68506 25.1563 8.71617 25.125 8.73193C24.9692 8.82611 24.8291 8.90452 24.6733 9.01403C24.5018 9.12355 24.3464 9.24926 24.1906 9.37454C24.144 9.40565 24.097 9.46872 24.0505 9.49983C23.926 9.594 23.8324 9.70352 23.708 9.7977C23.6766 9.81346 23.6614 9.84457 23.6301 9.8761C23.5369 9.93875 23.4433 10.0329 23.3654 10.1267C23.2875 10.2208 23.1631 10.2993 23.0852 10.393C22.9607 10.5656 22.8206 10.7066 22.6957 10.8788C22.6648 10.9099 22.6334 10.9414 22.6021 10.9572C22.2752 11.4119 21.948 11.8508 21.652 12.3051C21.5898 12.3993 21.5585 12.4934 21.5119 12.5714C21.2159 13.0419 20.9827 13.5277 20.749 14.045C20.7024 14.1549 20.6397 14.2802 20.5932 14.3897C20.5466 14.4681 20.5309 14.5465 20.4996 14.625C20.4374 14.7975 20.3595 14.9855 20.2972 15.158C20.2193 15.3306 20.2041 15.5028 20.1257 15.6907C20.0948 15.7691 20.0635 15.8944 20.0322 15.9728C20.0165 16.0044 20.0165 16.0197 20.0165 16.0512C19.9856 16.1454 19.9699 16.2549 19.9386 16.3649C19.9094 16.459 19.8628 16.5686 19.8472 16.6785ZM24.1923 28.56C24.3947 28.6537 24.6127 28.7637 24.8308 28.8421C25.0022 28.9205 25.2046 28.9674 25.3913 29.0304C25.4692 29.0616 25.5315 29.0616 25.6094 29.0773C25.7338 29.1084 25.8583 29.1557 25.9832 29.1868C26.0611 29.2026 26.1233 29.1868 26.2012 29.2026C26.357 29.2495 26.5438 29.2495 26.6996 29.2968C26.7461 29.2968 26.7775 29.2968 26.8084 29.2968C26.8706 29.2968 26.9642 29.3125 27.0107 29.3279C27.0421 29.3121 27.073 29.3121 27.1043 29.3121C27.2135 29.3279 27.3846 29.359 27.4938 29.3279C27.6183 29.3121 27.7119 29.359 27.8211 29.3279C27.9147 29.3121 28.0235 29.3437 28.117 29.3121C28.2728 29.281 28.4439 29.2964 28.5997 29.2495C28.6306 29.2495 28.6776 29.2495 28.7085 29.2495C29.0044 29.1711 29.3161 29.1553 29.5963 29.0611C29.7987 28.9985 30.0324 28.9358 30.2191 28.8574C30.2657 28.8417 30.297 28.8417 30.344 28.8263C30.4998 28.7637 30.6709 28.6853 30.8267 28.6226C31.7302 28.2306 32.4931 27.7448 33.2408 27.1964C33.2565 27.1806 33.2717 27.1495 33.2874 27.1337C33.4275 27.0242 33.552 26.93 33.6921 26.8205C33.7234 26.8047 33.7387 26.7736 33.77 26.7421C33.8322 26.6952 33.8788 26.6479 33.9415 26.601C33.9571 26.5853 33.9881 26.5542 34.0037 26.5384C34.1282 26.4442 34.2218 26.3189 34.3462 26.2248C34.3928 26.1937 34.4241 26.1464 34.4555 26.1153C34.6892 25.9427 34.845 25.7074 35.0473 25.5038C35.4212 25.1117 35.7794 24.7043 36.1062 24.2654C36.1685 24.1712 36.262 24.0928 36.3399 23.9991C36.6672 23.529 37.0097 23.0586 37.3366 22.5886C37.4145 22.4944 37.461 22.3849 37.5237 22.2749C37.6638 22.0555 37.8353 21.8202 37.9907 21.6008C38.0373 21.4913 38.0843 21.3971 38.1465 21.3029C38.4111 20.8951 38.6448 20.4566 38.9094 20.0488C38.9403 19.9862 38.956 19.9077 39.003 19.8451C39.1118 19.6725 39.221 19.4846 39.3146 19.2962C39.4391 19.061 39.5635 18.8104 39.7041 18.5752C39.7507 18.4968 39.7663 18.4184 39.7972 18.3558C39.8752 18.2301 39.9221 18.1205 39.9844 17.9953C40 17.9637 40.031 17.9484 40.031 17.9326C40.0775 17.8227 40.1245 17.7132 40.1868 17.6032C40.2333 17.5406 40.3582 17.3211 40.3582 17.2269C40.2494 17.1643 39.9535 17.1954 39.782 17.1954C39.6728 17.1954 39.5483 17.1954 39.4547 17.1954C39.3768 17.1954 39.3146 17.2112 39.2524 17.1954C39.1588 17.1643 39.0187 17.1954 38.9255 17.1796C38.7854 17.1796 38.6452 17.1796 38.5203 17.1796C38.4894 17.1796 38.4424 17.1954 38.3959 17.1796C38.3023 17.1639 38.1935 17.2112 38.0843 17.1796C37.9907 17.1639 37.8819 17.1954 37.7883 17.1639C37.6947 17.1481 37.5859 17.1639 37.4767 17.1639C37.3366 17.1639 37.1964 17.1481 37.0406 17.1481C36.8848 17.1481 36.7138 17.1481 36.558 17.1481C36.4335 17.1323 36.262 17.1481 36.1219 17.1481C35.8259 17.1481 35.53 17.1481 35.2341 17.1481C34.8446 17.1481 34.4085 17.1323 34.0194 17.1323C33.8636 17.1323 33.7234 17.1323 33.5676 17.1323C33.4741 17.1323 33.3653 17.1323 33.2717 17.1166C33.1938 17.1166 33.1159 17.1166 33.038 17.1323C32.9135 17.1166 32.7268 17.1166 32.6019 17.1166C32.5862 17.1166 32.5862 17.1166 32.571 17.1166C32.4774 17.2734 32.3995 17.4455 32.2907 17.6024C32.1815 17.7903 32.0414 17.9786 31.9012 18.1666C31.6832 18.4955 31.3872 18.7781 31.1535 19.0913C31.0913 19.1539 31.0134 19.217 30.9511 19.2796C30.8419 19.3896 30.7488 19.4991 30.6395 19.5933C30.546 19.6559 30.4837 19.7658 30.3902 19.8285C30.2814 19.9227 30.2035 20.0164 30.0942 20.0948C29.9384 20.2043 29.7983 20.3143 29.6581 20.4238C29.6272 20.4549 29.6116 20.4864 29.5802 20.518C29.4867 20.5648 29.4088 20.6122 29.3313 20.6748C29.3004 20.6906 29.2847 20.7217 29.2377 20.7532C28.8952 21.0038 28.5214 21.2232 28.1632 21.4585C28.0231 21.5369 27.8672 21.6153 27.7271 21.6937C27.6962 21.7248 27.6492 21.7248 27.6179 21.7406C27.2754 21.9442 26.8859 22.1168 26.4968 22.289C26.4659 22.3048 26.4189 22.3359 26.388 22.3516C26.1699 22.4458 25.9519 22.54 25.7338 22.618C25.5937 22.6806 25.4536 22.7275 25.3134 22.7906C25.2668 22.8063 25.2355 22.7906 25.1889 22.8063C25.064 22.8847 24.893 22.9316 24.7529 22.9789C24.7215 22.9789 24.6906 22.9947 24.6593 22.9947C24.5192 23.0573 24.332 23.1046 24.1923 23.1673C24.1457 23.1673 24.1144 23.1673 24.0831 23.1673C23.6779 23.3241 23.2266 23.4025 22.7905 23.5278C22.7596 23.5278 22.7439 23.5278 22.7126 23.5435C22.5568 23.5746 22.3853 23.6062 22.2299 23.653C22.152 23.6688 22.0741 23.653 21.981 23.6842C21.8409 23.731 21.6694 23.7468 21.5293 23.7783C21.4513 23.7941 21.3734 23.7941 21.2955 23.8099C21.0932 23.8567 20.8438 23.8725 20.6414 23.9194C20.4856 23.9505 20.3146 23.9352 20.1744 23.982C20.1588 23.9978 20.1588 24.0131 20.1588 24.0447C20.2053 24.0915 20.221 24.1857 20.2519 24.2641C20.2832 24.311 20.3298 24.3894 20.3455 24.4525C20.4077 24.562 20.439 24.6719 20.4856 24.7815C20.688 25.1735 20.906 25.5498 21.1397 25.8945C21.2955 26.1297 21.4823 26.3334 21.6537 26.5687C21.7003 26.6313 21.7782 26.6939 21.8252 26.757C21.981 26.9607 22.2147 27.1802 22.4014 27.337C22.4323 27.3681 22.448 27.3839 22.4793 27.4154C22.6351 27.5249 22.7596 27.666 22.9154 27.7759C23.2579 28.0265 23.6318 28.2459 24.0056 28.4654C24.0678 28.5131 24.1301 28.5285 24.1923 28.56Z" fill="black"/>
<path d="M49.2846 19.9075C49.1754 19.8448 49.1288 19.688 49.1288 19.5312C49.1288 19.4217 49.1445 19.3117 49.1754 19.218C49.2846 18.8732 49.3934 18.5596 49.5336 18.246C49.5645 18.136 49.6115 18.0423 49.658 17.9328C49.6737 17.8855 49.7203 17.8543 49.7203 17.7759H49.6737C49.6424 17.8386 49.5336 17.917 49.4713 17.9639V17.9954C49.4248 18.0423 49.3782 18.0738 49.3469 18.1207C49.2533 18.2149 49.1445 18.2933 49.0666 18.387C48.7241 18.7318 48.3968 19.0923 48.0073 19.3744L47.8358 19.5312L47.68 19.6254C47.6643 19.6411 47.6487 19.6727 47.6178 19.688C47.4776 19.7664 47.2753 19.9075 47.0572 19.9075L46.9484 19.8917C46.8862 19.8759 46.8392 19.8917 46.7769 19.8606C46.7147 19.8295 46.6055 19.688 46.5746 19.6254C46.528 19.547 46.5123 19.4059 46.5123 19.2806L46.528 19.0923C46.6216 18.7475 46.746 18.4497 46.9018 18.1833C46.9641 18.0891 46.9954 18.0107 47.042 17.917C47.3223 17.5092 47.7118 17.0703 48.1165 16.7886C48.2253 16.7102 48.3502 16.6629 48.459 16.5849C48.6148 16.4907 48.8951 16.3812 49.1597 16.3812C49.2529 16.3812 49.3464 16.397 49.44 16.4438C49.5336 16.4907 49.5958 16.5534 49.6737 16.6164C49.6894 16.6475 49.7203 16.6633 49.7359 16.6791C49.7825 16.7417 49.7982 16.8201 49.8604 16.8828H49.8761C49.9227 16.8512 50.0162 16.7102 50.0476 16.6633L50.1098 16.6164L50.2965 16.3501L50.4523 16.1775C50.5459 16.0365 50.5145 15.9892 50.7013 15.9423L50.7478 15.9265H50.7787C50.9189 15.9576 51.0747 16.0676 51.0747 16.224L51.059 16.3024C51.0277 16.3965 50.9654 16.4907 50.9345 16.5845L50.8566 16.7728L50.4828 17.447C50.4362 17.5254 50.4206 17.6195 50.374 17.6975C50.2961 17.8075 50.2338 17.9485 50.1716 18.0738C50.1094 18.1991 50.078 18.3244 50.0158 18.4501C49.9849 18.5127 49.9379 18.5754 49.9222 18.638C49.8757 18.7322 49.8757 18.8106 49.8287 18.9043C49.7978 18.9985 49.7351 19.0923 49.7351 19.2022L49.7664 19.218C49.8752 19.0923 50.031 18.9674 50.1559 18.8732C50.2338 18.8264 50.2804 18.7322 50.3426 18.6849C50.4205 18.6222 50.4828 18.5281 50.5607 18.4654C50.6543 18.4028 50.7322 18.3086 50.8096 18.2302L50.9189 18.136L51.573 17.4776C51.6818 17.3677 51.791 17.2271 51.9155 17.1329L52.04 17.0072L52.2424 16.8193C52.3046 16.7724 52.3516 16.694 52.4138 16.6467C52.5853 16.5214 52.7098 16.3957 52.8965 16.2704C52.9278 16.2546 52.9744 16.2078 53.0209 16.192C53.0989 16.1609 53.1768 16.1609 53.239 16.1609C53.3482 16.1609 53.4261 16.192 53.4884 16.2862C53.5193 16.3488 53.5663 16.443 53.5819 16.5056L53.5976 16.584C53.5976 16.6624 53.5667 16.7409 53.551 16.7877C53.4731 17.023 53.3643 17.2267 53.2394 17.4146C53.1928 17.493 53.1772 17.5714 53.1306 17.6498C53.084 17.7124 52.9748 17.8693 52.9591 17.9477H52.9748V17.9634L52.9905 17.9477C53.037 17.9319 53.084 17.8535 53.1149 17.8224C53.2242 17.6967 53.3486 17.5872 53.4575 17.4776C53.6598 17.274 53.847 17.0545 54.0802 16.8819C54.1268 16.8504 54.1738 16.772 54.2204 16.7404C54.3762 16.6309 54.5007 16.5052 54.6565 16.3957C54.7653 16.333 54.8745 16.2231 55.0146 16.1762L55.1395 16.1447L55.2797 16.1289C55.3419 16.1289 55.3889 16.1289 55.4198 16.1605C55.4664 16.1916 55.4977 16.2389 55.5291 16.3015C55.5756 16.3488 55.6222 16.3957 55.6379 16.4741L55.6535 16.5525C55.6535 16.6936 55.5913 16.913 55.56 16.9757C55.4664 17.2109 55.3419 17.4146 55.2327 17.6183C55.1548 17.744 55.1082 17.8688 55.0303 17.9945C54.9524 18.1198 54.8902 18.2298 54.8279 18.3708C54.7966 18.4019 54.7657 18.4335 54.7657 18.4803L54.7966 18.4961C54.8432 18.4335 54.9215 18.3708 54.9837 18.3078L55.0773 18.214L55.3889 17.9161C55.6535 17.6498 55.9029 17.3362 56.1988 17.1167L56.2924 17.0225L56.3546 16.9914L56.4169 16.913C56.4325 16.8973 56.4635 16.8972 56.4948 16.8819C56.5414 16.8504 56.5884 16.8035 56.6663 16.772H56.7128C56.8686 16.772 57.1023 16.8819 57.1646 16.9603C57.2111 17.023 57.2425 17.1171 57.2425 17.2109L57.2268 17.3051V17.4461L57.1646 17.5718C57.1646 17.6187 57.1489 17.666 57.1337 17.7129C57.1023 17.7913 57.0401 17.8855 57.0088 17.9481L56.9931 18.0265L56.8373 18.3086L56.8064 18.387C56.7598 18.4654 56.7285 18.5596 56.6819 18.6534C56.6663 18.6845 56.651 18.7002 56.651 18.7318V18.7475C56.6667 18.7633 56.651 18.7633 56.6819 18.7633C56.7598 18.7007 56.8843 18.6538 56.9779 18.5907C57.1023 18.5123 57.2268 18.4181 57.3517 18.3244C57.3826 18.3086 57.4139 18.2775 57.4448 18.246C57.632 18.1049 57.803 17.9639 57.9902 17.8386C58.0524 17.7759 58.1146 17.6971 58.1925 17.6502C58.4728 17.3524 58.5351 17.274 58.613 17.2271C58.6595 17.1955 58.6909 17.1329 58.7378 17.1014H58.7844C58.831 17.1014 58.8937 17.1014 58.9093 17.1171C58.9872 17.1329 59.0338 17.2271 59.0338 17.3208C59.0338 17.3519 59.0338 17.3835 59.0181 17.4146C59.0025 17.4772 58.8158 17.634 58.7535 17.6656C58.0058 18.3239 57.5232 18.8255 56.9626 19.2176C56.8534 19.3117 56.7289 19.4212 56.5888 19.4839L56.48 19.515C56.4334 19.5308 56.3707 19.5461 56.2928 19.5461H56.2463C56.1375 19.515 55.9503 19.3578 55.9037 19.264C55.8881 19.2329 55.8881 19.1072 55.8881 18.9977V18.9035C55.9503 18.6683 56.0282 18.4488 56.1061 18.2293C56.1527 18.1352 56.2306 18.0414 56.2306 17.9161H56.1997L56.1374 17.9472C56.0909 17.9941 56.0595 18.0568 55.9973 18.0883L55.9507 18.1667C55.8572 18.2293 55.7636 18.3393 55.7018 18.433L55.6396 18.4641L55.4994 18.6367L55.4528 18.6836C55.344 18.8247 55.2039 18.9499 55.0947 19.091C55.0633 19.1536 54.9854 19.1852 54.9389 19.2478C54.8453 19.3731 54.7365 19.5141 54.612 19.6083L54.5028 19.7336L54.394 19.7805C54.3474 19.8274 54.3004 19.8742 54.2225 19.89L54.1603 19.9058C53.9888 19.9058 53.7708 19.7647 53.7242 19.7021C53.6776 19.6394 53.6619 19.561 53.6619 19.4668C53.6619 19.2474 53.8021 18.9968 53.8643 18.84C54.0667 18.4795 54.2382 18.1036 54.4562 17.7585L54.5498 17.539C54.6433 17.398 54.7056 17.2569 54.7835 17.1159C54.8144 17.0532 54.877 16.9906 54.877 16.9122L54.8457 16.8964C54.7991 16.9433 54.7212 16.9748 54.6742 17.0217L54.4253 17.21C54.2695 17.3353 54.145 17.5079 53.9892 17.6174L53.8178 17.8058L53.6306 18.0095L53.5218 18.1036C53.4909 18.1505 53.4596 18.1974 53.4126 18.2447C53.3969 18.2762 53.366 18.2916 53.3347 18.3231C53.2411 18.4488 53.1166 18.5583 53.0231 18.6836C52.8829 18.872 52.7271 19.0599 52.587 19.2636L52.4621 19.4051C52.3842 19.4992 52.3219 19.593 52.2284 19.6872C52.1975 19.7183 52.1661 19.7656 52.1192 19.7813C52.0726 19.7971 52.0256 19.8124 51.979 19.8124C51.9168 19.8124 51.8389 19.7967 51.7919 19.7656C51.7296 19.7187 51.6204 19.5619 51.6204 19.4366L51.6361 19.3582L51.6983 19.2329L51.8385 18.935L52.0099 18.6372C52.1035 18.4803 52.1657 18.3078 52.2589 18.1514C52.2898 18.1203 52.2898 18.0572 52.3211 18.0261L52.5078 17.6813L52.5391 17.5718C52.6014 17.4934 52.648 17.3835 52.6949 17.2897L52.7106 17.2113C52.7572 17.1487 52.8194 17.0703 52.8194 16.9761V16.9603C52.7106 16.9914 52.648 17.0856 52.5857 17.1482C52.4765 17.2267 52.3677 17.3208 52.2741 17.4146L52.1026 17.5714C51.9468 17.6967 51.8224 17.8688 51.6822 18.0103C51.4642 18.2298 51.2152 18.4492 51.0124 18.7156C50.9502 18.794 50.8566 18.8566 50.7944 18.935C50.7322 19.0292 50.6543 19.1076 50.5764 19.2014L50.4049 19.3582C50.3583 19.4208 50.2957 19.4524 50.2334 19.515C50.0933 19.6718 49.8909 19.8755 49.6729 19.9539C49.6415 19.9697 49.595 19.9697 49.5484 19.9697C49.4561 19.9705 49.3316 19.939 49.2846 19.9075ZM47.4002 19.1549L47.8519 18.8413C47.9298 18.7944 47.9764 18.716 48.0386 18.6687C48.1944 18.5592 48.3346 18.4181 48.4904 18.2924C48.5683 18.2455 48.6305 18.1514 48.7084 18.0887C48.802 18.0261 48.8642 17.9161 48.9573 17.8535L49.0975 17.7282C49.1597 17.634 49.2533 17.5556 49.3464 17.4776C49.393 17.415 49.44 17.3519 49.5022 17.3051C49.5022 17.164 49.393 17.023 49.2842 16.9914C49.2376 16.9757 49.1441 16.9757 49.0818 16.9757C49.0353 17.0068 48.9573 17.0068 48.8951 17.0225C48.8015 17.0541 48.6457 17.1167 48.5526 17.1636C48.023 17.493 47.6339 17.8688 47.3066 18.4177C47.1978 18.5903 47.1199 18.8097 47.0576 19.045L47.042 19.1703C47.042 19.2329 47.0576 19.2798 47.1199 19.2798C47.1821 19.2337 47.3223 19.2022 47.4002 19.1549Z" fill="black"/>
<path d="M57.8667 19.7199C57.8358 19.6888 57.8201 19.6415 57.8044 19.5946C57.7735 19.5635 57.7265 19.5162 57.7109 19.4693C57.68 19.3752 57.6643 19.2656 57.6643 19.1715C57.6643 18.8736 57.7731 18.56 57.851 18.372C58.2249 17.4942 58.7075 16.8047 59.5018 16.3343H59.564C59.6419 16.2874 59.7507 16.2243 59.8443 16.1932L60.0001 16.1621H60.1246L60.2334 16.1463L60.4205 16.1621C60.4984 16.209 60.5763 16.2405 60.6542 16.272C60.7944 16.3505 60.9032 16.5073 60.9654 16.6794C60.9967 16.7421 60.9811 16.8047 60.9967 16.8831C61.0124 16.8989 61.0276 16.93 61.0276 16.9615H61.0585C61.1521 16.8674 61.23 16.7732 61.2922 16.6637C61.4011 16.5226 61.5412 16.3816 61.6504 16.2247C61.7592 16.0679 61.8528 15.88 62.0086 15.7701C62.0865 15.7232 62.1644 15.6917 62.2266 15.6917C62.3511 15.6917 62.4604 15.7701 62.5069 15.8953C62.5226 15.9422 62.5226 15.9738 62.5226 16.0053C62.5226 16.0995 62.476 16.1779 62.4295 16.2405C62.4138 16.272 62.4138 16.3032 62.3981 16.3189C62.3046 16.46 62.1801 16.601 62.0869 16.7421C61.7597 17.2283 61.4637 17.7141 61.2304 18.2783C61.1682 18.4193 61.0437 18.7172 61.0437 18.9209L61.0594 19.0151H61.0903C61.1369 19.0151 61.2461 18.9367 61.2927 18.9056C61.5107 18.7803 61.7131 18.6077 61.8846 18.4198L62.3515 17.9808C62.4608 17.824 62.6162 17.6987 62.7411 17.5262C62.7567 17.4951 62.819 17.4635 62.8346 17.4324C63.0992 17.0719 63.3952 16.7425 63.6602 16.3978C63.7538 16.2567 63.8626 16.1314 63.9562 16.0061C64.0027 15.9435 64.0341 15.8962 64.0963 15.8493C64.1272 15.8336 64.1899 15.8182 64.2521 15.8182L64.3452 15.834C64.4545 15.8809 64.5946 16.0066 64.5946 16.1787C64.5946 16.2098 64.5946 16.2571 64.5789 16.2882C64.5167 16.4293 64.4231 16.5546 64.3609 16.6803C64.2208 16.9466 64.065 17.1818 63.9248 17.4639L63.769 17.7303C63.7534 17.7614 63.7224 17.7772 63.7224 17.8245V17.8402H63.7534C63.8156 17.7618 63.8935 17.7145 63.9557 17.6519C64.0493 17.5108 64.2051 17.3698 64.3296 17.2756L64.3452 17.2445C64.3918 17.1818 64.4545 17.1503 64.5167 17.1034C64.5633 17.0566 64.6103 16.9939 64.6569 16.9624C64.9371 16.7587 65.1865 16.5235 65.4824 16.3509C65.5603 16.3036 65.8406 16.2098 65.9964 16.2098H66.043C66.0896 16.2256 66.1366 16.2567 66.1831 16.2882C66.261 16.3193 66.3233 16.3509 66.3546 16.4135C66.4168 16.5077 66.4325 16.6172 66.4325 16.7425C66.4325 16.9309 66.3859 17.1188 66.3237 17.2756C66.1522 17.6834 65.9655 18.0593 65.8097 18.4982C65.7631 18.6239 65.6539 18.906 65.6539 19.0781V19.1408H65.7005C65.7471 19.1408 65.8097 19.0935 65.8406 19.0781C66.0121 18.984 66.1522 18.9213 66.3076 18.8118C66.8059 18.4513 67.2886 18.075 67.9275 17.3382C68.021 17.2441 68.1764 16.9777 68.3792 16.9777L68.4728 16.9935C68.582 17.0404 68.6599 17.1814 68.6599 17.3071C68.6599 17.3698 68.629 17.4324 68.582 17.4797L68.3017 17.6834C68.1929 17.7776 67.8813 18.185 67.7568 18.2791C67.6946 18.3418 67.6324 18.4202 67.5697 18.4671C67.3673 18.6239 67.1802 18.8118 66.9778 18.9686C66.9465 18.9844 66.9312 19.0313 66.8999 19.047C66.6819 19.2039 66.4795 19.3918 66.2615 19.5328C66.1213 19.627 65.9968 19.7054 65.841 19.7681L65.7475 19.7838C65.7009 19.7996 65.6539 19.8149 65.5917 19.8149H65.5451C65.5138 19.8149 65.4829 19.7838 65.4515 19.7838C65.3893 19.7527 65.3271 19.7681 65.2801 19.7369C65.2022 19.6901 65.0929 19.5017 65.062 19.3922L65.0777 18.9691C65.2492 18.436 65.4359 17.9502 65.623 17.4486C65.6852 17.2918 65.7475 17.1354 65.7788 16.9786C65.7945 16.9475 65.8254 16.8848 65.8254 16.8375L65.8097 16.8064L65.7784 16.7907H65.7627C65.7314 16.7907 65.6069 16.8691 65.5756 16.8848C65.4041 16.9632 65.2796 17.0574 65.1395 17.1512C65.0929 17.1823 65.0616 17.2453 65.015 17.2764C64.8592 17.3864 64.7348 17.5117 64.6099 17.637L64.3609 17.9033C64.2673 18.0286 64.1429 18.1228 64.065 18.2323L63.3643 19.2043L63.1462 19.549L63.0683 19.6274C63.0218 19.7058 62.9282 19.8311 62.7724 19.8311L62.6945 19.8154C62.5543 19.7685 62.3676 19.6428 62.3676 19.4548L62.3833 19.3764C62.399 19.3138 62.4455 19.2512 62.4612 19.1881C62.6013 18.8749 62.7728 18.5766 62.9129 18.2634C62.9752 18.1377 63.1001 17.997 63.1001 17.8402C62.9443 17.997 62.8041 18.1692 62.664 18.3576L62.6018 18.4044C62.5082 18.5459 62.3837 18.6708 62.2745 18.7965C62.2436 18.8276 62.2123 18.8433 62.1966 18.8749C62.0095 19.0943 61.7762 19.3138 61.5425 19.4864L61.4646 19.549C61.4337 19.5806 61.418 19.5648 61.3867 19.5806L61.3088 19.6432L61.2 19.6747C61.1221 19.7058 61.0755 19.7216 61.0128 19.7216L60.857 19.6905C60.7948 19.6747 60.7325 19.6747 60.6855 19.6436C60.6076 19.5968 60.5763 19.5337 60.5297 19.4553L60.4518 19.3458V19.2831L60.4362 19.0479C60.4362 18.8442 60.5141 18.6558 60.5607 18.499C60.5916 18.4364 60.5916 18.3737 60.6229 18.3107C60.6542 18.2169 60.7321 18.1227 60.7474 17.9975C60.7317 17.9975 60.7317 17.9975 60.7317 18.0132C60.6538 18.029 60.6225 18.1074 60.5602 18.1543L60.1864 18.5621C59.766 18.9852 59.3455 19.4084 58.8316 19.722C58.7693 19.7689 58.52 19.8631 58.3955 19.8631H58.3642C58.3019 19.8631 58.2397 19.8631 58.1927 19.8789C58.1004 19.8452 57.9289 19.7668 57.8667 19.7199ZM58.5674 19.1553C58.7388 19.0926 58.8942 19.0142 59.0344 18.9047C59.6728 18.4816 60.2181 17.9485 60.7008 17.3685C60.6385 17.0553 60.592 16.7728 60.2025 16.7728C60.1716 16.8039 60.0937 16.7885 60.0467 16.8039C59.9844 16.8196 59.9065 16.835 59.8286 16.8665L59.7664 16.9134L59.6885 16.9291C59.2524 17.1955 58.8942 17.5249 58.6296 17.948L58.4581 18.2928C58.3646 18.4807 58.2714 18.7317 58.2714 18.998C58.2714 19.0607 58.2714 19.1391 58.2871 19.2017C58.318 19.2175 58.3493 19.2175 58.365 19.2175C58.4429 19.2183 58.5051 19.1868 58.5674 19.1553Z" fill="black"/>
<path d="M66.1058 23.3088C65.8878 23.2461 65.8099 23.1204 65.8099 22.9483C65.8099 22.7915 65.8721 22.6193 65.9191 22.4467C65.9657 22.3214 65.9657 22.2115 66.0127 22.102V22.0236C66.0283 21.9451 66.0592 21.8356 66.0906 21.7572V21.6946C66.1528 21.4594 66.1841 21.193 66.2464 20.9578C66.2773 20.8479 66.2773 20.7383 66.2929 20.6442L66.3552 20.1895V20.0953C66.3861 19.9227 66.3861 19.719 66.4174 19.5464C66.4174 19.5307 66.4174 19.4996 66.4017 19.4838L66.4326 19.3112L66.417 19.1855C66.4326 19.1697 66.4326 19.1544 66.4326 19.1229V18.7308L66.417 18.6366L66.4326 18.4641L66.417 18.3545C66.3704 18.1508 66.3861 17.8998 66.3234 17.7119V17.6024C66.2612 17.4141 66.2303 17.2104 66.1676 17.0382C66.0118 16.6151 65.8251 16.2388 65.5757 15.894C65.2484 15.4393 64.7349 15.0631 64.2518 14.7499C64.2209 14.7341 64.2052 14.7188 64.1739 14.7188L63.925 14.5777C63.6604 14.4366 63.3487 14.2798 63.0371 14.2014L62.9127 14.1857L62.648 14.2014H62.1654L62.0723 14.2172H61.2932L61.1065 14.233L61.013 14.2487H60.2809L59.7204 14.2798H59.4867L59.3309 14.2956L59.1751 14.2798L59.0972 14.2956H58.5988L58.3651 14.3114L58.0692 14.2956L57.8046 14.3114L57.5243 14.2803H57.3842C57.2906 14.2491 57.1661 14.2492 57.0882 14.2334H57.0103L56.9015 14.1865L56.7614 14.1554C56.6835 14.1239 56.5433 13.9828 56.5433 13.8264V13.7791C56.5742 13.6381 56.5899 13.497 56.6835 13.4186C56.8393 13.3091 57.1039 13.2776 57.3219 13.2149H57.4155C57.6179 13.1523 57.8982 13.1676 58.1319 13.105L58.272 13.0892L58.9261 13.0734L59.2377 13.0423L59.3935 13.0581C59.4401 13.0423 59.4714 13.0423 59.518 13.0423H59.7517L60.5925 13.0734C60.6391 13.0892 60.6861 13.0892 60.7327 13.0892C60.7792 13.0892 60.8262 13.0892 60.8728 13.105C61.0909 13.1519 61.3555 13.1519 61.5578 13.1992C61.6044 13.2149 61.6357 13.2149 61.6671 13.2149C61.6984 13.2149 61.745 13.2149 61.7759 13.2307C62.1341 13.3091 62.5079 13.356 62.8504 13.4659C63.0219 13.5128 63.2086 13.5754 63.3644 13.6385L63.4732 13.6696C63.5355 13.7007 63.629 13.748 63.7069 13.7638L64.8437 13.7795C64.9368 13.7795 65.0617 13.7795 65.0926 13.7953C65.1236 13.7795 65.1549 13.7795 65.1862 13.7795L65.809 13.7953C65.8869 13.7953 65.9648 13.7953 66.027 13.8111L66.1049 13.7953L66.1828 13.8111H66.6346L66.9305 13.7953L67.0241 13.8111H67.2421C67.3666 13.8268 67.5381 13.8268 67.6782 13.8268H67.9898L68.177 13.8426L68.5817 13.8268H69.4073C69.4695 13.8268 69.5318 13.8268 69.5788 13.8111C69.8904 13.1216 70.1707 12.4159 70.4666 11.7264L70.9963 10.535C71.1207 10.2529 71.2452 9.98652 71.3858 9.71976C71.448 9.57871 71.4946 9.43766 71.5881 9.32772C71.619 9.28084 71.7126 9.2182 71.7753 9.20243L71.8375 9.1709C71.8997 9.1709 71.962 9.1709 72.009 9.18667C72.0869 9.23354 72.1961 9.32772 72.1961 9.46877L72.1804 9.53141C72.1495 9.65669 72.0716 9.76663 72.009 9.87615C71.9311 9.98609 71.9002 10.1114 71.8223 10.2367C71.3862 11.0672 70.9501 11.9139 70.5763 12.8075L70.4675 13.0112C70.3739 13.168 70.3273 13.3402 70.2494 13.497C70.2185 13.5912 70.1249 13.7007 70.1249 13.8107C70.1249 13.8107 70.1406 13.8107 70.1406 13.8264L72.835 13.8422L72.9442 13.858L73.1309 13.8422L73.2402 13.858H73.863C74.0344 13.8737 74.2059 13.8737 74.3769 13.8737H74.6259C75.529 13.8895 76.4168 13.8895 77.3203 13.8895H83.0512L86.6177 13.8737L86.9293 13.8895L87.1474 13.858H87.6143L88.4552 13.8422C88.5796 13.8422 88.7041 13.8422 88.829 13.8264H91.0403C91.1182 13.8264 91.1961 13.8264 91.2427 13.8107L91.3676 13.7949L91.57 13.8107L91.6945 13.7949H91.8503L92.551 13.7791C92.6602 13.7791 92.7999 13.7791 92.9248 13.7634L93.0336 13.7476H93.2673L93.7343 13.7318L94.0302 13.7161H94.0925C94.1547 13.7318 94.2013 13.7787 94.2326 13.826C94.2639 13.8571 94.2949 13.9202 94.2949 13.9828V14.0139C94.2639 14.1707 94.1547 14.2491 93.9832 14.2491C93.921 14.2491 93.8744 14.2492 93.8118 14.2334L93.7182 14.2176L92.8617 14.2018H92.5349C92.457 14.2018 92.3477 14.2018 92.2703 14.1861L92.161 14.1703L91.9273 14.1861H91.8024C91.7245 14.1861 91.5535 14.1861 91.4756 14.1703C91.4133 14.1703 91.3511 14.1703 91.2732 14.1861C91.211 14.1703 91.1487 14.1703 91.0861 14.1703L90.7745 14.1545L90.6343 14.1703L90.2761 14.1545H88.6406L88.5784 14.1388L88.376 14.1545C88.3138 14.1388 88.2202 14.1388 88.1423 14.1388H70.5597L70.3574 14.123L70.2638 14.1388H69.9679C69.8591 14.3271 69.7812 14.5308 69.6876 14.7503C69.5631 15.0482 69.4073 15.3618 69.2672 15.675L69.0805 16.1608L68.4729 17.556L68.4572 17.6344C68.4416 17.6659 68.4107 17.697 68.4107 17.7285C68.3641 17.807 68.3484 17.8854 68.3171 17.9638C68.3014 18.0422 68.2392 18.1364 68.2083 18.199C68.0682 18.5442 67.9437 18.9042 67.7879 19.2494L67.71 19.5158C67.461 20.0488 67.2896 20.6288 67.0715 21.1773C67.0406 21.2557 67.025 21.3341 66.9936 21.3967C66.8844 21.6946 66.7912 22.0236 66.682 22.3214L66.6511 22.5251C66.6202 22.6504 66.5889 22.8072 66.5419 22.9172L66.4953 23.0897C66.4487 23.1682 66.3238 23.325 66.1685 23.325L66.1058 23.3088ZM67.0868 19.7352C67.0868 19.7037 67.1333 19.6883 67.149 19.6568C67.1803 19.5942 67.1803 19.5158 67.2112 19.4373C67.2891 19.2648 67.3827 19.0768 67.4449 18.9042C67.5072 18.779 67.5381 18.6537 67.6007 18.5122C68.0059 17.5875 68.3637 16.647 68.7689 15.7061L68.8777 15.4709L69.2206 14.6399C69.2672 14.5304 69.3137 14.4047 69.3764 14.2947C69.3921 14.2479 69.423 14.2163 69.423 14.1537H69.4073C69.3916 14.1379 69.3607 14.1379 69.3294 14.1379H66.3391C65.7315 14.1379 65.1553 14.1537 64.5795 14.1695V14.1852L64.7819 14.3105C64.8755 14.3574 64.969 14.4205 65.0622 14.4831C65.1244 14.5304 65.1866 14.6088 65.2645 14.6557C65.4826 14.8283 65.7006 15.0004 65.8564 15.2203C65.8721 15.2514 65.9187 15.2672 65.9343 15.283C66.3547 15.8003 66.635 16.3645 66.8531 17.0855C66.9153 17.2892 66.9466 17.5087 66.9932 17.7281V17.8065C67.0241 17.9322 67.0241 18.1044 67.0554 18.2297V18.496C67.0711 18.5433 67.0711 18.5902 67.0711 18.6528V18.8254L67.0868 18.8881C67.0711 18.9818 67.0711 19.1233 67.0711 19.2486V19.578L67.0402 19.8132H67.0559L67.0868 19.7352Z" fill="black"/>
<path d="M77.0386 4.54602C77.0543 4.73437 77.0077 4.875 76.9607 5.01647C76.9607 5.04758 76.9607 5.07912 76.9607 5.11022C76.6491 6.19175 76.1821 7.13223 75.746 8.10425C75.7147 8.18266 75.6681 8.26107 75.6216 8.33947C75.575 8.41788 75.5593 8.52783 75.5123 8.60581C75.4967 8.60581 75.4814 8.62158 75.4814 8.63692C75.4658 8.66845 75.4505 8.69956 75.4505 8.73109C75.3883 8.84103 75.3256 8.96632 75.2634 9.07584C75.2477 9.10737 75.2325 9.13848 75.2325 9.17001C75.1859 9.24842 75.1232 9.32683 75.0923 9.42058C75.0458 9.49899 75.0301 9.5774 74.9679 9.65581C74.89 9.81262 74.7964 9.98521 74.7185 10.1258C74.6876 10.1574 74.6876 10.1885 74.6719 10.22C74.5004 10.5336 74.329 10.8626 74.1423 11.1605C74.1266 11.192 74.1266 11.2078 74.1109 11.2389C73.9865 11.4426 73.8772 11.6467 73.7528 11.8504C73.7062 11.9135 73.6905 11.9919 73.6435 12.0699C73.0207 13.0887 72.4289 14.123 71.7434 15.0792C71.7277 15.1108 71.7277 15.1419 71.7125 15.1576C71.6659 15.236 71.588 15.2987 71.5567 15.3613C71.5101 15.4397 71.4788 15.5024 71.4322 15.565C71.1985 15.894 70.9652 16.2076 70.7472 16.5213C70.6384 16.6623 70.4982 16.8034 70.4047 16.9602C70.389 16.976 70.4047 17.0228 70.389 17.0544C70.3733 17.0855 70.3424 17.1012 70.3268 17.1328C70.3268 17.1639 70.3268 17.1954 70.3111 17.2269C70.3111 17.2581 70.2802 17.2738 70.2645 17.3054C70.2645 17.3365 70.2645 17.3522 70.2645 17.368C70.2489 17.3995 70.218 17.4149 70.218 17.4306C70.2023 17.4617 70.2023 17.4933 70.2023 17.5244C70.1866 17.5559 70.1557 17.5717 70.1401 17.6028C70.1244 17.6497 70.1401 17.6812 70.1091 17.7123C70.1091 17.7281 70.0935 17.7281 70.0782 17.7438C70.0782 17.775 70.0782 17.8065 70.0782 17.838C70.0626 17.8538 70.0317 17.8849 70.016 17.9007C70.016 17.9322 70.016 17.9633 70.016 17.9791C70.0003 18.0106 69.9694 18.0259 69.9538 18.0575C69.9538 18.089 69.9538 18.1201 69.9381 18.1517C69.9381 18.1674 69.9068 18.1832 69.8915 18.2143C69.8915 18.2454 69.8915 18.2769 69.8759 18.3081C69.8759 18.3238 69.845 18.3396 69.845 18.3554C69.8293 18.3865 69.8293 18.418 69.8293 18.4495C69.8136 18.4653 69.7827 18.4806 69.7827 18.4964C69.7671 18.5437 69.7671 18.5748 69.7518 18.6063C69.7518 18.6375 69.7209 18.6532 69.7052 18.669C69.7052 18.7005 69.7052 18.7474 69.6896 18.7789C69.6896 18.7947 69.6583 18.81 69.6583 18.8258C69.6426 18.8569 69.6426 18.8884 69.6273 18.9353C69.6273 18.9511 69.5964 18.9511 69.5964 18.9669C69.5808 19.0137 69.5808 19.0453 69.5651 19.0764C69.5651 19.1075 69.5342 19.1232 69.5185 19.139C69.5029 19.1859 69.5185 19.2174 69.5029 19.2485C69.4872 19.2643 69.472 19.2796 69.472 19.2796C69.4563 19.3269 69.4563 19.358 69.4406 19.4053C69.4406 19.4211 69.4097 19.4365 69.3941 19.4522C69.3941 19.4838 69.3941 19.4995 69.3941 19.5306C69.3784 19.5464 69.3475 19.5779 69.3318 19.5933C69.3318 19.6401 69.3318 19.6717 69.3318 19.7028C69.3162 19.7186 69.2853 19.7343 69.2853 19.7654C69.2696 19.7812 69.2696 19.8123 69.2696 19.8438C69.2539 19.8596 69.2387 19.8749 69.223 19.8907C69.2074 19.9222 69.2074 19.9691 69.1921 20.016C69.1921 20.0318 69.1612 20.0475 69.1455 20.0786C69.1455 20.1097 69.1455 20.157 69.1299 20.1886C69.1142 20.2197 69.0833 20.2197 69.0833 20.2981C69.099 20.3139 69.099 20.3139 69.099 20.3292C69.1146 20.3134 69.1146 20.3134 69.1299 20.3134C69.7061 19.2946 70.3293 18.3068 70.9987 17.3663C71.3103 16.9274 71.6219 16.4885 71.9801 16.1122C72.0423 16.0495 72.1045 15.9869 72.1515 15.9243C72.1824 15.8927 72.2138 15.877 72.2451 15.8458C72.2608 15.8147 72.276 15.799 72.3073 15.7674C72.4166 15.6733 72.5254 15.5948 72.6499 15.5011C72.6655 15.4853 72.6812 15.4542 72.6964 15.4542C72.743 15.4231 72.79 15.4231 72.8366 15.3916C72.8522 15.3758 72.8831 15.3443 72.9145 15.3289C72.9767 15.3132 73.2261 15.2978 73.304 15.3132C73.3662 15.3289 73.4284 15.36 73.4754 15.4069C73.5533 15.4538 73.569 15.5322 73.6156 15.6106C73.6312 15.6579 73.6778 15.7048 73.7091 15.7674C73.7401 15.8458 73.6935 15.9243 73.7091 16.0027C73.7248 16.0968 73.7091 16.1906 73.6935 16.269C73.6935 16.3159 73.6935 16.3627 73.6778 16.3943C73.6622 16.5042 73.6156 16.6295 73.5843 16.7237C73.5843 16.7548 73.5686 16.7863 73.5686 16.8179C73.5529 16.849 73.5377 16.8963 73.522 16.9274C73.5064 16.9742 73.5063 17.0058 73.4911 17.0531C73.4911 17.0688 73.4602 17.0842 73.4602 17.1C73.4445 17.1468 73.4445 17.1784 73.4445 17.2099C73.4289 17.2568 73.398 17.3041 73.3823 17.3352C73.3666 17.3663 73.3666 17.3978 73.3666 17.4294C73.2422 17.7115 73.1173 17.9936 73.0241 18.2914C72.9619 18.4482 72.8992 18.6051 72.837 18.7615C72.8213 18.8083 72.7748 18.9025 72.7904 18.934C72.7904 18.9498 72.7904 18.9498 72.8213 18.9498C72.8679 18.8872 73.0237 18.8245 73.0859 18.7615C73.2574 18.6362 73.4132 18.4951 73.5843 18.3694C73.5999 18.3383 73.6308 18.3068 73.6622 18.2757C73.8959 18.1031 74.0673 17.8836 74.7524 17.241C74.768 17.241 74.768 17.2252 74.7833 17.2099C74.7989 17.1784 74.8298 17.163 74.8612 17.1473C74.9234 17.1004 74.9547 17.0377 75.017 16.9904C75.2037 16.8652 75.4531 17.0062 75.4065 17.0842C75.5153 17.3505 75.3286 17.5073 75.1884 17.6488C75.1571 17.6799 75.1419 17.7115 75.0792 17.7899C75.0483 17.8372 74.9856 17.8998 74.9704 17.9156C74.4721 18.4014 74.3319 18.6208 74.1761 18.7308C74.1452 18.7619 74.1296 18.7934 74.0982 18.8403C74.036 18.8876 73.9738 18.9345 73.9111 18.9813C73.8954 18.9971 73.8645 19.0282 73.8489 19.0598C73.724 19.1535 73.6152 19.2634 73.4907 19.3572C73.475 19.373 73.4598 19.3887 73.4441 19.4045C73.3196 19.4987 73.1952 19.5771 73.0703 19.6551C73.0389 19.6708 73.0237 19.7177 73.008 19.7335C72.9771 19.7492 72.9458 19.7492 72.8988 19.7646C72.8522 19.7957 72.8057 19.843 72.743 19.8741C72.7121 19.8741 72.6808 19.8741 72.6342 19.8899C72.5406 19.9056 72.4161 19.9525 72.3069 19.9056C72.1981 19.8588 71.9953 19.6862 71.9487 19.592C71.9331 19.5136 71.9487 19.4194 71.9331 19.3257C71.9017 19.1842 71.964 19.012 71.9953 18.9025C71.9953 18.8714 72.011 18.8399 72.011 18.793C72.1354 18.4009 72.2599 17.9778 72.4162 17.6015C72.4318 17.5704 72.4471 17.5231 72.4471 17.4762C72.4936 17.3978 72.525 17.2879 72.5559 17.1941C72.5715 17.163 72.5715 17.1315 72.5715 17.1157C72.6338 16.9747 72.696 16.8021 72.743 16.661C72.743 16.6299 72.743 16.6142 72.743 16.5826C72.7587 16.5515 72.7896 16.52 72.7896 16.4885C72.7896 16.4573 72.8052 16.4258 72.8052 16.3943C72.8209 16.3316 72.8518 16.269 72.8675 16.1748C72.8518 16.1748 72.8366 16.1748 72.8209 16.1748C72.7743 16.2217 72.6964 16.2532 72.6494 16.3001C72.5559 16.3627 72.4627 16.4569 72.3692 16.5353C72.2912 16.598 72.1977 16.7233 72.1198 16.8017C72.0732 16.8643 71.9953 16.9112 71.9483 16.9742C71.7616 17.2095 71.5436 17.4289 71.3721 17.6795C70.6871 18.5884 70.0638 19.5447 69.472 20.5167C69.4254 20.5793 69.4254 20.642 69.3784 20.6893C69.2069 20.9714 69.0359 21.2693 68.8487 21.5514C68.8178 21.614 68.8022 21.6924 68.7708 21.7551C68.6616 21.8961 68.5685 22.0683 68.4749 22.2251C68.4436 22.2877 68.4283 22.3346 68.397 22.3977C68.3348 22.4761 68.2725 22.5703 68.2255 22.664C68.2099 22.6951 68.2099 22.7109 68.1946 22.7424C68.1946 22.7582 68.1637 22.7735 68.1637 22.7893C68.0702 22.9619 67.9922 23.1656 67.9143 23.3377C67.8987 23.3693 67.8987 23.4004 67.8987 23.4161C67.883 23.4472 67.8521 23.4945 67.8364 23.5256C67.8364 23.5414 67.8364 23.5725 67.8364 23.6041C67.6806 23.9646 67.5248 24.3566 67.3695 24.7171C67.3072 24.8897 67.2137 25.3286 66.9177 25.2029C66.8089 25.156 66.6997 24.9992 66.7776 24.8424C66.7932 24.7798 66.8555 24.7482 66.8864 24.7014C66.9173 24.6387 66.9486 24.5603 66.9956 24.4977C67.0113 24.4661 67.0113 24.435 67.0422 24.3877C67.1044 24.2624 67.1667 24.1371 67.2289 23.9957C67.2289 23.9799 67.2602 23.9488 67.2755 23.9173C67.3068 23.8546 67.3068 23.8231 67.3377 23.7604C67.3534 23.7447 67.3843 23.7289 67.3999 23.6978C67.3999 23.6667 67.3999 23.6352 67.4156 23.6036C67.4156 23.5879 67.4465 23.5725 67.4465 23.5568C67.4465 23.5256 67.4622 23.4941 67.4622 23.4626C67.4778 23.4315 67.4931 23.4157 67.5088 23.3842C67.5244 23.3531 67.5088 23.3215 67.5244 23.2747C67.5401 23.2589 67.5557 23.2431 67.571 23.2278C67.5867 23.1967 67.5867 23.1651 67.6023 23.1336C67.6023 23.1178 67.6332 23.1025 67.6489 23.071C67.6489 23.0399 67.6489 23.0083 67.6489 22.9772C67.6646 22.9457 67.6955 22.9303 67.7111 22.8988C67.7111 22.8677 67.7111 22.8519 67.7268 22.8204C67.7268 22.8046 67.7577 22.7893 67.7734 22.7735C67.7734 22.7424 67.7734 22.7109 67.789 22.6793C67.789 22.6636 67.8204 22.6482 67.8356 22.6325C67.8356 22.6014 67.8356 22.5856 67.8356 22.5698C67.8513 22.523 67.8822 22.4914 67.8978 22.4599C67.8978 22.4441 67.8978 22.413 67.8978 22.3972C67.9135 22.3661 67.9444 22.3504 67.9601 22.3346C67.9601 22.3035 67.9601 22.2877 67.9601 22.2562C67.9757 22.2251 68.0066 22.2093 68.0223 22.1935C68.0223 22.162 68.0223 22.1309 68.0223 22.0994C68.038 22.0836 68.0689 22.0678 68.0689 22.0367C68.0845 22.021 68.0845 21.9899 68.0845 21.9583C68.1002 21.9426 68.1311 21.9114 68.1468 21.8957C68.1468 21.8646 68.1468 21.833 68.1624 21.8019C68.1624 21.7862 68.1934 21.7704 68.1934 21.7551C68.209 21.7235 68.1934 21.7082 68.209 21.6609C68.2247 21.6293 68.2556 21.614 68.2556 21.5825C68.2713 21.5509 68.2713 21.5198 68.2713 21.4883C68.2869 21.4568 68.3178 21.4257 68.3335 21.4099C68.3492 21.363 68.3335 21.3315 68.3644 21.2842C68.3644 21.2842 68.3801 21.2684 68.3953 21.2684C68.3953 21.2369 68.3953 21.2058 68.3953 21.1742C68.411 21.1431 68.4419 21.1274 68.4419 21.1116C68.4575 21.0805 68.4575 21.049 68.4575 21.0174C68.4732 21.0016 68.4885 20.9863 68.5041 20.9705C68.5198 20.939 68.5041 20.9079 68.5198 20.8764C68.5354 20.8448 68.5511 20.8295 68.5664 20.8137C68.582 20.7826 68.5664 20.7668 68.582 20.7195C68.5977 20.7038 68.6286 20.6727 68.6286 20.6569C68.6443 20.61 68.6443 20.5785 68.6595 20.5316C68.6595 20.5316 68.6908 20.5159 68.6908 20.5001C68.7065 20.469 68.7065 20.4374 68.7065 20.4059C68.7222 20.3901 68.7531 20.359 68.7687 20.3433C68.7687 20.3122 68.7687 20.2806 68.7687 20.2491C68.7844 20.218 68.8153 20.2022 68.8153 20.1865C68.831 20.1549 68.831 20.1238 68.831 20.0923C68.8466 20.0607 68.8775 20.0454 68.8932 20.0139C68.8932 19.9828 68.8932 19.967 68.9089 19.9355C68.9089 19.9044 68.9402 19.8886 68.9554 19.8728C68.9554 19.8417 68.9554 19.8259 68.9554 19.7944C68.9711 19.7786 69.002 19.7475 69.002 19.7318C69.0177 19.7002 69.0177 19.6691 69.0177 19.6376C69.0333 19.6065 69.0642 19.5749 69.0799 19.5592C69.0799 19.5276 69.0799 19.5123 69.0799 19.4808C69.0956 19.465 69.1265 19.4339 69.1421 19.4024C69.1421 19.3866 69.1421 19.3551 69.1421 19.324C69.1578 19.2924 69.1887 19.2609 69.2044 19.2298C69.2044 19.1982 69.2044 19.1671 69.22 19.1514C69.22 19.1356 69.2357 19.1203 69.2514 19.1203C69.267 19.0887 69.267 19.0419 69.2823 19.0103C69.2823 18.9792 69.3132 18.9634 69.3289 18.9319C69.3289 18.9008 69.3289 18.8693 69.3289 18.8377C69.3445 18.822 69.3754 18.7909 69.3911 18.7751C69.3911 18.7436 69.3911 18.7282 69.3911 18.6967C69.4068 18.6809 69.4377 18.6498 69.4533 18.6183C69.4533 18.5867 69.4533 18.5556 69.469 18.5241C69.469 18.5241 69.4847 18.5083 69.4999 18.4926C69.5156 18.4615 69.4999 18.4299 69.5156 18.383C69.5312 18.3519 69.5621 18.3362 69.5778 18.3046C69.5778 18.2735 69.5778 18.242 69.5935 18.2109C69.5935 18.1951 69.6244 18.1798 69.64 18.1482C69.64 18.1171 69.64 18.0856 69.6557 18.0698C69.6557 18.0387 69.687 18.023 69.7023 18.0072C69.7023 17.9757 69.7023 17.9446 69.7023 17.913C69.7179 17.8973 69.7489 17.8657 69.7489 17.8504C69.7645 17.8193 69.7645 17.7877 69.7645 17.7562C69.7802 17.7404 69.8111 17.7251 69.8111 17.7093C69.8268 17.6625 69.8268 17.6309 69.842 17.5998C69.842 17.584 69.8729 17.5687 69.8729 17.5529C69.8886 17.5214 69.8886 17.4745 69.8886 17.443C69.9195 17.3804 69.9508 17.3488 69.9665 17.2546C69.9199 17.2078 69.8577 17.1762 69.842 17.1136C69.7484 16.8941 69.9199 16.7215 69.9978 16.5963C70.0135 16.5647 70.0135 16.5494 70.0291 16.5179C70.2472 16.2042 70.4809 15.8752 70.6833 15.5301C70.6989 15.499 70.6989 15.4517 70.7142 15.4206C70.7142 15.4048 70.7451 15.3895 70.7451 15.3737C70.7607 15.3421 70.7451 15.311 70.7607 15.2795C70.7764 15.248 70.8073 15.2326 70.823 15.2011C70.823 15.1696 70.823 15.1385 70.823 15.1069C70.8386 15.0912 70.8695 15.06 70.8852 15.0443C70.9009 14.997 70.8852 14.9659 70.9009 14.9343C70.9165 14.9186 70.9322 14.9186 70.9474 14.8875C70.9474 14.8717 70.9474 14.8406 70.9631 14.8091C70.9631 14.7933 70.994 14.7622 71.0097 14.7464C71.0097 14.7153 71.0097 14.6838 71.0097 14.6522C71.0253 14.6365 71.0563 14.6211 71.0563 14.5896C71.0719 14.5581 71.0719 14.527 71.0872 14.4954C71.0872 14.4639 71.1181 14.4485 71.1337 14.4328C71.1337 14.4012 71.1337 14.3855 71.1337 14.3544C71.1494 14.3386 71.1803 14.3075 71.196 14.276C71.196 14.2449 71.196 14.2291 71.196 14.1976C71.2116 14.1818 71.2425 14.1507 71.2425 14.1349C71.2582 14.1038 71.2582 14.0723 71.2734 14.0407C71.2734 14.0096 71.3044 13.9939 71.32 13.9623C71.3357 13.9312 71.32 13.8997 71.3357 13.8681C71.3357 13.8681 71.367 13.8524 71.367 13.837C71.3827 13.8059 71.3827 13.7586 71.3979 13.7275C71.4136 13.696 71.4288 13.6802 71.4445 13.6649C71.4445 13.6338 71.4445 13.618 71.4445 13.5865C71.4602 13.5707 71.4911 13.5396 71.5067 13.5238C71.5067 13.4927 71.5067 13.4612 71.5224 13.4297C71.5224 13.3985 71.5533 13.3828 71.569 13.3512C71.5846 13.3201 71.569 13.2886 71.5846 13.2571C71.5846 13.2571 71.6155 13.2413 71.6155 13.226C71.6312 13.2102 71.6312 13.1791 71.6312 13.1476C71.6469 13.1164 71.6778 13.0849 71.6934 13.0534C71.7243 12.975 71.7243 12.9123 71.7557 12.8182C71.7866 12.7555 71.8492 12.6771 71.8801 12.6145C71.8801 12.5834 71.8801 12.5518 71.8958 12.5207C71.8958 12.5049 71.9271 12.4734 71.9424 12.4576C71.9424 12.4265 71.9424 12.395 71.9424 12.3792C71.9581 12.3481 71.989 12.3324 71.989 12.3166C72.0355 12.2224 72.0355 12.1598 72.0825 12.066C72.0982 12.0191 72.1604 11.925 72.1761 11.8777C72.1918 11.8308 72.1918 11.7993 72.207 11.7677C72.2383 11.7051 72.2849 11.6109 72.3162 11.5483C72.425 11.2504 72.5343 10.9683 72.6744 10.702C72.6901 10.6709 72.6901 10.6236 72.7053 10.5767C72.8141 10.3572 72.9077 10.122 73.0169 9.87143C73.0169 9.85566 73.0478 9.82455 73.0635 9.79302C73.1101 9.66731 73.1414 9.55779 73.2036 9.44828C73.2036 9.41674 73.235 9.4014 73.2502 9.36987C73.3281 9.21305 73.3747 9.05623 73.4373 8.88365C73.453 8.86788 73.4839 8.83677 73.4996 8.82101C73.5931 8.60155 73.671 8.41362 73.7642 8.19374C73.7642 8.17797 73.7955 8.16263 73.7955 8.14686C73.8421 8.06845 73.8578 7.99004 73.8887 7.91163C73.9509 7.77058 74.0445 7.62953 74.1067 7.48848C74.2159 7.22215 74.3404 6.95581 74.4805 6.72059C74.5115 6.65795 74.5271 6.5953 74.5585 6.53224C74.5894 6.43806 74.652 6.32854 74.7143 6.23479C74.7299 6.21903 74.7299 6.18749 74.7456 6.17215C74.7612 6.10951 74.8078 6.0311 74.8544 5.96846C74.8701 5.93692 74.8701 5.90582 74.8853 5.85852C75.0102 5.67016 75.119 5.45113 75.2435 5.24701C75.2591 5.21548 75.2591 5.18437 75.2748 5.15284C75.2905 5.12173 75.3214 5.10596 75.337 5.09019C75.3527 5.05866 75.3527 5.02755 75.368 4.99602C75.4145 4.91761 75.4772 4.8392 75.5238 4.76079C75.5547 4.72968 75.5547 4.69815 75.5703 4.66704C75.586 4.63551 75.6169 4.61974 75.6482 4.58863C75.6639 4.55753 75.6639 4.52599 75.6791 4.49488C75.6948 4.46335 75.7257 4.44758 75.7414 4.43182C75.7879 4.38494 75.8036 4.33807 75.8349 4.29077C75.8659 4.25923 75.8815 4.24389 75.8972 4.22812C75.9438 4.18082 75.9751 4.11818 76.0217 4.08665C76.053 4.05554 76.0996 4.03977 76.1309 4.00824C76.1618 3.97713 76.1931 3.92983 76.2397 3.91406C76.2863 3.8983 76.3333 3.88295 76.3798 3.86719C76.5822 3.86719 76.6288 3.8983 76.738 3.9767C76.8938 4.05511 76.987 4.10199 77.034 4.29034C77.0695 4.37344 77.0386 4.46761 77.0386 4.54602ZM69.0647 20.3778C69.0647 20.3778 69.0647 20.3778 69.049 20.362C69.049 20.3778 69.049 20.3778 69.0333 20.3931C69.049 20.4089 69.0333 20.3931 69.049 20.4089C69.049 20.4089 69.049 20.4089 69.0647 20.4089C69.0647 20.4089 69.0647 20.4089 69.0647 20.3931C69.0647 20.3936 69.0647 20.3936 69.0647 20.3778ZM71.6189 14.0919C71.6189 14.0761 71.6189 14.0761 71.6033 14.0761C71.6033 14.0919 71.6033 14.0919 71.5876 14.123C71.6033 14.123 71.5876 14.123 71.6033 14.123C71.6189 14.123 71.6033 14.123 71.6189 14.123C71.6189 14.1076 71.6189 14.1076 71.6189 14.0919ZM75.995 5.4392C75.9793 5.4392 75.9793 5.4392 75.9641 5.42343C75.7926 5.61178 75.6681 5.83082 75.528 6.0507C75.5123 6.08181 75.4814 6.11334 75.4658 6.14488C75.2634 6.45809 75.0919 6.77172 74.8895 7.08536C74.843 7.148 74.8273 7.22641 74.7807 7.28905C74.6563 7.50851 74.547 7.74374 74.4069 7.94743C74.3912 7.9943 74.3755 8.02584 74.3755 8.07314C74.2354 8.2926 74.1109 8.54317 74.0017 8.79416C73.9708 8.87257 73.9081 8.93521 73.8772 9.01362C73.768 9.24885 73.6592 9.45254 73.5656 9.68777C73.5347 9.75041 73.4721 9.82882 73.4412 9.89146C73.1922 10.4557 72.9428 11.0199 72.6935 11.5845C72.4288 12.1487 72.1638 12.7129 71.9458 13.3086C71.9301 13.3397 71.8992 13.3713 71.8835 13.387C71.8679 13.4339 71.8835 13.4497 71.8679 13.4812C71.8522 13.497 71.837 13.5123 71.8213 13.5281C71.8213 13.5439 71.8213 13.575 71.8056 13.6065C71.8056 13.6223 71.7743 13.6538 71.7591 13.6849C71.7591 13.7007 71.7591 13.7164 71.7591 13.7476C71.7434 13.7633 71.7125 13.7944 71.6968 13.826C71.6968 13.8571 71.6968 13.8728 71.6968 13.9044C71.6659 13.9512 71.6503 13.9201 71.6503 14.0139C71.6503 14.0139 71.6503 14.0139 71.6659 14.0297L71.6816 14.0139C71.884 13.6845 72.102 13.3555 72.3044 13.0265C72.4602 12.7602 72.616 12.4934 72.787 12.2271C72.787 12.196 72.8027 12.1802 72.8179 12.1487C72.9115 11.9919 73.0051 11.8197 73.0982 11.6782C73.1139 11.6471 73.1291 11.6156 73.1291 11.5845C73.2693 11.3493 73.4094 11.0987 73.5652 10.8635C73.5809 10.8162 73.5809 10.7851 73.6118 10.7535C73.7206 10.5498 73.8298 10.3304 73.9543 10.1263C73.9852 10.0794 73.9852 10.0478 74.0009 10.001C74.0788 9.87569 74.141 9.73464 74.2189 9.59316C74.4369 9.17001 74.6706 8.73109 74.8574 8.27641C74.8883 8.198 74.9509 8.11959 74.9818 8.04118C75.0441 7.90013 75.0911 7.77485 75.1533 7.63379C75.1846 7.55539 75.2469 7.46121 75.2782 7.39857C75.387 7.13223 75.4962 6.85013 75.605 6.59914C75.636 6.48962 75.6516 6.41121 75.6829 6.31704C75.7452 6.19133 75.7922 6.03494 75.8544 5.90923C75.8544 5.87812 75.8701 5.84658 75.8701 5.81505C75.9171 5.70596 75.9641 5.56491 75.995 5.4392Z" fill="black"/>
<path d="M79.1879 19.8602L79.11 19.8759H79.0165L78.7519 19.8602L78.3624 19.8759C77.9728 19.8448 77.5681 19.8291 77.2722 19.688C77.2099 19.6722 77.1633 19.6096 77.1007 19.5785C77.0384 19.5312 76.9605 19.5001 76.9136 19.4374L76.8826 19.3433C76.8361 19.2649 76.7738 19.218 76.7425 19.1238C76.7425 19.0923 76.7425 19.0454 76.7268 19.0139C76.7268 18.967 76.7112 18.9197 76.6955 18.8728L76.7112 18.6845C76.7268 18.6376 76.7268 18.5903 76.7268 18.5434L76.8826 18.0572L76.9136 17.9945L77.0228 17.7282C77.0384 17.6967 77.0694 17.6967 77.0694 17.634C77.038 17.6183 77.038 17.6029 76.9915 17.6029C76.8356 17.7755 76.6485 17.9323 76.5088 18.1203C76.4466 18.1987 76.3373 18.2455 76.2751 18.3397C76.1972 18.4339 76.1193 18.5281 76.0105 18.6061L75.9639 18.6845C75.9173 18.7313 75.8551 18.7786 75.7924 18.8097L75.5744 19.0607C75.3877 19.186 75.2476 19.3582 75.0604 19.4997L74.9669 19.5308C74.8267 19.6249 74.7488 19.6876 74.4999 19.7033H74.3441C74.2348 19.6722 74.0794 19.5308 74.0325 19.4528C73.9859 19.3901 74.0015 19.3275 73.9859 19.2491L73.9702 19.0923C73.9702 18.7948 74.126 18.4965 74.2039 18.2775C74.3441 17.9639 74.4842 17.6818 74.6557 17.3997C74.6713 17.3681 74.7022 17.3524 74.7179 17.337L74.7645 17.2428C74.7801 17.2428 74.7954 17.2271 74.811 17.2117C74.9982 16.9454 75.1692 16.7102 75.4186 16.5065C75.4495 16.4907 75.4652 16.4596 75.4808 16.4438C75.5122 16.4123 75.5431 16.4123 75.5744 16.3965C75.6057 16.3808 75.621 16.3339 75.668 16.3024L75.7615 16.2866C75.7924 16.2555 75.8081 16.224 75.8551 16.2082C75.9796 16.1455 76.1197 16.1298 76.2599 16.0987L76.6028 16.1144C76.8208 16.1771 77.0232 16.3339 77.1011 16.5223C77.132 16.6007 77.1633 16.6475 77.179 16.7259V16.8044C77.179 16.8355 77.1947 16.8512 77.2103 16.867H77.226C77.3661 16.7571 77.4906 16.6164 77.5999 16.4749L77.7087 16.3812C77.7709 16.3028 77.8488 16.2244 77.8958 16.146L78.0046 16.0365C78.0668 16.0053 78.0982 15.9423 78.1291 15.9112L78.2849 15.8328C78.5338 15.8328 78.6431 15.9423 78.6431 16.0991C78.6431 16.287 78.6274 16.2086 78.5808 16.3343C78.5186 16.4911 78.4094 16.6791 78.3319 16.8359L78.2696 16.9616C78.2696 16.9774 78.2387 16.9927 78.2231 17.0242L78.2074 17.1026C78.0359 17.3847 77.8801 17.7142 77.7557 18.0274C77.6934 18.2157 77.5376 18.4974 77.5376 18.7484L77.5533 18.8741C77.5842 18.8899 77.6312 18.9367 77.6778 18.9525C77.8645 19.0309 78.0982 19.0467 78.3162 19.1093H78.4098L78.6435 19.1409H78.7836C78.8929 19.172 79.0482 19.1566 79.1731 19.172H79.2667C79.3289 19.1877 79.4225 19.1877 79.4847 19.1877H79.6405C79.6562 19.2035 79.7184 19.2035 79.7807 19.2035H79.9208C80.0296 19.2193 80.1545 19.2193 80.2633 19.2193H80.823L81.0567 19.235H81.8044L81.9602 19.2508L82.3028 19.235L82.6766 19.2661L83.2219 19.2504C83.6267 19.2504 84.0475 19.2504 84.4523 19.2661H88.4858L88.6729 19.2504L88.7352 19.2661L88.9066 19.2504L88.9845 19.2661H89.5294C90.2458 19.2504 90.9469 19.2504 91.6633 19.2504L94.8403 19.2346L94.9648 19.2188L95.0736 19.2031L95.3073 19.2188L109.168 19.1873H111.037C111.146 19.1715 111.27 19.1715 111.395 19.1715H112.002L112.096 19.1558L112.267 19.1715L112.361 19.1558C112.423 19.14 112.486 19.14 112.548 19.14H113.093L113.483 19.1242H115.32C115.522 19.1085 115.725 19.1085 115.928 19.1085H116.442L116.582 19.0927C116.613 19.0927 116.628 19.0927 116.644 19.1085C116.753 19.1085 116.893 19.1085 116.971 19.0927H117.391C117.453 19.0769 117.531 19.0769 117.594 19.0769L117.952 19.0927L118.108 19.0769H119.462L119.805 19.0612C119.836 19.0612 119.883 19.0612 119.929 19.0769C120.023 19.0612 120.132 19.0612 120.241 19.0612H122.187C122.312 19.0612 122.468 19.0612 122.592 19.0454L122.841 19.0612L122.935 19.0454H124.243C124.352 19.0454 124.461 19.0454 124.523 19.0923C124.585 19.1396 124.663 19.2337 124.663 19.3433V19.3901C124.617 19.5785 124.476 19.6407 124.289 19.6407C124.211 19.6407 124.134 19.6407 124.04 19.6096H123.9L123.744 19.5938C123.682 19.5781 123.62 19.5781 123.557 19.5781C123.495 19.5781 123.433 19.5781 123.37 19.5623H122.996L122.856 19.5465L122.124 19.5154C122 19.4997 121.89 19.4997 121.766 19.4997H121.564L121.33 19.5154L121.252 19.4997H120.987C120.879 19.4839 120.723 19.4839 120.598 19.4839H119.819L119.741 19.4681H119.445C119.383 19.4524 119.305 19.4524 119.227 19.4524H118.277L117.919 19.4366L117.483 19.4524H115.396L114.976 19.4366L114.773 19.4524H114.213L113.917 19.4681H113.45L113.03 19.4524L112.718 19.4839H112.173C112.017 19.4997 111.861 19.4997 111.706 19.4997H109.744L109.666 19.5154L109.51 19.4997C109.292 19.5154 109.074 19.5154 108.84 19.5154H108.684L108.529 19.5312L108.388 19.5154L108.186 19.5465L107.952 19.5308H95.2599C95.2133 19.5308 95.1663 19.5308 95.1354 19.5465H94.3877C94.2941 19.5465 94.2162 19.5465 94.1388 19.5623H92.3165C92.2543 19.5623 92.1921 19.5623 92.1451 19.5781H91.5998C91.5375 19.5938 91.4753 19.5938 91.413 19.5938H91.1484C91.0862 19.5938 91.024 19.5938 90.9613 19.6096L90.7589 19.5938C90.681 19.6096 90.5875 19.6096 90.51 19.6096C90.4007 19.6096 90.2454 19.6096 90.1518 19.6254H88.2987L87.8935 19.6411H87.7064L87.3795 19.6569C87.3486 19.6411 87.3173 19.6411 87.2703 19.6411H87.0679C86.99 19.6411 86.9121 19.6411 86.8499 19.6569H86.4138L86.3515 19.6727L86.2266 19.6569L86.0865 19.6727H85.6504C85.5103 19.6727 85.3858 19.6727 85.2452 19.6884H84.3422L83.8595 19.7042L83.0809 19.72L82.8163 19.7357H82.5674C82.5051 19.7515 82.4429 19.7515 82.3802 19.7515L82.0686 19.7673H81.9128L81.3832 19.783C81.3053 19.7988 81.2274 19.7988 81.1495 19.7988H80.8535C80.7756 19.7988 80.6977 19.7988 80.6355 19.8146L80.3865 19.8303H80.1685L80.0597 19.8461H79.577L79.3281 19.8772L79.1879 19.8602ZM75.0143 18.8255L75.5126 18.4803C75.8085 18.2451 76.0731 17.963 76.3691 17.744L76.4313 17.6656L76.618 17.493C76.6337 17.493 76.7582 17.3673 76.7738 17.3515L76.7895 17.3046C76.7895 17.242 76.7586 17.1478 76.7273 17.1163C76.665 16.9279 76.5558 16.8342 76.2912 16.8342L76.1197 16.8657C76.0105 16.8968 75.8703 16.9599 75.7924 17.0225C75.3255 17.3362 74.9825 17.8377 74.7645 18.3704C74.7022 18.4957 74.593 18.7467 74.593 18.9346V18.9972L74.6552 19.013C74.7492 18.9355 74.905 18.8882 75.0143 18.8255Z" fill="black"/>
<path d="M128.892 19.5186C128.952 19.2639 128.795 19.0087 128.542 18.9485C128.289 18.8884 128.035 19.0461 127.975 19.3008C127.916 19.5555 128.072 19.8107 128.325 19.8709C128.579 19.931 128.832 19.7733 128.892 19.5186Z" fill="black"/>
</svg>
