<svg width="1170" height="707" viewBox="0 0 1170 707" fill="none" xmlns="http://www.w3.org/2000/svg">
<mask id="mask0_9320_54" style="mask-type:alpha" maskUnits="userSpaceOnUse" x="0" y="0" width="1170" height="707">
<path d="M390.505 0.749062H779.07C779.466 0.749062 784.7 0.749062 785.096 0.749062C785.096 0.749062 847.664 0.827508 838.737 0.749062C1026.23 0.749062 1147.26 108.891 1168.12 265.697C1188.98 422.503 1029.38 707 1029.38 707C1029.38 707 1092.5 497.787 894.524 497.787C867.978 497.787 390.505 497.787 390.505 497.787C201.756 497.787 -1.42671e-05 483.228 0 244.485C1.61811e-05 -26.2864 201.756 0.749062 390.505 0.749062Z" fill="#A3DAD6"/>
</mask>
<g mask="url(#mask0_9320_54)">
<path d="M390.505 0.749062H779.07C779.466 0.749062 784.7 0.749062 785.096 0.749062C785.096 0.749062 847.664 0.827508 838.737 0.749062C1026.23 0.749062 1147.26 108.891 1168.12 265.697C1188.98 422.503 1029.38 707 1029.38 707C1029.38 707 1092.5 497.787 894.524 497.787C867.978 497.787 390.505 497.787 390.505 497.787C201.756 497.787 -1.42671e-05 483.228 0 244.485C1.61811e-05 -26.2864 201.756 0.749062 390.505 0.749062Z" fill="#A3DAD6" fill-opacity="0.5"/>
<path d="M-18.5478 595.603L-1.61084 512.679C14.7036 470.988 70.3123 461.671 98.3663 496.563C102.012 501.104 104.507 505.678 105.368 510.063C113.268 491.001 127.839 474.4 146.536 465.973C165.228 457.556 187.991 458.002 205.244 468.823C221.963 479.306 232.396 499.818 229.735 519.545C231.918 506.117 236.683 492.787 245.74 482.704C255.224 472.134 270.036 465.731 283.702 468.952C297.367 472.174 308.248 486.547 305.333 500.472C309.754 485.772 317.294 471.606 329.031 461.809C340.781 452.007 357.159 447.173 371.611 451.679C386.062 456.185 397.265 471.189 395.257 486.393C402.666 462.575 430.484 447.302 454.152 454.051C477.82 460.8 493.303 488.41 486.922 512.512L568.952 609.603L476.954 732.844C445.746 786.254 498.339 664.776 480.416 723.997L-18.5478 595.603Z" fill="url(#paint0_linear_9320_54)"/>
<path d="M753 -16.9998V23.3802C753 68.1502 801.39 97.0902 840.23 74.8202C845.28 71.9202 849.27 68.5702 851.67 64.8002C852.08 85.4302 859.6 106.2 873.94 120.86C888.28 135.51 909.64 143.39 929.65 139.6C949.04 135.93 966.23 120.63 970.94 101.29C968.08 114.59 967.66 128.74 972.42 141.43C977.4 154.73 988.86 166.09 1002.76 168.07C1016.66 170.05 1032.03 160.63 1034.39 146.6C1033.15 161.9 1035.01 177.84 1042.37 191.24C1049.74 204.65 1063.23 215.12 1078.33 216.19C1093.43 217.26 1109.33 207.37 1113 192.48C1111.22 217.36 1131.56 241.72 1156.06 244.06C1180.56 246.4 1205.04 226.33 1207.88 201.56L1217.89 197.72C1208.29 136.61 1205.49 44.6802 1210.38 -16.9998H753Z" fill="url(#paint1_linear_9320_54)"/>
</g>
<defs>
<linearGradient id="paint0_linear_9320_54" x1="458.116" y1="-38.5628" x2="192.624" y2="639.902" gradientUnits="userSpaceOnUse">
<stop offset="0.01" stop-color="white"/>
<stop offset="0.9969" stop-color="white" stop-opacity="0"/>
</linearGradient>
<linearGradient id="paint1_linear_9320_54" x1="980.24" y1="704.246" x2="980.24" y2="-24.314" gradientUnits="userSpaceOnUse">
<stop offset="0.01" stop-color="white"/>
<stop offset="0.9969" stop-color="white" stop-opacity="0"/>
</linearGradient>
</defs>
</svg>
