<svg width="68" height="94" viewBox="0 0 68 94" fill="none" xmlns="http://www.w3.org/2000/svg">
<path d="M34.8395 85.5697C33.9995 81.3537 34.4195 77.5597 35.2595 73.3447H34.8395C34.4195 77.1387 33.9995 81.3557 34.8395 85.5697ZM31.4815 85.5697C32.3205 81.3537 31.9015 77.5597 31.0615 73.3447H31.4815C31.9015 77.1387 32.3205 81.3557 31.4815 85.5697ZM37.3575 85.5697C36.5175 81.3537 36.9375 77.5597 37.7775 73.3447H37.3575C36.9375 77.1387 36.5175 81.3557 37.3575 85.5697Z" fill="#E5E5E5"/>
<path d="M29.802 68.287L28.543 68.709C7.555 37.937 1.26 14.332 19.728 2.94999C21.828 1.26399 23.506 1.26399 25.185 1.68499C10.074 13.067 16.79 38.359 29.802 68.287Z" fill="url(#paint0_linear_9020_272)"/>
<path d="M28.123 68.7091C7.55601 37.9371 1.26001 14.3311 19.728 2.95006C20.568 2.10706 21.828 1.68506 22.667 1.68506C5.87701 10.9591 9.23501 37.5151 28.123 68.7071V68.7091Z" fill="url(#paint1_linear_9020_272)" fill-opacity="0.263"/>
<path d="M19.7285 2.9502C0.838533 17.2822 11.3325 41.7302 28.5425 68.7082L27.2835 69.1302C10.0735 51.0052 -8.81547 22.3402 14.6915 5.0582C16.7895 3.7942 18.0485 2.9502 19.7285 2.9502Z" fill="url(#paint2_linear_9020_272)"/>
<path d="M26.864 69.1301C9.65403 51.0041 -9.23497 22.3401 14.271 5.05807C14.691 4.63707 15.531 4.21507 15.951 4.21507L16.791 3.37207C-5.03697 21.0761 10.074 48.8971 26.444 68.2871L26.864 69.1301Z" fill="#A4F6FF" fill-opacity="0.18"/>
<path d="M13.8515 5.47998C-2.51847 18.547 1.67853 41.31 27.2835 69.13L25.6045 69.552C-1.25947 45.103 -8.81547 17.704 13.8515 5.47998Z" fill="url(#paint3_linear_9020_272)"/>
<path d="M28.963 1.26394C20.988 14.7539 25.605 40.8879 31.481 68.2869H34.839L34.42 0.842936C32.322 -6.4373e-05 30.643 -6.4373e-05 28.964 1.26394H28.963Z" fill="url(#paint4_linear_9020_272)"/>
<path d="M31.481 68.2868C25.605 40.8878 20.988 14.7538 28.963 1.26477L29.383 0.842773H29.803V1.26477C24.346 14.7538 26.864 38.3588 31.062 64.0718L31.481 68.2868Z" fill="#A4F6FF" fill-opacity="0.2"/>
<path d="M31.4815 68.287H29.3815C15.1115 36.673 10.4935 11.381 24.7645 1.68699C26.0245 0.842986 27.2835 0.842985 28.9625 1.26499C22.6665 14.332 24.3465 37.937 31.4815 68.287Z" fill="url(#paint5_linear_9020_272)"/>
<path d="M39.457 1.26394C47.432 14.7539 42.815 40.8879 36.938 68.2869H33.58C33.58 53.9549 33.16 39.6229 33.16 24.8699C33.16 16.8599 33.58 8.85194 34 0.842936C36.099 -6.4373e-05 37.778 -6.4373e-05 39.457 1.26394Z" fill="url(#paint6_linear_9020_272)"/>
<path d="M36.9385 68.287H39.0375C53.3095 36.673 57.9265 11.381 44.0745 1.68699C42.8145 0.842986 41.5565 0.842985 39.8775 1.26499C45.7535 14.332 44.0745 37.937 36.9385 68.287Z" fill="url(#paint7_linear_9020_272)"/>
<path d="M38.617 68.287L40.297 68.709C60.863 37.937 67.16 14.332 48.69 2.94999C46.591 1.26399 44.912 1.26399 43.233 1.68499C58.345 13.067 51.628 38.358 38.616 68.286L38.617 68.287Z" fill="url(#paint8_linear_9020_272)"/>
<path d="M48.691 2.9502C67.581 17.2822 57.086 41.7302 40.296 68.7082L41.556 69.1302C58.766 51.0052 77.235 22.3402 54.148 5.0582C52.049 3.3722 50.37 2.9502 48.691 2.9502Z" fill="url(#paint9_linear_9020_272)"/>
<path d="M54.1479 5.47998C70.5179 18.547 66.3209 41.31 40.7159 69.13L42.3959 69.552C69.6779 45.103 76.8149 17.704 54.1479 5.47998Z" fill="url(#paint10_linear_9020_272)"/>
<path d="M27.7036 74.6101C27.2836 72.9241 26.4436 70.8161 25.1846 69.1301C28.1236 67.4441 30.6416 67.0231 33.5796 66.6011H34.4196C36.9376 66.6011 39.8766 67.4441 42.3946 69.1311C41.5546 70.8161 40.2956 72.5021 39.8766 74.6101C38.1966 73.7671 36.5186 73.3461 34.8396 73.3461H33.1596C31.0616 73.7671 29.3826 74.1891 27.7036 74.6101Z" fill="url(#paint11_linear_9020_272)"/>
<path d="M31.9015 67.022C29.8025 67.444 27.7045 67.865 25.6055 69.552C26.4455 71.238 27.7045 72.924 28.1235 75.032C29.8035 74.188 31.4815 73.767 33.1605 73.767L31.9015 67.022Z" fill="url(#paint12_linear_9020_272)"/>
<path d="M34 73.3452C37.358 73.3452 40.296 74.1882 40.296 74.6102C40.296 75.4532 37.358 75.8742 34 75.8742C30.642 75.8742 27.704 75.0312 27.704 74.6102C27.704 73.7672 30.642 73.3452 34 73.3452Z" fill="url(#paint13_linear_9020_272)"/>
<path d="M42.8146 69.5521C42.3946 69.1301 42.3946 69.5521 42.8146 69.5521L42.3946 69.1301C42.3946 69.1301 42.8146 69.1301 42.8146 69.5521ZM25.1846 69.5521C25.1846 69.1301 25.1846 69.1301 25.6046 69.1301L25.1846 69.5521C25.6046 69.1301 25.1846 69.1301 25.1846 69.5521ZM41.9746 69.1301L41.5546 68.7091C41.9746 68.7091 41.9746 68.7091 41.9746 69.1301ZM26.0246 69.1301C26.0246 68.7091 26.0246 68.7091 26.4446 68.7091L26.0246 69.1301C26.4446 68.7091 26.0246 68.7091 26.0246 69.1301ZM41.1346 68.7091C41.1346 68.2871 41.1346 68.2871 41.1346 68.7091V68.7091ZM26.8646 68.7091C26.8646 68.2871 26.8646 68.2871 26.8646 68.7091C26.8646 68.2871 27.2846 68.2871 26.8646 68.7091ZM40.2956 68.2871C40.2956 67.8661 40.2956 67.8661 40.2956 68.2871V68.2871ZM27.7036 68.2871C27.7036 67.8661 27.7036 67.8661 27.7036 68.2871V68.2871ZM39.4566 67.8661C39.4566 67.4441 39.4566 67.4441 39.4566 67.8661V67.8661ZM28.5426 67.8661C28.5426 67.4441 28.9626 67.4441 28.5426 67.8661V67.8661ZM37.7776 67.4441C37.3576 67.0231 37.7776 67.0231 37.7776 67.4441V67.4441ZM30.2216 67.4441C30.2216 67.0231 30.6416 67.0231 30.2216 67.4441V67.4441ZM36.9376 67.4441C36.5176 67.0231 36.9376 67.0231 36.9376 67.4441V67.4441ZM31.0616 67.4441C31.0616 67.0231 31.4816 67.0231 31.0616 67.4441V67.4441ZM36.0986 67.0231C35.6786 67.0231 35.6786 67.0231 36.0986 67.0231V67.0231ZM31.9006 67.0231C31.9006 66.6011 32.3206 66.6011 32.3206 66.6011V67.0231H31.9006ZM35.2586 67.0231H34.8386V66.6001C34.8386 67.0221 34.8386 67.0231 35.2586 67.0231ZM32.7406 67.0231C32.7406 66.6011 33.1606 66.6011 33.1606 66.6011V67.0231H32.7406ZM34.4196 67.0231H33.9996V66.6001L34.4196 67.0231Z" fill="white"/>
<path d="M25.6045 69.552C-1.25947 45.103 -8.81547 17.704 13.8515 5.47998L12.5915 6.74498H12.1715L11.7525 7.16598C-5.45747 20.233 1.67953 45.525 24.7645 68.71L25.6045 69.552Z" fill="#A4F6FF" fill-opacity="0.235"/>
<path d="M29.3829 68.2871C15.1109 36.6731 10.4929 11.3811 24.7649 1.68714C24.7649 1.68714 25.1849 1.26514 25.6049 1.26514H26.0249C13.8519 10.5381 16.7899 35.4081 28.9629 67.0221L29.3829 68.2871Z" fill="url(#paint14_linear_9020_272)" fill-opacity="0.263"/>
<path d="M33.16 18.9692C19.31 18.5472 6.296 21.0762 0.84 26.1352L0 25.2922C5.877 19.8122 19.309 17.2822 33.16 17.2822C47.012 17.2822 61.284 20.2332 68 24.8702L67.16 26.1352C60.444 21.4982 46.593 18.9692 33.16 18.9692Z" fill="white" fill-opacity="0.545"/>
<path d="M39.4566 2.94997C44.4936 22.34 41.1356 42.995 36.5186 63.65C37.7776 50.583 38.6166 9.69497 37.3586 2.52897C38.1976 1.68597 38.6166 1.68597 39.4566 2.94997Z" fill="url(#paint15_linear_9020_272)" fill-opacity="0.235"/>
<path d="M46.173 5.47997C54.148 17.704 47.853 41.31 39.457 61.964C48.692 36.673 47.013 14.332 44.494 5.05797C45.334 4.63697 45.753 4.21497 46.173 5.47997Z" fill="url(#paint16_linear_9020_272)" fill-opacity="0.235"/>
<path d="M53.728 9.27387C61.284 21.0759 55.828 40.8879 44.494 59.4349C57.926 34.9869 54.148 16.8609 51.63 8.85187C50.37 5.90187 52.05 7.16587 53.728 9.27387Z" fill="url(#paint17_linear_9020_272)" fill-opacity="0.235"/>
<path d="M60.025 11.8032C67.58 21.9192 62.123 38.7802 50.79 54.3762C64.222 33.3002 60.444 18.5462 57.926 11.3812C56.246 8.0092 57.086 8.4312 60.025 11.8022V11.8032Z" fill="url(#paint18_linear_9020_272)" fill-opacity="0.235"/>
<path d="M28.543 2.94991C23.506 22.3399 26.864 42.9949 31.482 63.6499C30.222 50.5829 29.382 9.69491 30.642 2.10791C29.802 1.68591 29.382 1.68491 28.543 2.94991Z" fill="url(#paint19_linear_9020_272)" fill-opacity="0.235"/>
<path d="M20.5679 6.32278C13.0119 19.8118 19.3079 42.1528 27.7039 62.8068C18.4689 37.5158 19.7279 15.1748 22.2469 5.90178C21.8269 5.05778 20.9869 5.05778 20.5669 6.32278H20.5679Z" fill="url(#paint20_linear_9020_272)" fill-opacity="0.235"/>
<path d="M14.2716 8.85207C6.71561 21.0761 12.1716 40.8881 23.5056 59.4351C9.65361 34.5651 13.8516 16.8611 16.3696 8.43107C15.5296 8.00907 14.6906 8.00907 14.2716 8.85207Z" fill="url(#paint21_linear_9020_272)" fill-opacity="0.235"/>
<path d="M8.39495 11.8031C0.83995 22.7631 6.29595 41.3091 17.6299 58.1701C4.19795 35.8301 7.97495 19.3901 10.4939 11.8031C9.65395 10.9601 9.23395 10.9601 8.39495 11.8031Z" fill="url(#paint22_linear_9020_272)" fill-opacity="0.235"/>
<path d="M42.8154 67.4438C45.7534 64.0718 48.6914 60.2778 51.2104 56.9058C54.1484 52.6908 57.0864 48.4758 59.6054 44.2598C58.7654 45.9458 57.9254 47.6328 56.6674 49.7398C54.9874 52.6898 53.3094 55.2198 51.2104 58.1698C49.9504 60.2778 48.2724 61.9638 46.5934 63.6498L42.8154 67.4438Z" fill="url(#paint23_linear_9020_272)" fill-opacity="0.282"/>
<path d="M40.296 67.4442C42.815 63.6502 44.914 59.8572 47.432 56.0632C49.8381 51.6522 52.0784 47.1527 54.148 42.5742C53.308 44.2602 52.889 46.3682 52.049 48.0542C50.79 51.0042 49.111 53.9552 47.852 56.9062L44.074 63.2292C42.814 64.4932 41.556 66.1792 40.296 67.4442Z" fill="url(#paint24_linear_9020_272)" fill-opacity="0.282"/>
<path d="M31.9006 68.709L31.0606 67.023L30.6416 64.915L31.4816 66.601L31.9016 68.709H31.9006ZM29.8016 69.13L28.9626 67.444L28.1226 65.758L29.3826 67.444L29.8016 69.13ZM28.5426 69.551L27.2826 67.865L26.4436 66.179L27.7036 67.865L28.5436 69.551H28.5426ZM27.2836 70.394L26.0236 69.13L25.1846 67.444L26.4446 68.708L27.2836 70.394ZM36.5186 68.709L36.9386 66.601L37.7776 64.915L37.3576 67.023L36.5186 68.709ZM39.4566 69.551L40.2966 67.865L41.5556 66.179L40.7156 67.865L39.4566 69.551ZM40.2956 69.973L41.5556 68.287L42.8146 67.022L41.9746 68.709L40.2956 69.973Z" fill="white"/>
<path d="M49.95 34.987C50.37 33.301 50.79 31.193 50.79 29.085V22.341C50.79 20.233 50.79 18.126 50.37 16.018C50.37 12.646 49.53 10.117 48.272 8.00898C47.852 7.16598 47.432 6.32298 46.592 5.47998C47.012 5.90198 47.432 6.32298 47.852 7.16598L49.111 9.69598C50.371 11.803 51.21 14.332 51.63 16.861C52.05 18.969 52.05 21.076 51.63 23.184V25.713C51.63 26.978 51.21 28.663 51.21 29.928L49.95 34.987ZM56.667 34.986C57.087 33.3 57.507 31.614 57.507 29.928V23.184C57.507 21.076 57.507 18.968 57.087 17.282C56.667 14.753 55.827 12.646 54.567 10.538C54.148 9.69498 53.728 8.85198 52.889 8.00798C54.149 8.42998 54.149 8.85198 54.568 9.27298C54.988 10.116 55.408 10.96 55.828 11.381C57.086 13.489 57.506 15.596 57.926 18.125C58.346 19.811 58.346 21.919 57.926 23.605V26.134C57.926 27.399 57.507 28.664 57.507 29.928C57.507 32.036 57.087 33.3 56.667 34.986Z" fill="#A4F6FF" fill-opacity="0.525"/>
<path d="M40.7161 73.3452C39.0371 72.5022 36.5191 72.0812 33.5801 72.0812C31.0621 72.0812 28.5431 72.5022 27.2841 73.3452C28.5441 72.0812 31.0621 71.6592 33.5801 71.6592C36.0991 71.6592 39.0371 72.0812 40.7161 73.3452Z" fill="url(#paint25_linear_9020_272)"/>
<path d="M34 76.2958C32.32 76.2958 30.642 76.2958 29.802 75.8738C28.543 75.4528 27.704 75.4528 27.704 74.6098C27.704 74.1878 28.544 73.7668 29.802 73.3448C31.062 72.9238 32.321 72.9238 34 72.9238C35.679 72.9238 37.358 72.9238 38.197 73.3448C39.457 73.7668 40.297 73.7668 40.297 74.6098C40.297 75.0308 39.457 75.4528 38.197 75.8738C37.357 76.2958 35.679 76.2958 34 76.2958ZM34 75.8738C35.679 75.8738 37.358 75.8738 38.197 75.4528C38.617 75.4528 39.037 75.0308 39.457 75.0308C39.877 75.0308 39.877 74.6098 39.877 74.6098C39.877 74.6098 39.877 74.1878 39.457 74.1878C39.037 74.1878 38.617 73.7668 38.197 73.7668C36.938 73.3448 35.679 73.3448 34 73.3448C32.32 73.3448 30.642 73.3448 29.802 73.7668C29.382 73.7668 28.962 74.1878 28.543 74.1878C28.123 74.1878 28.123 74.6098 28.123 74.6098C28.123 74.6098 28.123 75.0308 28.543 75.0308C28.963 75.0308 29.383 75.4528 29.803 75.4528C30.642 75.8738 32.321 75.8738 34 75.8738Z" fill="url(#paint26_linear_9020_272)"/>
<path d="M1.67895 26.5559C1.25895 26.5559 0.838945 26.5559 0.418945 26.1339C1.25895 26.5559 1.67895 26.9769 2.09895 26.5559C2.93895 25.7129 3.77795 24.4479 4.19695 23.1839C6.29695 24.8699 7.97495 24.0269 9.65395 21.0759C12.5919 23.1839 14.6909 21.9189 16.3699 19.3899C18.8889 22.3399 21.8269 21.0759 25.1849 18.5469C27.7039 20.2329 30.6419 20.6539 33.1599 18.5469C36.5179 20.6539 39.8769 21.0759 42.8149 18.9679C46.1729 21.0759 48.6909 21.0759 51.6299 19.8109C53.7279 21.9189 56.2469 22.7619 58.3459 21.4969C60.4439 24.0269 62.1229 25.2909 63.8019 23.6049C64.6419 26.1349 65.9019 26.9769 67.5799 25.7129C65.9009 26.9769 64.6419 26.1339 63.8019 24.0269V23.6049H63.3819C61.7039 24.8699 60.0249 23.6049 58.3459 21.4969L57.9259 21.0759H57.5059C55.8269 21.9189 53.7279 21.4969 52.0489 19.8109L51.2089 18.9679H50.7899C48.6909 21.4979 46.1729 21.0759 43.6539 19.3899L43.2339 18.9679L42.8139 19.3899C39.8759 20.6539 36.9379 20.2329 33.9999 18.5469H33.1599C30.6419 20.2329 28.1229 20.2329 26.0249 18.5469H25.1849L24.7649 18.9679C21.8269 21.4979 19.3089 22.3409 16.7899 20.2329L16.3699 19.8109L15.9499 20.2329C14.6909 22.3409 12.5929 23.1829 10.0739 21.4969L9.65395 21.0759V21.4969C7.97495 24.0269 6.29595 25.2909 4.61695 23.6049C4.00581 24.5179 3.30245 25.3657 2.51795 26.1349C2.09795 26.5549 2.09795 26.5549 1.67795 26.5549L1.67895 26.5559Z" fill="white" fill-opacity="0.545"/>
<path d="M27.704 85.5702C15.11 73.7662 5.457 52.6902 4.198 22.7612H4.618C5.457 53.1112 15.111 73.7662 27.704 85.5682V85.5702Z" fill="url(#paint27_linear_9020_272)"/>
<path d="M40.296 85.1479C53.31 73.3449 62.963 53.1119 64.222 24.0269H63.802C62.543 53.1119 52.889 73.3459 40.296 85.1479Z" fill="url(#paint28_linear_9020_272)"/>
<path d="M38.6169 87.2559C46.5929 69.9729 50.3699 46.7889 51.2099 20.2329H51.6299C50.7899 46.7889 47.0119 69.9729 38.6169 87.2559Z" fill="url(#paint29_linear_9020_272)"/>
<path d="M40.2961 84.7271H27.7041L27.2841 90.2071C27.2841 91.0491 27.7041 92.7361 28.9631 93.1571C32.3211 94.0001 35.6791 94.0001 39.4571 93.1571C40.2971 92.7361 41.1361 91.4711 41.1361 90.6271L40.2961 84.7271Z" fill="url(#paint30_linear_9020_272)"/>
<path d="M34.84 93.9999V85.1479H40.296L41.136 91.049C41.136 91.892 40.716 93.5789 39.456 93.5789C38.199 93.9999 36.939 93.9999 35.68 93.9999H34.84Z" fill="url(#paint31_linear_9020_272)"/>
<path d="M34 94.0002H32.74V93.5792L32.32 93.1572V93.5792L32.74 94.0002H31.901V93.5792H31.061L30.641 93.1572H30.222L28.962 92.7362V93.1572H28.543V92.3142L28.123 91.8932V88.5202L28.543 88.9422V88.5202L28.123 88.0992V87.6772L28.543 87.2562L28.123 86.8342V86.4132L28.543 86.8342V86.4132L28.123 85.5702L28.543 85.9912L28.963 85.5702L28.543 85.1482V85.5702L28.963 85.1482H29.383L28.963 85.9912H29.383V85.5702L28.963 85.1482V85.5702L29.383 85.1482H29.803V85.5702L30.223 85.1482H30.642L30.222 85.5702L30.642 85.9912V85.5702L31.062 85.1482H31.902L31.482 85.5702L31.902 85.9912V85.5702L32.321 85.1482H35.26L35.679 85.5702L36.099 85.1482H37.778V84.7272H38.198L38.618 85.1482V84.3052H39.457V84.7272L39.877 84.3052H40.297L40.716 84.7272L41.136 84.3052V85.5702L41.556 85.9912V87.6772L41.136 87.2562V87.6772L40.716 88.5202V88.1002V88.9432L41.136 89.3652V90.2082L40.716 90.6292L41.136 91.0512C41.136 91.4722 40.716 92.3152 40.296 92.3152V91.8942L39.876 91.4722V91.8942L40.296 92.3152L39.456 92.7372L39.036 93.1582H38.197L37.777 92.7372V93.5802H37.357V93.1582L36.938 92.7372V93.1582L37.358 93.5802H36.938V93.1582L36.518 93.5802H35.678V93.1582L35.259 92.7372V93.1582L35.678 93.5802H34.839L34 94.0002ZM34.839 93.1572V92.3142L34.419 92.7362L34.839 93.1572ZM36.099 93.1572L36.519 92.7362L36.099 92.3142L35.679 92.7362L36.099 93.1572ZM37.358 93.1572L37.778 92.7362L37.358 92.3142V93.1572ZM39.037 92.7362L39.457 92.3142L39.037 91.8932L38.617 92.3142L39.037 92.7362ZM40.296 92.3152V91.4712L39.876 91.8942L40.296 92.3152ZM34 92.3142V91.4712L33.58 91.8932L34 92.3142ZM35.26 92.3142L35.679 91.8932L35.259 91.4712L34.839 91.8932L35.26 92.3142ZM32.32 92.3142V91.4712L31.901 91.8932L32.32 92.3142ZM36.938 92.3142L37.358 91.8932L36.938 91.4712L36.518 91.8932L36.938 92.3142ZM38.197 91.8932L38.617 91.4712L38.197 91.0502L37.778 91.4712L38.197 91.8932ZM39.457 91.4712V90.6282L39.037 91.0502L39.457 91.4712ZM34.839 91.0502L35.259 90.6282L34.839 90.2072L34.419 90.6282L34.839 91.0502ZM33.16 91.0502V90.2072L32.74 90.6282L33.16 91.0502ZM36.099 91.0502L36.519 90.6282L36.099 90.2072L35.679 90.6282L36.099 91.0502ZM31.901 91.0502V90.2072L31.481 90.6282L31.901 91.0502ZM37.778 91.0502V89.7852L37.358 90.2072L37.778 91.0502ZM39.037 90.6282V89.7852L38.617 90.2072L39.037 90.6282ZM34.419 90.6282L34.839 90.2072L34.42 89.7852L34.419 90.6282ZM40.296 90.6282V89.7852L39.877 90.2072L40.296 90.6282ZM34 89.7852L34.42 89.3642L34 88.9422L33.58 89.3642L34 89.7852ZM35.679 89.7852L36.099 89.3642L35.679 88.9422L35.259 89.3642L35.679 89.7852ZM32.321 89.7852V88.9422L31.901 89.3642L32.321 89.7852ZM36.938 89.7852L37.358 89.3642L36.938 88.9422L36.518 89.3642L36.938 89.7852ZM31.062 89.7852V88.9422L30.642 89.3642L31.062 89.7852ZM38.617 89.7852V88.9422L38.197 89.3642L38.617 89.7852ZM39.877 89.7852V88.9422L39.457 89.3642L39.877 89.7852ZM35.679 89.3642V88.5202L35.259 88.9422L35.679 89.3642ZM34.84 89.3642L35.259 88.9422L35.26 88.5202L34.84 89.3642ZM29.802 88.9422V88.0992L29.382 88.5202L29.802 88.9422ZM33.16 88.9422L33.58 88.0992L33.16 87.6772L32.741 88.5202L33.16 88.9422ZM36.099 88.9422L36.519 88.5202L36.099 88.0992V88.9422ZM34.839 88.5202L35.259 88.0992L34.839 87.6772L34.419 88.0992L34.839 88.5202ZM31.481 88.5202V87.6772L31.061 88.0992L31.481 88.5202ZM37.778 88.5202V87.6772L37.358 88.0992L37.778 88.5202ZM30.222 88.5202V87.6772L29.802 88.0992L30.222 88.5202ZM39.037 88.5202V87.6772L38.617 88.0992L39.037 88.5202ZM32.741 88.0992L33.16 87.6772L32.741 87.2562V88.0992ZM35.679 88.0992L36.099 87.6772L35.679 87.2562V88.0992ZM34.419 88.0992L34.839 87.6772L34.84 87.2562L34.419 88.0992ZM34 87.6772L34.42 87.2562L34 86.8342L33.58 87.2562L34 87.6772ZM35.26 87.6772L35.679 87.2562L35.259 86.8342L34.84 87.2562L35.26 87.6772ZM32.32 87.6772L32.741 87.2562L32.32 86.8342L31.901 87.2562L32.32 87.6772ZM36.938 87.6772V86.8342L36.518 87.2562L36.938 87.6772ZM28.123 87.6772V86.8342L27.703 87.2562L28.123 87.6772ZM29.383 87.6772V86.8342L28.963 87.2562L29.383 87.6772ZM31.062 87.6772V86.8342L30.642 87.2562L31.062 87.6772ZM38.617 87.6772V86.8342L38.197 87.2562L38.617 87.6772ZM34.84 86.8342L35.26 86.4132V85.9912L34.84 86.8342ZM31.901 86.8342L32.321 86.4132V85.9912L31.901 86.8342ZM28.963 86.4132V85.5702L28.543 85.9912L28.963 86.4132ZM30.223 86.4132L30.222 85.5702L29.802 85.9912L30.223 86.4132ZM31.481 86.4132L31.901 85.9912L31.482 85.5702L31.062 85.9912L31.481 86.4132ZM37.778 86.4132V85.5702L37.358 85.9912L37.778 86.4132ZM34.839 86.4132L35.26 85.9912L34.839 85.5702L34.42 85.9912L34.839 86.4132ZM33.16 86.4132L33.58 85.9912L33.16 85.5702L32.741 85.9912L33.16 86.4132ZM36.099 86.4132V85.5702L35.679 85.9912L36.099 86.4132ZM34.42 85.5702L34.84 85.1482L34.42 84.7272V85.5702ZM32.74 85.5702L33.16 85.1482V84.7272L32.74 85.5702Z" fill="white" fill-opacity="0.263"/>
<path d="M34 86.4118C37.358 86.4118 40.296 85.5688 40.296 85.1478C40.296 84.7258 37.358 83.8828 34 83.8828C30.642 83.8828 27.704 84.7258 27.704 85.1478C27.704 85.5688 30.642 86.4118 34 86.4118Z" fill="url(#paint32_linear_9020_272)"/>
<path d="M34 83.4619C32.32 83.4619 30.642 83.4619 29.802 83.8829C28.543 84.3049 27.704 84.3049 27.704 85.1479C27.704 85.5699 28.544 85.9909 29.802 86.4129C31.062 86.8339 32.321 86.8339 34 86.8339C35.679 86.8339 37.358 86.8339 38.197 86.4129C39.457 85.9909 40.297 85.9909 40.297 85.1479C40.297 84.7269 39.457 84.3049 38.197 83.8829C37.357 83.4619 35.679 83.4619 34 83.4619ZM34 83.4619C35.679 83.4619 37.357 83.4619 38.197 83.8829C38.617 83.8829 39.037 84.3049 39.457 84.3049C39.877 84.3049 39.877 84.7259 39.877 84.7259C39.877 84.7259 39.877 85.1479 39.457 85.1479C39.037 85.1479 38.617 85.5699 38.197 85.5699C36.938 85.9909 35.679 85.9909 34 85.9909C32.32 85.9909 30.642 85.9909 29.802 85.5699C29.382 85.5699 28.962 85.1479 28.543 85.1479C28.123 85.1479 28.123 84.7269 28.123 84.7269C28.123 84.7269 28.123 84.3049 28.543 84.3049C28.963 84.3049 29.382 83.8829 29.802 83.8829C30.641 83.8829 32.321 83.4619 34 83.4619Z" fill="url(#paint33_linear_9020_272)"/>
<path d="M28.123 85.1482C28.963 81.7762 28.543 78.4032 27.703 75.0312H28.123C28.963 77.9812 28.963 81.3542 28.123 85.1482ZM39.877 85.1482C39.037 81.7762 39.457 77.9822 40.297 74.6102H39.877C39.457 77.9822 39.037 81.7762 39.877 85.1482ZM30.222 85.9902C31.062 81.7762 30.642 77.9822 29.802 73.7672H30.222C30.642 77.9822 31.062 81.7752 30.222 85.9902ZM38.198 85.9902C37.358 81.7762 37.778 77.9822 38.618 73.7672H38.198C37.358 77.9822 36.938 81.7752 38.198 85.9902ZM32.32 85.9912C33.16 81.7762 32.74 77.5612 31.901 73.3452H32.321C32.741 77.5612 33.16 81.7752 32.32 85.9912Z" fill="#B2B2B2"/>
<path d="M28.123 85.5698C26.864 87.6768 26.864 88.9418 28.123 89.3628C29.383 88.9418 28.963 86.8338 28.123 85.5698Z" fill="url(#paint34_linear_9020_272)"/>
<path d="M28.123 85.5701L27.703 85.1481L28.123 84.7271H28.543L28.123 85.5701Z" fill="url(#paint35_linear_9020_272)"/>
<path d="M28.9626 85.9912C27.7026 88.0992 27.7026 89.3632 28.9626 89.7852C30.2226 88.9422 29.8026 86.8352 28.9626 85.9912Z" fill="url(#paint36_linear_9020_272)"/>
<path d="M28.963 85.9909L28.543 85.5699L28.963 85.1479H29.383L28.963 85.9909Z" fill="url(#paint37_linear_9020_272)"/>
<path d="M40.296 85.1479C41.556 87.2559 41.556 88.5199 40.296 88.9419C39.037 88.5199 39.456 86.4119 40.296 85.1479Z" fill="url(#paint38_linear_9020_272)"/>
<path d="M40.296 85.1482L40.716 84.7272L40.296 84.3052H39.876L40.296 85.1482Z" fill="url(#paint39_linear_9020_272)"/>
<path d="M39.037 85.5698C40.297 87.6768 40.297 88.9418 39.037 89.3628C38.197 88.9418 38.197 86.8338 39.037 85.5698Z" fill="url(#paint40_linear_9020_272)"/>
<path d="M39.0369 85.5701L39.4569 85.1481L39.0369 84.7271H38.6169L39.0369 85.5701Z" fill="url(#paint41_linear_9020_272)"/>
<path d="M16.37 20.655V19.812C16.37 13.91 18.05 9.274 20.568 5.48H20.988C16.79 5.48 13.432 10.96 10.494 18.547L9.65399 20.233V18.97C10.074 14.754 11.754 10.96 14.691 8.01L15.111 7.588H13.851C10.494 8.431 7.55599 12.647 5.45699 18.548L5.03699 19.813C6.29699 14.333 9.23499 9.275 15.111 4.638C16.791 3.373 18.049 2.952 19.728 2.952H20.148C21.828 1.687 23.506 1.266 24.765 1.687H25.185C26.445 0.844 27.704 0.844 29.383 1.266L29.803 0.844C31.061 0 32.32 0 33.16 0L34 0.422H33.58C30.221 2.108 27.283 7.166 25.604 13.91L25.184 15.596V15.175C25.604 11.803 26.024 8.43 27.283 5.901L27.703 4.215H26.863C23.086 5.901 18.468 11.803 16.369 20.655H16.37Z" fill="white" fill-opacity="0.318"/>
<path d="M34 79.2468H30.222C29.382 79.2468 28.543 78.8248 28.543 78.8248C28.543 78.8248 29.383 78.4038 30.223 78.4038H37.778C38.618 78.4038 39.457 78.8248 39.457 78.8248C39.457 78.8248 38.617 79.2468 37.777 79.2468H34Z" fill="#999999"/>
<defs>
<linearGradient id="paint0_linear_9020_272" x1="29.932" y1="34.837" x2="13.51" y2="36.379" gradientUnits="userSpaceOnUse">
<stop stop-color="#008DBC"/>
<stop offset="1" stop-color="#5AF0FF"/>
</linearGradient>
<linearGradient id="paint1_linear_9020_272" x1="8.89501" y1="36.7331" x2="13.466" y2="36.3321" gradientUnits="userSpaceOnUse">
<stop stop-color="#0041FF"/>
<stop offset="1" stop-color="#A4F6FF"/>
</linearGradient>
<linearGradient id="paint2_linear_9020_272" x1="24.8115" y1="35.8592" x2="9.31253" y2="37.9462" gradientUnits="userSpaceOnUse">
<stop stop-color="#008DBC"/>
<stop offset="1" stop-color="#5AF0FF"/>
</linearGradient>
<linearGradient id="paint3_linear_9020_272" x1="29.4035" y1="37.22" x2="5.83453" y2="37.998" gradientUnits="userSpaceOnUse">
<stop stop-color="#008DBC"/>
<stop offset="1" stop-color="#5AF0FF"/>
</linearGradient>
<linearGradient id="paint4_linear_9020_272" x1="42.885" y1="34.2599" x2="26.486" y2="34.2599" gradientUnits="userSpaceOnUse">
<stop stop-color="#008DBC"/>
<stop offset="1" stop-color="#5AF0FF"/>
</linearGradient>
<linearGradient id="paint5_linear_9020_272" x1="37.8685" y1="34.117" x2="19.5635" y2="35.274" gradientUnits="userSpaceOnUse">
<stop stop-color="#008DBC"/>
<stop offset="1" stop-color="#5AF0FF"/>
</linearGradient>
<linearGradient id="paint6_linear_9020_272" x1="47.335" y1="35.1879" x2="32.564" y2="34.0219" gradientUnits="userSpaceOnUse">
<stop stop-color="#008DBC"/>
<stop offset="1" stop-color="#5AF0FF"/>
</linearGradient>
<linearGradient id="paint7_linear_9020_272" x1="51.7955" y1="36.913" x2="38.4975" y2="34.564" gradientUnits="userSpaceOnUse">
<stop stop-color="#008DBC"/>
<stop offset="1" stop-color="#5AF0FF"/>
</linearGradient>
<linearGradient id="paint8_linear_9020_272" x1="59.544" y1="39.153" x2="41.058" y2="34.846" gradientUnits="userSpaceOnUse">
<stop stop-color="#008DBC"/>
<stop offset="1" stop-color="#5AF0FF"/>
</linearGradient>
<linearGradient id="paint9_linear_9020_272" x1="70.315" y1="41.9242" x2="43.253" y2="35.6472" gradientUnits="userSpaceOnUse">
<stop stop-color="#008DBC"/>
<stop offset="1" stop-color="#5AF0FF"/>
</linearGradient>
<linearGradient id="paint10_linear_9020_272" x1="79.4169" y1="44.387" x2="44.7149" y2="36.801" gradientUnits="userSpaceOnUse">
<stop stop-color="#008DBC"/>
<stop offset="1" stop-color="#5AF0FF"/>
</linearGradient>
<linearGradient id="paint11_linear_9020_272" x1="46.2426" y1="72.4431" x2="33.0256" y2="71.5631" gradientUnits="userSpaceOnUse">
<stop stop-color="#996600"/>
<stop offset="1" stop-color="#F5C748"/>
</linearGradient>
<linearGradient id="paint12_linear_9020_272" x1="22.0045" y1="73.583" x2="30.2445" y2="71.91" gradientUnits="userSpaceOnUse">
<stop stop-color="#996600"/>
<stop offset="1" stop-color="#F5C748"/>
</linearGradient>
<linearGradient id="paint13_linear_9020_272" x1="34.029" y1="77.5032" x2="34.029" y2="72.3092" gradientUnits="userSpaceOnUse">
<stop stop-color="#F5C748"/>
<stop offset="1" stop-color="#996600"/>
</linearGradient>
<linearGradient id="paint14_linear_9020_272" x1="15.9139" y1="34.4721" x2="18.3989" y2="34.5391" gradientUnits="userSpaceOnUse">
<stop stop-color="#0041FF"/>
<stop offset="1" stop-color="#A4F6FF"/>
</linearGradient>
<linearGradient id="paint15_linear_9020_272" x1="32.9956" y1="32.831" x2="40.4356" y2="32.914" gradientUnits="userSpaceOnUse">
<stop stop-color="#A4F6FF"/>
<stop offset="1" stop-color="#008DBC"/>
</linearGradient>
<linearGradient id="paint16_linear_9020_272" x1="38.514" y1="33.259" x2="48.079" y2="33.932" gradientUnits="userSpaceOnUse">
<stop stop-color="#A4F6FF"/>
<stop offset="1" stop-color="#008DBC"/>
</linearGradient>
<linearGradient id="paint17_linear_9020_272" x1="43.313" y1="33.0399" x2="54.986" y2="34.1389" gradientUnits="userSpaceOnUse">
<stop stop-color="#A4F6FF"/>
<stop offset="1" stop-color="#008DBC"/>
</linearGradient>
<linearGradient id="paint18_linear_9020_272" x1="49.35" y1="31.6652" x2="60.984" y2="32.9332" gradientUnits="userSpaceOnUse">
<stop stop-color="#A4F6FF"/>
<stop offset="1" stop-color="#008DBC"/>
</linearGradient>
<linearGradient id="paint19_linear_9020_272" x1="29.41" y1="32.6639" x2="26.523" y2="32.5299" gradientUnits="userSpaceOnUse">
<stop stop-color="#5AF0FF"/>
<stop offset="1" stop-color="#A4F6FF"/>
</linearGradient>
<linearGradient id="paint20_linear_9020_272" x1="21.3259" y1="34.3248" x2="19.4449" y2="34.4638" gradientUnits="userSpaceOnUse">
<stop stop-color="#5AF0FF"/>
<stop offset="1" stop-color="#A4F6FF"/>
</linearGradient>
<linearGradient id="paint21_linear_9020_272" x1="15.0956" y1="34.0231" x2="13.3036" y2="34.1401" gradientUnits="userSpaceOnUse">
<stop stop-color="#5AF0FF"/>
<stop offset="1" stop-color="#A4F6FF"/>
</linearGradient>
<linearGradient id="paint22_linear_9020_272" x1="9.36295" y1="35.1631" x2="7.57495" y2="35.2891" gradientUnits="userSpaceOnUse">
<stop stop-color="#5AF0FF"/>
<stop offset="1" stop-color="#A4F6FF"/>
</linearGradient>
<linearGradient id="paint23_linear_9020_272" x1="53.4504" y1="51.2908" x2="49.8624" y2="58.6938" gradientUnits="userSpaceOnUse">
<stop stop-color="#0041FF"/>
<stop offset="1" stop-color="#A4F6FF"/>
</linearGradient>
<linearGradient id="paint24_linear_9020_272" x1="51.913" y1="46.4582" x2="46.783" y2="56.7562" gradientUnits="userSpaceOnUse">
<stop stop-color="#0041FF"/>
<stop offset="1" stop-color="#A4F6FF"/>
</linearGradient>
<linearGradient id="paint25_linear_9020_272" x1="18.7361" y1="72.6992" x2="39.5441" y2="72.4942" gradientUnits="userSpaceOnUse">
<stop stop-color="white"/>
<stop offset="1" stop-color="#F5C748"/>
</linearGradient>
<linearGradient id="paint26_linear_9020_272" x1="24.145" y1="74.6598" x2="37.174" y2="74.7518" gradientUnits="userSpaceOnUse">
<stop stop-color="white"/>
<stop offset="1" stop-color="#F5C748"/>
</linearGradient>
<linearGradient id="paint27_linear_9020_272" x1="16.287" y1="18.4132" x2="16.039" y2="57.5452" gradientUnits="userSpaceOnUse">
<stop stop-color="white"/>
<stop offset="1" stop-color="#CCCCCC"/>
</linearGradient>
<linearGradient id="paint28_linear_9020_272" x1="52.29" y1="19.1909" x2="52.532" y2="57.4779" gradientUnits="userSpaceOnUse">
<stop stop-color="white"/>
<stop offset="1" stop-color="#CCCCCC"/>
</linearGradient>
<linearGradient id="paint29_linear_9020_272" x1="45.1349" y1="15.0539" x2="45.6689" y2="56.9189" gradientUnits="userSpaceOnUse">
<stop stop-color="white"/>
<stop offset="1" stop-color="#CCCCCC"/>
</linearGradient>
<linearGradient id="paint30_linear_9020_272" x1="27.4451" y1="89.1881" x2="30.5981" y2="89.2511" gradientUnits="userSpaceOnUse">
<stop stop-color="#F5C748"/>
<stop offset="1" stop-color="#996600"/>
</linearGradient>
<linearGradient id="paint31_linear_9020_272" x1="42.059" y1="88.3939" x2="37.493" y2="89.0299" gradientUnits="userSpaceOnUse">
<stop stop-color="#F5C748"/>
<stop offset="1" stop-color="#996600"/>
</linearGradient>
<linearGradient id="paint32_linear_9020_272" x1="34.029" y1="82.0998" x2="34.029" y2="87.2958" gradientUnits="userSpaceOnUse">
<stop stop-color="#F5C748"/>
<stop offset="1" stop-color="#996600"/>
</linearGradient>
<linearGradient id="paint33_linear_9020_272" x1="24.142" y1="84.9449" x2="37.173" y2="84.8449" gradientUnits="userSpaceOnUse">
<stop stop-color="white"/>
<stop offset="1" stop-color="#F5C748"/>
</linearGradient>
<linearGradient id="paint34_linear_9020_272" x1="26.735" y1="87.1348" x2="28.641" y2="87.4358" gradientUnits="userSpaceOnUse">
<stop stop-color="white"/>
<stop offset="1" stop-color="#7F7F7F"/>
</linearGradient>
<linearGradient id="paint35_linear_9020_272" x1="27.667" y1="85.1891" x2="28.355" y2="85.3391" gradientUnits="userSpaceOnUse">
<stop stop-color="white"/>
<stop offset="1" stop-color="#999999"/>
</linearGradient>
<linearGradient id="paint36_linear_9020_272" x1="27.6566" y1="87.3742" x2="29.5676" y2="87.6752" gradientUnits="userSpaceOnUse">
<stop stop-color="white"/>
<stop offset="1" stop-color="#7F7F7F"/>
</linearGradient>
<linearGradient id="paint37_linear_9020_272" x1="28.588" y1="85.4319" x2="29.279" y2="85.5819" gradientUnits="userSpaceOnUse">
<stop stop-color="white"/>
<stop offset="1" stop-color="#999999"/>
</linearGradient>
<linearGradient id="paint38_linear_9020_272" x1="38.459" y1="85.0469" x2="40.988" y2="88.3049" gradientUnits="userSpaceOnUse">
<stop stop-color="white"/>
<stop offset="1" stop-color="#7F7F7F"/>
</linearGradient>
<linearGradient id="paint39_linear_9020_272" x1="40.569" y1="84.9212" x2="39.877" y2="85.0792" gradientUnits="userSpaceOnUse">
<stop stop-color="white"/>
<stop offset="1" stop-color="#999999"/>
</linearGradient>
<linearGradient id="paint40_linear_9020_272" x1="36.242" y1="85.8538" x2="40.275" y2="87.8238" gradientUnits="userSpaceOnUse">
<stop stop-color="white"/>
<stop offset="1" stop-color="#7F7F7F"/>
</linearGradient>
<linearGradient id="paint41_linear_9020_272" x1="39.6409" y1="85.1571" x2="38.9579" y2="85.3031" gradientUnits="userSpaceOnUse">
<stop stop-color="white"/>
<stop offset="1" stop-color="#999999"/>
</linearGradient>
</defs>
</svg>
