<svg width="37" height="20" viewBox="0 0 37 20" fill="none" xmlns="http://www.w3.org/2000/svg">
<path d="M37 10C37 15.5228 32.5228 20 27 20C21.4772 20 17 15.5228 17 10C17 4.47715 21.4772 0 27 0C32.5228 0 37 4.47715 37 10ZM19.5 10C19.5 14.1421 22.8579 17.5 27 17.5C31.1421 17.5 34.5 14.1421 34.5 10C34.5 5.85786 31.1421 2.5 27 2.5C22.8579 2.5 19.5 5.85786 19.5 10Z" fill="#00BBAE"/>
<path d="M10 15C10 17.7614 7.76142 20 5 20C2.23858 20 0 17.7614 0 15C0 12.2386 2.23858 10 5 10C7.76142 10 10 12.2386 10 15ZM1.5 15C1.5 16.933 3.067 18.5 5 18.5C6.933 18.5 8.5 16.933 8.5 15C8.5 13.067 6.933 11.5 5 11.5C3.067 11.5 1.5 13.067 1.5 15Z" fill="#00BBAE"/>
<path d="M6.99999 15C6.99999 15.3226 6.92195 15.6404 6.77252 15.9264C6.62309 16.2123 6.40671 16.4578 6.14185 16.642C5.87698 16.8262 5.57149 16.9436 5.25144 16.9841C4.93139 17.0247 4.60627 16.9872 4.30383 16.8749L4.51268 16.3125C4.72439 16.3911 4.95197 16.4173 5.17601 16.3889C5.40004 16.3605 5.61389 16.2783 5.79929 16.1494C5.9847 16.0205 6.13616 15.8486 6.24076 15.6485C6.34536 15.4483 6.39999 15.2258 6.39999 15H6.99999Z" fill="#00BBAE"/>
<path d="M32 10C32 10.6566 31.8707 11.3068 31.6194 11.9134C31.3681 12.52 30.9998 13.0712 30.5355 13.5355C30.0712 13.9998 29.52 14.3681 28.9134 14.6194C28.3068 14.8707 27.6566 15 27 15V13.5C27.4596 13.5 27.9148 13.4095 28.3394 13.2336C28.764 13.0577 29.1499 12.7999 29.4749 12.4749C29.7999 12.1499 30.0577 11.764 30.2336 11.3394C30.4095 10.9148 30.5 10.4596 30.5 10H32Z" fill="#00BBAE"/>
</svg>
